<svg class="railroad" viewBox="0 0 625 855" width="500pt" xmlns="http://www.w3.org/2000/svg" xmlns:xlink="http://www.w3.org/1999/xlink">
<style type="text/css">
svg.railroad {
background-color: hsl(30, 20%, 95%);
background-size: 15px 15px;
background-image: linear-gradient(to right, rgba(30, 30, 30, .05) 1px, transparent 1px),
		  linear-gradient(to bottom, rgba(30, 30, 30, .05) 1px, transparent 1px);
}

svg.railroad rect.railroad_canvas {
stroke-width: 0px;
fill: none;
}

svg.railroad path {
stroke-width: 3px;
stroke: black;
fill: none;
}

svg.railroad .debug {
stroke-width: 1px;
stroke: red;
}

svg.railroad text {
font: 14px monospace;
text-anchor: middle;
}

svg.railroad .nonterminal text {
font-weight: bold;
}

svg.railroad text.comment {
font: italic 12px monospace;
}

svg.railroad rect {
stroke-width: 3px;
stroke: black;
fill:hsl(-290, 70%, 90%);
}

svg.railroad g.labeledbox > rect {
stroke-width: 1px;
stroke: grey;
stroke-dasharray: 5px;
fill:rgba(90, 90, 150, .1);
}
</style>
<rect class="railroad_canvas" height="100%" width="100%"/>
<g class="verticalgrid">
<g class="horizontalgrid">
<g class="nonterminal">
<rect height="22" width="84" x="10" y="10"/>
<text x="52" y="26">
messages</text>
</g>
</g>
<g class="sequence">
<path d=" M 10 95 l 5 5 l -5 5 m 5 -5 h 5"/>
<g class="sequence">
<g class="repeat">
<path d=" M 30 100 h 12 m 309 0 h 12 m -12 0 a 12 12 0 0 1 12 12 v 72 m 0 -33 l -5 -5 m 10 0 l -5 5 m 0 33 a 12 12 0 0 1 -12 12 m 0 0 h -309 m 157 0 l 5 -5 m 0 10 l -5 -5 m -157 0 a 12 12 0 0 1 -12 -12 v -72 m 0 39 l -5 5 m 10 0 l -5 -5 m 0 -39 a 12 12 0 0 1 12 -12"/>
<g/>
<g class="sequence">
<g class="nonterminal">
<rect height="22" width="76" x="42" y="89"/>
<text x="80" y="105">
message</text>
</g>
<g class="labeledbox">
<rect height="142" width="159" x="128" y="44"/>
<path d=" M 128 100 h 8 m 102 0 h 49"/>
<g>
<text class="comment" x="207" y="67">
ignore on reception</text>
<text class="comment" x="207" y="87">
do not send!</text>
</g>
<g class="choice">
<path d=" M 136 100 h 24 m 0 0 h 78 m -36 0 l -5 -5 m 0 10 l 5 -5 m 36 0"/>
<g/>
<path d=" M 136 100 a 12 12 0 0 1 12 12 v 0 m 78 0 v 0 a 12 12 0 0 1 12 -12"/>
<path d=" M 148 112 v 35 a 12 12 0 0 0 12 12 m 54 0 h 0 a 12 12 0 0 0 12 -12 v -35"/>
<g class="labeledbox">
<rect height="66" width="54" x="160" y="112"/>
<path d=" M 160 159 h 8 m 36 0 h 10"/>
<g>
<text class="comment" x="187" y="135">
\x0D</text>
</g>
<g class="nonterminal">
<rect height="22" width="36" x="168" y="148"/>
<text x="186" y="164">
CR</text>
</g>
</g>
</g>
</g>
<g class="labeledbox">
<rect height="66" width="54" x="297" y="53"/>
<path d=" M 297 100 h 8 m 36 0 h 10"/>
<g>
<text class="comment" x="324" y="76">
\x0A</text>
</g>
<g class="nonterminal">
<rect height="22" width="36" x="305" y="89"/>
<text x="323" y="105">
LF</text>
</g>
</g>
<path d=" M 118 100 h 10"/>
<path d=" M 287 100 h 10"/>
</g>
</g>
</g>
<path d=" M 373 100 h 5 m -5 5 l 5 -5 l -5 -5 m 5 5"/>
<path d=" M 20 100 h 10"/>
<path d=" M 363 100 h 10"/>
</g>
<g/>
<g/>
<g/>
<g class="horizontalgrid">
<g class="nonterminal">
<rect height="22" width="76" x="10" y="244"/>
<text x="48" y="260">
message</text>
</g>
</g>
<g class="sequence">
<path d=" M 10 344 l 5 5 l -5 5 m 5 -5 h 5"/>
<g class="sequence">
<g class="labeledbox">
<rect height="66" width="89" x="30" y="302"/>
<path d=" M 30 349 h 8 m 68 0 h 13"/>
<g>
<text class="comment" x="74" y="325">
No space!</text>
</g>
<g class="nonterminal">
<rect height="22" width="68" x="38" y="338"/>
<text x="72" y="354">
action</text>
</g>
</g>
<g class="optional">
<path d=" M 129 349 h 24 m -24 0 a 12 12 0 0 0 12 -12 v -47 a 12 12 0 0 1 12 -12 h 418 m -206 0 l -5 -5 m 0 10 l 5 -5 m 206 0 a 12 12 0 0 1 12 12 v 47 a 12 12 0 0 0 12 12 h -24"/>
<g class="sequence">
<g class="labeledbox">
<rect height="66" width="68" x="153" y="302"/>
<path d=" M 153 349 h 8 m 52 0 h 8"/>
<g>
<text class="comment" x="183" y="325">
SPACE</text>
</g>
<g class="terminal">
<rect height="22" rx="10" ry="10" width="52" x="161" y="338"/>
<text x="187" y="354">
\x20</text>
</g>
</g>
<g class="labeledbox">
<rect height="66" width="108" x="231" y="302"/>
<path d=" M 231 349 h 8 m 92 0 h 8"/>
<g>
<text class="comment" x="275" y="325">
No space!</text>
</g>
<g class="nonterminal">
<rect height="22" width="92" x="239" y="338"/>
<text x="285" y="354">
specifier</text>
</g>
</g>
<g class="optional">
<path d=" M 349 349 h 24 m -24 0 a 12 12 0 0 0 12 -12 v -35 a 12 12 0 0 1 12 -12 h 174 m -84 0 l -5 -5 m 0 10 l 5 -5 m 84 0 a 12 12 0 0 1 12 12 v 35 a 12 12 0 0 0 12 12 h -24"/>
<g class="sequence">
<g class="labeledbox">
<rect height="66" width="68" x="373" y="302"/>
<path d=" M 373 349 h 8 m 52 0 h 8"/>
<g>
<text class="comment" x="403" y="325">
SPACE</text>
</g>
<g class="terminal">
<rect height="22" rx="10" ry="10" width="52" x="381" y="338"/>
<text x="407" y="354">
\x20</text>
</g>
</g>
<g class="labeledbox">
<rect height="66" width="96" x="451" y="302"/>
<path d=" M 451 349 h 8 m 52 0 h 36"/>
<g>
<text class="comment" x="499" y="325">
JSON value</text>
</g>
<g class="nonterminal">
<rect height="22" width="52" x="459" y="338"/>
<text x="485" y="354">
data</text>
</g>
</g>
<path d=" M 441 349 h 10"/>
</g>
</g>
<path d=" M 221 349 h 10"/>
<path d=" M 339 349 h 10"/>
</g>
</g>
<path d=" M 119 349 h 10"/>
</g>
<path d=" M 605 349 h 5 m -5 5 l 5 -5 l -5 -5 m 5 5"/>
<path d=" M 20 349 h 10"/>
<path d=" M 595 349 h 10"/>
</g>
<g/>
<g/>
<g/>
<g class="horizontalgrid">
<g class="nonterminal">
<rect height="22" width="92" x="10" y="416"/>
<text x="56" y="432">
specifier</text>
</g>
</g>
<g class="sequence">
<path d=" M 10 469 l 5 5 l -5 5 m 5 -5 h 5"/>
<g class="sequence">
<g class="choice">
<path d=" M 30 474 h 24 m 264 0 h 24"/>
<g class="sequence">
<g class="nonterminal">
<rect height="22" width="68" x="54" y="463"/>
<text x="88" y="479">
module</text>
</g>
<g class="optional">
<path d=" M 132 474 h 24 m -24 0 a 12 12 0 0 0 12 -12 v 0 a 12 12 0 0 1 12 -12 h 138 m -66 0 l -5 -5 m 0 10 l 5 -5 m 66 0 a 12 12 0 0 1 12 12 v 0 a 12 12 0 0 0 12 12 h -24"/>
<g class="sequence">
<g class="terminal">
<rect height="22" rx="10" ry="10" width="28" x="156" y="463"/>
<text x="170" y="479">
:</text>
</g>
<g class="nonterminal">
<rect height="22" width="100" x="194" y="463"/>
<text x="244" y="479">
accessible</text>
</g>
<path d=" M 184 474 h 10"/>
</g>
</g>
<path d=" M 122 474 h 10"/>
</g>
<path d=" M 30 474 a 12 12 0 0 1 12 12 v 9 m 288 0 v -9 a 12 12 0 0 1 12 -12"/>
<path d=" M 42 495 v 33 m 288 0 v -33"/>
<path d=" M 42 495 v 0 a 12 12 0 0 0 12 12 m 60 0 h 204 m -99 0 l -5 -5 m 0 10 l 5 -5 m 99 0 a 12 12 0 0 0 12 -12 v 0"/>
<g class="nonterminal">
<rect height="22" width="60" x="54" y="496"/>
<text x="84" y="512">
token</text>
</g>
<path d=" M 42 528 v 0 a 12 12 0 0 0 12 12 m 0 0 h 264 m -129 0 l -5 -5 m 0 10 l 5 -5 m 129 0 a 12 12 0 0 0 12 -12 v 0"/>
<g/>
</g>
</g>
<path d=" M 352 474 h 5 m -5 5 l 5 -5 l -5 -5 m 5 5"/>
<path d=" M 20 474 h 10"/>
<path d=" M 342 474 h 10"/>
</g>
<g/>
<g/>
<g/>
<g class="horizontalgrid">
<g class="nonterminal">
<rect height="22" width="68" x="10" y="588"/>
<text x="44" y="604">
module</text>
</g>
<g>
<text class="comment" x="98" y="603">
/</text>
</g>
<g class="nonterminal">
<rect height="22" width="100" x="119" y="588"/>
<text x="169" y="604">
accessible</text>
</g>
<g>
<text class="comment" x="239" y="603">
/</text>
</g>
<g class="nonterminal">
<rect height="22" width="92" x="260" y="588"/>
<text x="306" y="604">
parameter</text>
</g>
<g>
<text class="comment" x="372" y="603">
/</text>
</g>
<g class="nonterminal">
<rect height="22" width="76" x="393" y="588"/>
<text x="431" y="604">
command</text>
</g>
</g>
<g class="sequence">
<path d=" M 10 628 l 5 5 l -5 5 m 5 -5 h 5"/>
<g class="sequence">
<g class="choice">
<path d=" M 30 633 h 24 m 0 0 h 148 m -71 0 l -5 -5 m 0 10 l 5 -5 m 71 0"/>
<g/>
<path d=" M 30 633 a 12 12 0 0 1 12 12 v 0 m 148 0 v 0 a 12 12 0 0 1 12 -12"/>
<path d=" M 42 645 v 35 a 12 12 0 0 0 12 12 m 124 0 h 0 a 12 12 0 0 0 12 -12 v -35"/>
<g class="labeledbox">
<rect height="66" width="124" x="54" y="645"/>
<path d=" M 54 692 h 8 m 28 0 h 88 m -41 0 l -5 -5 m 0 10 l 5 -5 m 41 0"/>
<g>
<text class="comment" x="116" y="668">
if custom name</text>
</g>
<g class="terminal">
<rect height="22" rx="10" ry="10" width="28" x="62" y="681"/>
<text x="76" y="697">
_</text>
</g>
</g>
</g>
<g class="terminal">
<rect height="22" rx="10" ry="10" width="84" x="212" y="622"/>
<text x="254" y="638">
[a-zA-Z]</text>
</g>
<g class="repeat">
<path d=" M 306 633 h 12 m 116 0 h 12 m -12 0 a 12 12 0 0 1 12 12 v 7 a 12 12 0 0 1 -12 12 m -94 0 h -22 a 12 12 0 0 1 -12 -12 v -7 a 12 12 0 0 1 12 -12"/>
<g>
<text class="comment" x="387" y="669">
max 62 times</text>
</g>
<g class="terminal">
<rect height="22" rx="10" ry="10" width="116" x="318" y="622"/>
<text x="376" y="638">
[a-zA-Z0-9_]</text>
</g>
</g>
<path d=" M 202 633 h 10"/>
<path d=" M 296 633 h 10"/>
</g>
<path d=" M 456 633 h 5 m -5 5 l 5 -5 l -5 -5 m 5 5"/>
<path d=" M 20 633 h 10"/>
<path d=" M 446 633 h 10"/>
</g>
<g/>
<g/>
<g/>
<g class="horizontalgrid">
<g class="nonterminal">
<rect height="22" width="60" x="10" y="759"/>
<text x="40" y="775">
token</text>
</g>
</g>
<g class="sequence">
<path d=" M 10 799 l 5 5 l -5 5 m 5 -5 h 5"/>
<g class="sequence">
<g class="repeat">
<path d=" M 30 804 h 12 m 124 0 h 12 m -12 0 a 12 12 0 0 1 12 12 v 7 a 12 12 0 0 1 -12 12 m -94 0 h -30 a 12 12 0 0 1 -12 -12 v -7 a 12 12 0 0 1 12 -12"/>
<g>
<text class="comment" x="119" y="840">
max 63 times</text>
</g>
<g class="terminal">
<rect height="22" rx="10" ry="10" width="124" x="42" y="793"/>
<text x="104" y="809">
any non-space</text>
</g>
</g>
</g>
<path d=" M 188 804 h 5 m -5 5 l 5 -5 l -5 -5 m 5 5"/>
<path d=" M 20 804 h 10"/>
<path d=" M 178 804 h 10"/>
</g>
</g>
</svg>
