<svg class="railroad" viewBox="0 0 596 292" width="476pt" xmlns="http://www.w3.org/2000/svg" xmlns:xlink="http://www.w3.org/1999/xlink">
<style type="text/css">
svg.railroad {
background-color: hsl(30, 20%, 95%);
background-size: 15px 15px;
background-image: linear-gradient(to right, rgba(30, 30, 30, .05) 1px, transparent 1px),
		  linear-gradient(to bottom, rgba(30, 30, 30, .05) 1px, transparent 1px);
}

svg.railroad rect.railroad_canvas {
stroke-width: 0px;
fill: none;
}

svg.railroad path {
stroke-width: 3px;
stroke: black;
fill: none;
}

svg.railroad .debug {
stroke-width: 1px;
stroke: red;
}

svg.railroad text {
font: 14px monospace;
text-anchor: middle;
}

svg.railroad .nonterminal text {
font-weight: bold;
}

svg.railroad text.comment {
font: italic 12px monospace;
}

svg.railroad rect {
stroke-width: 3px;
stroke: black;
fill:hsl(-290, 70%, 90%);
}

svg.railroad g.labeledbox > rect {
stroke-width: 1px;
stroke: grey;
stroke-dasharray: 5px;
fill:rgba(90, 90, 150, .1);
}
</style>
<rect class="railroad_canvas" height="100%" width="100%"/>
<g class="verticalgrid">
<g class="horizontalgrid">
<g>
<text class="comment" x="60" y="25">
MUST generate</text>
</g>
<g class="nonterminal">
<rect height="22" width="108" x="123" y="10"/>
<text x="177" y="26">
data-report</text>
</g>
<g>
<text class="comment" x="258" y="25">
as:</text>
</g>
</g>
<g class="sequence">
<path d=" M 10 86 l 5 5 l -5 5 m 5 -5 h 5"/>
<g class="sequence">
<g class="labeledbox">
<rect height="66" width="340" x="30" y="44"/>
<path d=" M 30 91 h 8 m 324 0 h 8"/>
<g>
<text class="comment" x="144" y="67">
a json-array with 2 elements</text>
</g>
<g class="sequence">
<g class="terminal">
<rect height="22" rx="10" ry="10" width="28" x="38" y="80"/>
<text x="52" y="96">
[</text>
</g>
<g class="nonterminal">
<rect height="22" width="100" x="76" y="80"/>
<text x="126" y="96">
json-value</text>
</g>
<g class="terminal">
<rect height="22" rx="10" ry="10" width="28" x="186" y="80"/>
<text x="200" y="96">
,</text>
</g>
<g class="nonterminal">
<rect height="22" width="100" x="224" y="80"/>
<text x="274" y="96">
qualifiers</text>
</g>
<g class="terminal">
<rect height="22" rx="10" ry="10" width="28" x="334" y="80"/>
<text x="348" y="96">
]</text>
</g>
<path d=" M 66 91 h 10"/>
<path d=" M 176 91 h 10"/>
<path d=" M 214 91 h 10"/>
<path d=" M 324 91 h 10"/>
</g>
</g>
</g>
<path d=" M 380 91 h 5 m -5 5 l 5 -5 l -5 -5 m 5 5"/>
<path d=" M 20 91 h 10"/>
<path d=" M 370 91 h 10"/>
</g>
<g/>
<g/>
<g/>
<g class="horizontalgrid">
<g>
<text class="comment" x="53" y="173">
MUST accept</text>
</g>
<g class="nonterminal">
<rect height="22" width="108" x="109" y="158"/>
<text x="163" y="174">
data-report</text>
</g>
<g>
<text class="comment" x="244" y="173">
as:</text>
</g>
</g>
<g class="sequence">
<path d=" M 10 234 l 5 5 l -5 5 m 5 -5 h 5"/>
<g class="sequence">
<g class="labeledbox">
<rect height="90" width="536" x="30" y="192"/>
<path d=" M 30 239 h 8 m 520 0 h 8"/>
<g>
<text class="comment" x="155" y="215">
a json-array with &gt;= 2 elements</text>
</g>
<g class="sequence">
<g class="terminal">
<rect height="22" rx="10" ry="10" width="28" x="38" y="228"/>
<text x="52" y="244">
[</text>
</g>
<g class="nonterminal">
<rect height="22" width="100" x="76" y="228"/>
<text x="126" y="244">
json-value</text>
</g>
<g class="terminal">
<rect height="22" rx="10" ry="10" width="28" x="186" y="228"/>
<text x="200" y="244">
,</text>
</g>
<g class="nonterminal">
<rect height="22" width="100" x="224" y="228"/>
<text x="274" y="244">
qualifiers</text>
</g>
<g class="repeat">
<path d=" M 334 239 h 12 m 0 0 h 174 m -84 0 l -5 -5 m 0 10 l 5 -5 m 84 0 m -12 0 a 12 12 0 0 1 12 12 v 0 a 12 12 0 0 1 -12 12 m -162 0 h 0 a 12 12 0 0 1 -12 -12 v 0 a 12 12 0 0 1 12 -12"/>
<g class="sequence">
<g class="nonterminal">
<rect height="22" width="124" x="346" y="252"/>
<text x="408" y="268">
ignored-value</text>
</g>
<g class="terminal">
<rect height="22" rx="10" ry="10" width="28" x="480" y="252"/>
<text x="494" y="268">
,</text>
</g>
<path d=" M 470 263 h 10"/>
</g>
<g/>
</g>
<g class="terminal">
<rect height="22" rx="10" ry="10" width="28" x="530" y="228"/>
<text x="544" y="244">
]</text>
</g>
<path d=" M 66 239 h 10"/>
<path d=" M 176 239 h 10"/>
<path d=" M 214 239 h 10"/>
<path d=" M 324 239 h 10"/>
<path d=" M 520 239 h 10"/>
</g>
</g>
</g>
<path d=" M 576 239 h 5 m -5 5 l 5 -5 l -5 -5 m 5 5"/>
<path d=" M 20 239 h 10"/>
<path d=" M 566 239 h 10"/>
</g>
</g>
</svg>
