<svg class="railroad" viewBox="0 0 872 336" width="697pt" xmlns="http://www.w3.org/2000/svg" xmlns:xlink="http://www.w3.org/1999/xlink">
<style type="text/css">
svg.railroad {
background-color: hsl(30, 20%, 95%);
background-size: 15px 15px;
background-image: linear-gradient(to right, rgba(30, 30, 30, .05) 1px, transparent 1px),
		  linear-gradient(to bottom, rgba(30, 30, 30, .05) 1px, transparent 1px);
}

svg.railroad rect.railroad_canvas {
stroke-width: 0px;
fill: none;
}

svg.railroad path {
stroke-width: 3px;
stroke: black;
fill: none;
}

svg.railroad .debug {
stroke-width: 1px;
stroke: red;
}

svg.railroad text {
font: 14px monospace;
text-anchor: middle;
}

svg.railroad .nonterminal text {
font-weight: bold;
}

svg.railroad text.comment {
font: italic 12px monospace;
}

svg.railroad rect {
stroke-width: 3px;
stroke: black;
fill:hsl(-290, 70%, 90%);
}

svg.railroad g.labeledbox > rect {
stroke-width: 1px;
stroke: grey;
stroke-dasharray: 5px;
fill:rgba(90, 90, 150, .1);
}
</style>
<rect class="railroad_canvas" height="100%" width="100%"/>
<g class="verticalgrid">
<g class="horizontalgrid">
<g>
<text class="comment" x="60" y="25">
MUST generate</text>
</g>
<g class="nonterminal">
<rect height="22" width="116" x="123" y="10"/>
<text x="181" y="26">
error-report</text>
</g>
<g>
<text class="comment" x="266" y="25">
as:</text>
</g>
</g>
<g class="sequence">
<path d=" M 10 86 l 5 5 l -5 5 m 5 -5 h 5"/>
<g class="sequence">
<g class="labeledbox">
<rect height="66" width="512" x="30" y="44"/>
<path d=" M 30 91 h 8 m 496 0 h 8"/>
<g>
<text class="comment" x="144" y="67">
a json-array with 3 elements</text>
</g>
<g class="sequence">
<g class="terminal">
<rect height="22" rx="10" ry="10" width="28" x="38" y="80"/>
<text x="52" y="96">
[</text>
</g>
<g class="nonterminal">
<rect height="22" width="100" x="76" y="80"/>
<text x="126" y="96">
errorclass</text>
</g>
<g class="terminal">
<rect height="22" rx="10" ry="10" width="28" x="186" y="80"/>
<text x="200" y="96">
,</text>
</g>
<g class="nonterminal">
<rect height="22" width="124" x="224" y="80"/>
<text x="286" y="96">
error-message</text>
</g>
<g class="terminal">
<rect height="22" rx="10" ry="10" width="28" x="358" y="80"/>
<text x="372" y="96">
,</text>
</g>
<g class="nonterminal">
<rect height="22" width="100" x="396" y="80"/>
<text x="446" y="96">
error-info</text>
</g>
<g class="terminal">
<rect height="22" rx="10" ry="10" width="28" x="506" y="80"/>
<text x="520" y="96">
]</text>
</g>
<path d=" M 66 91 h 10"/>
<path d=" M 176 91 h 10"/>
<path d=" M 214 91 h 10"/>
<path d=" M 348 91 h 10"/>
<path d=" M 386 91 h 10"/>
<path d=" M 496 91 h 10"/>
</g>
</g>
</g>
<path d=" M 552 91 h 5 m -5 5 l 5 -5 l -5 -5 m 5 5"/>
<path d=" M 20 91 h 10"/>
<path d=" M 542 91 h 10"/>
</g>
<g/>
<g/>
<g/>
<g class="horizontalgrid">
<g>
<text class="comment" x="53" y="173">
MUST accept</text>
</g>
<g class="nonterminal">
<rect height="22" width="116" x="109" y="158"/>
<text x="167" y="174">
error-report</text>
</g>
<g>
<text class="comment" x="259" y="173">
like:</text>
</g>
</g>
<g class="sequence">
<path d=" M 10 270 l 5 5 l -5 5 m 5 -5 h 5"/>
<g class="sequence">
<g class="labeledbox">
<rect height="134" width="812" x="30" y="192"/>
<path d=" M 30 275 h 8 m 796 0 h 8"/>
<g>
<text class="comment" x="155" y="215">
a json-array with &gt;= 3 elements</text>
</g>
<g class="sequence">
<g class="terminal">
<rect height="22" rx="10" ry="10" width="28" x="38" y="264"/>
<text x="52" y="280">
[</text>
</g>
<g class="sequence">
<g class="labeledbox">
<rect height="66" width="194" x="76" y="228"/>
<path d=" M 76 275 h 8 m 100 0 h 86 m -40 0 l -5 -5 m 0 10 l 5 -5 m 40 0"/>
<g>
<text class="comment" x="173" y="251">
may contain :subclasses</text>
</g>
<g class="nonterminal">
<rect height="22" width="100" x="84" y="264"/>
<text x="134" y="280">
errorclass</text>
</g>
</g>
<g class="terminal">
<rect height="22" rx="10" ry="10" width="28" x="280" y="264"/>
<text x="294" y="280">
,</text>
</g>
<g class="nonterminal">
<rect height="22" width="124" x="318" y="264"/>
<text x="380" y="280">
error-message</text>
</g>
<g class="terminal">
<rect height="22" rx="10" ry="10" width="28" x="452" y="264"/>
<text x="466" y="280">
,</text>
</g>
<g class="nonterminal">
<rect height="22" width="100" x="490" y="264"/>
<text x="540" y="280">
error-info</text>
</g>
<path d=" M 270 275 h 10"/>
<path d=" M 308 275 h 10"/>
<path d=" M 442 275 h 10"/>
<path d=" M 480 275 h 10"/>
</g>
<g class="optional">
<path d=" M 600 275 h 24 m -24 0 a 12 12 0 0 0 12 -12 v 0 a 12 12 0 0 1 12 -12 h 148 m -71 0 l -5 -5 m 0 10 l 5 -5 m 71 0 a 12 12 0 0 1 12 12 v 0 a 12 12 0 0 0 12 12 h -24"/>
<g class="sequence">
<g class="repeat">
<path d=" M 624 275 h 12 m 124 0 h 12 m -12 0 a 12 12 0 0 1 12 12 v 8 a 12 12 0 0 1 -12 12 m -28 0 h -96 m 51 0 l 5 -5 m 0 10 l -5 -5 m -51 0 a 12 12 0 0 1 -12 -12 v -8 a 12 12 0 0 1 12 -12"/>
<g class="terminal">
<rect height="22" rx="10" ry="10" width="28" x="732" y="296"/>
<text x="746" y="312">
,</text>
</g>
<g class="nonterminal">
<rect height="22" width="124" x="636" y="264"/>
<text x="698" y="280">
ignored-value</text>
</g>
</g>
</g>
</g>
<g class="terminal">
<rect height="22" rx="10" ry="10" width="28" x="806" y="264"/>
<text x="820" y="280">
]</text>
</g>
<path d=" M 66 275 h 10"/>
<path d=" M 590 275 h 10"/>
<path d=" M 796 275 h 10"/>
</g>
</g>
</g>
<path d=" M 852 275 h 5 m -5 5 l 5 -5 l -5 -5 m 5 5"/>
<path d=" M 20 275 h 10"/>
<path d=" M 842 275 h 10"/>
</g>
</g>
</svg>
