<svg class="railroad" viewBox="0 0 400 108" width="320pt" xmlns="http://www.w3.org/2000/svg" xmlns:xlink="http://www.w3.org/1999/xlink">
<style type="text/css">
svg.railroad {
background-color: hsl(30, 20%, 95%);
background-size: 15px 15px;
background-image: linear-gradient(to right, rgba(30, 30, 30, .05) 1px, transparent 1px),
		  linear-gradient(to bottom, rgba(30, 30, 30, .05) 1px, transparent 1px);
}

svg.railroad rect.railroad_canvas {
stroke-width: 0px;
fill: none;
}

svg.railroad path {
stroke-width: 3px;
stroke: black;
fill: none;
}

svg.railroad .debug {
stroke-width: 1px;
stroke: red;
}

svg.railroad text {
font: 14px monospace;
text-anchor: middle;
}

svg.railroad .nonterminal text {
font-weight: bold;
}

svg.railroad text.comment {
font: italic 12px monospace;
}

svg.railroad rect {
stroke-width: 3px;
stroke: black;
fill:hsl(-290, 70%, 90%);
}

svg.railroad g.labeledbox > rect {
stroke-width: 1px;
stroke: grey;
stroke-dasharray: 5px;
fill:rgba(90, 90, 150, .1);
}
</style>
<rect class="railroad_canvas" height="100%" width="100%"/>
<g class="sequence">
<path d=" M 10 16 l 5 5 l -5 5 m 5 -5 h 5"/>
<g class="sequence">
<g class="terminal">
<rect height="22" rx="10" ry="10" width="28" x="30" y="10"/>
<text x="44" y="26">
%</text>
</g>
<g class="terminal">
<rect height="22" rx="10" ry="10" width="28" x="68" y="10"/>
<text x="82" y="26">
.</text>
</g>
<g class="choice">
<path d=" M 106 21 h 24 m 0 0 h 84 m -39 0 l -5 -5 m 0 10 l 5 -5 m 39 0"/>
<g/>
<path d=" M 106 21 a 12 12 0 0 1 12 12 v 0 m 84 0 v 0 a 12 12 0 0 1 12 -12"/>
<path d=" M 118 33 v 0 a 12 12 0 0 0 12 12 m 60 0 h 0 a 12 12 0 0 0 12 -12 v 0"/>
<g class="terminal">
<rect height="22" rx="10" ry="10" width="60" x="130" y="34"/>
<text x="160" y="50">
[1-9]</text>
</g>
</g>
<g class="terminal">
<rect height="22" rx="10" ry="10" width="60" x="224" y="10"/>
<text x="254" y="26">
[0-9]</text>
</g>
<g class="choice">
<path d=" M 294 21 h 24 m 28 0 h 24"/>
<g class="terminal">
<rect height="22" rx="10" ry="10" width="28" x="318" y="10"/>
<text x="332" y="26">
e</text>
</g>
<path d=" M 294 21 a 12 12 0 0 1 12 12 v 9 m 52 0 v -9 a 12 12 0 0 1 12 -12"/>
<path d=" M 306 42 v 33 m 52 0 v -33"/>
<path d=" M 306 42 v 0 a 12 12 0 0 0 12 12 m 28 0 h 0 a 12 12 0 0 0 12 -12 v 0"/>
<g class="terminal">
<rect height="22" rx="10" ry="10" width="28" x="318" y="43"/>
<text x="332" y="59">
f</text>
</g>
<path d=" M 306 75 v 0 a 12 12 0 0 0 12 12 m 28 0 h 0 a 12 12 0 0 0 12 -12 v 0"/>
<g class="terminal">
<rect height="22" rx="10" ry="10" width="28" x="318" y="76"/>
<text x="332" y="92">
g</text>
</g>
</g>
<path d=" M 58 21 h 10"/>
<path d=" M 96 21 h 10"/>
<path d=" M 214 21 h 10"/>
<path d=" M 284 21 h 10"/>
</g>
<path d=" M 380 21 h 5 m -5 5 l 5 -5 l -5 -5 m 5 5"/>
<path d=" M 20 21 h 10"/>
<path d=" M 370 21 h 10"/>
</g>
</svg>
