<svg class="railroad" viewBox="0 0 996 611" width="796pt" xmlns="http://www.w3.org/2000/svg" xmlns:xlink="http://www.w3.org/1999/xlink">
<style type="text/css">
svg.railroad {
background-color: hsl(30, 20%, 95%);
background-size: 15px 15px;
background-image: linear-gradient(to right, rgba(30, 30, 30, .05) 1px, transparent 1px),
		  linear-gradient(to bottom, rgba(30, 30, 30, .05) 1px, transparent 1px);
}

svg.railroad rect.railroad_canvas {
stroke-width: 0px;
fill: none;
}

svg.railroad path {
stroke-width: 3px;
stroke: black;
fill: none;
}

svg.railroad .debug {
stroke-width: 1px;
stroke: red;
}

svg.railroad text {
font: 14px monospace;
text-anchor: middle;
}

svg.railroad .nonterminal text {
font-weight: bold;
}

svg.railroad text.comment {
font: italic 12px monospace;
}

svg.railroad rect {
stroke-width: 3px;
stroke: black;
fill:hsl(-290, 70%, 90%);
}

svg.railroad g.labeledbox > rect {
stroke-width: 1px;
stroke: grey;
stroke-dasharray: 5px;
fill:rgba(90, 90, 150, .1);
}
</style>
<rect class="railroad_canvas" height="100%" width="100%"/>
<g class="verticalgrid">
<g class="horizontalgrid">
<g>
<text class="comment" x="53" y="25">
MUST accept</text>
</g>
<g class="nonterminal">
<rect height="22" width="76" x="109" y="10"/>
<text x="147" y="26">
replies</text>
</g>
</g>
<g class="sequence">
<path d=" M 10 50 l 5 5 l -5 5 m 5 -5 h 5"/>
<g class="sequence">
<g class="choice">
<path d=" M 30 55 h 24 m 342 0 h 570 m -282 0 l -5 -5 m 0 10 l 5 -5 m 282 0"/>
<g class="sequence">
<g class="terminal">
<rect height="22" rx="10" ry="10" width="108" x="54" y="44"/>
<text x="108" y="60">
ISSE,SECoP,</text>
</g>
<g class="nonterminal">
<rect height="22" width="100" x="172" y="44"/>
<text x="222" y="60">
draft-date</text>
</g>
<g class="terminal">
<rect height="22" rx="10" ry="10" width="28" x="282" y="44"/>
<text x="296" y="60">
,</text>
</g>
<g class="nonterminal">
<rect height="22" width="76" x="320" y="44"/>
<text x="358" y="60">
version</text>
</g>
<path d=" M 162 55 h 10"/>
<path d=" M 272 55 h 10"/>
<path d=" M 310 55 h 10"/>
</g>
<path d=" M 30 55 a 12 12 0 0 1 12 12 v 9 m 912 0 v -9 a 12 12 0 0 1 12 -12"/>
<path d=" M 42 111 v 41 m 912 0 v -41"/>
<path d=" M 42 211 v 66 m 0 -30 l -5 -5 m 10 0 l -5 5 m 0 30 m 912 0 v -66 m 0 36 l -5 5 m 10 0 l -5 -5 m 0 -36"/>
<path d=" M 42 312 v 46 m 912 0 v -46"/>
<path d=" M 42 76 v 35 a 12 12 0 0 0 12 12 m 399 0 h 489 m -241 0 l -5 -5 m 0 10 l 5 -5 m 241 0 a 12 12 0 0 0 12 -12 v -35"/>
<g class="sequence">
<g class="terminal">
<rect height="22" rx="10" ry="10" width="100" x="54" y="112"/>
<text x="104" y="128">
describing</text>
</g>
<g class="labeledbox">
<rect height="66" width="131" x="164" y="76"/>
<path d=" M 164 123 h 8 m 92 0 h 31"/>
<g>
<text class="comment" x="229" y="99">
SPACE dot SPACE</text>
</g>
<g class="terminal">
<rect height="22" rx="10" ry="10" width="92" x="172" y="112"/>
<text x="218" y="128">
\x20.\x20</text>
</g>
</g>
<g class="nonterminal">
<rect height="22" width="148" x="305" y="112"/>
<text x="379" y="128">
structure-report</text>
</g>
<path d=" M 154 123 h 10"/>
<path d=" M 295 123 h 10"/>
</g>
<path d=" M 42 152 v 59 m 0 -26 l -5 -5 m 10 0 l -5 5 m 0 26 a 12 12 0 0 0 12 12 m 888 0 h 0 a 12 12 0 0 0 12 -12 v -59 m 0 32 l -5 5 m 10 0 l -5 -5 m 0 -32"/>
<g class="sequence">
<g class="choice">
<path d=" M 54 223 h 24 m 68 0 h 40"/>
<g class="terminal">
<rect height="22" rx="10" ry="10" width="68" x="78" y="212"/>
<text x="112" y="228">
active</text>
</g>
<path d=" M 54 223 a 12 12 0 0 1 12 12 v 9 m 108 0 v -9 a 12 12 0 0 1 12 -12"/>
<path d=" M 66 244 v 0 a 12 12 0 0 0 12 12 m 84 0 h 0 a 12 12 0 0 0 12 -12 v 0"/>
<g class="terminal">
<rect height="22" rx="10" ry="10" width="84" x="78" y="245"/>
<text x="120" y="261">
inactive</text>
</g>
</g>
<g class="optional">
<path d=" M 196 223 h 24 m -24 0 a 12 12 0 0 0 12 -12 v -47 a 12 12 0 0 1 12 -12 h 698 m -346 0 l -5 -5 m 0 10 l 5 -5 m 346 0 a 12 12 0 0 1 12 12 v 47 a 12 12 0 0 0 12 12 h -24"/>
<g class="sequence">
<g class="labeledbox">
<rect height="66" width="68" x="220" y="176"/>
<path d=" M 220 223 h 8 m 52 0 h 8"/>
<g>
<text class="comment" x="250" y="199">
SPACE</text>
</g>
<g class="terminal">
<rect height="22" rx="10" ry="10" width="52" x="228" y="212"/>
<text x="254" y="228">
\x20</text>
</g>
</g>
<g class="optional">
<path d=" M 298 223 h 24 m -24 0 a 12 12 0 0 0 12 -12 v -12 a 12 12 0 0 1 12 -12 h 312 m -153 0 l -5 -5 m 0 10 l 5 -5 m 153 0 a 12 12 0 0 1 12 12 v 12 a 12 12 0 0 0 12 12 h -24"/>
<g class="sequence">
<g class="nonterminal">
<rect height="22" width="68" x="322" y="212"/>
<text x="356" y="228">
module</text>
</g>
<g class="optional">
<path d=" M 400 223 h 24 m -24 0 a 12 12 0 0 0 12 -12 v 0 a 12 12 0 0 1 12 -12 h 186 m -90 0 l -5 -5 m 0 10 l 5 -5 m 90 0 a 12 12 0 0 1 12 12 v 0 a 12 12 0 0 0 12 12 h -24"/>
<g class="sequence">
<g class="terminal">
<rect height="22" rx="10" ry="10" width="28" x="424" y="212"/>
<text x="438" y="228">
:</text>
</g>
<g class="repeat">
<path d=" M 462 223 h 12 m 124 0 h 12 m -12 0 a 12 12 0 0 1 12 12 v 8 a 12 12 0 0 1 -12 12 m -28 0 h -96 m 51 0 l 5 -5 m 0 10 l -5 -5 m -51 0 a 12 12 0 0 1 -12 -12 v -8 a 12 12 0 0 1 12 -12"/>
<g class="terminal">
<rect height="22" rx="10" ry="10" width="28" x="570" y="244"/>
<text x="584" y="260">
:</text>
</g>
<g class="nonterminal">
<rect height="22" width="124" x="474" y="212"/>
<text x="536" y="228">
ignored-value</text>
</g>
</g>
<path d=" M 452 223 h 10"/>
</g>
</g>
<path d=" M 390 223 h 10"/>
</g>
</g>
<g class="optional">
<path d=" M 668 223 h 24 m -24 0 a 12 12 0 0 0 12 -12 v -35 a 12 12 0 0 1 12 -12 h 202 m -98 0 l -5 -5 m 0 10 l 5 -5 m 98 0 a 12 12 0 0 1 12 12 v 35 a 12 12 0 0 0 12 12 h -24"/>
<g class="sequence">
<g class="labeledbox">
<rect height="66" width="68" x="692" y="176"/>
<path d=" M 692 223 h 8 m 52 0 h 8"/>
<g>
<text class="comment" x="722" y="199">
SPACE</text>
</g>
<g class="terminal">
<rect height="22" rx="10" ry="10" width="52" x="700" y="212"/>
<text x="726" y="228">
\x20</text>
</g>
</g>
<g class="nonterminal">
<rect height="22" width="124" x="770" y="212"/>
<text x="832" y="228">
ignored-value</text>
</g>
<path d=" M 760 223 h 10"/>
</g>
</g>
<path d=" M 288 223 h 10"/>
<path d=" M 658 223 h 10"/>
</g>
</g>
<path d=" M 186 223 h 10"/>
</g>
<path d=" M 42 277 v 35 a 12 12 0 0 0 12 12 m 658 0 h 230 m -112 0 l -5 -5 m 0 10 l 5 -5 m 112 0 a 12 12 0 0 0 12 -12 v -35"/>
<g class="sequence">
<g class="terminal">
<rect height="22" rx="10" ry="10" width="68" x="54" y="313"/>
<text x="88" y="329">
error_</text>
</g>
<g class="repeat">
<path d=" M 132 324 h 12 m 124 0 h 12 m -12 0 a 12 12 0 0 1 12 12 v 0 a 12 12 0 0 1 -12 12 m 0 0 h -124 m 65 0 l 5 -5 m 0 10 l -5 -5 m -65 0 a 12 12 0 0 1 -12 -12 v 0 a 12 12 0 0 1 12 -12"/>
<g/>
<g class="nonterminal">
<rect height="22" width="124" x="144" y="313"/>
<text x="206" y="329">
any non-space</text>
</g>
</g>
<g class="labeledbox">
<rect height="66" width="68" x="290" y="277"/>
<path d=" M 290 324 h 8 m 52 0 h 8"/>
<g>
<text class="comment" x="320" y="300">
SPACE</text>
</g>
<g class="terminal">
<rect height="22" rx="10" ry="10" width="52" x="298" y="313"/>
<text x="324" y="329">
\x20</text>
</g>
</g>
<g class="optional">
<path d=" M 368 324 h 24 m -24 0 a 12 12 0 0 0 12 -12 v 0 a 12 12 0 0 1 12 -12 h 92 m -43 0 l -5 -5 m 0 10 l 5 -5 m 43 0 a 12 12 0 0 1 12 12 v 0 a 12 12 0 0 0 12 12 h -24"/>
<g class="nonterminal">
<rect height="22" width="92" x="392" y="313"/>
<text x="438" y="329">
specifier</text>
</g>
</g>
<g class="labeledbox">
<rect height="66" width="68" x="518" y="277"/>
<path d=" M 518 324 h 8 m 52 0 h 8"/>
<g>
<text class="comment" x="548" y="300">
SPACE</text>
</g>
<g class="terminal">
<rect height="22" rx="10" ry="10" width="52" x="526" y="313"/>
<text x="552" y="329">
\x20</text>
</g>
</g>
<g class="nonterminal">
<rect height="22" width="116" x="596" y="313"/>
<text x="654" y="329">
error-report</text>
</g>
<path d=" M 122 324 h 10"/>
<path d=" M 280 324 h 10"/>
<path d=" M 358 324 h 10"/>
<path d=" M 508 324 h 10"/>
<path d=" M 586 324 h 10"/>
</g>
<path d=" M 42 358 v 35 a 12 12 0 0 0 12 12 m 664 0 h 224 m -109 0 l -5 -5 m 0 10 l 5 -5 m 109 0 a 12 12 0 0 0 12 -12 v -35"/>
<g class="sequence">
<g class="choice">
<path d=" M 54 405 h 24 m 248 0 h 196 m -95 0 l -5 -5 m 0 10 l 5 -5 m 95 0"/>
<g class="sequence">
<g class="terminal">
<rect height="22" rx="10" ry="10" width="52" x="78" y="394"/>
<text x="104" y="410">
pong</text>
</g>
<g class="labeledbox">
<rect height="66" width="68" x="140" y="358"/>
<path d=" M 140 405 h 8 m 52 0 h 8"/>
<g>
<text class="comment" x="170" y="381">
SPACE</text>
</g>
<g class="terminal">
<rect height="22" rx="10" ry="10" width="52" x="148" y="394"/>
<text x="174" y="410">
\x20</text>
</g>
</g>
<g class="optional">
<path d=" M 218 405 h 24 m -24 0 a 12 12 0 0 0 12 -12 v 0 a 12 12 0 0 1 12 -12 h 60 m -27 0 l -5 -5 m 0 10 l 5 -5 m 27 0 a 12 12 0 0 1 12 12 v 0 a 12 12 0 0 0 12 12 h -24"/>
<g class="nonterminal">
<rect height="22" width="60" x="242" y="394"/>
<text x="272" y="410">
token</text>
</g>
</g>
<path d=" M 130 405 h 10"/>
<path d=" M 208 405 h 10"/>
</g>
<path d=" M 54 405 a 12 12 0 0 1 12 12 v 17 m 444 0 v -17 a 12 12 0 0 1 12 -12"/>
<path d=" M 66 469 v 41 m 444 0 v -41"/>
<path d=" M 66 434 v 35 a 12 12 0 0 0 12 12 m 332 0 h 88 m -41 0 l -5 -5 m 0 10 l 5 -5 m 41 0 a 12 12 0 0 0 12 -12 v -35"/>
<g class="sequence">
<g class="terminal">
<rect height="22" rx="10" ry="10" width="52" x="78" y="470"/>
<text x="104" y="486">
done</text>
</g>
<g class="labeledbox">
<rect height="66" width="68" x="140" y="434"/>
<path d=" M 140 481 h 8 m 52 0 h 8"/>
<g>
<text class="comment" x="170" y="457">
SPACE</text>
</g>
<g class="terminal">
<rect height="22" rx="10" ry="10" width="52" x="148" y="470"/>
<text x="174" y="486">
\x20</text>
</g>
</g>
<g class="nonterminal">
<rect height="22" width="68" x="218" y="470"/>
<text x="252" y="486">
module</text>
</g>
<g class="terminal">
<rect height="22" rx="10" ry="10" width="28" x="296" y="470"/>
<text x="310" y="486">
:</text>
</g>
<g class="nonterminal">
<rect height="22" width="76" x="334" y="470"/>
<text x="372" y="486">
command</text>
</g>
<path d=" M 130 481 h 10"/>
<path d=" M 208 481 h 10"/>
<path d=" M 286 481 h 10"/>
<path d=" M 324 481 h 10"/>
</g>
<path d=" M 66 510 v 35 a 12 12 0 0 0 12 12 m 420 0 h 0 a 12 12 0 0 0 12 -12 v -35"/>
<g class="sequence">
<g class="choice">
<path d=" M 78 557 h 24 m 68 0 h 32"/>
<g class="terminal">
<rect height="22" rx="10" ry="10" width="68" x="102" y="546"/>
<text x="136" y="562">
update</text>
</g>
<path d=" M 78 557 a 12 12 0 0 1 12 12 v 9 m 100 0 v -9 a 12 12 0 0 1 12 -12"/>
<path d=" M 90 578 v 0 a 12 12 0 0 0 12 12 m 76 0 h 0 a 12 12 0 0 0 12 -12 v 0"/>
<g class="terminal">
<rect height="22" rx="10" ry="10" width="76" x="102" y="579"/>
<text x="140" y="595">
changed</text>
</g>
</g>
<g class="labeledbox">
<rect height="66" width="68" x="212" y="510"/>
<path d=" M 212 557 h 8 m 52 0 h 8"/>
<g>
<text class="comment" x="242" y="533">
SPACE</text>
</g>
<g class="terminal">
<rect height="22" rx="10" ry="10" width="52" x="220" y="546"/>
<text x="246" y="562">
\x20</text>
</g>
</g>
<g class="nonterminal">
<rect height="22" width="68" x="290" y="546"/>
<text x="324" y="562">
module</text>
</g>
<g class="terminal">
<rect height="22" rx="10" ry="10" width="28" x="368" y="546"/>
<text x="382" y="562">
:</text>
</g>
<g class="nonterminal">
<rect height="22" width="92" x="406" y="546"/>
<text x="452" y="562">
parameter</text>
</g>
<path d=" M 202 557 h 10"/>
<path d=" M 280 557 h 10"/>
<path d=" M 358 557 h 10"/>
<path d=" M 396 557 h 10"/>
</g>
</g>
<g class="labeledbox">
<rect height="66" width="68" x="532" y="358"/>
<path d=" M 532 405 h 8 m 52 0 h 8"/>
<g>
<text class="comment" x="562" y="381">
SPACE</text>
</g>
<g class="terminal">
<rect height="22" rx="10" ry="10" width="52" x="540" y="394"/>
<text x="566" y="410">
\x20</text>
</g>
</g>
<g class="nonterminal">
<rect height="22" width="108" x="610" y="394"/>
<text x="664" y="410">
data-report</text>
</g>
<path d=" M 522 405 h 10"/>
<path d=" M 600 405 h 10"/>
</g>
</g>
</g>
<path d=" M 976 55 h 5 m -5 5 l 5 -5 l -5 -5 m 5 5"/>
<path d=" M 20 55 h 10"/>
<path d=" M 966 55 h 10"/>
</g>
</g>
</svg>
