<svg class="railroad" viewBox="0 0 618 144" width="494pt" xmlns="http://www.w3.org/2000/svg">
<style type="text/css">

    svg.railroad {
        background-color: hsl(30, 20%, 95%);
        background-size: 15px 15px;
        background-image: linear-gradient(to right, rgba(30, 30, 30, .05) 1px, transparent 1px),
                          linear-gradient(to bottom, rgba(30, 30, 30, .05) 1px, transparent 1px);
    }

    svg.railroad path {
        stroke-width: 3px;
        stroke: black;
        fill: transparent;
    }

    svg.railroad .debug {
        stroke-width: 1px;
        stroke: red;
    }

    svg.railroad text {
        font: 14px monospace;
        text-anchor: middle;
    }

    svg.railroad .nonterminal text {
        font-weight: bold;
    }

    svg.railroad text.comment {
        font: italic 12px monospace;
    }

    svg.railroad rect {
        stroke-width: 3px;
        stroke: black;
        fill:hsl(-290, 70%, 90%);
    }

    svg.railroad g.labeledbox > rect {
        stroke-width: 1px;
        stroke: grey;
        stroke-dasharray: 5px;
        fill:rgba(90, 90, 150, .1);
    }</style>
<g class="verticalgrid">
<g class="horizontalgrid">
<g class="nonterminal">
<rect height="22" width="76" x="10" y="10"/>
<text x="48" y="26">
message</text>
</g>
</g>
<g class="sequence">
<path d=" M 10 110 l 5 5 l -5 5 m 5 -5 h 5"/>
<g class="sequence">
<g class="labeledbox">
<rect height="66" width="89" x="30" y="68"/>
<path d=" M 30 115 h 8 m 68 0 h 13"/>
<g>
<text class="comment" x="74" y="91">
No Space!</text>
</g>
<g class="nonterminal">
<rect height="22" width="68" x="38" y="104"/>
<text x="72" y="120">
action</text>
</g>
</g>
<g class="optional">
<path d=" M 129 115 h 24 m -24 0 a 12 12 0 0 0 12 -12 v -47 a 12 12 0 0 1 12 -12 h 411 m -202 0 l -5 -5 m 0 10 l 5 -5 m 202 0 a 12 12 0 0 1 12 12 v 47 a 12 12 0 0 0 12 12 h -24"/>
<g class="sequence">
<g class="labeledbox">
<rect height="66" width="68" x="153" y="68"/>
<path d=" M 153 115 h 8 m 52 0 h 8"/>
<g>
<text class="comment" x="183" y="91">
SPACE</text>
</g>
<g class="terminal">
<rect height="22" rx="10" ry="10" width="52" x="161" y="104"/>
<text x="187" y="120">
\x20</text>
</g>
</g>
<g class="labeledbox">
<rect height="66" width="108" x="231" y="68"/>
<path d=" M 231 115 h 8 m 92 0 h 8"/>
<g>
<text class="comment" x="275" y="91">
No Space!</text>
</g>
<g class="nonterminal">
<rect height="22" width="92" x="239" y="104"/>
<text x="285" y="120">
specifier</text>
</g>
</g>
<g class="optional">
<path d=" M 349 115 h 24 m -24 0 a 12 12 0 0 0 12 -12 v -35 a 12 12 0 0 1 12 -12 h 167 m -80 0 l -5 -5 m 0 10 l 5 -5 m 80 0 a 12 12 0 0 1 12 12 v 35 a 12 12 0 0 0 12 12 h -24"/>
<g class="sequence">
<g class="labeledbox">
<rect height="66" width="68" x="373" y="68"/>
<path d=" M 373 115 h 8 m 52 0 h 8"/>
<g>
<text class="comment" x="403" y="91">
SPACE</text>
</g>
<g class="terminal">
<rect height="22" rx="10" ry="10" width="52" x="381" y="104"/>
<text x="407" y="120">
\x20</text>
</g>
</g>
<g class="labeledbox">
<rect height="66" width="89" x="451" y="68"/>
<path d=" M 451 115 h 8 m 52 0 h 29"/>
<g>
<text class="comment" x="495" y="91">
JSON-value</text>
</g>
<g class="nonterminal">
<rect height="22" width="52" x="459" y="104"/>
<text x="485" y="120">
data</text>
</g>
</g>
<path d=" M 441 115 h 10"/>
</g>
</g>
<path d=" M 221 115 h 10"/>
<path d=" M 339 115 h 10"/>
</g>
</g>
<path d=" M 119 115 h 10"/>
</g>
<path d=" M 598 115 h 5 m -5 5 l 5 -5 l -5 -5 m 5 5"/>
<path d=" M 20 115 h 10"/>
<path d=" M 588 115 h 10"/>
</g>
</g>
</svg>
