<svg class="railroad" viewBox="0 0 452 144" width="361pt" xmlns="http://www.w3.org/2000/svg">
<style type="text/css">

    svg.railroad {
        background-color: hsl(30, 20%, 95%);
        background-size: 15px 15px;
        background-image: linear-gradient(to right, rgba(30, 30, 30, .05) 1px, transparent 1px),
                          linear-gradient(to bottom, rgba(30, 30, 30, .05) 1px, transparent 1px);
    }

    svg.railroad path {
        stroke-width: 3px;
        stroke: black;
        fill: transparent;
    }

    svg.railroad .debug {
        stroke-width: 1px;
        stroke: red;
    }

    svg.railroad text {
        font: 14px monospace;
        text-anchor: middle;
    }

    svg.railroad .nonterminal text {
        font-weight: bold;
    }

    svg.railroad text.comment {
        font: italic 12px monospace;
    }

    svg.railroad rect {
        stroke-width: 3px;
        stroke: black;
        fill:hsl(-290, 70%, 90%);
    }

    svg.railroad g.labeledbox > rect {
        stroke-width: 1px;
        stroke: grey;
        stroke-dasharray: 5px;
        fill:rgba(90, 90, 150, .1);
    }</style>
<g class="verticalgrid">
<g class="horizontalgrid">
<g class="nonterminal">
<rect height="22" width="92" x="10" y="10"/>
<text x="56" y="26">
specifier</text>
</g>
</g>
<g class="sequence">
<path d=" M 10 63 l 5 5 l -5 5 m 5 -5 h 5"/>
<g class="sequence">
<g class="choice">
<path d=" M 30 68 h 24 m 344 0 h 24"/>
<g class="sequence">
<g class="nonterminal">
<rect height="22" width="108" x="54" y="57"/>
<text x="108" y="73">
module-name</text>
</g>
<g class="optional">
<path d=" M 172 68 h 24 m -24 0 a 12 12 0 0 0 12 -12 v 0 a 12 12 0 0 1 12 -12 h 178 m -86 0 l -5 -5 m 0 10 l 5 -5 m 86 0 a 12 12 0 0 1 12 12 v 0 a 12 12 0 0 0 12 12 h -24"/>
<g class="sequence">
<g class="terminal">
<rect height="22" rx="10" ry="10" width="28" x="196" y="57"/>
<text x="210" y="73">
:</text>
</g>
<g class="nonterminal">
<rect height="22" width="140" x="234" y="57"/>
<text x="304" y="73">
accessible-name</text>
</g>
<path d=" M 224 68 h 10"/>
</g>
</g>
<path d=" M 162 68 h 10"/>
</g>
<path d=" M 30 68 a 12 12 0 0 1 12 12 v 9 m 368 0 v -9 a 12 12 0 0 1 12 -12"/>
<path d=" M 42 89 v 33 m 368 0 v -33"/>
<path d=" M 42 89 v 0 a 12 12 0 0 0 12 12 m 60 0 h 284 m -139 0 l -5 -5 m 0 10 l 5 -5 m 139 0 a 12 12 0 0 0 12 -12 v 0"/>
<g class="nonterminal">
<rect height="22" width="60" x="54" y="90"/>
<text x="84" y="106">
token</text>
</g>
<path d=" M 42 122 v 0 a 12 12 0 0 0 12 12 m 0 0 h 344 m -169 0 l -5 -5 m 0 10 l 5 -5 m 169 0 a 12 12 0 0 0 12 -12 v 0"/>
<g/>
</g>
</g>
<path d=" M 432 68 h 5 m -5 5 l 5 -5 l -5 -5 m 5 5"/>
<path d=" M 20 68 h 10"/>
<path d=" M 422 68 h 10"/>
</g>
</g>
</svg>
