<svg class="railroad" viewBox="0 0 591 339" width="591pt" xmlns="http://www.w3.org/2000/svg">
<style type="text/css">

    svg.railroad {
        background-color: hsl(30, 20%, 95%);
        background-size: 15px 15px;
        background-image: linear-gradient(to right, rgba(30, 30, 30, .05) 1px, transparent 1px),
                          linear-gradient(to bottom, rgba(30, 30, 30, .05) 1px, transparent 1px);
    }

    svg.railroad path {
        stroke-width: 3px;
        stroke: black;
        fill: transparent;
    }

    svg.railroad .debug {
        stroke-width: 1px;
        stroke: red;
    }

    svg.railroad text {
        font: 14px monospace;
        text-anchor: middle;
    }

    svg.railroad .nonterminal text {
        font-weight: bold;
    }

    svg.railroad text.comment {
        font: italic 12px monospace;
    }

    svg.railroad rect {
        stroke-width: 3px;
        stroke: black;
        fill:hsl(-290, 70%, 90%);
    }

    svg.railroad g.labeledbox &gt; rect {
        stroke-width: 1px;
        stroke: grey;
        stroke-dasharray: 5px;
        fill:rgba(90, 90, 150, .1);
    }</style>
<g class="sequence">
<path d=" M 10 21 a 5 5 0 0 1 5 -5 a 5 5 0 0 1 5 5 a 5 5 0 0 1 -5 5 a 5 5 0 0 1 -5 -5 m 10 0 h 5"/>
<g class="sequence">
<text class="comment" x="106" y="26">
accessible-property</text>
<g class="choice">
<path d=" M 188 21 h 24 m 320 0 h 24"/>
<g class="sequence">
<g class="terminal">
<rect height="22" rx="10" ry="10" width="124" x="212" y="10"/>
<text x="274" y="26">
&quot;description&quot;</text>
</g>
<g class="terminal">
<rect height="22" rx="10" ry="10" width="28" x="346" y="10"/>
<text x="360" y="26">
:</text>
</g>
<g class="nonterminal">
<rect height="22" width="148" x="384" y="10"/>
<text x="458" y="26">
descriptive text</text>
</g>
<path d=" M 336 21 h 10"/>
<path d=" M 374 21 h 10"/>
</g>
<path d=" M 188 21 a 12 12 0 0 1 12 12 v 9 m 344 0 v -9 a 12 12 0 0 1 12 -12"/>
<path d=" M 200 42 v 99 m 0 -46 l -5 -5 m 10 0 l -5 5 m 0 46 m 344 0 v -99 m 0 52 l -5 5 m 10 0 l -5 -5 m 0 -52"/>
<path d=" M 200 141 v 33 m 344 0 v -33"/>
<path d=" M 200 174 v 66 m 0 -30 l -5 -5 m 10 0 l -5 5 m 0 30 m 344 0 v -66 m 0 36 l -5 5 m 10 0 l -5 -5 m 0 -36"/>
<path d=" M 200 240 v 33 m 344 0 v -33"/>
<path d=" M 200 273 v 33 m 344 0 v -33"/>
<path d=" M 200 42 v 0 a 12 12 0 0 0 12 12 m 312 0 h 8 a 12 12 0 0 0 12 -12 v 0"/>
<g class="sequence">
<g class="terminal">
<rect height="22" rx="10" ry="10" width="116" x="212" y="43"/>
<text x="270" y="59">
&quot;visibility&quot;</text>
</g>
<g class="terminal">
<rect height="22" rx="10" ry="10" width="28" x="338" y="43"/>
<text x="352" y="59">
:</text>
</g>
<g class="choice">
<path d=" M 376 54 h 24 m 76 0 h 48"/>
<g class="terminal">
<rect height="22" rx="10" ry="10" width="76" x="400" y="43"/>
<text x="438" y="59">
&quot;expert</text>
</g>
<path d=" M 376 54 a 12 12 0 0 1 12 12 v 9 m 124 0 v -9 a 12 12 0 0 1 12 -12"/>
<path d=" M 388 75 v 33 m 124 0 v -33"/>
<path d=" M 388 75 v 0 a 12 12 0 0 0 12 12 m 100 0 h 0 a 12 12 0 0 0 12 -12 v 0"/>
<g class="terminal">
<rect height="22" rx="10" ry="10" width="100" x="400" y="76"/>
<text x="450" y="92">
&quot;advanced&quot;</text>
</g>
<path d=" M 388 108 v 0 a 12 12 0 0 0 12 12 m 68 0 h 32 a 12 12 0 0 0 12 -12 v 0"/>
<g class="terminal">
<rect height="22" rx="10" ry="10" width="68" x="400" y="109"/>
<text x="434" y="125">
&quot;user&quot;</text>
</g>
</g>
<path d=" M 328 54 h 10"/>
<path d=" M 366 54 h 10"/>
</g>
<path d=" M 200 141 v 0 a 12 12 0 0 0 12 12 m 216 0 h 104 m -49 0 l -5 -5 m 0 10 l 5 -5 m 49 0 a 12 12 0 0 0 12 -12 v 0"/>
<g class="sequence">
<g class="terminal">
<rect height="22" rx="10" ry="10" width="76" x="212" y="142"/>
<text x="250" y="158">
&quot;group&quot;</text>
</g>
<g class="terminal">
<rect height="22" rx="10" ry="10" width="28" x="298" y="142"/>
<text x="312" y="158">
:</text>
</g>
<g class="nonterminal">
<rect height="22" width="92" x="336" y="142"/>
<text x="382" y="158">
groupname</text>
</g>
<path d=" M 288 153 h 10"/>
<path d=" M 326 153 h 10"/>
</g>
<path d=" M 200 174 v 0 a 12 12 0 0 0 12 12 m 256 0 h 64 m -29 0 l -5 -5 m 0 10 l 5 -5 m 29 0 a 12 12 0 0 0 12 -12 v 0"/>
<g class="sequence">
<g class="terminal">
<rect height="22" rx="10" ry="10" width="100" x="212" y="175"/>
<text x="262" y="191">
&quot;readonly&quot;</text>
</g>
<g class="terminal">
<rect height="22" rx="10" ry="10" width="28" x="322" y="175"/>
<text x="336" y="191">
:</text>
</g>
<g class="choice">
<path d=" M 360 186 h 24 m 52 0 h 32"/>
<g class="terminal">
<rect height="22" rx="10" ry="10" width="52" x="384" y="175"/>
<text x="410" y="191">
true</text>
</g>
<path d=" M 360 186 a 12 12 0 0 1 12 12 v 9 m 84 0 v -9 a 12 12 0 0 1 12 -12"/>
<path d=" M 372 207 v 0 a 12 12 0 0 0 12 12 m 60 0 h 0 a 12 12 0 0 0 12 -12 v 0"/>
<g class="terminal">
<rect height="22" rx="10" ry="10" width="60" x="384" y="208"/>
<text x="414" y="224">
false</text>
</g>
</g>
<path d=" M 312 186 h 10"/>
<path d=" M 350 186 h 10"/>
</g>
<path d=" M 200 240 v 0 a 12 12 0 0 0 12 12 m 272 0 h 48 a 12 12 0 0 0 12 -12 v 0"/>
<g class="sequence">
<g class="terminal">
<rect height="22" rx="10" ry="10" width="68" x="212" y="241"/>
<text x="246" y="257">
&quot;unit&quot;</text>
</g>
<g class="terminal">
<rect height="22" rx="10" ry="10" width="28" x="290" y="241"/>
<text x="304" y="257">
:</text>
</g>
<g class="nonterminal">
<rect height="22" width="156" x="328" y="241"/>
<text x="406" y="257">
unit of parameter</text>
</g>
<path d=" M 280 252 h 10"/>
<path d=" M 318 252 h 10"/>
</g>
<path d=" M 200 273 v 0 a 12 12 0 0 0 12 12 m 232 0 h 88 m -41 0 l -5 -5 m 0 10 l 5 -5 m 41 0 a 12 12 0 0 0 12 -12 v 0"/>
<g class="sequence">
<g class="terminal">
<rect height="22" rx="10" ry="10" width="100" x="212" y="274"/>
<text x="262" y="290">
&quot;datatype&quot;</text>
</g>
<g class="terminal">
<rect height="22" rx="10" ry="10" width="28" x="322" y="274"/>
<text x="336" y="290">
:</text>
</g>
<g class="nonterminal">
<rect height="22" width="84" x="360" y="274"/>
<text x="402" y="290">
datatype</text>
</g>
<path d=" M 312 285 h 10"/>
<path d=" M 350 285 h 10"/>
</g>
<path d=" M 200 306 v 0 a 12 12 0 0 0 12 12 m 140 0 h 180 m -87 0 l -5 -5 m 0 10 l 5 -5 m 87 0 a 12 12 0 0 0 12 -12 v 0"/>
<g class="sequence">
<g class="nonterminal">
<rect height="22" width="140" x="212" y="307"/>
<text x="282" y="323">
custom-property</text>
</g>
</g>
</g>
<path d=" M 178 21 h 10"/>
</g>
<path d=" M 566 21 h 5 a 5 5 0 0 1 5 -5 a 5 5 0 0 1 5 5 a 5 5 0 0 1 -5 5 a 5 5 0 0 1 -5 -5"/>
<path d=" M 25 21 h 10"/>
<path d=" M 556 21 h 10"/>
</g>
</svg>