<svg class="railroad" viewBox="0 0 561 339" width="561" xmlns="http://www.w3.org/2000/svg">
<style type="text/css">

    svg.railroad {
        background-color: hsl(30, 20%, 95%);
        background-size: 15px 15px;
        background-image: linear-gradient(to right, rgba(30, 30, 30, .05) 1px, transparent 1px),
                          linear-gradient(to bottom, rgba(30, 30, 30, .05) 1px, transparent 1px);
    }

    svg.railroad path {
        stroke-width: 3px;
        stroke: black;
        fill: transparent;
    }

    svg.railroad .debug {
        stroke-width: 1px;
        stroke: red;
    }

    svg.railroad text {
        font: 14px monospace;
        text-anchor: middle;
    }

    svg.railroad .nonterminal text {
        font-weight: bold;
    }

    svg.railroad text.comment {
        font: italic 12px monospace;
    }

    svg.railroad rect {
        stroke-width: 3px;
        stroke: black;
        fill:hsl(-290, 70%, 90%);
    }

    svg.railroad g.labeledbox &gt; rect {
        stroke-width: 1px;
        stroke: grey;
        stroke-dasharray: 5px;
        fill:rgba(90, 90, 150, .1);
    }</style>
<g class="sequence">
<g class="sequence">
<g>
<text class="comment" x="81" y="26">
accessible-property</text>
</g>
<g class="choice">
<path d=" M 163 21 h 24 m 320 0 h 24"/>
<g class="sequence">
<g class="terminal">
<rect height="22" rx="10" ry="10" width="124" x="187" y="10"/>
<text x="249" y="26">
&quot;description&quot;</text>
</g>
<g class="terminal">
<rect height="22" rx="10" ry="10" width="28" x="321" y="10"/>
<text x="335" y="26">
:</text>
</g>
<g class="nonterminal">
<rect height="22" width="148" x="359" y="10"/>
<text x="433" y="26">
descriptive text</text>
</g>
<path d=" M 311 21 h 10"/>
<path d=" M 349 21 h 10"/>
</g>
<path d=" M 163 21 a 12 12 0 0 1 12 12 v 9 m 344 0 v -9 a 12 12 0 0 1 12 -12"/>
<path d=" M 175 42 v 99 m 0 -46 l -5 -5 m 10 0 l -5 5 m 0 46 m 344 0 v -99 m 0 52 l -5 5 m 10 0 l -5 -5 m 0 -52"/>
<path d=" M 175 141 v 33 m 344 0 v -33"/>
<path d=" M 175 174 v 66 m 0 -30 l -5 -5 m 10 0 l -5 5 m 0 30 m 344 0 v -66 m 0 36 l -5 5 m 10 0 l -5 -5 m 0 -36"/>
<path d=" M 175 240 v 33 m 344 0 v -33"/>
<path d=" M 175 273 v 33 m 344 0 v -33"/>
<path d=" M 175 42 v 0 a 12 12 0 0 0 12 12 m 312 0 h 8 a 12 12 0 0 0 12 -12 v 0"/>
<g class="sequence">
<g class="terminal">
<rect height="22" rx="10" ry="10" width="116" x="187" y="43"/>
<text x="245" y="59">
&quot;visibility&quot;</text>
</g>
<g class="terminal">
<rect height="22" rx="10" ry="10" width="28" x="313" y="43"/>
<text x="327" y="59">
:</text>
</g>
<g class="choice">
<path d=" M 351 54 h 24 m 76 0 h 48"/>
<g class="terminal">
<rect height="22" rx="10" ry="10" width="76" x="375" y="43"/>
<text x="413" y="59">
&quot;expert</text>
</g>
<path d=" M 351 54 a 12 12 0 0 1 12 12 v 9 m 124 0 v -9 a 12 12 0 0 1 12 -12"/>
<path d=" M 363 75 v 33 m 124 0 v -33"/>
<path d=" M 363 75 v 0 a 12 12 0 0 0 12 12 m 100 0 h 0 a 12 12 0 0 0 12 -12 v 0"/>
<g class="terminal">
<rect height="22" rx="10" ry="10" width="100" x="375" y="76"/>
<text x="425" y="92">
&quot;advanced&quot;</text>
</g>
<path d=" M 363 108 v 0 a 12 12 0 0 0 12 12 m 68 0 h 32 a 12 12 0 0 0 12 -12 v 0"/>
<g class="terminal">
<rect height="22" rx="10" ry="10" width="68" x="375" y="109"/>
<text x="409" y="125">
&quot;user&quot;</text>
</g>
</g>
<path d=" M 303 54 h 10"/>
<path d=" M 341 54 h 10"/>
</g>
<path d=" M 175 141 v 0 a 12 12 0 0 0 12 12 m 216 0 h 104 m -49 0 l -5 -5 m 0 10 l 5 -5 m 49 0 a 12 12 0 0 0 12 -12 v 0"/>
<g class="sequence">
<g class="terminal">
<rect height="22" rx="10" ry="10" width="76" x="187" y="142"/>
<text x="225" y="158">
&quot;group&quot;</text>
</g>
<g class="terminal">
<rect height="22" rx="10" ry="10" width="28" x="273" y="142"/>
<text x="287" y="158">
:</text>
</g>
<g class="nonterminal">
<rect height="22" width="92" x="311" y="142"/>
<text x="357" y="158">
groupname</text>
</g>
<path d=" M 263 153 h 10"/>
<path d=" M 301 153 h 10"/>
</g>
<path d=" M 175 174 v 0 a 12 12 0 0 0 12 12 m 256 0 h 64 m -29 0 l -5 -5 m 0 10 l 5 -5 m 29 0 a 12 12 0 0 0 12 -12 v 0"/>
<g class="sequence">
<g class="terminal">
<rect height="22" rx="10" ry="10" width="100" x="187" y="175"/>
<text x="237" y="191">
&quot;readonly&quot;</text>
</g>
<g class="terminal">
<rect height="22" rx="10" ry="10" width="28" x="297" y="175"/>
<text x="311" y="191">
:</text>
</g>
<g class="choice">
<path d=" M 335 186 h 24 m 52 0 h 32"/>
<g class="terminal">
<rect height="22" rx="10" ry="10" width="52" x="359" y="175"/>
<text x="385" y="191">
true</text>
</g>
<path d=" M 335 186 a 12 12 0 0 1 12 12 v 9 m 84 0 v -9 a 12 12 0 0 1 12 -12"/>
<path d=" M 347 207 v 0 a 12 12 0 0 0 12 12 m 60 0 h 0 a 12 12 0 0 0 12 -12 v 0"/>
<g class="terminal">
<rect height="22" rx="10" ry="10" width="60" x="359" y="208"/>
<text x="389" y="224">
false</text>
</g>
</g>
<path d=" M 287 186 h 10"/>
<path d=" M 325 186 h 10"/>
</g>
<path d=" M 175 240 v 0 a 12 12 0 0 0 12 12 m 272 0 h 48 a 12 12 0 0 0 12 -12 v 0"/>
<g class="sequence">
<g class="terminal">
<rect height="22" rx="10" ry="10" width="68" x="187" y="241"/>
<text x="221" y="257">
&quot;unit&quot;</text>
</g>
<g class="terminal">
<rect height="22" rx="10" ry="10" width="28" x="265" y="241"/>
<text x="279" y="257">
:</text>
</g>
<g class="nonterminal">
<rect height="22" width="156" x="303" y="241"/>
<text x="381" y="257">
unit of parameter</text>
</g>
<path d=" M 255 252 h 10"/>
<path d=" M 293 252 h 10"/>
</g>
<path d=" M 175 273 v 0 a 12 12 0 0 0 12 12 m 232 0 h 88 m -41 0 l -5 -5 m 0 10 l 5 -5 m 41 0 a 12 12 0 0 0 12 -12 v 0"/>
<g class="sequence">
<g class="terminal">
<rect height="22" rx="10" ry="10" width="100" x="187" y="274"/>
<text x="237" y="290">
&quot;datatype&quot;</text>
</g>
<g class="terminal">
<rect height="22" rx="10" ry="10" width="28" x="297" y="274"/>
<text x="311" y="290">
:</text>
</g>
<g class="nonterminal">
<rect height="22" width="84" x="335" y="274"/>
<text x="377" y="290">
datatype</text>
</g>
<path d=" M 287 285 h 10"/>
<path d=" M 325 285 h 10"/>
</g>
<path d=" M 175 306 v 0 a 12 12 0 0 0 12 12 m 140 0 h 180 m -87 0 l -5 -5 m 0 10 l 5 -5 m 87 0 a 12 12 0 0 0 12 -12 v 0"/>
<g class="sequence">
<g class="nonterminal">
<rect height="22" width="140" x="187" y="307"/>
<text x="257" y="323">
custom-property</text>
</g>
</g>
</g>
<path d=" M 153 21 h 10"/>
</g>
<path d=" M 541 21 h 5 m -5 5 l 5 -5 l -5 -5 m 5 5"/>
<path d=" M 531 21 h 10"/>
</g>
</svg>