<svg class="railroad" viewBox="0 0 557 131" width="557" xmlns="http://www.w3.org/2000/svg">
<style type="text/css">

    svg.railroad {
        background-color: hsl(30, 20%, 95%);
        background-size: 15px 15px;
        background-image: linear-gradient(to right, rgba(30, 30, 30, .05) 1px, transparent 1px),
                          linear-gradient(to bottom, rgba(30, 30, 30, .05) 1px, transparent 1px);
    }

    svg.railroad path {
        stroke-width: 3px;
        stroke: black;
        fill: transparent;
    }

    svg.railroad .debug {
        stroke-width: 1px;
        stroke: red;
    }

    svg.railroad text {
        font: 14px monospace;
        text-anchor: middle;
    }

    svg.railroad .nonterminal text {
        font-weight: bold;
    }

    svg.railroad text.comment {
        font: italic 12px monospace;
    }

    svg.railroad rect {
        stroke-width: 3px;
        stroke: black;
        fill:hsl(-290, 70%, 90%);
    }

    svg.railroad g.labeledbox &gt; rect {
        stroke-width: 1px;
        stroke: grey;
        stroke-dasharray: 5px;
        fill:rgba(90, 90, 150, .1);
    }</style>
<g class="sequence">
<g class="sequence">
<g>
<text class="comment" x="95" y="75">
accessible-description</text>
</g>
<g class="labeledbox">
<rect height="111" width="336" x="191" y="10"/>
<path d=" M 191 70 h 8 m 320 0 h 8"/>
<g>
<text class="comment" x="330" y="33">
a json-object, keys MUST be unique!</text>
</g>
<g class="sequence">
<g class="terminal">
<rect height="22" rx="10" ry="10" width="28" x="199" y="59"/>
<text x="213" y="75">
{</text>
</g>
<g class="optional">
<path d=" M 237 70 h 24 m -24 0 a 12 12 0 0 0 12 -12 v 0 a 12 12 0 0 1 12 -12 h 196 m -95 0 l -5 -5 m 0 10 l 5 -5 m 95 0 a 12 12 0 0 1 12 12 v 0 a 12 12 0 0 0 12 12 h -24"/>
<g class="sequence">
<g class="repeat">
<path d=" M 261 70 h 12 m 172 0 h 12 m -12 0 a 12 12 0 0 1 12 12 v 8 a 12 12 0 0 1 -12 12 m -28 0 h -144 m 75 0 l 5 -5 m 0 10 l -5 -5 m -75 0 a 12 12 0 0 1 -12 -12 v -8 a 12 12 0 0 1 12 -12"/>
<g class="terminal">
<rect height="22" rx="10" ry="10" width="28" x="417" y="91"/>
<text x="431" y="107">
,</text>
</g>
<g class="nonterminal">
<rect height="22" width="172" x="273" y="59"/>
<text x="359" y="75">
accessible-property</text>
</g>
</g>
</g>
</g>
<g class="terminal">
<rect height="22" rx="10" ry="10" width="28" x="491" y="59"/>
<text x="505" y="75">
}</text>
</g>
<path d=" M 227 70 h 10"/>
<path d=" M 481 70 h 10"/>
</g>
</g>
<path d=" M 181 70 h 10"/>
</g>
<path d=" M 537 70 h 5 m -5 5 l 5 -5 l -5 -5 m 5 5"/>
<path d=" M 527 70 h 10"/>
</g>
</svg>