<svg class="railroad" viewBox="0 0 575 339" xmlns="http://www.w3.org/2000/svg">
<style type="text/css">

    svg.railroad {
        background-color: hsl(30, 20%, 95%);
        background-size: 15px 15px;
        background-image: linear-gradient(to right, rgba(30, 30, 30, .05) 1px, transparent 1px),
                          linear-gradient(to bottom, rgba(30, 30, 30, .05) 1px, transparent 1px);
    }

    svg.railroad path {
        stroke-width: 3px;
        stroke: black;
        fill: transparent;
    }

    svg.railroad .debug {
        stroke-width: 1px;
        stroke: red;
    }

    svg.railroad text {
        font: 14px monospace;
        text-anchor: middle;
    }

    svg.railroad .nonterminal text {
        font-weight: bold;
    }

    svg.railroad text.comment {
        font: italic 12px monospace;
    }

    svg.railroad rect {
        stroke-width: 3px;
        stroke: black;
        fill:hsl(-290, 70%, 90%);
    }

    svg.railroad g.labeledbox > rect {
        stroke-width: 1px;
        stroke: grey;
        stroke-dasharray: 5px;
        fill:rgba(90, 90, 150, .1);
    }</style>
<g class="sequence">
<path d=" M 10 21 a 5 5 0 0 1 5 -5 a 5 5 0 0 1 5 5 a 5 5 0 0 1 -5 5 a 5 5 0 0 1 -5 -5 m 10 0 h 5"/>
<g class="sequence">
<text class="comment" x="106" y="26">
accessible-property</text>
<g class="choice">
<path d=" M 188 21 h 24 m 304 0 h 24"/>
<g class="sequence">
<g class="terminal">
<rect height="22" rx="10" ry="10" width="108" x="212" y="10"/>
<text x="266" y="26">
description</text>
</g>
<g class="terminal">
<rect height="22" rx="10" ry="10" width="28" x="330" y="10"/>
<text x="344" y="26">
:</text>
</g>
<g class="nonterminal">
<rect height="22" width="148" x="368" y="10"/>
<text x="442" y="26">
descriptive text</text>
</g>
<path d=" M 320 21 h 10"/>
<path d=" M 358 21 h 10"/>
</g>
<path d=" M 188 21 a 12 12 0 0 1 12 12 v 9 m 328 0 v -9 a 12 12 0 0 1 12 -12"/>
<path d=" M 200 42 v 99 m 0 -46 l -5 -5 m 10 0 l -5 5 m 0 46 m 328 0 v -99 m 0 52 l -5 5 m 10 0 l -5 -5 m 0 -52"/>
<path d=" M 200 141 v 33 m 328 0 v -33"/>
<path d=" M 200 174 v 66 m 0 -30 l -5 -5 m 10 0 l -5 5 m 0 30 m 328 0 v -66 m 0 36 l -5 5 m 10 0 l -5 -5 m 0 -36"/>
<path d=" M 200 240 v 33 m 328 0 v -33"/>
<path d=" M 200 273 v 33 m 328 0 v -33"/>
<path d=" M 200 42 v 0 a 12 12 0 0 0 12 12 m 280 0 h 24 a 12 12 0 0 0 12 -12 v 0"/>
<g class="sequence">
<g class="terminal">
<rect height="22" rx="10" ry="10" width="100" x="212" y="43"/>
<text x="262" y="59">
visibility</text>
</g>
<g class="terminal">
<rect height="22" rx="10" ry="10" width="28" x="322" y="43"/>
<text x="336" y="59">
:</text>
</g>
<g class="choice">
<path d=" M 360 54 h 24 m 68 0 h 40"/>
<g class="terminal">
<rect height="22" rx="10" ry="10" width="68" x="384" y="43"/>
<text x="418" y="59">
expert</text>
</g>
<path d=" M 360 54 a 12 12 0 0 1 12 12 v 9 m 108 0 v -9 a 12 12 0 0 1 12 -12"/>
<path d=" M 372 75 v 33 m 108 0 v -33"/>
<path d=" M 372 75 v 0 a 12 12 0 0 0 12 12 m 84 0 h 0 a 12 12 0 0 0 12 -12 v 0"/>
<g class="terminal">
<rect height="22" rx="10" ry="10" width="84" x="384" y="76"/>
<text x="426" y="92">
advanced</text>
</g>
<path d=" M 372 108 v 0 a 12 12 0 0 0 12 12 m 52 0 h 32 a 12 12 0 0 0 12 -12 v 0"/>
<g class="terminal">
<rect height="22" rx="10" ry="10" width="52" x="384" y="109"/>
<text x="410" y="125">
user</text>
</g>
</g>
<path d=" M 312 54 h 10"/>
<path d=" M 350 54 h 10"/>
</g>
<path d=" M 200 141 v 0 a 12 12 0 0 0 12 12 m 200 0 h 104 m -49 0 l -5 -5 m 0 10 l 5 -5 m 49 0 a 12 12 0 0 0 12 -12 v 0"/>
<g class="sequence">
<g class="terminal">
<rect height="22" rx="10" ry="10" width="60" x="212" y="142"/>
<text x="242" y="158">
group</text>
</g>
<g class="terminal">
<rect height="22" rx="10" ry="10" width="28" x="282" y="142"/>
<text x="296" y="158">
:</text>
</g>
<g class="nonterminal">
<rect height="22" width="92" x="320" y="142"/>
<text x="366" y="158">
groupname</text>
</g>
<path d=" M 272 153 h 10"/>
<path d=" M 310 153 h 10"/>
</g>
<path d=" M 200 174 v 0 a 12 12 0 0 0 12 12 m 240 0 h 64 m -29 0 l -5 -5 m 0 10 l 5 -5 m 29 0 a 12 12 0 0 0 12 -12 v 0"/>
<g class="sequence">
<g class="terminal">
<rect height="22" rx="10" ry="10" width="84" x="212" y="175"/>
<text x="254" y="191">
readonly</text>
</g>
<g class="terminal">
<rect height="22" rx="10" ry="10" width="28" x="306" y="175"/>
<text x="320" y="191">
:</text>
</g>
<g class="choice">
<path d=" M 344 186 h 24 m 52 0 h 32"/>
<g class="terminal">
<rect height="22" rx="10" ry="10" width="52" x="368" y="175"/>
<text x="394" y="191">
true</text>
</g>
<path d=" M 344 186 a 12 12 0 0 1 12 12 v 9 m 84 0 v -9 a 12 12 0 0 1 12 -12"/>
<path d=" M 356 207 v 0 a 12 12 0 0 0 12 12 m 60 0 h 0 a 12 12 0 0 0 12 -12 v 0"/>
<g class="terminal">
<rect height="22" rx="10" ry="10" width="60" x="368" y="208"/>
<text x="398" y="224">
false</text>
</g>
</g>
<path d=" M 296 186 h 10"/>
<path d=" M 334 186 h 10"/>
</g>
<path d=" M 200 240 v 0 a 12 12 0 0 0 12 12 m 256 0 h 48 a 12 12 0 0 0 12 -12 v 0"/>
<g class="sequence">
<g class="terminal">
<rect height="22" rx="10" ry="10" width="52" x="212" y="241"/>
<text x="238" y="257">
unit</text>
</g>
<g class="terminal">
<rect height="22" rx="10" ry="10" width="28" x="274" y="241"/>
<text x="288" y="257">
:</text>
</g>
<g class="nonterminal">
<rect height="22" width="156" x="312" y="241"/>
<text x="390" y="257">
unit of parameter</text>
</g>
<path d=" M 264 252 h 10"/>
<path d=" M 302 252 h 10"/>
</g>
<path d=" M 200 273 v 0 a 12 12 0 0 0 12 12 m 216 0 h 88 m -41 0 l -5 -5 m 0 10 l 5 -5 m 41 0 a 12 12 0 0 0 12 -12 v 0"/>
<g class="sequence">
<g class="terminal">
<rect height="22" rx="10" ry="10" width="84" x="212" y="274"/>
<text x="254" y="290">
datatype</text>
</g>
<g class="terminal">
<rect height="22" rx="10" ry="10" width="28" x="306" y="274"/>
<text x="320" y="290">
:</text>
</g>
<g class="nonterminal">
<rect height="22" width="84" x="344" y="274"/>
<text x="386" y="290">
datatype</text>
</g>
<path d=" M 296 285 h 10"/>
<path d=" M 334 285 h 10"/>
</g>
<path d=" M 200 306 v 0 a 12 12 0 0 0 12 12 m 84 0 h 220 m -107 0 l -5 -5 m 0 10 l 5 -5 m 107 0 a 12 12 0 0 0 12 -12 v 0"/>
<g class="sequence">
<g class="nonterminal">
<rect height="22" width="84" x="212" y="307"/>
<text x="254" y="323">
property</text>
</g>
</g>
</g>
<path d=" M 178 21 h 10"/>
</g>
<path d=" M 550 21 h 5 a 5 5 0 0 1 5 -5 a 5 5 0 0 1 5 5 a 5 5 0 0 1 -5 5 a 5 5 0 0 1 -5 -5"/>
<path d=" M 25 21 h 10"/>
<path d=" M 540 21 h 10"/>
</g>
</svg>
