<svg class="railroad" viewBox="0 0 270 75" width="270" xmlns="http://www.w3.org/2000/svg">
<style type="text/css">

    svg.railroad {
        background-color: hsl(30, 20%, 95%);
        background-size: 15px 15px;
        background-image: linear-gradient(to right, rgba(30, 30, 30, .05) 1px, transparent 1px),
                          linear-gradient(to bottom, rgba(30, 30, 30, .05) 1px, transparent 1px);
    }

    svg.railroad path {
        stroke-width: 3px;
        stroke: black;
        fill: transparent;
    }

    svg.railroad .debug {
        stroke-width: 1px;
        stroke: red;
    }

    svg.railroad text {
        font: 14px monospace;
        text-anchor: middle;
    }

    svg.railroad .nonterminal text {
        font-weight: bold;
    }

    svg.railroad text.comment {
        font: italic 12px monospace;
    }

    svg.railroad rect {
        stroke-width: 3px;
        stroke: black;
        fill:hsl(-290, 70%, 90%);
    }

    svg.railroad g.labeledbox &gt; rect {
        stroke-width: 1px;
        stroke: grey;
        stroke-dasharray: 5px;
        fill:rgba(90, 90, 150, .1);
    }</style>
<g class="sequence">
<g class="sequence">
<g>
<text class="comment" x="50" y="26">
accessible</text>
</g>
<g class="choice">
<path d=" M 100 21 h 24 m 92 0 h 24"/>
<g class="nonterminal">
<rect height="22" width="92" x="124" y="10"/>
<text x="170" y="26">
parameter</text>
</g>
<path d=" M 100 21 a 12 12 0 0 1 12 12 v 9 m 116 0 v -9 a 12 12 0 0 1 12 -12"/>
<path d=" M 112 42 v 0 a 12 12 0 0 0 12 12 m 76 0 h 16 a 12 12 0 0 0 12 -12 v 0"/>
<g class="nonterminal">
<rect height="22" width="76" x="124" y="43"/>
<text x="162" y="59">
command</text>
</g>
</g>
<path d=" M 90 21 h 10"/>
</g>
<path d=" M 250 21 h 5 m -5 5 l 5 -5 l -5 -5 m 5 5"/>
<path d=" M 240 21 h 10"/>
</g>
</svg>