<svg class="railroad" viewBox="0 0 492 612" width="393pt" xmlns="http://www.w3.org/2000/svg">
<style type="text/css">

    svg.railroad {
        background-color: hsl(30, 20%, 95%);
        background-size: 15px 15px;
        background-image: linear-gradient(to right, rgba(30, 30, 30, .05) 1px, transparent 1px),
                          linear-gradient(to bottom, rgba(30, 30, 30, .05) 1px, transparent 1px);
    }

    svg.railroad path {
        stroke-width: 3px;
        stroke: black;
        fill: transparent;
    }

    svg.railroad .debug {
        stroke-width: 1px;
        stroke: red;
    }

    svg.railroad text {
        font: 14px monospace;
        text-anchor: middle;
    }

    svg.railroad .nonterminal text {
        font-weight: bold;
    }

    svg.railroad text.comment {
        font: italic 12px monospace;
    }

    svg.railroad rect {
        stroke-width: 3px;
        stroke: black;
        fill:hsl(-290, 70%, 90%);
    }

    svg.railroad g.labeledbox > rect {
        stroke-width: 1px;
        stroke: grey;
        stroke-dasharray: 5px;
        fill:rgba(90, 90, 150, .1);
    }</style>
<g class="verticalgrid">
<g class="horizontalgrid">
<g class="nonterminal">
<rect height="22" width="172" x="10" y="10"/>
<text x="96" y="26">
accessible-property</text>
</g>
</g>
<g class="sequence">
<path d=" M 10 86 l 5 5 l -5 5 m 5 -5 h 5"/>
<g class="sequence">
<g class="choice">
<path d=" M 30 91 h 24 m 384 0 h 24"/>
<g class="labeledbox">
<rect height="99" width="384" x="54" y="44"/>
<path d=" M 54 91 h 8 m 368 0 h 8"/>
<g>
<text class="comment" x="123" y="67">
always mandatory</text>
</g>
<g class="choice">
<path d=" M 62 91 h 24 m 320 0 h 24"/>
<g class="sequence">
<g class="terminal">
<rect height="22" rx="10" ry="10" width="124" x="86" y="80"/>
<text x="148" y="96">
&quot;description&quot;</text>
</g>
<g class="terminal">
<rect height="22" rx="10" ry="10" width="28" x="220" y="80"/>
<text x="234" y="96">
:</text>
</g>
<g class="nonterminal">
<rect height="22" width="148" x="258" y="80"/>
<text x="332" y="96">
descriptive text</text>
</g>
<path d=" M 210 91 h 10"/>
<path d=" M 248 91 h 10"/>
</g>
<path d=" M 62 91 a 12 12 0 0 1 12 12 v 9 m 344 0 v -9 a 12 12 0 0 1 12 -12"/>
<path d=" M 74 112 v 0 a 12 12 0 0 0 12 12 m 232 0 h 88 m -41 0 l -5 -5 m 0 10 l 5 -5 m 41 0 a 12 12 0 0 0 12 -12 v 0"/>
<g class="sequence">
<g class="terminal">
<rect height="22" rx="10" ry="10" width="100" x="86" y="113"/>
<text x="136" y="129">
&quot;datatype&quot;</text>
</g>
<g class="terminal">
<rect height="22" rx="10" ry="10" width="28" x="196" y="113"/>
<text x="210" y="129">
:</text>
</g>
<g class="nonterminal">
<rect height="22" width="84" x="234" y="113"/>
<text x="276" y="129">
datatype</text>
</g>
<path d=" M 186 124 h 10"/>
<path d=" M 224 124 h 10"/>
</g>
</g>
</g>
<path d=" M 30 91 a 12 12 0 0 1 12 12 v 50 m 408 0 v -50 a 12 12 0 0 1 12 -12"/>
<path d=" M 42 188 v 74 m 0 -34 l -5 -5 m 10 0 l -5 5 m 0 34 m 408 0 v -74 m 0 40 l -5 5 m 10 0 l -5 -5 m 0 -40"/>
<path d=" M 42 297 v 173 m 0 -83 l -5 -5 m 10 0 l -5 5 m 0 83 m 408 0 v -173 m 0 89 l -5 5 m 10 0 l -5 -5 m 0 -89"/>
<path d=" M 42 153 v 35 a 12 12 0 0 0 12 12 m 272 0 h 112 m -53 0 l -5 -5 m 0 10 l 5 -5 m 53 0 a 12 12 0 0 0 12 -12 v -35"/>
<g class="labeledbox">
<rect height="99" width="272" x="54" y="153"/>
<path d=" M 54 200 h 8 m 256 0 h 8"/>
<g>
<text class="comment" x="154" y="176">
mandatory for parameters</text>
</g>
<g class="choice">
<path d=" M 62 200 h 0 m 256 0 h 0"/>
<g class="sequence">
<g class="terminal">
<rect height="22" rx="10" ry="10" width="100" x="62" y="189"/>
<text x="112" y="205">
&quot;readonly&quot;</text>
</g>
<g class="terminal">
<rect height="22" rx="10" ry="10" width="28" x="172" y="189"/>
<text x="186" y="205">
:</text>
</g>
<g class="choice">
<path d=" M 210 200 h 24 m 52 0 h 32"/>
<g class="terminal">
<rect height="22" rx="10" ry="10" width="52" x="234" y="189"/>
<text x="260" y="205">
true</text>
</g>
<path d=" M 210 200 a 12 12 0 0 1 12 12 v 9 m 84 0 v -9 a 12 12 0 0 1 12 -12"/>
<path d=" M 222 221 v 0 a 12 12 0 0 0 12 12 m 60 0 h 0 a 12 12 0 0 0 12 -12 v 0"/>
<g class="terminal">
<rect height="22" rx="10" ry="10" width="60" x="234" y="222"/>
<text x="264" y="238">
false</text>
</g>
</g>
<path d=" M 162 200 h 10"/>
<path d=" M 200 200 h 10"/>
</g>
</g>
</g>
<path d=" M 42 262 v 35 a 12 12 0 0 0 12 12 m 376 0 h 8 a 12 12 0 0 0 12 -12 v -35"/>
<g class="labeledbox">
<rect height="198" width="376" x="54" y="262"/>
<path d=" M 54 309 h 8 m 360 0 h 8"/>
<g>
<text class="comment" x="95" y="285">
optional</text>
</g>
<g class="choice">
<path d=" M 62 309 h 24 m 312 0 h 24"/>
<g class="sequence">
<g class="terminal">
<rect height="22" rx="10" ry="10" width="116" x="86" y="298"/>
<text x="144" y="314">
&quot;visibility&quot;</text>
</g>
<g class="terminal">
<rect height="22" rx="10" ry="10" width="28" x="212" y="298"/>
<text x="226" y="314">
:</text>
</g>
<g class="choice">
<path d=" M 250 309 h 24 m 76 0 h 48"/>
<g class="terminal">
<rect height="22" rx="10" ry="10" width="76" x="274" y="298"/>
<text x="312" y="314">
&quot;expert</text>
</g>
<path d=" M 250 309 a 12 12 0 0 1 12 12 v 9 m 124 0 v -9 a 12 12 0 0 1 12 -12"/>
<path d=" M 262 330 v 33 m 124 0 v -33"/>
<path d=" M 262 330 v 0 a 12 12 0 0 0 12 12 m 100 0 h 0 a 12 12 0 0 0 12 -12 v 0"/>
<g class="terminal">
<rect height="22" rx="10" ry="10" width="100" x="274" y="331"/>
<text x="324" y="347">
&quot;advanced&quot;</text>
</g>
<path d=" M 262 363 v 0 a 12 12 0 0 0 12 12 m 68 0 h 32 a 12 12 0 0 0 12 -12 v 0"/>
<g class="terminal">
<rect height="22" rx="10" ry="10" width="68" x="274" y="364"/>
<text x="308" y="380">
&quot;user&quot;</text>
</g>
</g>
<path d=" M 202 309 h 10"/>
<path d=" M 240 309 h 10"/>
</g>
<path d=" M 62 309 a 12 12 0 0 1 12 12 v 75 m 0 -34 l -5 -5 m 10 0 l -5 5 m 0 34 m 336 0 v -75 m 0 40 l -5 5 m 10 0 l -5 -5 m 0 -40 a 12 12 0 0 1 12 -12"/>
<path d=" M 74 396 v 33 m 336 0 v -33"/>
<path d=" M 74 396 v 0 a 12 12 0 0 0 12 12 m 216 0 h 96 m -45 0 l -5 -5 m 0 10 l 5 -5 m 45 0 a 12 12 0 0 0 12 -12 v 0"/>
<g class="sequence">
<g class="terminal">
<rect height="22" rx="10" ry="10" width="76" x="86" y="397"/>
<text x="124" y="413">
&quot;group&quot;</text>
</g>
<g class="terminal">
<rect height="22" rx="10" ry="10" width="28" x="172" y="397"/>
<text x="186" y="413">
:</text>
</g>
<g class="nonterminal">
<rect height="22" width="92" x="210" y="397"/>
<text x="256" y="413">
groupname</text>
</g>
<path d=" M 162 408 h 10"/>
<path d=" M 200 408 h 10"/>
</g>
<path d=" M 74 429 v 0 a 12 12 0 0 0 12 12 m 140 0 h 172 m -83 0 l -5 -5 m 0 10 l 5 -5 m 83 0 a 12 12 0 0 0 12 -12 v 0"/>
<g class="sequence">
<g class="nonterminal">
<rect height="22" width="140" x="86" y="430"/>
<text x="156" y="446">
custom-property</text>
</g>
</g>
</g>
</g>
<path d=" M 42 470 v 35 a 12 12 0 0 0 12 12 m 336 0 h 48 a 12 12 0 0 0 12 -12 v -35"/>
<g class="labeledbox">
<rect height="132" width="336" x="54" y="470"/>
<path d=" M 54 517 h 8 m 320 0 h 8"/>
<g>
<text class="comment" x="179" y="493">
optional for numeric parameters</text>
</g>
<g class="choice">
<path d=" M 62 517 h 24 m 272 0 h 24"/>
<g class="sequence">
<g class="terminal">
<rect height="22" rx="10" ry="10" width="68" x="86" y="506"/>
<text x="120" y="522">
&quot;unit&quot;</text>
</g>
<g class="terminal">
<rect height="22" rx="10" ry="10" width="28" x="164" y="506"/>
<text x="178" y="522">
:</text>
</g>
<g class="nonterminal">
<rect height="22" width="156" x="202" y="506"/>
<text x="280" y="522">
unit of parameter</text>
</g>
<path d=" M 154 517 h 10"/>
<path d=" M 192 517 h 10"/>
</g>
<path d=" M 62 517 a 12 12 0 0 1 12 12 v 9 m 296 0 v -9 a 12 12 0 0 1 12 -12"/>
<path d=" M 74 538 v 33 m 296 0 v -33"/>
<path d=" M 74 538 v 0 a 12 12 0 0 0 12 12 m 248 0 h 24 a 12 12 0 0 0 12 -12 v 0"/>
<g class="sequence">
<g class="terminal">
<rect height="22" rx="10" ry="10" width="108" x="86" y="539"/>
<text x="140" y="555">
&quot;precision&quot;</text>
</g>
<g class="terminal">
<rect height="22" rx="10" ry="10" width="28" x="204" y="539"/>
<text x="218" y="555">
:</text>
</g>
<g class="nonterminal">
<rect height="22" width="92" x="242" y="539"/>
<text x="288" y="555">
precision</text>
</g>
<path d=" M 194 550 h 10"/>
<path d=" M 232 550 h 10"/>
</g>
<path d=" M 74 571 v 0 a 12 12 0 0 0 12 12 m 200 0 h 72 m -33 0 l -5 -5 m 0 10 l 5 -5 m 33 0 a 12 12 0 0 0 12 -12 v 0"/>
<g class="sequence">
<g class="terminal">
<rect height="22" rx="10" ry="10" width="84" x="86" y="572"/>
<text x="128" y="588">
&quot;fmtstr&quot;</text>
</g>
<g class="terminal">
<rect height="22" rx="10" ry="10" width="28" x="180" y="572"/>
<text x="194" y="588">
:</text>
</g>
<g class="nonterminal">
<rect height="22" width="68" x="218" y="572"/>
<text x="252" y="588">
fmtstr</text>
</g>
<path d=" M 170 583 h 10"/>
<path d=" M 208 583 h 10"/>
</g>
</g>
</g>
</g>
</g>
<path d=" M 472 91 h 5 m -5 5 l 5 -5 l -5 -5 m 5 5"/>
<path d=" M 20 91 h 10"/>
<path d=" M 462 91 h 10"/>
</g>
</g>
</svg>
