<svg class="railroad" viewBox="0 0 434 146" width="347pt" xmlns="http://www.w3.org/2000/svg">
<style type="text/css">

    svg.railroad {
        background-color: hsl(30, 20%, 95%);
        background-size: 15px 15px;
        background-image: linear-gradient(to right, rgba(30, 30, 30, .05) 1px, transparent 1px),
                          linear-gradient(to bottom, rgba(30, 30, 30, .05) 1px, transparent 1px);
    }

    svg.railroad path {
        stroke-width: 3px;
        stroke: black;
        fill: transparent;
    }

    svg.railroad .debug {
        stroke-width: 1px;
        stroke: red;
    }

    svg.railroad text {
        font: 14px monospace;
        text-anchor: middle;
    }

    svg.railroad .nonterminal text {
        font-weight: bold;
    }

    svg.railroad text.comment {
        font: italic 12px monospace;
    }

    svg.railroad rect {
        stroke-width: 3px;
        stroke: black;
        fill:hsl(-290, 70%, 90%);
    }

    svg.railroad g.labeledbox > rect {
        stroke-width: 1px;
        stroke: grey;
        stroke-dasharray: 5px;
        fill:rgba(90, 90, 150, .1);
    }</style>
<g class="verticalgrid">
<g class="horizontalgrid">
<g class="nonterminal">
<rect height="22" width="204" x="10" y="10"/>
<text x="112" y="26">
accessible-description</text>
</g>
</g>
<g class="sequence">
<path d=" M 10 99 l 5 5 l -5 5 m 5 -5 h 5"/>
<g class="sequence">
<g class="labeledbox">
<rect height="92" width="374" x="30" y="44"/>
<path d=" M 30 104 h 8 m 358 0 h 8"/>
<g>
<text class="comment" x="88" y="67">
a JSON object</text>
</g>
<g class="sequence">
<g class="terminal">
<rect height="22" rx="10" ry="10" width="28" x="38" y="93"/>
<text x="52" y="109">
{</text>
</g>
<g class="optional">
<path d=" M 76 104 h 24 m -24 0 a 12 12 0 0 0 12 -12 v 0 a 12 12 0 0 1 12 -12 h 234 m -114 0 l -5 -5 m 0 10 l 5 -5 m 114 0 a 12 12 0 0 1 12 12 v 0 a 12 12 0 0 0 12 12 h -24"/>
<g class="sequence">
<g class="repeat">
<path d=" M 100 104 h 12 m 210 0 h 12 m -12 0 a 12 12 0 0 1 12 12 v 0 a 12 12 0 0 1 -12 12 m 0 0 h -210 m 108 0 l 5 -5 m 0 10 l -5 -5 m -108 0 a 12 12 0 0 1 -12 -12 v 0 a 12 12 0 0 1 12 -12"/>
<g/>
<g class="sequence">
<g class="nonterminal">
<rect height="22" width="172" x="112" y="93"/>
<text x="198" y="109">
accessible-property</text>
</g>
<g class="terminal">
<rect height="22" rx="10" ry="10" width="28" x="294" y="93"/>
<text x="308" y="109">
,</text>
</g>
<path d=" M 284 104 h 10"/>
</g>
</g>
</g>
</g>
<g class="terminal">
<rect height="22" rx="10" ry="10" width="28" x="368" y="93"/>
<text x="382" y="109">
}</text>
</g>
<path d=" M 66 104 h 10"/>
<path d=" M 358 104 h 10"/>
</g>
</g>
</g>
<path d=" M 414 104 h 5 m -5 5 l 5 -5 l -5 -5 m 5 5"/>
<path d=" M 20 104 h 10"/>
<path d=" M 404 104 h 10"/>
</g>
</g>
</svg>
