<svg class="railroad" viewBox="0 0 654 531" xmlns="http://www.w3.org/2000/svg">
<style type="text/css">

    svg.railroad {
        background-color: hsl(30, 20%, 95%);
        background-size: 15px 15px;
        background-image: linear-gradient(to right, rgba(30, 30, 30, .05) 1px, transparent 1px),
                          linear-gradient(to bottom, rgba(30, 30, 30, .05) 1px, transparent 1px);
    }

    svg.railroad path {
        stroke-width: 3px;
        stroke: black;
        fill: transparent;
    }

    svg.railroad .debug {
        stroke-width: 1px;
        stroke: red;
    }

    svg.railroad text {
        font: 14px monospace;
        text-anchor: middle;
    }

    svg.railroad .nonterminal text {
        font-weight: bold;
    }

    svg.railroad text.comment {
        font: italic 12px monospace;
    }

    svg.railroad rect {
        stroke-width: 3px;
        stroke: black;
        fill:hsl(-290, 70%, 90%);
    }

    svg.railroad g.labeledbox > rect {
        stroke-width: 1px;
        stroke: grey;
        stroke-dasharray: 5px;
        fill:rgba(90, 90, 150, .1);
    }</style>
<g class="verticalgrid">
<g class="sequence">
<path d=" M 10 57 a 5 5 0 0 1 5 -5 a 5 5 0 0 1 5 5 a 5 5 0 0 1 -5 5 a 5 5 0 0 1 -5 -5 m 10 0 h 5"/>
<g class="sequence">
<text class="comment" x="120" y="62">
accessible-description</text>
<g class="labeledbox">
<rect height="122" width="336" x="216" y="10"/>
<path d=" M 216 57 h 8 m 320 0 h 8"/>
<text class="comment" x="355" y="33">
a json-object, keys MUST be unique!</text>
<g class="sequence">
<g class="terminal">
<rect height="22" rx="10" ry="10" width="28" x="224" y="46"/>
<text x="238" y="62">
{</text>
</g>
<g class="sequence">
<g class="choice">
<path d=" M 262 57 h 24 m 0 0 h 220 m -107 0 l -5 -5 m 0 10 l 5 -5 m 107 0"/>
<g/>
<path d=" M 262 57 a 12 12 0 0 1 12 12 v 0 m 220 0 v 0 a 12 12 0 0 1 12 -12"/>
<path d=" M 274 69 v 0 a 12 12 0 0 0 12 12 m 196 0 h 0 a 12 12 0 0 0 12 -12 v 0"/>
<g class="repeat">
<path d=" M 286 81 h 12 m 172 0 h 12 m -12 0 a 12 12 0 0 1 12 12 v 8 a 12 12 0 0 1 -12 12 m -28 0 h -144 m 75 0 l 5 -5 m 0 10 l -5 -5 m -75 0 a 12 12 0 0 1 -12 -12 v -8 a 12 12 0 0 1 12 -12"/>
<g class="terminal">
<rect height="22" rx="10" ry="10" width="28" x="442" y="102"/>
<text x="456" y="118">
,</text>
</g>
<g class="sequence">
<g class="nonterminal">
<rect height="22" width="172" x="298" y="70"/>
<text x="384" y="86">
accessible-property</text>
</g>
</g>
</g>
</g>
</g>
<g class="terminal">
<rect height="22" rx="10" ry="10" width="28" x="516" y="46"/>
<text x="530" y="62">
}</text>
</g>
<path d=" M 252 57 h 10"/>
<path d=" M 506 57 h 10"/>
</g>
</g>
<path d=" M 206 57 h 10"/>
</g>
<path d=" M 562 57 h 5 a 5 5 0 0 1 5 -5 a 5 5 0 0 1 5 5 a 5 5 0 0 1 -5 5 a 5 5 0 0 1 -5 -5"/>
<path d=" M 25 57 h 10"/>
<path d=" M 552 57 h 10"/>
</g>
<g class="sequence">
<path d=" M 10 155 a 5 5 0 0 1 5 -5 a 5 5 0 0 1 5 5 a 5 5 0 0 1 -5 5 a 5 5 0 0 1 -5 -5 m 10 0 h 5"/>
<g class="sequence">
<text class="comment" x="106" y="160">
accessible-property</text>
<g class="choice">
<path d=" M 188 155 h 24 m 304 0 h 24"/>
<g class="sequence">
<g class="terminal">
<rect height="22" rx="10" ry="10" width="108" x="212" y="144"/>
<text x="266" y="160">
description</text>
</g>
<g class="terminal">
<rect height="22" rx="10" ry="10" width="28" x="330" y="144"/>
<text x="344" y="160">
:</text>
</g>
<g class="nonterminal">
<rect height="22" width="148" x="368" y="144"/>
<text x="442" y="160">
descriptive text</text>
</g>
<path d=" M 320 155 h 10"/>
<path d=" M 358 155 h 10"/>
</g>
<path d=" M 188 155 a 12 12 0 0 1 12 12 v 9 m 328 0 v -9 a 12 12 0 0 1 12 -12"/>
<path d=" M 200 176 v 99 m 0 -46 l -5 -5 m 10 0 l -5 5 m 0 46 m 328 0 v -99 m 0 52 l -5 5 m 10 0 l -5 -5 m 0 -52"/>
<path d=" M 200 275 v 33 m 328 0 v -33"/>
<path d=" M 200 308 v 66 m 0 -30 l -5 -5 m 10 0 l -5 5 m 0 30 m 328 0 v -66 m 0 36 l -5 5 m 10 0 l -5 -5 m 0 -36"/>
<path d=" M 200 374 v 33 m 328 0 v -33"/>
<path d=" M 200 176 v 0 a 12 12 0 0 0 12 12 m 280 0 h 24 a 12 12 0 0 0 12 -12 v 0"/>
<g class="sequence">
<g class="terminal">
<rect height="22" rx="10" ry="10" width="100" x="212" y="177"/>
<text x="262" y="193">
visibility</text>
</g>
<g class="terminal">
<rect height="22" rx="10" ry="10" width="28" x="322" y="177"/>
<text x="336" y="193">
:</text>
</g>
<g class="choice">
<path d=" M 360 188 h 24 m 68 0 h 40"/>
<g class="terminal">
<rect height="22" rx="10" ry="10" width="68" x="384" y="177"/>
<text x="418" y="193">
expert</text>
</g>
<path d=" M 360 188 a 12 12 0 0 1 12 12 v 9 m 108 0 v -9 a 12 12 0 0 1 12 -12"/>
<path d=" M 372 209 v 33 m 108 0 v -33"/>
<path d=" M 372 209 v 0 a 12 12 0 0 0 12 12 m 84 0 h 0 a 12 12 0 0 0 12 -12 v 0"/>
<g class="terminal">
<rect height="22" rx="10" ry="10" width="84" x="384" y="210"/>
<text x="426" y="226">
advanced</text>
</g>
<path d=" M 372 242 v 0 a 12 12 0 0 0 12 12 m 52 0 h 32 a 12 12 0 0 0 12 -12 v 0"/>
<g class="terminal">
<rect height="22" rx="10" ry="10" width="52" x="384" y="243"/>
<text x="410" y="259">
user</text>
</g>
</g>
<path d=" M 312 188 h 10"/>
<path d=" M 350 188 h 10"/>
</g>
<path d=" M 200 275 v 0 a 12 12 0 0 0 12 12 m 200 0 h 104 m -49 0 l -5 -5 m 0 10 l 5 -5 m 49 0 a 12 12 0 0 0 12 -12 v 0"/>
<g class="sequence">
<g class="terminal">
<rect height="22" rx="10" ry="10" width="60" x="212" y="276"/>
<text x="242" y="292">
group</text>
</g>
<g class="terminal">
<rect height="22" rx="10" ry="10" width="28" x="282" y="276"/>
<text x="296" y="292">
:</text>
</g>
<g class="nonterminal">
<rect height="22" width="92" x="320" y="276"/>
<text x="366" y="292">
groupname</text>
</g>
<path d=" M 272 287 h 10"/>
<path d=" M 310 287 h 10"/>
</g>
<path d=" M 200 308 v 0 a 12 12 0 0 0 12 12 m 240 0 h 64 m -29 0 l -5 -5 m 0 10 l 5 -5 m 29 0 a 12 12 0 0 0 12 -12 v 0"/>
<g class="sequence">
<g class="terminal">
<rect height="22" rx="10" ry="10" width="84" x="212" y="309"/>
<text x="254" y="325">
readonly</text>
</g>
<g class="terminal">
<rect height="22" rx="10" ry="10" width="28" x="306" y="309"/>
<text x="320" y="325">
:</text>
</g>
<g class="choice">
<path d=" M 344 320 h 24 m 52 0 h 32"/>
<g class="terminal">
<rect height="22" rx="10" ry="10" width="52" x="368" y="309"/>
<text x="394" y="325">
true</text>
</g>
<path d=" M 344 320 a 12 12 0 0 1 12 12 v 9 m 84 0 v -9 a 12 12 0 0 1 12 -12"/>
<path d=" M 356 341 v 0 a 12 12 0 0 0 12 12 m 60 0 h 0 a 12 12 0 0 0 12 -12 v 0"/>
<g class="terminal">
<rect height="22" rx="10" ry="10" width="60" x="368" y="342"/>
<text x="398" y="358">
false</text>
</g>
</g>
<path d=" M 296 320 h 10"/>
<path d=" M 334 320 h 10"/>
</g>
<path d=" M 200 374 v 0 a 12 12 0 0 0 12 12 m 256 0 h 48 a 12 12 0 0 0 12 -12 v 0"/>
<g class="sequence">
<g class="terminal">
<rect height="22" rx="10" ry="10" width="52" x="212" y="375"/>
<text x="238" y="391">
unit</text>
</g>
<g class="terminal">
<rect height="22" rx="10" ry="10" width="28" x="274" y="375"/>
<text x="288" y="391">
:</text>
</g>
<g class="nonterminal">
<rect height="22" width="156" x="312" y="375"/>
<text x="390" y="391">
unit of parameter</text>
</g>
<path d=" M 264 386 h 10"/>
<path d=" M 302 386 h 10"/>
</g>
<path d=" M 200 407 v 0 a 12 12 0 0 0 12 12 m 216 0 h 88 m -41 0 l -5 -5 m 0 10 l 5 -5 m 41 0 a 12 12 0 0 0 12 -12 v 0"/>
<g class="sequence">
<g class="terminal">
<rect height="22" rx="10" ry="10" width="84" x="212" y="408"/>
<text x="254" y="424">
datatype</text>
</g>
<g class="terminal">
<rect height="22" rx="10" ry="10" width="28" x="306" y="408"/>
<text x="320" y="424">
:</text>
</g>
<g class="nonterminal">
<rect height="22" width="84" x="344" y="408"/>
<text x="386" y="424">
datatype</text>
</g>
<path d=" M 296 419 h 10"/>
<path d=" M 334 419 h 10"/>
</g>
</g>
<path d=" M 178 155 h 10"/>
</g>
<path d=" M 550 155 h 5 a 5 5 0 0 1 5 -5 a 5 5 0 0 1 5 5 a 5 5 0 0 1 -5 5 a 5 5 0 0 1 -5 -5"/>
<path d=" M 25 155 h 10"/>
<path d=" M 540 155 h 10"/>
</g>
<g class="sequence">
<path d=" M 10 489 a 5 5 0 0 1 5 -5 a 5 5 0 0 1 5 5 a 5 5 0 0 1 -5 5 a 5 5 0 0 1 -5 -5 m 10 0 h 5"/>
<g class="sequence">
<text class="comment" x="68" y="494">
datatype</text>
<g class="labeledbox">
<rect height="79" width="508" x="111" y="442"/>
<path d=" M 111 489 h 8 m 492 0 h 8"/>
<text class="comment" x="215" y="465">
json-array of length &gt;= 1</text>
<g class="sequence">
<g class="terminal">
<rect height="22" rx="10" ry="10" width="28" x="119" y="478"/>
<text x="133" y="494">
[</text>
</g>
<g class="nonterminal">
<rect height="22" width="148" x="157" y="478"/>
<text x="231" y="494">
name of datatype</text>
</g>
<g class="repeat">
<path d=" M 315 489 h 12 m 234 0 h 12 m -12 0 a 12 12 0 0 1 12 12 v 0 a 12 12 0 0 1 -12 12 m 0 0 h -234 m 120 0 l 5 -5 m 0 10 l -5 -5 m -120 0 a 12 12 0 0 1 -12 -12 v 0 a 12 12 0 0 1 12 -12"/>
<g/>
<g class="sequence">
<g class="terminal">
<rect height="22" rx="10" ry="10" width="28" x="327" y="478"/>
<text x="341" y="494">
,</text>
</g>
<g class="nonterminal">
<rect height="22" width="196" x="365" y="478"/>
<text x="463" y="494">
parameter of datatype</text>
</g>
<path d=" M 355 489 h 10"/>
</g>
</g>
<g class="terminal">
<rect height="22" rx="10" ry="10" width="28" x="583" y="478"/>
<text x="597" y="494">
]</text>
</g>
<path d=" M 147 489 h 10"/>
<path d=" M 305 489 h 10"/>
<path d=" M 573 489 h 10"/>
</g>
</g>
<path d=" M 101 489 h 10"/>
</g>
<path d=" M 629 489 h 5 a 5 5 0 0 1 5 -5 a 5 5 0 0 1 5 5 a 5 5 0 0 1 -5 5 a 5 5 0 0 1 -5 -5"/>
<path d=" M 25 489 h 10"/>
<path d=" M 619 489 h 10"/>
</g>
</g>
</svg>
