<svg class="railroad" viewBox="0 0 394 780" width="394" xmlns="http://www.w3.org/2000/svg">
<style type="text/css">

    svg.railroad {
        background-color: hsl(30, 20%, 95%);
        background-size: 15px 15px;
        background-image: linear-gradient(to right, rgba(30, 30, 30, .05) 1px, transparent 1px),
                          linear-gradient(to bottom, rgba(30, 30, 30, .05) 1px, transparent 1px);
    }

    svg.railroad path {
        stroke-width: 3px;
        stroke: black;
        fill: transparent;
    }

    svg.railroad .debug {
        stroke-width: 1px;
        stroke: red;
    }

    svg.railroad text {
        font: 14px monospace;
        text-anchor: middle;
    }

    svg.railroad .nonterminal text {
        font-weight: bold;
    }

    svg.railroad text.comment {
        font: italic 12px monospace;
    }

    svg.railroad rect {
        stroke-width: 3px;
        stroke: black;
        fill:hsl(-290, 70%, 90%);
    }

    svg.railroad g.labeledbox &gt; rect {
        stroke-width: 1px;
        stroke: grey;
        stroke-dasharray: 5px;
        fill:rgba(90, 90, 150, .1);
    }</style>
<g class="sequence">
<g class="sequence">
<g>
<text class="comment" x="36" y="26">
action</text>
</g>
<g class="choice">
<path d=" M 72 21 h 24 m 60 0 h 208 m -101 0 l -5 -5 m 0 10 l 5 -5 m 101 0"/>
<g class="terminal">
<rect height="22" rx="10" ry="10" width="60" x="96" y="10"/>
<text x="126" y="26">
*IDN?</text>
</g>
<path d=" M 72 21 a 12 12 0 0 1 12 12 v 9 m 268 0 v -9 a 12 12 0 0 1 12 -12"/>
<path d=" M 84 42 v 81 m 0 -37 l -5 -5 m 10 0 l -5 5 m 0 37 m 268 0 v -81 m 0 43 l -5 5 m 10 0 l -5 -5 m 0 -43"/>
<path d=" M 84 123 v 33 m 268 0 v -33"/>
<path d=" M 84 156 v 33 m 268 0 v -33"/>
<path d=" M 84 189 v 33 m 268 0 v -33"/>
<path d=" M 84 222 v 33 m 268 0 v -33"/>
<path d=" M 84 255 v 33 m 268 0 v -33"/>
<path d=" M 84 288 v 33 m 268 0 v -33"/>
<path d=" M 84 321 v 33 m 268 0 v -33"/>
<path d=" M 84 354 v 33 m 268 0 v -33"/>
<path d=" M 84 387 v 33 m 268 0 v -33"/>
<path d=" M 84 420 v 33 m 268 0 v -33"/>
<path d=" M 84 453 v 33 m 268 0 v -33"/>
<path d=" M 84 486 v 33 m 268 0 v -33"/>
<path d=" M 84 519 v 33 m 268 0 v -33"/>
<path d=" M 84 552 v 33 m 268 0 v -33"/>
<path d=" M 84 585 v 33 m 268 0 v -33"/>
<path d=" M 84 618 v 33 m 268 0 v -33"/>
<path d=" M 84 42 v 0 a 12 12 0 0 0 12 12 m 244 0 h 0 a 12 12 0 0 0 12 -12 v 0"/>
<g class="stack">
<path d=" M 96 54 h 12"/>
<path d=" M 296 54 a 12 12 0 0 1 12 12 v 0 a 12 12 0 0 1 -12 12 h -188 m 97 0 l 5 -5 m 0 10 l -5 -5 m -97 0 a 12 12 0 0 0 -12 12 v 0 v 0 a 12 12 0 0 0 12 12 h 0"/>
<g class="terminal">
<rect height="22" rx="10" ry="10" width="188" x="108" y="43"/>
<text x="202" y="59">
ISSE&amp;SINE2020,SECoP,</text>
</g>
<path d=" M 316 102 h 0 a 12 12 0 0 0 12 -12 v -24 a 12 12 0 0 1 12 -12"/>
<g class="sequence">
<g class="nonterminal">
<rect height="22" width="76" x="108" y="91"/>
<text x="146" y="107">
version</text>
</g>
<g class="terminal">
<rect height="22" rx="10" ry="10" width="28" x="194" y="91"/>
<text x="208" y="107">
,</text>
</g>
<g class="nonterminal">
<rect height="22" width="84" x="232" y="91"/>
<text x="274" y="107">
add.info</text>
</g>
<path d=" M 184 102 h 10"/>
<path d=" M 222 102 h 10"/>
</g>
</g>
<path d=" M 84 123 v 0 a 12 12 0 0 0 12 12 m 84 0 h 160 m -77 0 l -5 -5 m 0 10 l 5 -5 m 77 0 a 12 12 0 0 0 12 -12 v 0"/>
<g class="terminal">
<rect height="22" rx="10" ry="10" width="84" x="96" y="124"/>
<text x="138" y="140">
describe</text>
</g>
<path d=" M 84 156 v 0 a 12 12 0 0 0 12 12 m 100 0 h 144 m -69 0 l -5 -5 m 0 10 l 5 -5 m 69 0 a 12 12 0 0 0 12 -12 v 0"/>
<g class="terminal">
<rect height="22" rx="10" ry="10" width="100" x="96" y="157"/>
<text x="146" y="173">
describing</text>
</g>
<path d=" M 84 189 v 0 a 12 12 0 0 0 12 12 m 84 0 h 160 m -77 0 l -5 -5 m 0 10 l 5 -5 m 77 0 a 12 12 0 0 0 12 -12 v 0"/>
<g class="terminal">
<rect height="22" rx="10" ry="10" width="84" x="96" y="190"/>
<text x="138" y="206">
activate</text>
</g>
<path d=" M 84 222 v 0 a 12 12 0 0 0 12 12 m 68 0 h 176 m -85 0 l -5 -5 m 0 10 l 5 -5 m 85 0 a 12 12 0 0 0 12 -12 v 0"/>
<g class="terminal">
<rect height="22" rx="10" ry="10" width="68" x="96" y="223"/>
<text x="130" y="239">
active</text>
</g>
<path d=" M 84 255 v 0 a 12 12 0 0 0 12 12 m 100 0 h 144 m -69 0 l -5 -5 m 0 10 l 5 -5 m 69 0 a 12 12 0 0 0 12 -12 v 0"/>
<g class="terminal">
<rect height="22" rx="10" ry="10" width="100" x="96" y="256"/>
<text x="146" y="272">
deactivate</text>
</g>
<path d=" M 84 288 v 0 a 12 12 0 0 0 12 12 m 84 0 h 160 m -77 0 l -5 -5 m 0 10 l 5 -5 m 77 0 a 12 12 0 0 0 12 -12 v 0"/>
<g class="terminal">
<rect height="22" rx="10" ry="10" width="84" x="96" y="289"/>
<text x="138" y="305">
inactive</text>
</g>
<path d=" M 84 321 v 0 a 12 12 0 0 0 12 12 m 52 0 h 192 m -93 0 l -5 -5 m 0 10 l 5 -5 m 93 0 a 12 12 0 0 0 12 -12 v 0"/>
<g class="terminal">
<rect height="22" rx="10" ry="10" width="52" x="96" y="322"/>
<text x="122" y="338">
ping</text>
</g>
<path d=" M 84 354 v 0 a 12 12 0 0 0 12 12 m 52 0 h 192 m -93 0 l -5 -5 m 0 10 l 5 -5 m 93 0 a 12 12 0 0 0 12 -12 v 0"/>
<g class="terminal">
<rect height="22" rx="10" ry="10" width="52" x="96" y="355"/>
<text x="122" y="371">
pong</text>
</g>
<path d=" M 84 387 v 0 a 12 12 0 0 0 12 12 m 68 0 h 176 m -85 0 l -5 -5 m 0 10 l 5 -5 m 85 0 a 12 12 0 0 0 12 -12 v 0"/>
<g class="terminal">
<rect height="22" rx="10" ry="10" width="68" x="96" y="388"/>
<text x="130" y="404">
change</text>
</g>
<path d=" M 84 420 v 0 a 12 12 0 0 0 12 12 m 76 0 h 168 m -81 0 l -5 -5 m 0 10 l 5 -5 m 81 0 a 12 12 0 0 0 12 -12 v 0"/>
<g class="terminal">
<rect height="22" rx="10" ry="10" width="76" x="96" y="421"/>
<text x="134" y="437">
changed</text>
</g>
<path d=" M 84 453 v 0 a 12 12 0 0 0 12 12 m 36 0 h 208 m -101 0 l -5 -5 m 0 10 l 5 -5 m 101 0 a 12 12 0 0 0 12 -12 v 0"/>
<g class="terminal">
<rect height="22" rx="10" ry="10" width="36" x="96" y="454"/>
<text x="114" y="470">
do</text>
</g>
<path d=" M 84 486 v 0 a 12 12 0 0 0 12 12 m 52 0 h 192 m -93 0 l -5 -5 m 0 10 l 5 -5 m 93 0 a 12 12 0 0 0 12 -12 v 0"/>
<g class="terminal">
<rect height="22" rx="10" ry="10" width="52" x="96" y="487"/>
<text x="122" y="503">
done</text>
</g>
<path d=" M 84 519 v 0 a 12 12 0 0 0 12 12 m 52 0 h 192 m -93 0 l -5 -5 m 0 10 l 5 -5 m 93 0 a 12 12 0 0 0 12 -12 v 0"/>
<g class="terminal">
<rect height="22" rx="10" ry="10" width="52" x="96" y="520"/>
<text x="122" y="536">
read</text>
</g>
<path d=" M 84 552 v 0 a 12 12 0 0 0 12 12 m 68 0 h 176 m -85 0 l -5 -5 m 0 10 l 5 -5 m 85 0 a 12 12 0 0 0 12 -12 v 0"/>
<g class="terminal">
<rect height="22" rx="10" ry="10" width="68" x="96" y="553"/>
<text x="130" y="569">
update</text>
</g>
<path d=" M 84 585 v 0 a 12 12 0 0 0 12 12 m 60 0 h 184 m -89 0 l -5 -5 m 0 10 l 5 -5 m 89 0 a 12 12 0 0 0 12 -12 v 0"/>
<g class="terminal">
<rect height="22" rx="10" ry="10" width="60" x="96" y="586"/>
<text x="126" y="602">
error</text>
</g>
<path d=" M 84 618 v 0 a 12 12 0 0 0 12 12 m 162 0 h 82 m -38 0 l -5 -5 m 0 10 l 5 -5 m 38 0 a 12 12 0 0 0 12 -12 v 0"/>
<g class="sequence">
<g class="terminal">
<rect height="22" rx="10" ry="10" width="28" x="96" y="619"/>
<text x="110" y="635">
_</text>
</g>
<g class="nonterminal">
<rect height="22" width="124" x="134" y="619"/>
<text x="196" y="635">
custom action</text>
</g>
<path d=" M 124 630 h 10"/>
</g>
<path d=" M 84 651 v 55 m 0 -24 l -5 -5 m 10 0 l -5 5 m 0 24 a 12 12 0 0 0 12 12 m 152 0 h 92 m -43 0 l -5 -5 m 0 10 l 5 -5 m 43 0 a 12 12 0 0 0 12 -12 v -55 m 0 30 l -5 5 m 10 0 l -5 -5 m 0 -30"/>
<g class="labeledbox">
<rect height="119" width="152" x="96" y="651"/>
<path d=" M 96 718 h 8 m 132 0 h 12"/>
<g>
<text class="comment" x="172" y="674">
not yet specified,</text>
<text class="comment" x="172" y="694">
see Issue 29</text>
</g>
<g class="choice">
<path d=" M 104 718 h 24 m 68 0 h 40"/>
<g class="terminal">
<rect height="22" rx="10" ry="10" width="68" x="128" y="707"/>
<text x="162" y="723">
buffer</text>
</g>
<path d=" M 104 718 a 12 12 0 0 1 12 12 v 9 m 108 0 v -9 a 12 12 0 0 1 12 -12"/>
<path d=" M 116 739 v 0 a 12 12 0 0 0 12 12 m 84 0 h 0 a 12 12 0 0 0 12 -12 v 0"/>
<g class="terminal">
<rect height="22" rx="10" ry="10" width="84" x="128" y="740"/>
<text x="170" y="756">
buffered</text>
</g>
</g>
</g>
</g>
<path d=" M 62 21 h 10"/>
</g>
<path d=" M 374 21 h 5 m -5 5 l 5 -5 l -5 -5 m 5 5"/>
<path d=" M 364 21 h 10"/>
</g>
</svg>