<svg class="railroad" viewBox="0 0 219 140" width="175pt" xmlns="http://www.w3.org/2000/svg">
<style type="text/css">

    svg.railroad {
        background-color: hsl(30, 20%, 95%);
        background-size: 15px 15px;
        background-image: linear-gradient(to right, rgba(30, 30, 30, .05) 1px, transparent 1px),
                          linear-gradient(to bottom, rgba(30, 30, 30, .05) 1px, transparent 1px);
    }

    svg.railroad path {
        stroke-width: 3px;
        stroke: black;
        fill: transparent;
    }

    svg.railroad .debug {
        stroke-width: 1px;
        stroke: red;
    }

    svg.railroad text {
        font: 14px monospace;
        text-anchor: middle;
    }

    svg.railroad .nonterminal text {
        font-weight: bold;
    }

    svg.railroad text.comment {
        font: italic 12px monospace;
    }

    svg.railroad rect {
        stroke-width: 3px;
        stroke: black;
        fill:hsl(-290, 70%, 90%);
    }

    svg.railroad g.labeledbox > rect {
        stroke-width: 1px;
        stroke: grey;
        stroke-dasharray: 5px;
        fill:rgba(90, 90, 150, .1);
    }</style>
<g class="verticalgrid">
<g class="horizontalgrid">
<g class="nonterminal">
<rect height="22" width="60" x="10" y="10"/>
<text x="40" y="26">
ASCII</text>
</g>
</g>
<g class="sequence">
<path d=" M 10 106 l 5 5 l -5 5 m 5 -5 h 5"/>
<g class="sequence">
<g class="labeledbox">
<rect height="86" width="159" x="30" y="44"/>
<path d=" M 30 111 h 8 m 92 0 h 59 m -26 0 l -5 -5 m 0 10 l 5 -5 m 26 0"/>
<g>
<text class="comment" x="109" y="67">
any byte with value</text>
<text class="comment" x="109" y="87">
32..127</text>
</g>
<g class="terminal">
<rect height="22" rx="10" ry="10" width="92" x="38" y="100"/>
<text x="84" y="116">
[x20-x7F]</text>
</g>
</g>
</g>
<path d=" M 199 111 h 5 m -5 5 l 5 -5 l -5 -5 m 5 5"/>
<path d=" M 20 111 h 10"/>
<path d=" M 189 111 h 10"/>
</g>
</g>
</svg>
