<svg class="railroad" viewBox="0 0 347 86" width="347pt" xmlns="http://www.w3.org/2000/svg">
<style type="text/css">

    svg.railroad {
        background-color: hsl(30, 20%, 95%);
        background-size: 15px 15px;
        background-image: linear-gradient(to right, rgba(30, 30, 30, .05) 1px, transparent 1px),
                          linear-gradient(to bottom, rgba(30, 30, 30, .05) 1px, transparent 1px);
    }

    svg.railroad path {
        stroke-width: 3px;
        stroke: black;
        fill: transparent;
    }

    svg.railroad .debug {
        stroke-width: 1px;
        stroke: red;
    }

    svg.railroad text {
        font: 14px monospace;
        text-anchor: middle;
    }

    svg.railroad .nonterminal text {
        font-weight: bold;
    }

    svg.railroad text.comment {
        font: italic 12px monospace;
    }

    svg.railroad rect {
        stroke-width: 3px;
        stroke: black;
        fill:hsl(-290, 70%, 90%);
    }

    svg.railroad g.labeledbox &gt; rect {
        stroke-width: 1px;
        stroke: grey;
        stroke-dasharray: 5px;
        fill:rgba(90, 90, 150, .1);
    }</style>
<g class="sequence">
<path d=" M 10 57 a 5 5 0 0 1 5 -5 a 5 5 0 0 1 5 5 a 5 5 0 0 1 -5 5 a 5 5 0 0 1 -5 -5 m 10 0 h 5"/>
<g class="sequence">
<text class="comment" x="57" y="62">
ASCII</text>
<g class="labeledbox">
<rect height="66" width="222" x="90" y="10"/>
<path d=" M 90 57 h 8 m 92 0 h 122 m -58 0 l -5 -5 m 0 10 l 5 -5 m 58 0"/>
<text class="comment" x="201" y="33">
any byte with value 32..127</text>
<g class="terminal">
<rect height="22" rx="10" ry="10" width="92" x="98" y="46"/>
<text x="144" y="62">
[x20-x7F]</text>
</g>
</g>
<path d=" M 80 57 h 10"/>
</g>
<path d=" M 322 57 h 5 a 5 5 0 0 1 5 -5 a 5 5 0 0 1 5 5 a 5 5 0 0 1 -5 5 a 5 5 0 0 1 -5 -5"/>
<path d=" M 25 57 h 10"/>
<path d=" M 312 57 h 10"/>
</g>
</svg>