<svg class="railroad" viewBox="0 0 240 120" width="192pt" xmlns="http://www.w3.org/2000/svg">
<style type="text/css">

    svg.railroad {
        background-color: hsl(30, 20%, 95%);
        background-size: 15px 15px;
        background-image: linear-gradient(to right, rgba(30, 30, 30, .05) 1px, transparent 1px),
                          linear-gradient(to bottom, rgba(30, 30, 30, .05) 1px, transparent 1px);
    }

    svg.railroad path {
        stroke-width: 3px;
        stroke: black;
        fill: transparent;
    }

    svg.railroad .debug {
        stroke-width: 1px;
        stroke: red;
    }

    svg.railroad text {
        font: 14px monospace;
        text-anchor: middle;
    }

    svg.railroad .nonterminal text {
        font-weight: bold;
    }

    svg.railroad text.comment {
        font: italic 12px monospace;
    }

    svg.railroad rect {
        stroke-width: 3px;
        stroke: black;
        fill:hsl(-290, 70%, 90%);
    }

    svg.railroad g.labeledbox > rect {
        stroke-width: 1px;
        stroke: grey;
        stroke-dasharray: 5px;
        fill:rgba(90, 90, 150, .1);
    }</style>
<g class="verticalgrid">
<g class="horizontalgrid">
<g class="nonterminal">
<rect height="22" width="44" x="10" y="10"/>
<text x="32" y="26">
CTL</text>
</g>
</g>
<g class="sequence">
<path d=" M 10 86 l 5 5 l -5 5 m 5 -5 h 5"/>
<g class="sequence">
<g class="labeledbox">
<rect height="66" width="180" x="30" y="44"/>
<path d=" M 30 91 h 8 m 92 0 h 80 m -37 0 l -5 -5 m 0 10 l 5 -5 m 37 0"/>
<g>
<text class="comment" x="120" y="67">
any byte less than 32</text>
</g>
<g class="terminal">
<rect height="22" rx="10" ry="10" width="92" x="38" y="80"/>
<text x="84" y="96">
[x00-x1F]</text>
</g>
</g>
</g>
<path d=" M 220 91 h 5 m -5 5 l 5 -5 l -5 -5 m 5 5"/>
<path d=" M 20 91 h 10"/>
<path d=" M 210 91 h 10"/>
</g>
</g>
</svg>
