<svg class="railroad" viewBox="0 0 654 110" width="654pt" xmlns="http://www.w3.org/2000/svg">
<style type="text/css">

    svg.railroad {
        background-color: hsl(30, 20%, 95%);
        background-size: 15px 15px;
        background-image: linear-gradient(to right, rgba(30, 30, 30, .05) 1px, transparent 1px),
                          linear-gradient(to bottom, rgba(30, 30, 30, .05) 1px, transparent 1px);
    }

    svg.railroad path {
        stroke-width: 3px;
        stroke: black;
        fill: transparent;
    }

    svg.railroad .debug {
        stroke-width: 1px;
        stroke: red;
    }

    svg.railroad text {
        font: 14px monospace;
        text-anchor: middle;
    }

    svg.railroad .nonterminal text {
        font-weight: bold;
    }

    svg.railroad text.comment {
        font: italic 12px monospace;
    }

    svg.railroad rect {
        stroke-width: 3px;
        stroke: black;
        fill:hsl(-290, 70%, 90%);
    }

    svg.railroad g.labeledbox &gt; rect {
        stroke-width: 1px;
        stroke: grey;
        stroke-dasharray: 5px;
        fill:rgba(90, 90, 150, .1);
    }</style>
<g class="sequence">
<path d=" M 10 57 a 5 5 0 0 1 5 -5 a 5 5 0 0 1 5 5 a 5 5 0 0 1 -5 5 a 5 5 0 0 1 -5 -5 m 10 0 h 5"/>
<g class="sequence">
<text class="comment" x="68" y="62">
datatype</text>
<g class="labeledbox">
<rect height="90" width="508" x="111" y="10"/>
<path d=" M 111 57 h 8 m 492 0 h 8"/>
<text class="comment" x="215" y="33">
json-array of length &gt;= 1</text>
<g class="sequence">
<g class="terminal">
<rect height="22" rx="10" ry="10" width="28" x="119" y="46"/>
<text x="133" y="62">
[</text>
</g>
<g class="nonterminal">
<rect height="22" width="148" x="157" y="46"/>
<text x="231" y="62">
name of datatype</text>
</g>
<g class="repeat">
<path d=" M 315 57 h 12 m 0 0 h 246 m -120 0 l -5 -5 m 0 10 l 5 -5 m 120 0 m -12 0 a 12 12 0 0 1 12 12 v 0 a 12 12 0 0 1 -12 12 m -234 0 h 0 a 12 12 0 0 1 -12 -12 v 0 a 12 12 0 0 1 12 -12"/>
<g class="sequence">
<g class="nonterminal">
<rect height="22" width="196" x="327" y="70"/>
<text x="425" y="86">
parameter of datatype</text>
</g>
<g class="terminal">
<rect height="22" rx="10" ry="10" width="28" x="533" y="70"/>
<text x="547" y="86">
,</text>
</g>
<path d=" M 523 81 h 10"/>
</g>
<g/>
</g>
<g class="terminal">
<rect height="22" rx="10" ry="10" width="28" x="583" y="46"/>
<text x="597" y="62">
]</text>
</g>
<path d=" M 147 57 h 10"/>
<path d=" M 305 57 h 10"/>
<path d=" M 573 57 h 10"/>
</g>
</g>
<path d=" M 101 57 h 10"/>
</g>
<path d=" M 629 57 h 5 a 5 5 0 0 1 5 -5 a 5 5 0 0 1 5 5 a 5 5 0 0 1 -5 5 a 5 5 0 0 1 -5 -5"/>
<path d=" M 25 57 h 10"/>
<path d=" M 619 57 h 10"/>
</g>
</svg>