<svg class="railroad" viewBox="0 0 624 110" width="624" xmlns="http://www.w3.org/2000/svg">
<style type="text/css">

    svg.railroad {
        background-color: hsl(30, 20%, 95%);
        background-size: 15px 15px;
        background-image: linear-gradient(to right, rgba(30, 30, 30, .05) 1px, transparent 1px),
                          linear-gradient(to bottom, rgba(30, 30, 30, .05) 1px, transparent 1px);
    }

    svg.railroad path {
        stroke-width: 3px;
        stroke: black;
        fill: transparent;
    }

    svg.railroad .debug {
        stroke-width: 1px;
        stroke: red;
    }

    svg.railroad text {
        font: 14px monospace;
        text-anchor: middle;
    }

    svg.railroad .nonterminal text {
        font-weight: bold;
    }

    svg.railroad text.comment {
        font: italic 12px monospace;
    }

    svg.railroad rect {
        stroke-width: 3px;
        stroke: black;
        fill:hsl(-290, 70%, 90%);
    }

    svg.railroad g.labeledbox &gt; rect {
        stroke-width: 1px;
        stroke: grey;
        stroke-dasharray: 5px;
        fill:rgba(90, 90, 150, .1);
    }</style>
<g class="sequence">
<g class="sequence">
<g>
<text class="comment" x="43" y="62">
datatype</text>
</g>
<g class="labeledbox">
<rect height="90" width="508" x="86" y="10"/>
<path d=" M 86 57 h 8 m 492 0 h 8"/>
<g>
<text class="comment" x="190" y="33">
json-array of length &gt;= 1</text>
</g>
<g class="sequence">
<g class="terminal">
<rect height="22" rx="10" ry="10" width="28" x="94" y="46"/>
<text x="108" y="62">
[</text>
</g>
<g class="nonterminal">
<rect height="22" width="148" x="132" y="46"/>
<text x="206" y="62">
name of datatype</text>
</g>
<g class="repeat">
<path d=" M 290 57 h 12 m 0 0 h 246 m -120 0 l -5 -5 m 0 10 l 5 -5 m 120 0 m -12 0 a 12 12 0 0 1 12 12 v 0 a 12 12 0 0 1 -12 12 m -234 0 h 0 a 12 12 0 0 1 -12 -12 v 0 a 12 12 0 0 1 12 -12"/>
<g class="sequence">
<g class="nonterminal">
<rect height="22" width="196" x="302" y="70"/>
<text x="400" y="86">
parameter of datatype</text>
</g>
<g class="terminal">
<rect height="22" rx="10" ry="10" width="28" x="508" y="70"/>
<text x="522" y="86">
,</text>
</g>
<path d=" M 498 81 h 10"/>
</g>
<g/>
</g>
<g class="terminal">
<rect height="22" rx="10" ry="10" width="28" x="558" y="46"/>
<text x="572" y="62">
]</text>
</g>
<path d=" M 122 57 h 10"/>
<path d=" M 280 57 h 10"/>
<path d=" M 548 57 h 10"/>
</g>
</g>
<path d=" M 76 57 h 10"/>
</g>
<path d=" M 604 57 h 5 m -5 5 l 5 -5 l -5 -5 m 5 5"/>
<path d=" M 594 57 h 10"/>
</g>
</svg>