<svg class="railroad" viewBox="0 0 913 1272" width="913" xmlns="http://www.w3.org/2000/svg">
<style type="text/css">

    svg.railroad {
        background-color: hsl(30, 20%, 95%);
        background-size: 15px 15px;
        background-image: linear-gradient(to right, rgba(30, 30, 30, .05) 1px, transparent 1px),
                          linear-gradient(to bottom, rgba(30, 30, 30, .05) 1px, transparent 1px);
    }

    svg.railroad path {
        stroke-width: 3px;
        stroke: black;
        fill: transparent;
    }

    svg.railroad .debug {
        stroke-width: 1px;
        stroke: red;
    }

    svg.railroad text {
        font: 14px monospace;
        text-anchor: middle;
    }

    svg.railroad .nonterminal text {
        font-weight: bold;
    }

    svg.railroad text.comment {
        font: italic 12px monospace;
    }

    svg.railroad rect {
        stroke-width: 3px;
        stroke: black;
        fill:hsl(-290, 70%, 90%);
    }

    svg.railroad g.labeledbox &gt; rect {
        stroke-width: 1px;
        stroke: grey;
        stroke-dasharray: 5px;
        fill:rgba(90, 90, 150, .1);
    }</style>
<g class="sequence">
<g class="sequence">
<g>
<text class="comment" x="43" y="26">
datatype</text>
</g>
<g class="terminal">
<rect height="22" rx="10" ry="10" width="28" x="86" y="10"/>
<text x="100" y="26">
[</text>
</g>
<g class="choice">
<path d=" M 124 21 h 24 m 68 0 h 629 m -311 0 l -5 -5 m 0 10 l 5 -5 m 311 0"/>
<g class="sequence">
<g class="terminal">
<rect height="22" rx="10" ry="10" width="68" x="148" y="10"/>
<text x="182" y="26">
&quot;bool&quot;</text>
</g>
</g>
<path d=" M 124 21 a 12 12 0 0 1 12 12 v 9 m 697 0 v -9 a 12 12 0 0 1 12 -12"/>
<path d=" M 136 77 v 145 m 0 -69 l -5 -5 m 10 0 l -5 5 m 0 69 m 697 0 v -145 m 0 75 l -5 5 m 10 0 l -5 -5 m 0 -75"/>
<path d=" M 136 222 v 188 m 0 -91 l -5 -5 m 10 0 l -5 5 m 0 91 m 697 0 v -188 m 0 97 l -5 5 m 10 0 l -5 -5 m 0 -97"/>
<path d=" M 136 410 v 145 m 0 -69 l -5 -5 m 10 0 l -5 5 m 0 69 m 697 0 v -145 m 0 75 l -5 5 m 10 0 l -5 -5 m 0 -75"/>
<path d=" M 136 602 v 117 m 0 -55 l -5 -5 m 10 0 l -5 5 m 0 55 m 697 0 v -117 m 0 61 l -5 5 m 10 0 l -5 -5 m 0 -61"/>
<path d=" M 136 766 v 117 m 0 -55 l -5 -5 m 10 0 l -5 5 m 0 55 m 697 0 v -117 m 0 61 l -5 5 m 10 0 l -5 -5 m 0 -61"/>
<path d=" M 136 883 v 65 m 0 -29 l -5 -5 m 10 0 l -5 5 m 0 29 m 697 0 v -65 m 0 35 l -5 5 m 10 0 l -5 -5 m 0 -35"/>
<path d=" M 136 1039 v 81 m 0 -37 l -5 -5 m 10 0 l -5 5 m 0 37 m 697 0 v -81 m 0 43 l -5 5 m 10 0 l -5 -5 m 0 -43"/>
<path d=" M 136 42 v 35 a 12 12 0 0 0 12 12 m 656 0 h 17 a 12 12 0 0 0 12 -12 v -35"/>
<g class="sequence">
<g class="choice">
<path d=" M 148 89 h 24 m 100 0 h 24"/>
<g class="labeledbox">
<rect height="66" width="100" x="172" y="42"/>
<path d=" M 172 89 h 8 m 84 0 h 8"/>
<g>
<text class="comment" x="209" y="65">
numbers</text>
</g>
<g class="terminal">
<rect height="22" rx="10" ry="10" width="84" x="180" y="78"/>
<text x="222" y="94">
&quot;double&quot;</text>
</g>
</g>
<path d=" M 148 89 a 12 12 0 0 1 12 12 v 17 m 124 0 v -17 a 12 12 0 0 1 12 -12"/>
<path d=" M 160 118 v 35 a 12 12 0 0 0 12 12 m 82 0 h 18 a 12 12 0 0 0 12 -12 v -35"/>
<g class="labeledbox">
<rect height="66" width="82" x="172" y="118"/>
<path d=" M 172 165 h 8 m 60 0 h 14"/>
<g>
<text class="comment" x="213" y="141">
integers</text>
</g>
<g class="terminal">
<rect height="22" rx="10" ry="10" width="60" x="180" y="154"/>
<text x="210" y="170">
&quot;int&quot;</text>
</g>
</g>
</g>
<g class="choice">
<path d=" M 306 89 h 24 m 0 0 h 474 m -234 0 l -5 -5 m 0 10 l 5 -5 m 234 0"/>
<g/>
<path d=" M 306 89 a 12 12 0 0 1 12 12 v 0 m 474 0 v 0 a 12 12 0 0 1 12 -12"/>
<path d=" M 318 101 v 12 a 12 12 0 0 0 12 12 m 450 0 h 0 a 12 12 0 0 0 12 -12 v -12"/>
<g class="sequence">
<g class="terminal">
<rect height="22" rx="10" ry="10" width="28" x="330" y="114"/>
<text x="344" y="130">
,</text>
</g>
<g class="choice">
<path d=" M 368 125 h 24 m 92 0 h 42"/>
<g class="nonterminal">
<rect height="22" width="92" x="392" y="114"/>
<text x="438" y="130">
min_value</text>
</g>
<path d=" M 368 125 a 12 12 0 0 1 12 12 v 9 m 134 0 v -9 a 12 12 0 0 1 12 -12"/>
<path d=" M 380 146 v 35 a 12 12 0 0 0 12 12 m 110 0 h 0 a 12 12 0 0 0 12 -12 v -35"/>
<g class="labeledbox">
<rect height="66" width="110" x="392" y="146"/>
<path d=" M 392 193 h 8 m 52 0 h 50"/>
<g>
<text class="comment" x="447" y="169">
unrestricted</text>
</g>
<g class="terminal">
<rect height="22" rx="10" ry="10" width="52" x="400" y="182"/>
<text x="426" y="198">
null</text>
</g>
</g>
</g>
<g class="optional">
<path d=" M 536 125 h 24 m -24 0 a 12 12 0 0 0 12 -12 v 0 a 12 12 0 0 1 12 -12 h 196 m -95 0 l -5 -5 m 0 10 l 5 -5 m 95 0 a 12 12 0 0 1 12 12 v 0 a 12 12 0 0 0 12 12 h -24"/>
<g class="sequence">
<g class="terminal">
<rect height="22" rx="10" ry="10" width="28" x="560" y="114"/>
<text x="574" y="130">
,</text>
</g>
<g class="choice">
<path d=" M 598 125 h 24 m 92 0 h 42"/>
<g class="nonterminal">
<rect height="22" width="92" x="622" y="114"/>
<text x="668" y="130">
max_value</text>
</g>
<path d=" M 598 125 a 12 12 0 0 1 12 12 v 9 m 134 0 v -9 a 12 12 0 0 1 12 -12"/>
<path d=" M 610 146 v 35 a 12 12 0 0 0 12 12 m 110 0 h 0 a 12 12 0 0 0 12 -12 v -35"/>
<g class="labeledbox">
<rect height="66" width="110" x="622" y="146"/>
<path d=" M 622 193 h 8 m 52 0 h 50"/>
<g>
<text class="comment" x="677" y="169">
unrestricted</text>
</g>
<g class="terminal">
<rect height="22" rx="10" ry="10" width="52" x="630" y="182"/>
<text x="656" y="198">
null</text>
</g>
</g>
</g>
<path d=" M 588 125 h 10"/>
</g>
</g>
<path d=" M 358 125 h 10"/>
<path d=" M 526 125 h 10"/>
</g>
</g>
<path d=" M 296 89 h 10"/>
</g>
<path d=" M 136 222 v 0 a 12 12 0 0 0 12 12 m 588 0 h 85 m -39 0 l -5 -5 m 0 10 l 5 -5 m 39 0 a 12 12 0 0 0 12 -12 v 0"/>
<g class="sequence">
<g class="terminal">
<rect height="22" rx="10" ry="10" width="84" x="148" y="223"/>
<text x="190" y="239">
&quot;string&quot;</text>
</g>
<g class="choice">
<path d=" M 242 234 h 24 m 0 0 h 470 m -232 0 l -5 -5 m 0 10 l 5 -5 m 232 0"/>
<g/>
<path d=" M 242 234 a 12 12 0 0 1 12 12 v 0 m 470 0 v 0 a 12 12 0 0 1 12 -12"/>
<path d=" M 254 246 v 47 a 12 12 0 0 0 12 12 m 446 0 h 0 a 12 12 0 0 0 12 -12 v -47"/>
<g class="sequence">
<g class="terminal">
<rect height="22" rx="10" ry="10" width="28" x="266" y="294"/>
<text x="280" y="310">
,</text>
</g>
<g class="choice">
<path d=" M 304 305 h 24 m 108 0 h 24"/>
<g class="labeledbox">
<rect height="66" width="108" x="328" y="258"/>
<path d=" M 328 305 h 8 m 92 0 h 8"/>
<g>
<text class="comment" x="365" y="281">
integer</text>
</g>
<g class="nonterminal">
<rect height="22" width="92" x="336" y="294"/>
<text x="382" y="310">
max_bytes</text>
</g>
</g>
<path d=" M 304 305 a 12 12 0 0 1 12 12 v 17 m 132 0 v -17 a 12 12 0 0 1 12 -12"/>
<path d=" M 316 334 v 35 a 12 12 0 0 0 12 12 m 96 0 h 12 a 12 12 0 0 0 12 -12 v -35"/>
<g class="labeledbox">
<rect height="66" width="96" x="328" y="334"/>
<path d=" M 328 381 h 8 m 52 0 h 36"/>
<g>
<text class="comment" x="376" y="357">
assume 255</text>
</g>
<g class="terminal">
<rect height="22" rx="10" ry="10" width="52" x="336" y="370"/>
<text x="362" y="386">
null</text>
</g>
</g>
</g>
<g class="optional">
<path d=" M 470 305 h 24 m -24 0 a 12 12 0 0 0 12 -12 v -35 a 12 12 0 0 1 12 -12 h 194 m -94 0 l -5 -5 m 0 10 l 5 -5 m 94 0 a 12 12 0 0 1 12 12 v 35 a 12 12 0 0 0 12 12 h -24"/>
<g class="sequence">
<g class="terminal">
<rect height="22" rx="10" ry="10" width="28" x="494" y="294"/>
<text x="508" y="310">
,</text>
</g>
<g class="choice">
<path d=" M 532 305 h 24 m 108 0 h 24"/>
<g class="labeledbox">
<rect height="66" width="108" x="556" y="258"/>
<path d=" M 556 305 h 8 m 92 0 h 8"/>
<g>
<text class="comment" x="593" y="281">
integer</text>
</g>
<g class="nonterminal">
<rect height="22" width="92" x="564" y="294"/>
<text x="610" y="310">
min_bytes</text>
</g>
</g>
<path d=" M 532 305 a 12 12 0 0 1 12 12 v 17 m 132 0 v -17 a 12 12 0 0 1 12 -12"/>
<path d=" M 544 334 v 35 a 12 12 0 0 0 12 12 m 82 0 h 26 a 12 12 0 0 0 12 -12 v -35"/>
<g class="labeledbox">
<rect height="66" width="82" x="556" y="334"/>
<path d=" M 556 381 h 8 m 52 0 h 22"/>
<g>
<text class="comment" x="597" y="357">
assume 0</text>
</g>
<g class="terminal">
<rect height="22" rx="10" ry="10" width="52" x="564" y="370"/>
<text x="590" y="386">
null</text>
</g>
</g>
</g>
<path d=" M 522 305 h 10"/>
</g>
</g>
<path d=" M 294 305 h 10"/>
<path d=" M 460 305 h 10"/>
</g>
</g>
<path d=" M 232 234 h 10"/>
</g>
<path d=" M 136 410 v 0 a 12 12 0 0 0 12 12 m 580 0 h 93 m -43 0 l -5 -5 m 0 10 l 5 -5 m 43 0 a 12 12 0 0 0 12 -12 v 0"/>
<g class="sequence">
<g class="terminal">
<rect height="22" rx="10" ry="10" width="92" x="148" y="411"/>
<text x="194" y="427">
&quot;command&quot;</text>
</g>
<g class="choice">
<path d=" M 250 422 h 24 m 0 0 h 454 m -224 0 l -5 -5 m 0 10 l 5 -5 m 224 0"/>
<g/>
<path d=" M 250 422 a 12 12 0 0 1 12 12 v 0 m 454 0 v 0 a 12 12 0 0 1 12 -12"/>
<path d=" M 262 434 v 47 a 12 12 0 0 0 12 12 m 430 0 h 0 a 12 12 0 0 0 12 -12 v -47"/>
<g class="sequence">
<g class="terminal">
<rect height="22" rx="10" ry="10" width="28" x="274" y="482"/>
<text x="288" y="498">
,</text>
</g>
<g class="choice">
<path d=" M 312 493 h 24 m 100 0 h 24"/>
<g class="labeledbox">
<rect height="66" width="100" x="336" y="446"/>
<path d=" M 336 493 h 8 m 84 0 h 8"/>
<g>
<text class="comment" x="377" y="469">
argument</text>
</g>
<g class="nonterminal">
<rect height="22" width="84" x="344" y="482"/>
<text x="386" y="498">
datatype</text>
</g>
</g>
<path d=" M 312 493 a 12 12 0 0 1 12 12 v 17 m 124 0 v -17 a 12 12 0 0 1 12 -12"/>
<path d=" M 324 522 v 0 a 12 12 0 0 0 12 12 m 52 0 h 48 a 12 12 0 0 0 12 -12 v 0"/>
<g class="terminal">
<rect height="22" rx="10" ry="10" width="52" x="336" y="523"/>
<text x="362" y="539">
null</text>
</g>
</g>
<g class="optional">
<path d=" M 470 493 h 24 m -24 0 a 12 12 0 0 0 12 -12 v -35 a 12 12 0 0 1 12 -12 h 186 m -90 0 l -5 -5 m 0 10 l 5 -5 m 90 0 a 12 12 0 0 1 12 12 v 35 a 12 12 0 0 0 12 12 h -24"/>
<g class="sequence">
<g class="terminal">
<rect height="22" rx="10" ry="10" width="28" x="494" y="482"/>
<text x="508" y="498">
,</text>
</g>
<g class="choice">
<path d=" M 532 493 h 24 m 100 0 h 24"/>
<g class="labeledbox">
<rect height="66" width="100" x="556" y="446"/>
<path d=" M 556 493 h 8 m 84 0 h 8"/>
<g>
<text class="comment" x="590" y="469">
result</text>
</g>
<g class="nonterminal">
<rect height="22" width="84" x="564" y="482"/>
<text x="606" y="498">
datatype</text>
</g>
</g>
<path d=" M 532 493 a 12 12 0 0 1 12 12 v 17 m 124 0 v -17 a 12 12 0 0 1 12 -12"/>
<path d=" M 544 522 v 0 a 12 12 0 0 0 12 12 m 52 0 h 48 a 12 12 0 0 0 12 -12 v 0"/>
<g class="terminal">
<rect height="22" rx="10" ry="10" width="52" x="556" y="523"/>
<text x="582" y="539">
null</text>
</g>
</g>
<path d=" M 522 493 h 10"/>
</g>
</g>
<path d=" M 302 493 h 10"/>
<path d=" M 460 493 h 10"/>
</g>
</g>
<path d=" M 240 422 h 10"/>
</g>
<path d=" M 136 555 v 47 a 12 12 0 0 0 12 12 m 476 0 h 197 m -95 0 l -5 -5 m 0 10 l 5 -5 m 95 0 a 12 12 0 0 0 12 -12 v -47"/>
<g class="sequence">
<g class="terminal">
<rect height="22" rx="10" ry="10" width="68" x="148" y="603"/>
<text x="182" y="619">
&quot;blob&quot;</text>
</g>
<g class="sequence">
<g class="terminal">
<rect height="22" rx="10" ry="10" width="28" x="226" y="603"/>
<text x="240" y="619">
,</text>
</g>
<g class="labeledbox">
<rect height="66" width="108" x="264" y="567"/>
<path d=" M 264 614 h 8 m 92 0 h 8"/>
<g>
<text class="comment" x="301" y="590">
integer</text>
</g>
<g class="nonterminal">
<rect height="22" width="92" x="272" y="603"/>
<text x="318" y="619">
max_bytes</text>
</g>
</g>
<g class="optional">
<path d=" M 382 614 h 24 m -24 0 a 12 12 0 0 0 12 -12 v -35 a 12 12 0 0 1 12 -12 h 194 m -94 0 l -5 -5 m 0 10 l 5 -5 m 94 0 a 12 12 0 0 1 12 12 v 35 a 12 12 0 0 0 12 12 h -24"/>
<g class="sequence">
<g class="terminal">
<rect height="22" rx="10" ry="10" width="28" x="406" y="603"/>
<text x="420" y="619">
,</text>
</g>
<g class="choice">
<path d=" M 444 614 h 24 m 108 0 h 24"/>
<g class="labeledbox">
<rect height="66" width="108" x="468" y="567"/>
<path d=" M 468 614 h 8 m 92 0 h 8"/>
<g>
<text class="comment" x="505" y="590">
integer</text>
</g>
<g class="nonterminal">
<rect height="22" width="92" x="476" y="603"/>
<text x="522" y="619">
min_bytes</text>
</g>
</g>
<path d=" M 444 614 a 12 12 0 0 1 12 12 v 17 m 132 0 v -17 a 12 12 0 0 1 12 -12"/>
<path d=" M 456 643 v 35 a 12 12 0 0 0 12 12 m 82 0 h 26 a 12 12 0 0 0 12 -12 v -35"/>
<g class="labeledbox">
<rect height="66" width="82" x="468" y="643"/>
<path d=" M 468 690 h 8 m 52 0 h 22"/>
<g>
<text class="comment" x="509" y="666">
assume 1</text>
</g>
<g class="terminal">
<rect height="22" rx="10" ry="10" width="52" x="476" y="679"/>
<text x="502" y="695">
null</text>
</g>
</g>
</g>
<path d=" M 434 614 h 10"/>
</g>
</g>
<path d=" M 254 614 h 10"/>
<path d=" M 372 614 h 10"/>
</g>
<path d=" M 216 614 h 10"/>
</g>
<path d=" M 136 719 v 47 a 12 12 0 0 0 12 12 m 673 0 h 0 a 12 12 0 0 0 12 -12 v -47"/>
<g class="sequence">
<g class="terminal">
<rect height="22" rx="10" ry="10" width="76" x="148" y="767"/>
<text x="186" y="783">
&quot;array&quot;</text>
</g>
<g class="terminal">
<rect height="22" rx="10" ry="10" width="28" x="234" y="767"/>
<text x="248" y="783">
,</text>
</g>
<g class="nonterminal">
<rect height="22" width="84" x="272" y="767"/>
<text x="314" y="783">
datatype</text>
</g>
<g class="terminal">
<rect height="22" rx="10" ry="10" width="28" x="366" y="767"/>
<text x="380" y="783">
,</text>
</g>
<g class="choice">
<path d=" M 404 778 h 24 m 108 0 h 33"/>
<g class="labeledbox">
<rect height="66" width="108" x="428" y="731"/>
<path d=" M 428 778 h 8 m 92 0 h 8"/>
<g>
<text class="comment" x="465" y="754">
integer</text>
</g>
<g class="nonterminal">
<rect height="22" width="92" x="436" y="767"/>
<text x="482" y="783">
max_items</text>
</g>
</g>
<path d=" M 404 778 a 12 12 0 0 1 12 12 v 17 m 141 0 v -17 a 12 12 0 0 1 12 -12"/>
<path d=" M 416 807 v 35 a 12 12 0 0 0 12 12 m 117 0 h 0 a 12 12 0 0 0 12 -12 v -35"/>
<g class="labeledbox">
<rect height="66" width="117" x="428" y="807"/>
<path d=" M 428 854 h 8 m 52 0 h 57 m -25 0 l -5 -5 m 0 10 l 5 -5 m 25 0"/>
<g>
<text class="comment" x="486" y="830">
unrestricted!</text>
</g>
<g class="terminal">
<rect height="22" rx="10" ry="10" width="52" x="436" y="843"/>
<text x="462" y="859">
null</text>
</g>
</g>
</g>
<g class="optional">
<path d=" M 579 778 h 24 m -24 0 a 12 12 0 0 0 12 -12 v -35 a 12 12 0 0 1 12 -12 h 194 m -94 0 l -5 -5 m 0 10 l 5 -5 m 94 0 a 12 12 0 0 1 12 12 v 35 a 12 12 0 0 0 12 12 h -24"/>
<g class="sequence">
<g class="terminal">
<rect height="22" rx="10" ry="10" width="28" x="603" y="767"/>
<text x="617" y="783">
,</text>
</g>
<g class="choice">
<path d=" M 641 778 h 24 m 108 0 h 24"/>
<g class="labeledbox">
<rect height="66" width="108" x="665" y="731"/>
<path d=" M 665 778 h 8 m 92 0 h 8"/>
<g>
<text class="comment" x="702" y="754">
integer</text>
</g>
<g class="nonterminal">
<rect height="22" width="92" x="673" y="767"/>
<text x="719" y="783">
min_items</text>
</g>
</g>
<path d=" M 641 778 a 12 12 0 0 1 12 12 v 17 m 132 0 v -17 a 12 12 0 0 1 12 -12"/>
<path d=" M 653 807 v 35 a 12 12 0 0 0 12 12 m 82 0 h 26 a 12 12 0 0 0 12 -12 v -35"/>
<g class="labeledbox">
<rect height="66" width="82" x="665" y="807"/>
<path d=" M 665 854 h 8 m 52 0 h 22"/>
<g>
<text class="comment" x="706" y="830">
assume 0</text>
</g>
<g class="terminal">
<rect height="22" rx="10" ry="10" width="52" x="673" y="843"/>
<text x="699" y="859">
null</text>
</g>
</g>
</g>
<path d=" M 631 778 h 10"/>
</g>
</g>
<path d=" M 224 778 h 10"/>
<path d=" M 262 778 h 10"/>
<path d=" M 356 778 h 10"/>
<path d=" M 394 778 h 10"/>
<path d=" M 569 778 h 10"/>
</g>
<path d=" M 136 883 v 0 a 12 12 0 0 0 12 12 m 308 0 h 365 m -179 0 l -5 -5 m 0 10 l 5 -5 m 179 0 a 12 12 0 0 0 12 -12 v 0"/>
<g class="sequence">
<g class="terminal">
<rect height="22" rx="10" ry="10" width="76" x="148" y="884"/>
<text x="186" y="900">
&quot;tuple&quot;</text>
</g>
<g class="terminal">
<rect height="22" rx="10" ry="10" width="28" x="234" y="884"/>
<text x="248" y="900">
,</text>
</g>
<g class="terminal">
<rect height="22" rx="10" ry="10" width="28" x="272" y="884"/>
<text x="286" y="900">
[</text>
</g>
<g class="repeat">
<path d=" M 310 895 h 12 m 84 0 h 12 m -12 0 a 12 12 0 0 1 12 12 v 8 a 12 12 0 0 1 -12 12 m -28 0 h -56 m 31 0 l 5 -5 m 0 10 l -5 -5 m -31 0 a 12 12 0 0 1 -12 -12 v -8 a 12 12 0 0 1 12 -12"/>
<g class="terminal">
<rect height="22" rx="10" ry="10" width="28" x="378" y="916"/>
<text x="392" y="932">
,</text>
</g>
<g class="nonterminal">
<rect height="22" width="84" x="322" y="884"/>
<text x="364" y="900">
datatype</text>
</g>
</g>
<g class="terminal">
<rect height="22" rx="10" ry="10" width="28" x="428" y="884"/>
<text x="442" y="900">
]</text>
</g>
<path d=" M 224 895 h 10"/>
<path d=" M 262 895 h 10"/>
<path d=" M 300 895 h 10"/>
<path d=" M 418 895 h 10"/>
</g>
<path d=" M 136 948 v 91 m 0 -42 l -5 -5 m 10 0 l -5 5 m 0 42 a 12 12 0 0 0 12 12 m 584 0 h 89 m -41 0 l -5 -5 m 0 10 l 5 -5 m 41 0 a 12 12 0 0 0 12 -12 v -91 m 0 48 l -5 5 m 10 0 l -5 -5 m 0 -48"/>
<g class="sequence">
<g class="terminal">
<rect height="22" rx="10" ry="10" width="68" x="148" y="1040"/>
<text x="182" y="1056">
&quot;enum&quot;</text>
</g>
<g class="terminal">
<rect height="22" rx="10" ry="10" width="28" x="226" y="1040"/>
<text x="240" y="1056">
,</text>
</g>
<g class="labeledbox">
<rect height="162" width="468" x="264" y="948"/>
<path d=" M 264 1051 h 8 m 452 0 h 8"/>
<g>
<text class="comment" x="410" y="971">
a json-object with at least one entry</text>
</g>
<g class="sequence">
<g class="terminal">
<rect height="22" rx="10" ry="10" width="28" x="272" y="1040"/>
<text x="286" y="1056">
{</text>
</g>
<g class="repeat">
<path d=" M 310 1051 h 12 m 352 0 h 12 m -12 0 a 12 12 0 0 1 12 12 v 16 a 12 12 0 0 1 -12 12 m -28 0 h -324 m 165 0 l 5 -5 m 0 10 l -5 -5 m -165 0 a 12 12 0 0 1 -12 -12 v -16 a 12 12 0 0 1 12 -12"/>
<g class="terminal">
<rect height="22" rx="10" ry="10" width="28" x="646" y="1080"/>
<text x="660" y="1096">
,</text>
</g>
<g class="sequence">
<g class="labeledbox">
<rect height="66" width="173" x="322" y="1004"/>
<path d=" M 322 1051 h 8 m 44 0 h 121 m -57 0 l -5 -5 m 0 10 l 5 -5 m 57 0"/>
<g>
<text class="comment" x="408" y="1027">
keys MUST be unique!</text>
</g>
<g class="nonterminal">
<rect height="22" width="44" x="330" y="1040"/>
<text x="352" y="1056">
key</text>
</g>
</g>
<g class="terminal">
<rect height="22" rx="10" ry="10" width="28" x="505" y="1040"/>
<text x="519" y="1056">
:</text>
</g>
<g class="labeledbox">
<rect height="86" width="131" x="543" y="984"/>
<path d=" M 543 1051 h 8 m 60 0 h 63 m -28 0 l -5 -5 m 0 10 l 5 -5 m 28 0"/>
<g>
<text class="comment" x="608" y="1007">
integer values,</text>
<text class="comment" x="608" y="1027">
MUST be unique!</text>
</g>
<g class="nonterminal">
<rect height="22" width="60" x="551" y="1040"/>
<text x="581" y="1056">
value</text>
</g>
</g>
<path d=" M 495 1051 h 10"/>
<path d=" M 533 1051 h 10"/>
</g>
</g>
<g class="terminal">
<rect height="22" rx="10" ry="10" width="28" x="696" y="1040"/>
<text x="710" y="1056">
}</text>
</g>
<path d=" M 300 1051 h 10"/>
<path d=" M 686 1051 h 10"/>
</g>
</g>
<path d=" M 216 1051 h 10"/>
<path d=" M 254 1051 h 10"/>
</g>
<path d=" M 136 1120 v 71 m 0 -32 l -5 -5 m 10 0 l -5 5 m 0 32 a 12 12 0 0 0 12 12 m 560 0 h 113 m -53 0 l -5 -5 m 0 10 l 5 -5 m 53 0 a 12 12 0 0 0 12 -12 v -71 m 0 38 l -5 5 m 10 0 l -5 -5 m 0 -38"/>
<g class="sequence">
<g class="terminal">
<rect height="22" rx="10" ry="10" width="84" x="148" y="1192"/>
<text x="190" y="1208">
&quot;struct&quot;</text>
</g>
<g class="terminal">
<rect height="22" rx="10" ry="10" width="28" x="242" y="1192"/>
<text x="256" y="1208">
,</text>
</g>
<g class="labeledbox">
<rect height="142" width="428" x="280" y="1120"/>
<path d=" M 280 1203 h 8 m 412 0 h 8"/>
<g>
<text class="comment" x="426" y="1143">
a json-object with at least one entry</text>
</g>
<g class="sequence">
<g class="terminal">
<rect height="22" rx="10" ry="10" width="28" x="288" y="1192"/>
<text x="302" y="1208">
{</text>
</g>
<g class="repeat">
<path d=" M 326 1203 h 12 m 312 0 h 12 m -12 0 a 12 12 0 0 1 12 12 v 16 a 12 12 0 0 1 -12 12 m -28 0 h -284 m 145 0 l 5 -5 m 0 10 l -5 -5 m -145 0 a 12 12 0 0 1 -12 -12 v -16 a 12 12 0 0 1 12 -12"/>
<g class="terminal">
<rect height="22" rx="10" ry="10" width="28" x="622" y="1232"/>
<text x="636" y="1248">
,</text>
</g>
<g class="sequence">
<g class="labeledbox">
<rect height="66" width="180" x="338" y="1156"/>
<path d=" M 338 1203 h 8 m 52 0 h 120 m -57 0 l -5 -5 m 0 10 l 5 -5 m 57 0"/>
<g>
<text class="comment" x="428" y="1179">
names MUST be unique!</text>
</g>
<g class="nonterminal">
<rect height="22" width="52" x="346" y="1192"/>
<text x="372" y="1208">
name</text>
</g>
</g>
<g class="terminal">
<rect height="22" rx="10" ry="10" width="28" x="528" y="1192"/>
<text x="542" y="1208">
:</text>
</g>
<g class="nonterminal">
<rect height="22" width="84" x="566" y="1192"/>
<text x="608" y="1208">
datatype</text>
</g>
<path d=" M 518 1203 h 10"/>
<path d=" M 556 1203 h 10"/>
</g>
</g>
<g class="terminal">
<rect height="22" rx="10" ry="10" width="28" x="672" y="1192"/>
<text x="686" y="1208">
}</text>
</g>
<path d=" M 316 1203 h 10"/>
<path d=" M 662 1203 h 10"/>
</g>
</g>
<path d=" M 232 1203 h 10"/>
<path d=" M 270 1203 h 10"/>
</g>
</g>
<g class="terminal">
<rect height="22" rx="10" ry="10" width="28" x="855" y="10"/>
<text x="869" y="26">
]</text>
</g>
<path d=" M 76 21 h 10"/>
<path d=" M 114 21 h 10"/>
<path d=" M 845 21 h 10"/>
</g>
<path d=" M 893 21 h 5 m -5 5 l 5 -5 l -5 -5 m 5 5"/>
<path d=" M 883 21 h 10"/>
</g>
</svg>