<svg class="railroad" viewBox="0 0 729 188" width="729" xmlns="http://www.w3.org/2000/svg">
<style type="text/css">

    svg.railroad {
        background-color: hsl(30, 20%, 95%);
        background-size: 15px 15px;
        background-image: linear-gradient(to right, rgba(30, 30, 30, .05) 1px, transparent 1px),
                          linear-gradient(to bottom, rgba(30, 30, 30, .05) 1px, transparent 1px);
    }

    svg.railroad path {
        stroke-width: 3px;
        stroke: black;
        fill: transparent;
    }

    svg.railroad .debug {
        stroke-width: 1px;
        stroke: red;
    }

    svg.railroad text {
        font: 14px monospace;
        text-anchor: middle;
    }

    svg.railroad .nonterminal text {
        font-weight: bold;
    }

    svg.railroad text.comment {
        font: italic 12px monospace;
    }

    svg.railroad rect {
        stroke-width: 3px;
        stroke: black;
        fill:hsl(-290, 70%, 90%);
    }

    svg.railroad g.labeledbox &gt; rect {
        stroke-width: 1px;
        stroke: grey;
        stroke-dasharray: 5px;
        fill:rgba(90, 90, 150, .1);
    }</style>
<g class="verticalgrid">
<g class="sequence">
<g class="sequence">
<g>
<text class="comment" x="92" y="62">
data-report: generate</text>
</g>
<g class="labeledbox">
<rect height="66" width="340" x="184" y="10"/>
<path d=" M 184 57 h 8 m 324 0 h 8"/>
<g>
<text class="comment" x="298" y="33">
a json-array with 2 elements</text>
</g>
<g class="sequence">
<g class="terminal">
<rect height="22" rx="10" ry="10" width="28" x="192" y="46"/>
<text x="206" y="62">
[</text>
</g>
<g class="nonterminal">
<rect height="22" width="100" x="230" y="46"/>
<text x="280" y="62">
json-value</text>
</g>
<g class="terminal">
<rect height="22" rx="10" ry="10" width="28" x="340" y="46"/>
<text x="354" y="62">
,</text>
</g>
<g class="nonterminal">
<rect height="22" width="100" x="378" y="46"/>
<text x="428" y="62">
qualifiers</text>
</g>
<g class="terminal">
<rect height="22" rx="10" ry="10" width="28" x="488" y="46"/>
<text x="502" y="62">
]</text>
</g>
<path d=" M 220 57 h 10"/>
<path d=" M 330 57 h 10"/>
<path d=" M 368 57 h 10"/>
<path d=" M 478 57 h 10"/>
</g>
</g>
<path d=" M 174 57 h 10"/>
</g>
<path d=" M 534 57 h 5 m -5 5 l 5 -5 l -5 -5 m 5 5"/>
<path d=" M 524 57 h 10"/>
</g>
<g class="sequence">
<g class="sequence">
<g>
<text class="comment" x="81" y="140">
data-report: accept</text>
</g>
<g class="labeledbox">
<rect height="90" width="536" x="163" y="88"/>
<path d=" M 163 135 h 8 m 520 0 h 8"/>
<g>
<text class="comment" x="288" y="111">
a json-array with &gt;= 2 elements</text>
</g>
<g class="sequence">
<g class="terminal">
<rect height="22" rx="10" ry="10" width="28" x="171" y="124"/>
<text x="185" y="140">
[</text>
</g>
<g class="nonterminal">
<rect height="22" width="100" x="209" y="124"/>
<text x="259" y="140">
json-value</text>
</g>
<g class="terminal">
<rect height="22" rx="10" ry="10" width="28" x="319" y="124"/>
<text x="333" y="140">
,</text>
</g>
<g class="nonterminal">
<rect height="22" width="100" x="357" y="124"/>
<text x="407" y="140">
qualifiers</text>
</g>
<g class="repeat">
<path d=" M 467 135 h 12 m 0 0 h 174 m -84 0 l -5 -5 m 0 10 l 5 -5 m 84 0 m -12 0 a 12 12 0 0 1 12 12 v 0 a 12 12 0 0 1 -12 12 m -162 0 h 0 a 12 12 0 0 1 -12 -12 v 0 a 12 12 0 0 1 12 -12"/>
<g class="sequence">
<g class="nonterminal">
<rect height="22" width="124" x="479" y="148"/>
<text x="541" y="164">
ignored-value</text>
</g>
<g class="terminal">
<rect height="22" rx="10" ry="10" width="28" x="613" y="148"/>
<text x="627" y="164">
,</text>
</g>
<path d=" M 603 159 h 10"/>
</g>
<g/>
</g>
<g class="terminal">
<rect height="22" rx="10" ry="10" width="28" x="663" y="124"/>
<text x="677" y="140">
]</text>
</g>
<path d=" M 199 135 h 10"/>
<path d=" M 309 135 h 10"/>
<path d=" M 347 135 h 10"/>
<path d=" M 457 135 h 10"/>
<path d=" M 653 135 h 10"/>
</g>
</g>
<path d=" M 153 135 h 10"/>
</g>
<path d=" M 709 135 h 5 m -5 5 l 5 -5 l -5 -5 m 5 5"/>
<path d=" M 699 135 h 10"/>
</g>
</g>
</svg>