<svg class="railroad" viewBox="0 0 973 1403" width="973" xmlns="http://www.w3.org/2000/svg">
<style type="text/css">

    svg.railroad {
        background-color: hsl(30, 20%, 95%);
        background-size: 15px 15px;
        background-image: linear-gradient(to right, rgba(30, 30, 30, .05) 1px, transparent 1px),
                          linear-gradient(to bottom, rgba(30, 30, 30, .05) 1px, transparent 1px);
    }

    svg.railroad path {
        stroke-width: 3px;
        stroke: black;
        fill: transparent;
    }

    svg.railroad .debug {
        stroke-width: 1px;
        stroke: red;
    }

    svg.railroad text {
        font: 14px monospace;
        text-anchor: middle;
    }

    svg.railroad .nonterminal text {
        font-weight: bold;
    }

    svg.railroad text.comment {
        font: italic 12px monospace;
    }

    svg.railroad rect {
        stroke-width: 3px;
        stroke: black;
        fill:hsl(-290, 70%, 90%);
    }

    svg.railroad g.labeledbox &gt; rect {
        stroke-width: 1px;
        stroke: grey;
        stroke-dasharray: 5px;
        fill:rgba(90, 90, 150, .1);
    }</style>
<g class="sequence">
<path d=" M 10 21 a 5 5 0 0 1 5 -5 a 5 5 0 0 1 5 5 a 5 5 0 0 1 -5 5 a 5 5 0 0 1 -5 -5 m 10 0 h 5"/>
<g class="sequence">
<text class="comment" x="68" y="26">
datatype</text>
<g class="terminal">
<rect height="22" rx="10" ry="10" width="28" x="111" y="10"/>
<text x="125" y="26">
[</text>
</g>
<g class="choice">
<path d=" M 149 21 h 24 m 68 0 h 659 m -326 0 l -5 -5 m 0 10 l 5 -5 m 326 0"/>
<g class="sequence">
<g class="terminal">
<rect height="22" rx="10" ry="10" width="68" x="173" y="10"/>
<text x="207" y="26">
&quot;bool&quot;</text>
</g>
</g>
<path d=" M 149 21 a 12 12 0 0 1 12 12 v 9 m 727 0 v -9 a 12 12 0 0 1 12 -12"/>
<path d=" M 161 77 v 145 m 0 -69 l -5 -5 m 10 0 l -5 5 m 0 69 m 727 0 v -145 m 0 75 l -5 5 m 10 0 l -5 -5 m 0 -75"/>
<path d=" M 161 222 v 188 m 0 -91 l -5 -5 m 10 0 l -5 5 m 0 91 m 727 0 v -188 m 0 97 l -5 5 m 10 0 l -5 -5 m 0 -97"/>
<path d=" M 161 410 v 145 m 0 -69 l -5 -5 m 10 0 l -5 5 m 0 69 m 727 0 v -145 m 0 75 l -5 5 m 10 0 l -5 -5 m 0 -75"/>
<path d=" M 161 602 v 117 m 0 -55 l -5 -5 m 10 0 l -5 5 m 0 55 m 727 0 v -117 m 0 61 l -5 5 m 10 0 l -5 -5 m 0 -61"/>
<path d=" M 161 766 v 117 m 0 -55 l -5 -5 m 10 0 l -5 5 m 0 55 m 727 0 v -117 m 0 61 l -5 5 m 10 0 l -5 -5 m 0 -61"/>
<path d=" M 161 918 v 181 m 0 -87 l -5 -5 m 10 0 l -5 5 m 0 87 m 727 0 v -181 m 0 93 l -5 5 m 10 0 l -5 -5 m 0 -93"/>
<path d=" M 161 1170 v 81 m 0 -37 l -5 -5 m 10 0 l -5 5 m 0 37 m 727 0 v -81 m 0 43 l -5 5 m 10 0 l -5 -5 m 0 -43"/>
<path d=" M 161 42 v 35 a 12 12 0 0 0 12 12 m 656 0 h 47 a 12 12 0 0 0 12 -12 v -35"/>
<g class="sequence">
<g class="choice">
<path d=" M 173 89 h 24 m 100 0 h 24"/>
<g class="labeledbox">
<rect height="66" width="100" x="197" y="42"/>
<path d=" M 197 89 h 8 m 84 0 h 8"/>
<text class="comment" x="234" y="65">
numbers</text>
<g class="terminal">
<rect height="22" rx="10" ry="10" width="84" x="205" y="78"/>
<text x="247" y="94">
&quot;double&quot;</text>
</g>
</g>
<path d=" M 173 89 a 12 12 0 0 1 12 12 v 17 m 124 0 v -17 a 12 12 0 0 1 12 -12"/>
<path d=" M 185 118 v 35 a 12 12 0 0 0 12 12 m 82 0 h 18 a 12 12 0 0 0 12 -12 v -35"/>
<g class="labeledbox">
<rect height="66" width="82" x="197" y="118"/>
<path d=" M 197 165 h 8 m 60 0 h 14"/>
<text class="comment" x="238" y="141">
integers</text>
<g class="terminal">
<rect height="22" rx="10" ry="10" width="60" x="205" y="154"/>
<text x="235" y="170">
&quot;int&quot;</text>
</g>
</g>
</g>
<g class="choice">
<path d=" M 331 89 h 24 m 0 0 h 474 m -234 0 l -5 -5 m 0 10 l 5 -5 m 234 0"/>
<g/>
<path d=" M 331 89 a 12 12 0 0 1 12 12 v 0 m 474 0 v 0 a 12 12 0 0 1 12 -12"/>
<path d=" M 343 101 v 12 a 12 12 0 0 0 12 12 m 450 0 h 0 a 12 12 0 0 0 12 -12 v -12"/>
<g class="sequence">
<g class="terminal">
<rect height="22" rx="10" ry="10" width="28" x="355" y="114"/>
<text x="369" y="130">
,</text>
</g>
<g class="choice">
<path d=" M 393 125 h 24 m 92 0 h 42"/>
<g class="nonterminal">
<rect height="22" width="92" x="417" y="114"/>
<text x="463" y="130">
min_value</text>
</g>
<path d=" M 393 125 a 12 12 0 0 1 12 12 v 9 m 134 0 v -9 a 12 12 0 0 1 12 -12"/>
<path d=" M 405 146 v 35 a 12 12 0 0 0 12 12 m 110 0 h 0 a 12 12 0 0 0 12 -12 v -35"/>
<g class="labeledbox">
<rect height="66" width="110" x="417" y="146"/>
<path d=" M 417 193 h 8 m 52 0 h 50"/>
<text class="comment" x="472" y="169">
unrestricted</text>
<g class="terminal">
<rect height="22" rx="10" ry="10" width="52" x="425" y="182"/>
<text x="451" y="198">
null</text>
</g>
</g>
</g>
<g class="optional">
<path d=" M 561 125 h 24 m -24 0 a 12 12 0 0 0 12 -12 v 0 a 12 12 0 0 1 12 -12 h 196 m -95 0 l -5 -5 m 0 10 l 5 -5 m 95 0 a 12 12 0 0 1 12 12 v 0 a 12 12 0 0 0 12 12 h -24"/>
<g class="sequence">
<g class="terminal">
<rect height="22" rx="10" ry="10" width="28" x="585" y="114"/>
<text x="599" y="130">
,</text>
</g>
<g class="choice">
<path d=" M 623 125 h 24 m 92 0 h 42"/>
<g class="nonterminal">
<rect height="22" width="92" x="647" y="114"/>
<text x="693" y="130">
max_value</text>
</g>
<path d=" M 623 125 a 12 12 0 0 1 12 12 v 9 m 134 0 v -9 a 12 12 0 0 1 12 -12"/>
<path d=" M 635 146 v 35 a 12 12 0 0 0 12 12 m 110 0 h 0 a 12 12 0 0 0 12 -12 v -35"/>
<g class="labeledbox">
<rect height="66" width="110" x="647" y="146"/>
<path d=" M 647 193 h 8 m 52 0 h 50"/>
<text class="comment" x="702" y="169">
unrestricted</text>
<g class="terminal">
<rect height="22" rx="10" ry="10" width="52" x="655" y="182"/>
<text x="681" y="198">
null</text>
</g>
</g>
</g>
<path d=" M 613 125 h 10"/>
</g>
</g>
<path d=" M 383 125 h 10"/>
<path d=" M 551 125 h 10"/>
</g>
</g>
<path d=" M 321 89 h 10"/>
</g>
<path d=" M 161 222 v 0 a 12 12 0 0 0 12 12 m 588 0 h 115 m -54 0 l -5 -5 m 0 10 l 5 -5 m 54 0 a 12 12 0 0 0 12 -12 v 0"/>
<g class="sequence">
<g class="terminal">
<rect height="22" rx="10" ry="10" width="84" x="173" y="223"/>
<text x="215" y="239">
&quot;string&quot;</text>
</g>
<g class="choice">
<path d=" M 267 234 h 24 m 0 0 h 470 m -232 0 l -5 -5 m 0 10 l 5 -5 m 232 0"/>
<g/>
<path d=" M 267 234 a 12 12 0 0 1 12 12 v 0 m 470 0 v 0 a 12 12 0 0 1 12 -12"/>
<path d=" M 279 246 v 47 a 12 12 0 0 0 12 12 m 446 0 h 0 a 12 12 0 0 0 12 -12 v -47"/>
<g class="sequence">
<g class="terminal">
<rect height="22" rx="10" ry="10" width="28" x="291" y="294"/>
<text x="305" y="310">
,</text>
</g>
<g class="choice">
<path d=" M 329 305 h 24 m 108 0 h 24"/>
<g class="labeledbox">
<rect height="66" width="108" x="353" y="258"/>
<path d=" M 353 305 h 8 m 92 0 h 8"/>
<text class="comment" x="390" y="281">
integer</text>
<g class="nonterminal">
<rect height="22" width="92" x="361" y="294"/>
<text x="407" y="310">
max_bytes</text>
</g>
</g>
<path d=" M 329 305 a 12 12 0 0 1 12 12 v 17 m 132 0 v -17 a 12 12 0 0 1 12 -12"/>
<path d=" M 341 334 v 35 a 12 12 0 0 0 12 12 m 96 0 h 12 a 12 12 0 0 0 12 -12 v -35"/>
<g class="labeledbox">
<rect height="66" width="96" x="353" y="334"/>
<path d=" M 353 381 h 8 m 52 0 h 36"/>
<text class="comment" x="401" y="357">
assume 255</text>
<g class="terminal">
<rect height="22" rx="10" ry="10" width="52" x="361" y="370"/>
<text x="387" y="386">
null</text>
</g>
</g>
</g>
<g class="optional">
<path d=" M 495 305 h 24 m -24 0 a 12 12 0 0 0 12 -12 v -35 a 12 12 0 0 1 12 -12 h 194 m -94 0 l -5 -5 m 0 10 l 5 -5 m 94 0 a 12 12 0 0 1 12 12 v 35 a 12 12 0 0 0 12 12 h -24"/>
<g class="sequence">
<g class="terminal">
<rect height="22" rx="10" ry="10" width="28" x="519" y="294"/>
<text x="533" y="310">
,</text>
</g>
<g class="choice">
<path d=" M 557 305 h 24 m 108 0 h 24"/>
<g class="labeledbox">
<rect height="66" width="108" x="581" y="258"/>
<path d=" M 581 305 h 8 m 92 0 h 8"/>
<text class="comment" x="618" y="281">
integer</text>
<g class="nonterminal">
<rect height="22" width="92" x="589" y="294"/>
<text x="635" y="310">
min_bytes</text>
</g>
</g>
<path d=" M 557 305 a 12 12 0 0 1 12 12 v 17 m 132 0 v -17 a 12 12 0 0 1 12 -12"/>
<path d=" M 569 334 v 35 a 12 12 0 0 0 12 12 m 82 0 h 26 a 12 12 0 0 0 12 -12 v -35"/>
<g class="labeledbox">
<rect height="66" width="82" x="581" y="334"/>
<path d=" M 581 381 h 8 m 52 0 h 22"/>
<text class="comment" x="622" y="357">
assume 0</text>
<g class="terminal">
<rect height="22" rx="10" ry="10" width="52" x="589" y="370"/>
<text x="615" y="386">
null</text>
</g>
</g>
</g>
<path d=" M 547 305 h 10"/>
</g>
</g>
<path d=" M 319 305 h 10"/>
<path d=" M 485 305 h 10"/>
</g>
</g>
<path d=" M 257 234 h 10"/>
</g>
<path d=" M 161 410 v 0 a 12 12 0 0 0 12 12 m 580 0 h 123 m -58 0 l -5 -5 m 0 10 l 5 -5 m 58 0 a 12 12 0 0 0 12 -12 v 0"/>
<g class="sequence">
<g class="terminal">
<rect height="22" rx="10" ry="10" width="92" x="173" y="411"/>
<text x="219" y="427">
&quot;command&quot;</text>
</g>
<g class="choice">
<path d=" M 275 422 h 24 m 0 0 h 454 m -224 0 l -5 -5 m 0 10 l 5 -5 m 224 0"/>
<g/>
<path d=" M 275 422 a 12 12 0 0 1 12 12 v 0 m 454 0 v 0 a 12 12 0 0 1 12 -12"/>
<path d=" M 287 434 v 47 a 12 12 0 0 0 12 12 m 430 0 h 0 a 12 12 0 0 0 12 -12 v -47"/>
<g class="sequence">
<g class="terminal">
<rect height="22" rx="10" ry="10" width="28" x="299" y="482"/>
<text x="313" y="498">
,</text>
</g>
<g class="choice">
<path d=" M 337 493 h 24 m 100 0 h 24"/>
<g class="labeledbox">
<rect height="66" width="100" x="361" y="446"/>
<path d=" M 361 493 h 8 m 84 0 h 8"/>
<text class="comment" x="402" y="469">
argument</text>
<g class="nonterminal">
<rect height="22" width="84" x="369" y="482"/>
<text x="411" y="498">
datatype</text>
</g>
</g>
<path d=" M 337 493 a 12 12 0 0 1 12 12 v 17 m 124 0 v -17 a 12 12 0 0 1 12 -12"/>
<path d=" M 349 522 v 0 a 12 12 0 0 0 12 12 m 52 0 h 48 a 12 12 0 0 0 12 -12 v 0"/>
<g class="terminal">
<rect height="22" rx="10" ry="10" width="52" x="361" y="523"/>
<text x="387" y="539">
null</text>
</g>
</g>
<g class="optional">
<path d=" M 495 493 h 24 m -24 0 a 12 12 0 0 0 12 -12 v -35 a 12 12 0 0 1 12 -12 h 186 m -90 0 l -5 -5 m 0 10 l 5 -5 m 90 0 a 12 12 0 0 1 12 12 v 35 a 12 12 0 0 0 12 12 h -24"/>
<g class="sequence">
<g class="terminal">
<rect height="22" rx="10" ry="10" width="28" x="519" y="482"/>
<text x="533" y="498">
,</text>
</g>
<g class="choice">
<path d=" M 557 493 h 24 m 100 0 h 24"/>
<g class="labeledbox">
<rect height="66" width="100" x="581" y="446"/>
<path d=" M 581 493 h 8 m 84 0 h 8"/>
<text class="comment" x="615" y="469">
result</text>
<g class="nonterminal">
<rect height="22" width="84" x="589" y="482"/>
<text x="631" y="498">
datatype</text>
</g>
</g>
<path d=" M 557 493 a 12 12 0 0 1 12 12 v 17 m 124 0 v -17 a 12 12 0 0 1 12 -12"/>
<path d=" M 569 522 v 0 a 12 12 0 0 0 12 12 m 52 0 h 48 a 12 12 0 0 0 12 -12 v 0"/>
<g class="terminal">
<rect height="22" rx="10" ry="10" width="52" x="581" y="523"/>
<text x="607" y="539">
null</text>
</g>
</g>
<path d=" M 547 493 h 10"/>
</g>
</g>
<path d=" M 327 493 h 10"/>
<path d=" M 485 493 h 10"/>
</g>
</g>
<path d=" M 265 422 h 10"/>
</g>
<path d=" M 161 555 v 47 a 12 12 0 0 0 12 12 m 476 0 h 227 m -110 0 l -5 -5 m 0 10 l 5 -5 m 110 0 a 12 12 0 0 0 12 -12 v -47"/>
<g class="sequence">
<g class="terminal">
<rect height="22" rx="10" ry="10" width="68" x="173" y="603"/>
<text x="207" y="619">
&quot;blob&quot;</text>
</g>
<g class="sequence">
<g class="terminal">
<rect height="22" rx="10" ry="10" width="28" x="251" y="603"/>
<text x="265" y="619">
,</text>
</g>
<g class="labeledbox">
<rect height="66" width="108" x="289" y="567"/>
<path d=" M 289 614 h 8 m 92 0 h 8"/>
<text class="comment" x="326" y="590">
integer</text>
<g class="nonterminal">
<rect height="22" width="92" x="297" y="603"/>
<text x="343" y="619">
max_bytes</text>
</g>
</g>
<g class="optional">
<path d=" M 407 614 h 24 m -24 0 a 12 12 0 0 0 12 -12 v -35 a 12 12 0 0 1 12 -12 h 194 m -94 0 l -5 -5 m 0 10 l 5 -5 m 94 0 a 12 12 0 0 1 12 12 v 35 a 12 12 0 0 0 12 12 h -24"/>
<g class="sequence">
<g class="terminal">
<rect height="22" rx="10" ry="10" width="28" x="431" y="603"/>
<text x="445" y="619">
,</text>
</g>
<g class="choice">
<path d=" M 469 614 h 24 m 108 0 h 24"/>
<g class="labeledbox">
<rect height="66" width="108" x="493" y="567"/>
<path d=" M 493 614 h 8 m 92 0 h 8"/>
<text class="comment" x="530" y="590">
integer</text>
<g class="nonterminal">
<rect height="22" width="92" x="501" y="603"/>
<text x="547" y="619">
min_bytes</text>
</g>
</g>
<path d=" M 469 614 a 12 12 0 0 1 12 12 v 17 m 132 0 v -17 a 12 12 0 0 1 12 -12"/>
<path d=" M 481 643 v 35 a 12 12 0 0 0 12 12 m 82 0 h 26 a 12 12 0 0 0 12 -12 v -35"/>
<g class="labeledbox">
<rect height="66" width="82" x="493" y="643"/>
<path d=" M 493 690 h 8 m 52 0 h 22"/>
<text class="comment" x="534" y="666">
assume 1</text>
<g class="terminal">
<rect height="22" rx="10" ry="10" width="52" x="501" y="679"/>
<text x="527" y="695">
null</text>
</g>
</g>
</g>
<path d=" M 459 614 h 10"/>
</g>
</g>
<path d=" M 279 614 h 10"/>
<path d=" M 397 614 h 10"/>
</g>
<path d=" M 241 614 h 10"/>
</g>
<path d=" M 161 719 v 47 a 12 12 0 0 0 12 12 m 673 0 h 30 a 12 12 0 0 0 12 -12 v -47"/>
<g class="sequence">
<g class="terminal">
<rect height="22" rx="10" ry="10" width="76" x="173" y="767"/>
<text x="211" y="783">
&quot;array&quot;</text>
</g>
<g class="terminal">
<rect height="22" rx="10" ry="10" width="28" x="259" y="767"/>
<text x="273" y="783">
,</text>
</g>
<g class="nonterminal">
<rect height="22" width="84" x="297" y="767"/>
<text x="339" y="783">
datatype</text>
</g>
<g class="terminal">
<rect height="22" rx="10" ry="10" width="28" x="391" y="767"/>
<text x="405" y="783">
,</text>
</g>
<g class="choice">
<path d=" M 429 778 h 24 m 108 0 h 33"/>
<g class="labeledbox">
<rect height="66" width="108" x="453" y="731"/>
<path d=" M 453 778 h 8 m 92 0 h 8"/>
<text class="comment" x="490" y="754">
integer</text>
<g class="nonterminal">
<rect height="22" width="92" x="461" y="767"/>
<text x="507" y="783">
max_items</text>
</g>
</g>
<path d=" M 429 778 a 12 12 0 0 1 12 12 v 17 m 141 0 v -17 a 12 12 0 0 1 12 -12"/>
<path d=" M 441 807 v 35 a 12 12 0 0 0 12 12 m 117 0 h 0 a 12 12 0 0 0 12 -12 v -35"/>
<g class="labeledbox">
<rect height="66" width="117" x="453" y="807"/>
<path d=" M 453 854 h 8 m 52 0 h 57 m -25 0 l -5 -5 m 0 10 l 5 -5 m 25 0"/>
<text class="comment" x="511" y="830">
unrestricted!</text>
<g class="terminal">
<rect height="22" rx="10" ry="10" width="52" x="461" y="843"/>
<text x="487" y="859">
null</text>
</g>
</g>
</g>
<g class="optional">
<path d=" M 604 778 h 24 m -24 0 a 12 12 0 0 0 12 -12 v -35 a 12 12 0 0 1 12 -12 h 194 m -94 0 l -5 -5 m 0 10 l 5 -5 m 94 0 a 12 12 0 0 1 12 12 v 35 a 12 12 0 0 0 12 12 h -24"/>
<g class="sequence">
<g class="terminal">
<rect height="22" rx="10" ry="10" width="28" x="628" y="767"/>
<text x="642" y="783">
,</text>
</g>
<g class="choice">
<path d=" M 666 778 h 24 m 108 0 h 24"/>
<g class="labeledbox">
<rect height="66" width="108" x="690" y="731"/>
<path d=" M 690 778 h 8 m 92 0 h 8"/>
<text class="comment" x="727" y="754">
integer</text>
<g class="nonterminal">
<rect height="22" width="92" x="698" y="767"/>
<text x="744" y="783">
min_items</text>
</g>
</g>
<path d=" M 666 778 a 12 12 0 0 1 12 12 v 17 m 132 0 v -17 a 12 12 0 0 1 12 -12"/>
<path d=" M 678 807 v 35 a 12 12 0 0 0 12 12 m 82 0 h 26 a 12 12 0 0 0 12 -12 v -35"/>
<g class="labeledbox">
<rect height="66" width="82" x="690" y="807"/>
<path d=" M 690 854 h 8 m 52 0 h 22"/>
<text class="comment" x="731" y="830">
assume 0</text>
<g class="terminal">
<rect height="22" rx="10" ry="10" width="52" x="698" y="843"/>
<text x="724" y="859">
null</text>
</g>
</g>
</g>
<path d=" M 656 778 h 10"/>
</g>
</g>
<path d=" M 249 778 h 10"/>
<path d=" M 287 778 h 10"/>
<path d=" M 381 778 h 10"/>
<path d=" M 419 778 h 10"/>
<path d=" M 594 778 h 10"/>
</g>
<path d=" M 161 883 v 35 a 12 12 0 0 0 12 12 m 372 0 h 331 m -162 0 l -5 -5 m 0 10 l 5 -5 m 162 0 a 12 12 0 0 0 12 -12 v -35"/>
<g class="sequence">
<g class="terminal">
<rect height="22" rx="10" ry="10" width="76" x="173" y="919"/>
<text x="211" y="935">
&quot;tuple&quot;</text>
</g>
<g class="terminal">
<rect height="22" rx="10" ry="10" width="28" x="259" y="919"/>
<text x="273" y="935">
,</text>
</g>
<g class="choice">
<path d=" M 297 930 h 24 m 200 0 h 24"/>
<g class="labeledbox">
<rect height="98" width="200" x="321" y="883"/>
<path d=" M 321 930 h 8 m 184 0 h 8"/>
<text class="comment" x="386" y="906">
current version</text>
<g class="sequence">
<g class="terminal">
<rect height="22" rx="10" ry="10" width="28" x="329" y="919"/>
<text x="343" y="935">
[</text>
</g>
<g class="repeat">
<path d=" M 367 930 h 12 m 84 0 h 12 m -12 0 a 12 12 0 0 1 12 12 v 8 a 12 12 0 0 1 -12 12 m -28 0 h -56 m 31 0 l 5 -5 m 0 10 l -5 -5 m -31 0 a 12 12 0 0 1 -12 -12 v -8 a 12 12 0 0 1 12 -12"/>
<g class="terminal">
<rect height="22" rx="10" ry="10" width="28" x="435" y="951"/>
<text x="449" y="967">
,</text>
</g>
<g class="nonterminal">
<rect height="22" width="84" x="379" y="919"/>
<text x="421" y="935">
datatype</text>
</g>
</g>
<g class="terminal">
<rect height="22" rx="10" ry="10" width="28" x="485" y="919"/>
<text x="499" y="935">
]</text>
</g>
<path d=" M 357 930 h 10"/>
<path d=" M 475 930 h 10"/>
</g>
</g>
<path d=" M 297 930 a 12 12 0 0 1 12 12 v 49 m 224 0 v -49 a 12 12 0 0 1 12 -12"/>
<path d=" M 309 991 v 35 a 12 12 0 0 0 12 12 m 131 0 h 69 m -31 0 l -5 -5 m 0 10 l 5 -5 m 31 0 a 12 12 0 0 0 12 -12 v -35"/>
<g class="labeledbox">
<rect height="98" width="131" x="321" y="991"/>
<path d=" M 321 1038 h 8 m 108 0 h 15"/>
<text class="comment" x="386" y="1014">
proposed change</text>
<g class="sequence">
<g class="repeat">
<path d=" M 329 1038 h 12 m 84 0 h 12 m -12 0 a 12 12 0 0 1 12 12 v 8 a 12 12 0 0 1 -12 12 m -28 0 h -56 m 31 0 l 5 -5 m 0 10 l -5 -5 m -31 0 a 12 12 0 0 1 -12 -12 v -8 a 12 12 0 0 1 12 -12"/>
<g class="terminal">
<rect height="22" rx="10" ry="10" width="28" x="397" y="1059"/>
<text x="411" y="1075">
,</text>
</g>
<g class="nonterminal">
<rect height="22" width="84" x="341" y="1027"/>
<text x="383" y="1043">
datatype</text>
</g>
</g>
</g>
</g>
</g>
<path d=" M 249 930 h 10"/>
<path d=" M 287 930 h 10"/>
</g>
<path d=" M 161 1099 v 71 m 0 -32 l -5 -5 m 10 0 l -5 5 m 0 32 a 12 12 0 0 0 12 12 m 703 0 h 0 a 12 12 0 0 0 12 -12 v -71 m 0 38 l -5 5 m 10 0 l -5 -5 m 0 -38"/>
<g class="sequence">
<g class="terminal">
<rect height="22" rx="10" ry="10" width="68" x="173" y="1171"/>
<text x="207" y="1187">
&quot;enum&quot;</text>
</g>
<g class="terminal">
<rect height="22" rx="10" ry="10" width="28" x="251" y="1171"/>
<text x="265" y="1187">
,</text>
</g>
<g class="labeledbox">
<rect height="142" width="587" x="289" y="1099"/>
<path d=" M 289 1182 h 8 m 571 0 h 8"/>
<text class="comment" x="435" y="1122">
a json-object with at least one entry</text>
<g class="sequence">
<g class="terminal">
<rect height="22" rx="10" ry="10" width="28" x="297" y="1171"/>
<text x="311" y="1187">
{</text>
</g>
<g class="repeat">
<path d=" M 335 1182 h 12 m 471 0 h 12 m -12 0 a 12 12 0 0 1 12 12 v 16 a 12 12 0 0 1 -12 12 m -28 0 h -443 m 224 0 l 5 -5 m 0 10 l -5 -5 m -224 0 a 12 12 0 0 1 -12 -12 v -16 a 12 12 0 0 1 12 -12"/>
<g class="terminal">
<rect height="22" rx="10" ry="10" width="28" x="790" y="1211"/>
<text x="804" y="1227">
,</text>
</g>
<g class="sequence">
<g class="labeledbox">
<rect height="66" width="173" x="347" y="1135"/>
<path d=" M 347 1182 h 8 m 44 0 h 121 m -57 0 l -5 -5 m 0 10 l 5 -5 m 57 0"/>
<text class="comment" x="433" y="1158">
keys MUST by unique!</text>
<g class="nonterminal">
<rect height="22" width="44" x="355" y="1171"/>
<text x="377" y="1187">
key</text>
</g>
</g>
<g class="terminal">
<rect height="22" rx="10" ry="10" width="28" x="530" y="1171"/>
<text x="544" y="1187">
:</text>
</g>
<g class="labeledbox">
<rect height="66" width="250" x="568" y="1135"/>
<path d=" M 568 1182 h 8 m 60 0 h 182 m -88 0 l -5 -5 m 0 10 l 5 -5 m 88 0"/>
<text class="comment" x="693" y="1158">
integer values, MUST be unique!</text>
<g class="nonterminal">
<rect height="22" width="60" x="576" y="1171"/>
<text x="606" y="1187">
value</text>
</g>
</g>
<path d=" M 520 1182 h 10"/>
<path d=" M 558 1182 h 10"/>
</g>
</g>
<g class="terminal">
<rect height="22" rx="10" ry="10" width="28" x="840" y="1171"/>
<text x="854" y="1187">
}</text>
</g>
<path d=" M 325 1182 h 10"/>
<path d=" M 830 1182 h 10"/>
</g>
</g>
<path d=" M 241 1182 h 10"/>
<path d=" M 279 1182 h 10"/>
</g>
<path d=" M 161 1251 v 71 m 0 -32 l -5 -5 m 10 0 l -5 5 m 0 32 a 12 12 0 0 0 12 12 m 560 0 h 143 m -68 0 l -5 -5 m 0 10 l 5 -5 m 68 0 a 12 12 0 0 0 12 -12 v -71 m 0 38 l -5 5 m 10 0 l -5 -5 m 0 -38"/>
<g class="sequence">
<g class="terminal">
<rect height="22" rx="10" ry="10" width="84" x="173" y="1323"/>
<text x="215" y="1339">
&quot;struct&quot;</text>
</g>
<g class="terminal">
<rect height="22" rx="10" ry="10" width="28" x="267" y="1323"/>
<text x="281" y="1339">
,</text>
</g>
<g class="labeledbox">
<rect height="142" width="428" x="305" y="1251"/>
<path d=" M 305 1334 h 8 m 412 0 h 8"/>
<text class="comment" x="451" y="1274">
a json-object with at least one entry</text>
<g class="sequence">
<g class="terminal">
<rect height="22" rx="10" ry="10" width="28" x="313" y="1323"/>
<text x="327" y="1339">
{</text>
</g>
<g class="repeat">
<path d=" M 351 1334 h 12 m 312 0 h 12 m -12 0 a 12 12 0 0 1 12 12 v 16 a 12 12 0 0 1 -12 12 m -28 0 h -284 m 145 0 l 5 -5 m 0 10 l -5 -5 m -145 0 a 12 12 0 0 1 -12 -12 v -16 a 12 12 0 0 1 12 -12"/>
<g class="terminal">
<rect height="22" rx="10" ry="10" width="28" x="647" y="1363"/>
<text x="661" y="1379">
,</text>
</g>
<g class="sequence">
<g class="labeledbox">
<rect height="66" width="180" x="363" y="1287"/>
<path d=" M 363 1334 h 8 m 52 0 h 120 m -57 0 l -5 -5 m 0 10 l 5 -5 m 57 0"/>
<text class="comment" x="453" y="1310">
names MUST be unique!</text>
<g class="nonterminal">
<rect height="22" width="52" x="371" y="1323"/>
<text x="397" y="1339">
name</text>
</g>
</g>
<g class="terminal">
<rect height="22" rx="10" ry="10" width="28" x="553" y="1323"/>
<text x="567" y="1339">
:</text>
</g>
<g class="nonterminal">
<rect height="22" width="84" x="591" y="1323"/>
<text x="633" y="1339">
datatype</text>
</g>
<path d=" M 543 1334 h 10"/>
<path d=" M 581 1334 h 10"/>
</g>
</g>
<g class="terminal">
<rect height="22" rx="10" ry="10" width="28" x="697" y="1323"/>
<text x="711" y="1339">
}</text>
</g>
<path d=" M 341 1334 h 10"/>
<path d=" M 687 1334 h 10"/>
</g>
</g>
<path d=" M 257 1334 h 10"/>
<path d=" M 295 1334 h 10"/>
</g>
</g>
<g class="terminal">
<rect height="22" rx="10" ry="10" width="28" x="910" y="10"/>
<text x="924" y="26">
]</text>
</g>
<path d=" M 101 21 h 10"/>
<path d=" M 139 21 h 10"/>
<path d=" M 900 21 h 10"/>
</g>
<path d=" M 948 21 h 5 a 5 5 0 0 1 5 -5 a 5 5 0 0 1 5 5 a 5 5 0 0 1 -5 5 a 5 5 0 0 1 -5 -5"/>
<path d=" M 25 21 h 10"/>
<path d=" M 938 21 h 10"/>
</g>
</svg>