<svg class="railroad" viewBox="0 0 320 262" width="256pt" xmlns="http://www.w3.org/2000/svg">
<style type="text/css">

    svg.railroad {
        background-color: hsl(30, 20%, 95%);
        background-size: 15px 15px;
        background-image: linear-gradient(to right, rgba(30, 30, 30, .05) 1px, transparent 1px),
                          linear-gradient(to bottom, rgba(30, 30, 30, .05) 1px, transparent 1px);
    }

    svg.railroad path {
        stroke-width: 3px;
        stroke: black;
        fill: transparent;
    }

    svg.railroad .debug {
        stroke-width: 1px;
        stroke: red;
    }

    svg.railroad text {
        font: 14px monospace;
        text-anchor: middle;
    }

    svg.railroad .nonterminal text {
        font-weight: bold;
    }

    svg.railroad text.comment {
        font: italic 12px monospace;
    }

    svg.railroad rect {
        stroke-width: 3px;
        stroke: black;
        fill:hsl(-290, 70%, 90%);
    }

    svg.railroad g.labeledbox > rect {
        stroke-width: 1px;
        stroke: grey;
        stroke-dasharray: 5px;
        fill:rgba(90, 90, 150, .1);
    }</style>
<g class="verticalgrid">
<g class="horizontalgrid">
<g class="nonterminal">
<rect height="22" width="52" x="10" y="10"/>
<text x="36" y="26">
data</text>
</g>
</g>
<g class="sequence">
<path d=" M 10 86 l 5 5 l -5 5 m 5 -5 h 5"/>
<g class="sequence">
<g class="choice">
<path d=" M 30 91 h 24 m 117 0 h 119 m -56 0 l -5 -5 m 0 10 l 5 -5 m 56 0"/>
<g class="labeledbox">
<rect height="66" width="117" x="54" y="44"/>
<path d=" M 54 91 h 8 m 100 0 h 9"/>
<g>
<text class="comment" x="112" y="67">
requests only</text>
</g>
<g class="nonterminal">
<rect height="22" width="100" x="62" y="80"/>
<text x="112" y="96">
json-value</text>
</g>
</g>
<path d=" M 30 91 a 12 12 0 0 1 12 12 v 17 m 236 0 v -17 a 12 12 0 0 1 12 -12"/>
<path d=" M 42 120 v 35 a 12 12 0 0 0 12 12 m 212 0 h 0 a 12 12 0 0 0 12 -12 v -35"/>
<g class="labeledbox">
<rect height="132" width="212" x="54" y="120"/>
<path d=" M 54 167 h 8 m 196 0 h 8"/>
<g>
<text class="comment" x="109" y="143">
replies only</text>
</g>
<g class="choice">
<path d=" M 62 167 h 24 m 148 0 h 24"/>
<g class="nonterminal">
<rect height="22" width="148" x="86" y="156"/>
<text x="160" y="172">
structure report</text>
</g>
<path d=" M 62 167 a 12 12 0 0 1 12 12 v 9 m 172 0 v -9 a 12 12 0 0 1 12 -12"/>
<path d=" M 74 188 v 33 m 172 0 v -33"/>
<path d=" M 74 188 v 0 a 12 12 0 0 0 12 12 m 108 0 h 40 a 12 12 0 0 0 12 -12 v 0"/>
<g class="nonterminal">
<rect height="22" width="108" x="86" y="189"/>
<text x="140" y="205">
data report</text>
</g>
<path d=" M 74 221 v 0 a 12 12 0 0 0 12 12 m 116 0 h 32 a 12 12 0 0 0 12 -12 v 0"/>
<g class="nonterminal">
<rect height="22" width="116" x="86" y="222"/>
<text x="144" y="238">
error report</text>
</g>
</g>
</g>
</g>
</g>
<path d=" M 300 91 h 5 m -5 5 l 5 -5 l -5 -5 m 5 5"/>
<path d=" M 20 91 h 10"/>
<path d=" M 290 91 h 10"/>
</g>
</g>
</svg>
