<svg class="railroad" viewBox="0 0 348 228" width="348" xmlns="http://www.w3.org/2000/svg">
<style type="text/css">

    svg.railroad {
        background-color: hsl(30, 20%, 95%);
        background-size: 15px 15px;
        background-image: linear-gradient(to right, rgba(30, 30, 30, .05) 1px, transparent 1px),
                          linear-gradient(to bottom, rgba(30, 30, 30, .05) 1px, transparent 1px);
    }

    svg.railroad path {
        stroke-width: 3px;
        stroke: black;
        fill: transparent;
    }

    svg.railroad .debug {
        stroke-width: 1px;
        stroke: red;
    }

    svg.railroad text {
        font: 14px monospace;
        text-anchor: middle;
    }

    svg.railroad .nonterminal text {
        font-weight: bold;
    }

    svg.railroad text.comment {
        font: italic 12px monospace;
    }

    svg.railroad rect {
        stroke-width: 3px;
        stroke: black;
        fill:hsl(-290, 70%, 90%);
    }

    svg.railroad g.labeledbox &gt; rect {
        stroke-width: 1px;
        stroke: grey;
        stroke-dasharray: 5px;
        fill:rgba(90, 90, 150, .1);
    }</style>
<g class="sequence">
<g class="sequence">
<g>
<text class="comment" x="29" y="62">
data</text>
</g>
<g class="choice">
<path d=" M 58 57 h 24 m 117 0 h 119 m -56 0 l -5 -5 m 0 10 l 5 -5 m 56 0"/>
<g class="labeledbox">
<rect height="66" width="117" x="82" y="10"/>
<path d=" M 82 57 h 8 m 100 0 h 9"/>
<g>
<text class="comment" x="140" y="33">
requests only</text>
</g>
<g class="nonterminal">
<rect height="22" width="100" x="90" y="46"/>
<text x="140" y="62">
json-value</text>
</g>
</g>
<path d=" M 58 57 a 12 12 0 0 1 12 12 v 17 m 236 0 v -17 a 12 12 0 0 1 12 -12"/>
<path d=" M 70 86 v 35 a 12 12 0 0 0 12 12 m 212 0 h 0 a 12 12 0 0 0 12 -12 v -35"/>
<g class="labeledbox">
<rect height="132" width="212" x="82" y="86"/>
<path d=" M 82 133 h 8 m 196 0 h 8"/>
<g>
<text class="comment" x="137" y="109">
replies only</text>
</g>
<g class="choice">
<path d=" M 90 133 h 24 m 148 0 h 24"/>
<g class="nonterminal">
<rect height="22" width="148" x="114" y="122"/>
<text x="188" y="138">
structure report</text>
</g>
<path d=" M 90 133 a 12 12 0 0 1 12 12 v 9 m 172 0 v -9 a 12 12 0 0 1 12 -12"/>
<path d=" M 102 154 v 33 m 172 0 v -33"/>
<path d=" M 102 154 v 0 a 12 12 0 0 0 12 12 m 108 0 h 40 a 12 12 0 0 0 12 -12 v 0"/>
<g class="nonterminal">
<rect height="22" width="108" x="114" y="155"/>
<text x="168" y="171">
data report</text>
</g>
<path d=" M 102 187 v 0 a 12 12 0 0 0 12 12 m 116 0 h 32 a 12 12 0 0 0 12 -12 v 0"/>
<g class="nonterminal">
<rect height="22" width="116" x="114" y="188"/>
<text x="172" y="204">
error report</text>
</g>
</g>
</g>
</g>
<path d=" M 48 57 h 10"/>
</g>
<path d=" M 328 57 h 5 m -5 5 l 5 -5 l -5 -5 m 5 5"/>
<path d=" M 318 57 h 10"/>
</g>
</svg>