<svg class="railroad" viewBox="0 0 788 176" width="630pt" xmlns="http://www.w3.org/2000/svg">
<style type="text/css">

    svg.railroad {
        background-color: hsl(30, 20%, 95%);
        background-size: 15px 15px;
        background-image: linear-gradient(to right, rgba(30, 30, 30, .05) 1px, transparent 1px),
                          linear-gradient(to bottom, rgba(30, 30, 30, .05) 1px, transparent 1px);
    }

    svg.railroad path {
        stroke-width: 3px;
        stroke: black;
        fill: transparent;
    }

    svg.railroad .debug {
        stroke-width: 1px;
        stroke: red;
    }

    svg.railroad text {
        font: 14px monospace;
        text-anchor: middle;
    }

    svg.railroad .nonterminal text {
        font-weight: bold;
    }

    svg.railroad text.comment {
        font: italic 12px monospace;
    }

    svg.railroad rect {
        stroke-width: 3px;
        stroke: black;
        fill:hsl(-290, 70%, 90%);
    }

    svg.railroad g.labeledbox > rect {
        stroke-width: 1px;
        stroke: grey;
        stroke-dasharray: 5px;
        fill:rgba(90, 90, 150, .1);
    }</style>
<g class="verticalgrid">
<g class="horizontalgrid">
<g>
<text class="comment" x="88" y="25">
generic structure of</text>
</g>
<g class="nonterminal">
<rect height="22" width="84" x="179" y="10"/>
<text x="221" y="26">
datatype</text>
</g>
</g>
<g class="sequence">
<path d=" M 10 75 l 5 5 l -5 5 m 5 -5 h 5"/>
<g class="sequence">
<g class="sequence">
<g class="terminal">
<rect height="22" rx="10" ry="10" width="36" x="30" y="69"/>
<text x="48" y="85">
[&quot;</text>
</g>
<g class="nonterminal">
<rect height="22" width="124" x="76" y="69"/>
<text x="138" y="85">
datatype-name</text>
</g>
<g class="terminal">
<rect height="22" rx="10" ry="10" width="28" x="210" y="69"/>
<text x="224" y="85">
&quot;</text>
</g>
<g class="labeledbox">
<rect height="122" width="472" x="248" y="44"/>
<path d=" M 248 80 h 8 m 456 0 h 8"/>
<g>
<text class="comment" x="338" y="67">
parameter of datatype</text>
</g>
<g class="sequence">
<g class="choice">
<path d=" M 256 80 h 24 m 0 0 h 214 m -104 0 l -5 -5 m 0 10 l 5 -5 m 104 0"/>
<g/>
<path d=" M 256 80 a 12 12 0 0 1 12 12 v 0 m 214 0 v 0 a 12 12 0 0 1 12 -12"/>
<path d=" M 268 92 v 35 a 12 12 0 0 0 12 12 m 190 0 h 0 a 12 12 0 0 0 12 -12 v -35"/>
<g class="labeledbox">
<rect height="66" width="190" x="280" y="92"/>
<path d=" M 280 139 h 8 m 174 0 h 8"/>
<g>
<text class="comment" x="366" y="115">
limits: min &lt;= max !</text>
</g>
<g class="sequence">
<g class="terminal">
<rect height="22" rx="10" ry="10" width="28" x="288" y="128"/>
<text x="302" y="144">
,</text>
</g>
<g class="nonterminal">
<rect height="22" width="44" x="326" y="128"/>
<text x="348" y="144">
min</text>
</g>
<g class="terminal">
<rect height="22" rx="10" ry="10" width="28" x="380" y="128"/>
<text x="394" y="144">
,</text>
</g>
<g class="nonterminal">
<rect height="22" width="44" x="418" y="128"/>
<text x="440" y="144">
max</text>
</g>
<path d=" M 316 139 h 10"/>
<path d=" M 370 139 h 10"/>
<path d=" M 408 139 h 10"/>
</g>
</g>
</g>
<g class="choice">
<path d=" M 504 80 h 24 m 146 0 h 38"/>
<g class="repeat">
<path d=" M 528 80 h 12 m 0 0 h 134 m -64 0 l -5 -5 m 0 10 l 5 -5 m 64 0 m -12 0 a 12 12 0 0 1 12 12 v 0 a 12 12 0 0 1 -12 12 m -122 0 h 0 a 12 12 0 0 1 -12 -12 v 0 a 12 12 0 0 1 12 -12"/>
<g class="sequence">
<g class="nonterminal">
<rect height="22" width="84" x="540" y="93"/>
<text x="582" y="109">
datatype</text>
</g>
<g class="terminal">
<rect height="22" rx="10" ry="10" width="28" x="634" y="93"/>
<text x="648" y="109">
,</text>
</g>
<path d=" M 624 104 h 10"/>
</g>
<g/>
</g>
<path d=" M 504 80 a 12 12 0 0 1 12 12 v 33 m 184 0 v -33 a 12 12 0 0 1 12 -12"/>
<path d=" M 516 125 v 0 a 12 12 0 0 0 12 12 m 160 0 h 0 a 12 12 0 0 0 12 -12 v 0"/>
<g class="sequence">
<g class="terminal">
<rect height="22" rx="10" ry="10" width="36" x="528" y="126"/>
<text x="546" y="142">
,{</text>
</g>
<g class="nonterminal">
<rect height="22" width="76" x="574" y="126"/>
<text x="612" y="142">
mapping</text>
</g>
<g class="terminal">
<rect height="22" rx="10" ry="10" width="28" x="660" y="126"/>
<text x="674" y="142">
}</text>
</g>
<path d=" M 564 137 h 10"/>
<path d=" M 650 137 h 10"/>
</g>
</g>
<path d=" M 494 80 h 10"/>
</g>
</g>
<g class="terminal">
<rect height="22" rx="10" ry="10" width="28" x="730" y="69"/>
<text x="744" y="85">
]</text>
</g>
<path d=" M 66 80 h 10"/>
<path d=" M 200 80 h 10"/>
<path d=" M 238 80 h 10"/>
<path d=" M 720 80 h 10"/>
</g>
</g>
<path d=" M 768 80 h 5 m -5 5 l 5 -5 l -5 -5 m 5 5"/>
<path d=" M 20 80 h 10"/>
<path d=" M 758 80 h 10"/>
</g>
</g>
</svg>
