<svg class="railroad" viewBox="0 0 576 121" width="460pt" xmlns="http://www.w3.org/2000/svg">
<style type="text/css">

    svg.railroad {
        background-color: hsl(30, 20%, 95%);
        background-size: 15px 15px;
        background-image: linear-gradient(to right, rgba(30, 30, 30, .05) 1px, transparent 1px),
                          linear-gradient(to bottom, rgba(30, 30, 30, .05) 1px, transparent 1px);
    }

    svg.railroad path {
        stroke-width: 3px;
        stroke: black;
        fill: transparent;
    }

    svg.railroad .debug {
        stroke-width: 1px;
        stroke: red;
    }

    svg.railroad text {
        font: 14px monospace;
        text-anchor: middle;
    }

    svg.railroad .nonterminal text {
        font-weight: bold;
    }

    svg.railroad text.comment {
        font: italic 12px monospace;
    }

    svg.railroad rect {
        stroke-width: 3px;
        stroke: black;
        fill:hsl(-290, 70%, 90%);
    }

    svg.railroad g.labeledbox > rect {
        stroke-width: 1px;
        stroke: grey;
        stroke-dasharray: 5px;
        fill:rgba(90, 90, 150, .1);
    }</style>
<g class="verticalgrid">
<g class="horizontalgrid">
<g class="nonterminal">
<rect height="22" width="84" x="10" y="10"/>
<text x="52" y="26">
datainfo</text>
</g>
</g>
<g class="sequence">
<path d=" M 10 63 l 5 5 l -5 5 m 5 -5 h 5"/>
<g class="sequence">
<g class="terminal">
<rect height="22" rx="10" ry="10" width="28" x="30" y="57"/>
<text x="44" y="73">
{</text>
</g>
<g class="terminal">
<rect height="22" rx="10" ry="10" width="76" x="68" y="57"/>
<text x="106" y="73">
&quot;type:&quot;</text>
</g>
<g class="nonterminal">
<rect height="22" width="148" x="154" y="57"/>
<text x="228" y="73">
name of datatype</text>
</g>
<g class="sequence">
<g class="optional">
<path d=" M 312 68 h 24 m -24 0 a 12 12 0 0 0 12 -12 v 0 a 12 12 0 0 1 12 -12 h 148 m -71 0 l -5 -5 m 0 10 l 5 -5 m 71 0 a 12 12 0 0 1 12 12 v 0 a 12 12 0 0 0 12 12 h -24"/>
<g class="sequence">
<g class="repeat">
<path d=" M 336 68 h 12 m 124 0 h 12 m -12 0 a 12 12 0 0 1 12 12 v 8 a 12 12 0 0 1 -12 12 m -28 0 h -96 m 51 0 l 5 -5 m 0 10 l -5 -5 m -51 0 a 12 12 0 0 1 -12 -12 v -8 a 12 12 0 0 1 12 -12"/>
<g class="terminal">
<rect height="22" rx="10" ry="10" width="28" x="444" y="89"/>
<text x="458" y="105">
,</text>
</g>
<g class="nonterminal">
<rect height="22" width="124" x="348" y="57"/>
<text x="410" y="73">
data-property</text>
</g>
</g>
</g>
</g>
</g>
<g class="terminal">
<rect height="22" rx="10" ry="10" width="28" x="518" y="57"/>
<text x="532" y="73">
}</text>
</g>
<path d=" M 58 68 h 10"/>
<path d=" M 144 68 h 10"/>
<path d=" M 302 68 h 10"/>
<path d=" M 508 68 h 10"/>
</g>
<path d=" M 556 68 h 5 m -5 5 l 5 -5 l -5 -5 m 5 5"/>
<path d=" M 20 68 h 10"/>
<path d=" M 546 68 h 10"/>
</g>
</g>
</svg>
