<svg class="railroad" viewBox="0 0 712 121" width="569pt" xmlns="http://www.w3.org/2000/svg">
<style type="text/css">

    svg.railroad {
        background-color: hsl(30, 20%, 95%);
        background-size: 15px 15px;
        background-image: linear-gradient(to right, rgba(30, 30, 30, .05) 1px, transparent 1px),
                          linear-gradient(to bottom, rgba(30, 30, 30, .05) 1px, transparent 1px);
    }

    svg.railroad path {
        stroke-width: 3px;
        stroke: black;
        fill: transparent;
    }

    svg.railroad .debug {
        stroke-width: 1px;
        stroke: red;
    }

    svg.railroad text {
        font: 14px monospace;
        text-anchor: middle;
    }

    svg.railroad .nonterminal text {
        font-weight: bold;
    }

    svg.railroad text.comment {
        font: italic 12px monospace;
    }

    svg.railroad rect {
        stroke-width: 3px;
        stroke: black;
        fill:hsl(-290, 70%, 90%);
    }

    svg.railroad g.labeledbox > rect {
        stroke-width: 1px;
        stroke: grey;
        stroke-dasharray: 5px;
        fill:rgba(90, 90, 150, .1);
    }</style>
<g class="verticalgrid">
<g class="horizontalgrid">
<g class="nonterminal">
<rect height="22" width="84" x="10" y="10"/>
<text x="52" y="26">
datatype</text>
</g>
</g>
<g class="sequence">
<path d=" M 10 63 l 5 5 l -5 5 m 5 -5 h 5"/>
<g class="sequence">
<g class="terminal">
<rect height="22" rx="10" ry="10" width="28" x="30" y="57"/>
<text x="44" y="73">
{</text>
</g>
<g class="terminal">
<rect height="22" rx="10" ry="10" width="28" x="68" y="57"/>
<text x="82" y="73">
&quot;</text>
</g>
<g class="nonterminal">
<rect height="22" width="148" x="106" y="57"/>
<text x="180" y="73">
name of datatype</text>
</g>
<g class="terminal">
<rect height="22" rx="10" ry="10" width="28" x="264" y="57"/>
<text x="278" y="73">
&quot;</text>
</g>
<g class="terminal">
<rect height="22" rx="10" ry="10" width="28" x="302" y="57"/>
<text x="316" y="73">
:</text>
</g>
<g class="terminal">
<rect height="22" rx="10" ry="10" width="28" x="340" y="57"/>
<text x="354" y="73">
{</text>
</g>
<g class="sequence">
<g class="optional">
<path d=" M 378 68 h 24 m -24 0 a 12 12 0 0 0 12 -12 v 0 a 12 12 0 0 1 12 -12 h 180 m -87 0 l -5 -5 m 0 10 l 5 -5 m 87 0 a 12 12 0 0 1 12 12 v 0 a 12 12 0 0 0 12 12 h -24"/>
<g class="sequence">
<g class="repeat">
<path d=" M 402 68 h 12 m 156 0 h 12 m -12 0 a 12 12 0 0 1 12 12 v 8 a 12 12 0 0 1 -12 12 m -28 0 h -128 m 67 0 l 5 -5 m 0 10 l -5 -5 m -67 0 a 12 12 0 0 1 -12 -12 v -8 a 12 12 0 0 1 12 -12"/>
<g class="terminal">
<rect height="22" rx="10" ry="10" width="28" x="542" y="89"/>
<text x="556" y="105">
,</text>
</g>
<g class="nonterminal">
<rect height="22" width="156" x="414" y="57"/>
<text x="492" y="73">
datatype-property</text>
</g>
</g>
</g>
</g>
</g>
<g class="terminal">
<rect height="22" rx="10" ry="10" width="28" x="616" y="57"/>
<text x="630" y="73">
}</text>
</g>
<g class="terminal">
<rect height="22" rx="10" ry="10" width="28" x="654" y="57"/>
<text x="668" y="73">
}</text>
</g>
<path d=" M 58 68 h 10"/>
<path d=" M 96 68 h 10"/>
<path d=" M 254 68 h 10"/>
<path d=" M 292 68 h 10"/>
<path d=" M 330 68 h 10"/>
<path d=" M 368 68 h 10"/>
<path d=" M 606 68 h 10"/>
<path d=" M 644 68 h 10"/>
</g>
<path d=" M 692 68 h 5 m -5 5 l 5 -5 l -5 -5 m 5 5"/>
<path d=" M 20 68 h 10"/>
<path d=" M 682 68 h 10"/>
</g>
</g>
</svg>
