<svg class="railroad" viewBox="0 0 970 798" width="970" xmlns="http://www.w3.org/2000/svg">
<style type="text/css">

    svg.railroad {
        background-color: hsl(30, 20%, 95%);
        background-size: 15px 15px;
        background-image: linear-gradient(to right, rgba(30, 30, 30, .05) 1px, transparent 1px),
                          linear-gradient(to bottom, rgba(30, 30, 30, .05) 1px, transparent 1px);
    }

    svg.railroad path {
        stroke-width: 3px;
        stroke: black;
        fill: transparent;
    }

    svg.railroad .debug {
        stroke-width: 1px;
        stroke: red;
    }

    svg.railroad text {
        font: 14px monospace;
        text-anchor: middle;
    }

    svg.railroad .nonterminal text {
        font-weight: bold;
    }

    svg.railroad text.comment {
        font: italic 12px monospace;
    }

    svg.railroad rect {
        stroke-width: 3px;
        stroke: black;
        fill:hsl(-290, 70%, 90%);
    }

    svg.railroad g.labeledbox &gt; rect {
        stroke-width: 1px;
        stroke: grey;
        stroke-dasharray: 5px;
        fill:rgba(90, 90, 150, .1);
    }</style>
<g class="sequence">
<g class="sequence">
<g>
<text class="comment" x="71" y="26">
defined-requests</text>
</g>
<g class="choice">
<path d=" M 142 21 h 24 m 60 0 h 714 m -354 0 l -5 -5 m 0 10 l 5 -5 m 354 0"/>
<g class="terminal">
<rect height="22" rx="10" ry="10" width="60" x="166" y="10"/>
<text x="196" y="26">
*IDN?</text>
</g>
<path d=" M 142 21 a 12 12 0 0 1 12 12 v 9 m 774 0 v -9 a 12 12 0 0 1 12 -12"/>
<path d=" M 154 42 v 33 m 774 0 v -33"/>
<path d=" M 154 99 v 215 m 0 -104 l -5 -5 m 10 0 l -5 5 m 0 104 m 774 0 v -215 m 0 110 l -5 5 m 10 0 l -5 -5 m 0 -110"/>
<path d=" M 154 338 v 106 m 0 -50 l -5 -5 m 10 0 l -5 5 m 0 50 m 774 0 v -106 m 0 56 l -5 5 m 10 0 l -5 -5 m 0 -56"/>
<path d=" M 154 479 v 109 m 0 -51 l -5 -5 m 10 0 l -5 5 m 0 51 m 774 0 v -109 m 0 57 l -5 5 m 10 0 l -5 -5 m 0 -57"/>
<path d=" M 154 673 v 49 m 774 0 v -49"/>
<path d=" M 154 42 v 0 a 12 12 0 0 0 12 12 m 84 0 h 666 m -330 0 l -5 -5 m 0 10 l 5 -5 m 330 0 a 12 12 0 0 0 12 -12 v 0"/>
<g class="terminal">
<rect height="22" rx="10" ry="10" width="84" x="166" y="43"/>
<text x="208" y="59">
describe</text>
</g>
<path d=" M 154 75 v 24 a 12 12 0 0 0 12 12 m 653 0 h 97 m -45 0 l -5 -5 m 0 10 l 5 -5 m 45 0 a 12 12 0 0 0 12 -12 v -24"/>
<g class="sequence">
<g class="choice">
<path d=" M 166 111 h 24 m 84 0 h 40"/>
<g class="terminal">
<rect height="22" rx="10" ry="10" width="84" x="190" y="100"/>
<text x="232" y="116">
activate</text>
</g>
<path d=" M 166 111 a 12 12 0 0 1 12 12 v 9 m 124 0 v -9 a 12 12 0 0 1 12 -12"/>
<path d=" M 178 132 v 0 a 12 12 0 0 0 12 12 m 100 0 h 0 a 12 12 0 0 0 12 -12 v 0"/>
<g class="terminal">
<rect height="22" rx="10" ry="10" width="100" x="190" y="133"/>
<text x="240" y="149">
deactivate</text>
</g>
</g>
<g class="choice">
<path d=" M 324 111 h 24 m 187 0 h 284 m -139 0 l -5 -5 m 0 10 l 5 -5 m 139 0"/>
<g class="labeledbox">
<rect height="44" width="187" x="348" y="75"/>
<path d=" M 348 111 h 8 m 0 0 h 179 m -86 0 l -5 -5 m 0 10 l 5 -5 m 86 0"/>
<g>
<text class="comment" x="441" y="98">
global (de-)activation</text>
</g>
<g/>
</g>
<path d=" M 324 111 a 12 12 0 0 1 12 12 v 6 m 471 0 v -6 a 12 12 0 0 1 12 -12"/>
<path d=" M 336 129 v 35 a 12 12 0 0 0 12 12 m 447 0 h 0 a 12 12 0 0 0 12 -12 v -35"/>
<g class="sequence">
<g class="labeledbox">
<rect height="66" width="68" x="348" y="129"/>
<path d=" M 348 176 h 8 m 52 0 h 8"/>
<g>
<text class="comment" x="378" y="152">
SPACE</text>
</g>
<g class="terminal">
<rect height="22" rx="10" ry="10" width="52" x="356" y="165"/>
<text x="382" y="181">
\x20</text>
</g>
</g>
<g class="nonterminal">
<rect height="22" width="68" x="426" y="165"/>
<text x="460" y="181">
module</text>
</g>
<g class="choice">
<path d=" M 504 176 h 24 m 222 0 h 45"/>
<g class="labeledbox">
<rect height="44" width="222" x="528" y="140"/>
<path d=" M 528 176 h 8 m 0 0 h 214 m -104 0 l -5 -5 m 0 10 l 5 -5 m 104 0"/>
<g>
<text class="comment" x="639" y="163">
module-wise (de-)activation</text>
</g>
<g/>
</g>
<path d=" M 504 176 a 12 12 0 0 1 12 12 v 6 m 267 0 v -6 a 12 12 0 0 1 12 -12"/>
<path d=" M 516 194 v 71 m 0 -32 l -5 -5 m 10 0 l -5 5 m 0 32 a 12 12 0 0 0 12 12 m 243 0 h 0 a 12 12 0 0 0 12 -12 v -71 m 0 38 l -5 5 m 10 0 l -5 -5 m 0 -38"/>
<g class="labeledbox">
<rect height="110" width="243" x="528" y="194"/>
<path d=" M 528 277 h 8 m 170 0 h 65 m -29 0 l -5 -5 m 0 10 l 5 -5 m 29 0"/>
<g>
<text class="comment" x="649" y="217">
parameter-wise (de-)activation</text>
</g>
<g class="sequence">
<g class="labeledbox">
<rect height="66" width="68" x="536" y="230"/>
<path d=" M 536 277 h 8 m 52 0 h 8"/>
<g>
<text class="comment" x="566" y="253">
SPACE</text>
</g>
<g class="terminal">
<rect height="22" rx="10" ry="10" width="52" x="544" y="266"/>
<text x="570" y="282">
\x20</text>
</g>
</g>
<g class="nonterminal">
<rect height="22" width="92" x="614" y="266"/>
<text x="660" y="282">
parameter</text>
</g>
<path d=" M 604 277 h 10"/>
</g>
</g>
</g>
<path d=" M 416 176 h 10"/>
<path d=" M 494 176 h 10"/>
</g>
</g>
<path d=" M 314 111 h 10"/>
</g>
<path d=" M 154 314 v 24 a 12 12 0 0 0 12 12 m 311 0 h 439 m -216 0 l -5 -5 m 0 10 l 5 -5 m 216 0 a 12 12 0 0 0 12 -12 v -24"/>
<g class="sequence">
<g class="terminal">
<rect height="22" rx="10" ry="10" width="52" x="166" y="339"/>
<text x="192" y="355">
ping</text>
</g>
<g class="choice">
<path d=" M 228 350 h 24 m 201 0 h 24"/>
<g class="labeledbox">
<rect height="44" width="201" x="252" y="314"/>
<path d=" M 252 350 h 8 m 0 0 h 193 m -93 0 l -5 -5 m 0 10 l 5 -5 m 93 0"/>
<g>
<text class="comment" x="352" y="337">
for manual debuging only</text>
</g>
<g/>
</g>
<path d=" M 228 350 a 12 12 0 0 1 12 12 v 6 m 225 0 v -6 a 12 12 0 0 1 12 -12"/>
<path d=" M 240 368 v 35 a 12 12 0 0 0 12 12 m 138 0 h 63 m -28 0 l -5 -5 m 0 10 l 5 -5 m 28 0 a 12 12 0 0 0 12 -12 v -35"/>
<g class="sequence">
<g class="labeledbox">
<rect height="66" width="68" x="252" y="368"/>
<path d=" M 252 415 h 8 m 52 0 h 8"/>
<g>
<text class="comment" x="282" y="391">
SPACE</text>
</g>
<g class="terminal">
<rect height="22" rx="10" ry="10" width="52" x="260" y="404"/>
<text x="286" y="420">
\x20</text>
</g>
</g>
<g class="nonterminal">
<rect height="22" width="60" x="330" y="404"/>
<text x="360" y="420">
token</text>
</g>
<path d=" M 320 415 h 10"/>
</g>
</g>
<path d=" M 218 350 h 10"/>
</g>
<path d=" M 154 444 v 35 a 12 12 0 0 0 12 12 m 750 0 h 0 a 12 12 0 0 0 12 -12 v -35"/>
<g class="sequence">
<g class="choice">
<path d=" M 166 491 h 24 m 68 0 h 206 m -100 0 l -5 -5 m 0 10 l 5 -5 m 100 0"/>
<g class="terminal">
<rect height="22" rx="10" ry="10" width="68" x="190" y="480"/>
<text x="224" y="496">
change</text>
</g>
<path d=" M 166 491 a 12 12 0 0 1 12 12 v 9 m 274 0 v -9 a 12 12 0 0 1 12 -12"/>
<path d=" M 178 512 v 35 a 12 12 0 0 0 12 12 m 250 0 h 0 a 12 12 0 0 0 12 -12 v -35"/>
<g class="labeledbox">
<rect height="66" width="250" x="190" y="512"/>
<path d=" M 190 559 h 8 m 68 0 h 174 m -84 0 l -5 -5 m 0 10 l 5 -5 m 84 0"/>
<g>
<text class="comment" x="315" y="535">
not yet specified, see Issue 29</text>
</g>
<g class="terminal">
<rect height="22" rx="10" ry="10" width="68" x="198" y="548"/>
<text x="232" y="564">
buffer</text>
</g>
</g>
</g>
<g class="labeledbox">
<rect height="66" width="68" x="474" y="444"/>
<path d=" M 474 491 h 8 m 52 0 h 8"/>
<g>
<text class="comment" x="504" y="467">
SPACE</text>
</g>
<g class="terminal">
<rect height="22" rx="10" ry="10" width="52" x="482" y="480"/>
<text x="508" y="496">
\x20</text>
</g>
</g>
<g class="labeledbox">
<rect height="66" width="224" x="552" y="444"/>
<path d=" M 552 491 h 8 m 208 0 h 8"/>
<g>
<text class="comment" x="596" y="467">
specifier</text>
</g>
<g class="sequence">
<g class="nonterminal">
<rect height="22" width="68" x="560" y="480"/>
<text x="594" y="496">
module</text>
</g>
<g class="terminal">
<rect height="22" rx="10" ry="10" width="28" x="638" y="480"/>
<text x="652" y="496">
:</text>
</g>
<g class="nonterminal">
<rect height="22" width="92" x="676" y="480"/>
<text x="722" y="496">
parameter</text>
</g>
<path d=" M 628 491 h 10"/>
<path d=" M 666 491 h 10"/>
</g>
</g>
<g class="labeledbox">
<rect height="66" width="68" x="786" y="444"/>
<path d=" M 786 491 h 8 m 52 0 h 8"/>
<g>
<text class="comment" x="816" y="467">
SPACE</text>
</g>
<g class="terminal">
<rect height="22" rx="10" ry="10" width="52" x="794" y="480"/>
<text x="820" y="496">
\x20</text>
</g>
</g>
<g class="nonterminal">
<rect height="22" width="52" x="864" y="480"/>
<text x="890" y="496">
data</text>
</g>
<path d=" M 464 491 h 10"/>
<path d=" M 542 491 h 10"/>
<path d=" M 776 491 h 10"/>
<path d=" M 854 491 h 10"/>
</g>
<path d=" M 154 588 v 85 m 0 -39 l -5 -5 m 10 0 l -5 5 m 0 39 a 12 12 0 0 0 12 12 m 605 0 h 145 m -69 0 l -5 -5 m 0 10 l 5 -5 m 69 0 a 12 12 0 0 0 12 -12 v -85 m 0 45 l -5 5 m 10 0 l -5 -5 m 0 -45"/>
<g class="sequence">
<g class="terminal">
<rect height="22" rx="10" ry="10" width="36" x="166" y="674"/>
<text x="184" y="690">
do</text>
</g>
<g class="labeledbox">
<rect height="66" width="68" x="212" y="638"/>
<path d=" M 212 685 h 8 m 52 0 h 8"/>
<g>
<text class="comment" x="242" y="661">
SPACE</text>
</g>
<g class="terminal">
<rect height="22" rx="10" ry="10" width="52" x="220" y="674"/>
<text x="246" y="690">
\x20</text>
</g>
</g>
<g class="labeledbox">
<rect height="66" width="208" x="290" y="638"/>
<path d=" M 290 685 h 8 m 192 0 h 8"/>
<g>
<text class="comment" x="334" y="661">
specifier</text>
</g>
<g class="sequence">
<g class="nonterminal">
<rect height="22" width="68" x="298" y="674"/>
<text x="332" y="690">
module</text>
</g>
<g class="terminal">
<rect height="22" rx="10" ry="10" width="28" x="376" y="674"/>
<text x="390" y="690">
:</text>
</g>
<g class="nonterminal">
<rect height="22" width="76" x="414" y="674"/>
<text x="452" y="690">
command</text>
</g>
<path d=" M 366 685 h 10"/>
<path d=" M 404 685 h 10"/>
</g>
</g>
<g class="labeledbox">
<rect height="124" width="263" x="508" y="588"/>
<path d=" M 508 685 h 8 m 226 0 h 29"/>
<g class="sequence">
<g>
<text class="comment" x="608" y="612">
SHOULD be used, even if </text>
</g>
<g class="terminal">
<rect height="22" rx="10" ry="10" width="52" x="711" y="596"/>
<text x="737" y="612">
null</text>
</g>
<path d=" M 701 607 h 10"/>
</g>
<g class="optional">
<path d=" M 516 685 h 24 m -24 0 a 12 12 0 0 0 12 -12 v -35 a 12 12 0 0 1 12 -12 h 178 m -86 0 l -5 -5 m 0 10 l 5 -5 m 86 0 a 12 12 0 0 1 12 12 v 35 a 12 12 0 0 0 12 12 h -24"/>
<g class="sequence">
<g class="labeledbox">
<rect height="66" width="68" x="540" y="638"/>
<path d=" M 540 685 h 8 m 52 0 h 8"/>
<g>
<text class="comment" x="570" y="661">
SPACE</text>
</g>
<g class="terminal">
<rect height="22" rx="10" ry="10" width="52" x="548" y="674"/>
<text x="574" y="690">
\x20</text>
</g>
</g>
<g class="labeledbox">
<rect height="66" width="100" x="618" y="638"/>
<path d=" M 618 685 h 8 m 84 0 h 8"/>
<g>
<text class="comment" x="645" y="661">
data</text>
</g>
<g class="nonterminal">
<rect height="22" width="84" x="626" y="674"/>
<text x="668" y="690">
argument</text>
</g>
</g>
<path d=" M 608 685 h 10"/>
</g>
</g>
</g>
<path d=" M 202 685 h 10"/>
<path d=" M 280 685 h 10"/>
<path d=" M 498 685 h 10"/>
</g>
<path d=" M 154 722 v 35 a 12 12 0 0 0 12 12 m 348 0 h 402 m -198 0 l -5 -5 m 0 10 l 5 -5 m 198 0 a 12 12 0 0 0 12 -12 v -35"/>
<g class="sequence">
<g class="terminal">
<rect height="22" rx="10" ry="10" width="52" x="166" y="758"/>
<text x="192" y="774">
read</text>
</g>
<g class="labeledbox">
<rect height="66" width="68" x="228" y="722"/>
<path d=" M 228 769 h 8 m 52 0 h 8"/>
<g>
<text class="comment" x="258" y="745">
SPACE</text>
</g>
<g class="terminal">
<rect height="22" rx="10" ry="10" width="52" x="236" y="758"/>
<text x="262" y="774">
\x20</text>
</g>
</g>
<g class="nonterminal">
<rect height="22" width="68" x="306" y="758"/>
<text x="340" y="774">
module</text>
</g>
<g class="terminal">
<rect height="22" rx="10" ry="10" width="28" x="384" y="758"/>
<text x="398" y="774">
:</text>
</g>
<g class="nonterminal">
<rect height="22" width="92" x="422" y="758"/>
<text x="468" y="774">
parameter</text>
</g>
<path d=" M 218 769 h 10"/>
<path d=" M 296 769 h 10"/>
<path d=" M 374 769 h 10"/>
<path d=" M 412 769 h 10"/>
</g>
</g>
<path d=" M 132 21 h 10"/>
</g>
<path d=" M 950 21 h 5 m -5 5 l 5 -5 l -5 -5 m 5 5"/>
<path d=" M 940 21 h 10"/>
</g>
</svg>