<svg class="railroad" viewBox="0 0 806 775" width="644pt" xmlns="http://www.w3.org/2000/svg">
<style type="text/css">

    svg.railroad {
        background-color: hsl(30, 20%, 95%);
        background-size: 15px 15px;
        background-image: linear-gradient(to right, rgba(30, 30, 30, .05) 1px, transparent 1px),
                          linear-gradient(to bottom, rgba(30, 30, 30, .05) 1px, transparent 1px);
    }

    svg.railroad path {
        stroke-width: 3px;
        stroke: black;
        fill: transparent;
    }

    svg.railroad .debug {
        stroke-width: 1px;
        stroke: red;
    }

    svg.railroad text {
        font: 14px monospace;
        text-anchor: middle;
    }

    svg.railroad .nonterminal text {
        font-weight: bold;
    }

    svg.railroad text.comment {
        font: italic 12px monospace;
    }

    svg.railroad rect {
        stroke-width: 3px;
        stroke: black;
        fill:hsl(-290, 70%, 90%);
    }

    svg.railroad g.labeledbox > rect {
        stroke-width: 1px;
        stroke: grey;
        stroke-dasharray: 5px;
        fill:rgba(90, 90, 150, .1);
    }</style>
<g class="verticalgrid">
<g class="horizontalgrid">
<g>
<text class="comment" x="39" y="25">
defined</text>
</g>
<g class="nonterminal">
<rect height="22" width="76" x="81" y="10"/>
<text x="119" y="26">
replies</text>
</g>
</g>
<g class="sequence">
<path d=" M 10 86 l 5 5 l -5 5 m 5 -5 h 5"/>
<g class="sequence">
<g class="choice">
<path d=" M 30 91 h 24 m 534 0 h 188 m -91 0 l -5 -5 m 0 10 l 5 -5 m 91 0"/>
<g class="sequence">
<g class="terminal">
<rect height="22" rx="10" ry="10" width="188" x="54" y="80"/>
<text x="148" y="96">
ISSE&amp;SINE2020,SECoP,</text>
</g>
<g class="labeledbox">
<rect height="66" width="140" x="252" y="44"/>
<path d=" M 252 91 h 8 m 124 0 h 8"/>
<g>
<text class="comment" x="296" y="67">
no SPACE!</text>
</g>
<g class="nonterminal">
<rect height="22" width="124" x="260" y="80"/>
<text x="322" y="96">
secop-version</text>
</g>
</g>
<g class="terminal">
<rect height="22" rx="10" ry="10" width="28" x="402" y="80"/>
<text x="416" y="96">
,</text>
</g>
<g class="labeledbox">
<rect height="66" width="148" x="440" y="44"/>
<path d=" M 440 91 h 8 m 132 0 h 8"/>
<g>
<text class="comment" x="484" y="67">
no SPACE!</text>
</g>
<g class="nonterminal">
<rect height="22" width="132" x="448" y="80"/>
<text x="514" y="96">
secop-revision</text>
</g>
</g>
<path d=" M 242 91 h 10"/>
<path d=" M 392 91 h 10"/>
<path d=" M 430 91 h 10"/>
</g>
<path d=" M 30 91 a 12 12 0 0 1 12 12 v 17 m 722 0 v -17 a 12 12 0 0 1 12 -12"/>
<path d=" M 42 155 v 41 m 722 0 v -41"/>
<path d=" M 42 220 v 150 m 0 -72 l -5 -5 m 10 0 l -5 5 m 0 72 m 722 0 v -150 m 0 78 l -5 5 m 10 0 l -5 -5 m 0 -78"/>
<path d=" M 42 405 v 294 m 0 -144 l -5 -5 m 10 0 l -5 5 m 0 144 m 722 0 v -294 m 0 150 l -5 5 m 10 0 l -5 -5 m 0 -150"/>
<path d=" M 42 120 v 35 a 12 12 0 0 0 12 12 m 399 0 h 299 m -146 0 l -5 -5 m 0 10 l 5 -5 m 146 0 a 12 12 0 0 0 12 -12 v -35"/>
<g class="sequence">
<g class="terminal">
<rect height="22" rx="10" ry="10" width="100" x="54" y="156"/>
<text x="104" y="172">
describing</text>
</g>
<g class="labeledbox">
<rect height="66" width="131" x="164" y="120"/>
<path d=" M 164 167 h 8 m 92 0 h 31"/>
<g>
<text class="comment" x="229" y="143">
SPACE dot SPACE</text>
</g>
<g class="terminal">
<rect height="22" rx="10" ry="10" width="92" x="172" y="156"/>
<text x="218" y="172">
\x20.\x20</text>
</g>
</g>
<g class="nonterminal">
<rect height="22" width="148" x="305" y="156"/>
<text x="379" y="172">
structure-report</text>
</g>
<path d=" M 154 167 h 10"/>
<path d=" M 295 167 h 10"/>
</g>
<path d=" M 42 196 v 24 a 12 12 0 0 0 12 12 m 412 0 h 286 m -140 0 l -5 -5 m 0 10 l 5 -5 m 140 0 a 12 12 0 0 0 12 -12 v -24"/>
<g class="sequence">
<g class="choice">
<path d=" M 54 232 h 24 m 68 0 h 40"/>
<g class="terminal">
<rect height="22" rx="10" ry="10" width="68" x="78" y="221"/>
<text x="112" y="237">
active</text>
</g>
<path d=" M 54 232 a 12 12 0 0 1 12 12 v 9 m 108 0 v -9 a 12 12 0 0 1 12 -12"/>
<path d=" M 66 253 v 0 a 12 12 0 0 0 12 12 m 84 0 h 0 a 12 12 0 0 0 12 -12 v 0"/>
<g class="terminal">
<rect height="22" rx="10" ry="10" width="84" x="78" y="254"/>
<text x="120" y="270">
inactive</text>
</g>
</g>
<g class="choice">
<path d=" M 196 232 h 24 m 187 0 h 59 m -26 0 l -5 -5 m 0 10 l 5 -5 m 26 0"/>
<g class="labeledbox">
<rect height="44" width="187" x="220" y="196"/>
<path d=" M 220 232 h 8 m 0 0 h 179 m -86 0 l -5 -5 m 0 10 l 5 -5 m 86 0"/>
<g>
<text class="comment" x="313" y="219">
global (de-)activation</text>
</g>
<g/>
</g>
<path d=" M 196 232 a 12 12 0 0 1 12 12 v 6 m 246 0 v -6 a 12 12 0 0 1 12 -12"/>
<path d=" M 208 250 v 71 m 0 -32 l -5 -5 m 10 0 l -5 5 m 0 32 a 12 12 0 0 0 12 12 m 222 0 h 0 a 12 12 0 0 0 12 -12 v -71 m 0 38 l -5 5 m 10 0 l -5 -5 m 0 -38"/>
<g class="labeledbox">
<rect height="110" width="222" x="220" y="250"/>
<path d=" M 220 333 h 8 m 146 0 h 68 m -31 0 l -5 -5 m 0 10 l 5 -5 m 31 0"/>
<g>
<text class="comment" x="331" y="273">
module-wise (de-)activation</text>
</g>
<g class="sequence">
<g class="labeledbox">
<rect height="66" width="68" x="228" y="286"/>
<path d=" M 228 333 h 8 m 52 0 h 8"/>
<g>
<text class="comment" x="258" y="309">
SPACE</text>
</g>
<g class="terminal">
<rect height="22" rx="10" ry="10" width="52" x="236" y="322"/>
<text x="262" y="338">
\x20</text>
</g>
</g>
<g class="nonterminal">
<rect height="22" width="68" x="306" y="322"/>
<text x="340" y="338">
module</text>
</g>
<path d=" M 296 333 h 10"/>
</g>
</g>
</g>
<path d=" M 186 232 h 10"/>
</g>
<path d=" M 42 370 v 35 a 12 12 0 0 0 12 12 m 698 0 h 0 a 12 12 0 0 0 12 -12 v -35"/>
<g class="sequence">
<g class="choice">
<path d=" M 54 417 h 24 m 248 0 h 230 m -112 0 l -5 -5 m 0 10 l 5 -5 m 112 0"/>
<g class="sequence">
<g class="terminal">
<rect height="22" rx="10" ry="10" width="52" x="78" y="406"/>
<text x="104" y="422">
pong</text>
</g>
<g class="labeledbox">
<rect height="66" width="68" x="140" y="370"/>
<path d=" M 140 417 h 8 m 52 0 h 8"/>
<g>
<text class="comment" x="170" y="393">
SPACE</text>
</g>
<g class="terminal">
<rect height="22" rx="10" ry="10" width="52" x="148" y="406"/>
<text x="174" y="422">
\x20</text>
</g>
</g>
<g class="optional">
<path d=" M 218 417 h 24 m -24 0 a 12 12 0 0 0 12 -12 v 0 a 12 12 0 0 1 12 -12 h 60 m -27 0 l -5 -5 m 0 10 l 5 -5 m 27 0 a 12 12 0 0 1 12 12 v 0 a 12 12 0 0 0 12 12 h -24"/>
<g class="nonterminal">
<rect height="22" width="60" x="242" y="406"/>
<text x="272" y="422">
token</text>
</g>
</g>
<path d=" M 130 417 h 10"/>
<path d=" M 208 417 h 10"/>
</g>
<path d=" M 54 417 a 12 12 0 0 1 12 12 v 17 m 478 0 v -17 a 12 12 0 0 1 12 -12"/>
<path d=" M 66 481 v 41 m 478 0 v -41"/>
<path d=" M 66 446 v 35 a 12 12 0 0 0 12 12 m 332 0 h 122 m -58 0 l -5 -5 m 0 10 l 5 -5 m 58 0 a 12 12 0 0 0 12 -12 v -35"/>
<g class="sequence">
<g class="terminal">
<rect height="22" rx="10" ry="10" width="52" x="78" y="482"/>
<text x="104" y="498">
done</text>
</g>
<g class="labeledbox">
<rect height="66" width="68" x="140" y="446"/>
<path d=" M 140 493 h 8 m 52 0 h 8"/>
<g>
<text class="comment" x="170" y="469">
SPACE</text>
</g>
<g class="terminal">
<rect height="22" rx="10" ry="10" width="52" x="148" y="482"/>
<text x="174" y="498">
\x20</text>
</g>
</g>
<g class="nonterminal">
<rect height="22" width="68" x="218" y="482"/>
<text x="252" y="498">
module</text>
</g>
<g class="terminal">
<rect height="22" rx="10" ry="10" width="28" x="296" y="482"/>
<text x="310" y="498">
:</text>
</g>
<g class="nonterminal">
<rect height="22" width="76" x="334" y="482"/>
<text x="372" y="498">
command</text>
</g>
<path d=" M 130 493 h 10"/>
<path d=" M 208 493 h 10"/>
<path d=" M 286 493 h 10"/>
<path d=" M 324 493 h 10"/>
</g>
<path d=" M 66 522 v 35 a 12 12 0 0 0 12 12 m 454 0 h 0 a 12 12 0 0 0 12 -12 v -35"/>
<g class="sequence">
<g class="choice">
<path d=" M 78 569 h 24 m 68 0 h 66 m -30 0 l -5 -5 m 0 10 l 5 -5 m 30 0"/>
<g class="terminal">
<rect height="22" rx="10" ry="10" width="68" x="102" y="558"/>
<text x="136" y="574">
update</text>
</g>
<path d=" M 78 569 a 12 12 0 0 1 12 12 v 9 m 134 0 v -9 a 12 12 0 0 1 12 -12"/>
<path d=" M 90 590 v 33 m 134 0 v -33"/>
<path d=" M 90 590 v 0 a 12 12 0 0 0 12 12 m 76 0 h 34 a 12 12 0 0 0 12 -12 v 0"/>
<g class="terminal">
<rect height="22" rx="10" ry="10" width="76" x="102" y="591"/>
<text x="140" y="607">
changed</text>
</g>
<path d=" M 90 623 v 35 a 12 12 0 0 0 12 12 m 110 0 h 0 a 12 12 0 0 0 12 -12 v -35"/>
<g class="labeledbox">
<rect height="66" width="110" x="102" y="623"/>
<path d=" M 102 670 h 8 m 84 0 h 18"/>
<g>
<text class="comment" x="157" y="646">
see Issue 29</text>
</g>
<g class="terminal">
<rect height="22" rx="10" ry="10" width="84" x="110" y="659"/>
<text x="152" y="675">
buffered</text>
</g>
</g>
</g>
<g class="labeledbox">
<rect height="66" width="68" x="246" y="522"/>
<path d=" M 246 569 h 8 m 52 0 h 8"/>
<g>
<text class="comment" x="276" y="545">
SPACE</text>
</g>
<g class="terminal">
<rect height="22" rx="10" ry="10" width="52" x="254" y="558"/>
<text x="280" y="574">
\x20</text>
</g>
</g>
<g class="nonterminal">
<rect height="22" width="68" x="324" y="558"/>
<text x="358" y="574">
module</text>
</g>
<g class="terminal">
<rect height="22" rx="10" ry="10" width="28" x="402" y="558"/>
<text x="416" y="574">
:</text>
</g>
<g class="nonterminal">
<rect height="22" width="92" x="440" y="558"/>
<text x="486" y="574">
parameter</text>
</g>
<path d=" M 236 569 h 10"/>
<path d=" M 314 569 h 10"/>
<path d=" M 392 569 h 10"/>
<path d=" M 430 569 h 10"/>
</g>
</g>
<g class="labeledbox">
<rect height="66" width="68" x="566" y="370"/>
<path d=" M 566 417 h 8 m 52 0 h 8"/>
<g>
<text class="comment" x="596" y="393">
SPACE</text>
</g>
<g class="terminal">
<rect height="22" rx="10" ry="10" width="52" x="574" y="406"/>
<text x="600" y="422">
\x20</text>
</g>
</g>
<g class="nonterminal">
<rect height="22" width="108" x="644" y="406"/>
<text x="698" y="422">
data-report</text>
</g>
<path d=" M 556 417 h 10"/>
<path d=" M 634 417 h 10"/>
</g>
<path d=" M 42 699 v 35 a 12 12 0 0 0 12 12 m 530 0 h 168 m -81 0 l -5 -5 m 0 10 l 5 -5 m 81 0 a 12 12 0 0 0 12 -12 v -35"/>
<g class="sequence">
<g class="terminal">
<rect height="22" rx="10" ry="10" width="68" x="54" y="735"/>
<text x="88" y="751">
error_</text>
</g>
<g class="nonterminal">
<rect height="22" width="68" x="132" y="735"/>
<text x="166" y="751">
action</text>
</g>
<g class="labeledbox">
<rect height="66" width="68" x="210" y="699"/>
<path d=" M 210 746 h 8 m 52 0 h 8"/>
<g>
<text class="comment" x="240" y="722">
SPACE</text>
</g>
<g class="terminal">
<rect height="22" rx="10" ry="10" width="52" x="218" y="735"/>
<text x="244" y="751">
\x20</text>
</g>
</g>
<g class="nonterminal">
<rect height="22" width="92" x="288" y="735"/>
<text x="334" y="751">
specifier</text>
</g>
<g class="labeledbox">
<rect height="66" width="68" x="390" y="699"/>
<path d=" M 390 746 h 8 m 52 0 h 8"/>
<g>
<text class="comment" x="420" y="722">
SPACE</text>
</g>
<g class="terminal">
<rect height="22" rx="10" ry="10" width="52" x="398" y="735"/>
<text x="424" y="751">
\x20</text>
</g>
</g>
<g class="nonterminal">
<rect height="22" width="116" x="468" y="735"/>
<text x="526" y="751">
error-report</text>
</g>
<path d=" M 122 746 h 10"/>
<path d=" M 200 746 h 10"/>
<path d=" M 278 746 h 10"/>
<path d=" M 380 746 h 10"/>
<path d=" M 458 746 h 10"/>
</g>
</g>
</g>
<path d=" M 786 91 h 5 m -5 5 l 5 -5 l -5 -5 m 5 5"/>
<path d=" M 20 91 h 10"/>
<path d=" M 776 91 h 10"/>
</g>
</g>
</svg>
