<svg class="railroad" viewBox="0 0 927 895" xmlns="http://www.w3.org/2000/svg">
<style type="text/css">

    svg.railroad {
        background-color: hsl(30, 20%, 95%);
        background-size: 15px 15px;
        background-image: linear-gradient(to right, rgba(30, 30, 30, .05) 1px, transparent 1px),
                          linear-gradient(to bottom, rgba(30, 30, 30, .05) 1px, transparent 1px);
    }

    svg.railroad path {
        stroke-width: 3px;
        stroke: black;
        fill: transparent;
    }

    svg.railroad .debug {
        stroke-width: 1px;
        stroke: red;
    }

    svg.railroad text {
        font: 14px monospace;
        text-anchor: middle;
    }

    svg.railroad .nonterminal text {
        font-weight: bold;
    }

    svg.railroad text.comment {
        font: italic 12px monospace;
    }

    svg.railroad rect {
        stroke-width: 3px;
        stroke: black;
        fill:hsl(-290, 70%, 90%);
    }

    svg.railroad g.labeledbox > rect {
        stroke-width: 1px;
        stroke: grey;
        stroke-dasharray: 5px;
        fill:rgba(90, 90, 150, .1);
    }</style>
<g class="sequence">
<path d=" M 10 57 a 5 5 0 0 1 5 -5 a 5 5 0 0 1 5 5 a 5 5 0 0 1 -5 5 a 5 5 0 0 1 -5 -5 m 10 0 h 5"/>
<g class="sequence">
<text class="comment" x="92" y="62">
defined-replies</text>
<g class="choice">
<path d=" M 160 57 h 24 m 534 0 h 174 m -84 0 l -5 -5 m 0 10 l 5 -5 m 84 0"/>
<g class="sequence">
<g class="terminal">
<rect height="22" rx="10" ry="10" width="188" x="184" y="46"/>
<text x="278" y="62">
ISSE&amp;SINE2020,SECoP,</text>
</g>
<g class="labeledbox">
<rect height="66" width="140" x="382" y="10"/>
<path d=" M 382 57 h 8 m 124 0 h 8"/>
<text class="comment" x="426" y="33">
no SPACE!</text>
<g class="nonterminal">
<rect height="22" width="124" x="390" y="46"/>
<text x="452" y="62">
secop-version</text>
</g>
</g>
<g class="terminal">
<rect height="22" rx="10" ry="10" width="28" x="532" y="46"/>
<text x="546" y="62">
,</text>
</g>
<g class="labeledbox">
<rect height="66" width="148" x="570" y="10"/>
<path d=" M 570 57 h 8 m 132 0 h 8"/>
<text class="comment" x="614" y="33">
no SPACE!</text>
<g class="nonterminal">
<rect height="22" width="132" x="578" y="46"/>
<text x="644" y="62">
secop-revision</text>
</g>
</g>
<path d=" M 372 57 h 10"/>
<path d=" M 522 57 h 10"/>
<path d=" M 560 57 h 10"/>
</g>
<path d=" M 160 57 a 12 12 0 0 1 12 12 v 17 m 708 0 v -17 a 12 12 0 0 1 12 -12"/>
<path d=" M 172 121 v 41 m 708 0 v -41"/>
<path d=" M 172 186 v 215 m 0 -104 l -5 -5 m 10 0 l -5 5 m 0 104 m 708 0 v -215 m 0 110 l -5 5 m 10 0 l -5 -5 m 0 -110"/>
<path d=" M 172 436 v 359 m 0 -176 l -5 -5 m 10 0 l -5 5 m 0 176 m 708 0 v -359 m 0 182 l -5 5 m 10 0 l -5 -5 m 0 -182"/>
<path d=" M 172 86 v 35 a 12 12 0 0 0 12 12 m 399 0 h 285 m -139 0 l -5 -5 m 0 10 l 5 -5 m 139 0 a 12 12 0 0 0 12 -12 v -35"/>
<g class="sequence">
<g class="terminal">
<rect height="22" rx="10" ry="10" width="100" x="184" y="122"/>
<text x="234" y="138">
describing</text>
</g>
<g class="labeledbox">
<rect height="66" width="131" x="294" y="86"/>
<path d=" M 294 133 h 8 m 76 0 h 47"/>
<text class="comment" x="359" y="109">
SPACE dot SPACE</text>
<g class="terminal">
<rect height="22" rx="10" ry="10" width="76" x="302" y="122"/>
<text x="340" y="138">
x20.x20</text>
</g>
</g>
<g class="nonterminal">
<rect height="22" width="148" x="435" y="122"/>
<text x="509" y="138">
structure-report</text>
</g>
<path d=" M 284 133 h 10"/>
<path d=" M 425 133 h 10"/>
</g>
<path d=" M 172 162 v 24 a 12 12 0 0 0 12 12 m 630 0 h 54 m -24 0 l -5 -5 m 0 10 l 5 -5 m 24 0 a 12 12 0 0 0 12 -12 v -24"/>
<g class="sequence">
<g class="choice">
<path d=" M 184 198 h 24 m 68 0 h 40"/>
<g class="terminal">
<rect height="22" rx="10" ry="10" width="68" x="208" y="187"/>
<text x="242" y="203">
active</text>
</g>
<path d=" M 184 198 a 12 12 0 0 1 12 12 v 9 m 108 0 v -9 a 12 12 0 0 1 12 -12"/>
<path d=" M 196 219 v 0 a 12 12 0 0 0 12 12 m 84 0 h 0 a 12 12 0 0 0 12 -12 v 0"/>
<g class="terminal">
<rect height="22" rx="10" ry="10" width="84" x="208" y="220"/>
<text x="250" y="236">
inactive</text>
</g>
</g>
<g class="choice">
<path d=" M 326 198 h 24 m 187 0 h 277 m -135 0 l -5 -5 m 0 10 l 5 -5 m 135 0"/>
<g class="labeledbox">
<rect height="44" width="187" x="350" y="162"/>
<path d=" M 350 198 h 8 m 0 0 h 179 m -86 0 l -5 -5 m 0 10 l 5 -5 m 86 0"/>
<text class="comment" x="443" y="185">
global (de-)activation</text>
<g/>
</g>
<path d=" M 326 198 a 12 12 0 0 1 12 12 v 6 m 464 0 v -6 a 12 12 0 0 1 12 -12"/>
<path d=" M 338 216 v 35 a 12 12 0 0 0 12 12 m 440 0 h 0 a 12 12 0 0 0 12 -12 v -35"/>
<g class="sequence">
<g class="labeledbox">
<rect height="66" width="61" x="350" y="216"/>
<path d=" M 350 263 h 8 m 44 0 h 9"/>
<text class="comment" x="380" y="239">
SPACE</text>
<g class="terminal">
<rect height="22" rx="10" ry="10" width="44" x="358" y="252"/>
<text x="380" y="268">
x20</text>
</g>
</g>
<g class="nonterminal">
<rect height="22" width="68" x="421" y="252"/>
<text x="455" y="268">
module</text>
</g>
<g class="choice">
<path d=" M 499 263 h 24 m 222 0 h 45"/>
<g class="labeledbox">
<rect height="44" width="222" x="523" y="227"/>
<path d=" M 523 263 h 8 m 0 0 h 214 m -104 0 l -5 -5 m 0 10 l 5 -5 m 104 0"/>
<text class="comment" x="634" y="250">
module-wise (de-)activation</text>
<g/>
</g>
<path d=" M 499 263 a 12 12 0 0 1 12 12 v 6 m 267 0 v -6 a 12 12 0 0 1 12 -12"/>
<path d=" M 511 281 v 71 m 0 -32 l -5 -5 m 10 0 l -5 5 m 0 32 a 12 12 0 0 0 12 12 m 243 0 h 0 a 12 12 0 0 0 12 -12 v -71 m 0 38 l -5 5 m 10 0 l -5 -5 m 0 -38"/>
<g class="labeledbox">
<rect height="110" width="243" x="523" y="281"/>
<path d=" M 523 364 h 8 m 163 0 h 72 m -33 0 l -5 -5 m 0 10 l 5 -5 m 33 0"/>
<text class="comment" x="644" y="304">
parameter-wise (de-)activation</text>
<g class="sequence">
<g class="labeledbox">
<rect height="66" width="61" x="531" y="317"/>
<path d=" M 531 364 h 8 m 28 0 h 25"/>
<text class="comment" x="561" y="340">
colon</text>
<g class="terminal">
<rect height="22" rx="10" ry="10" width="28" x="539" y="353"/>
<text x="553" y="369">
:</text>
</g>
</g>
<g class="nonterminal">
<rect height="22" width="92" x="602" y="353"/>
<text x="648" y="369">
parameter</text>
</g>
<path d=" M 592 364 h 10"/>
</g>
</g>
</g>
<path d=" M 411 263 h 10"/>
<path d=" M 489 263 h 10"/>
</g>
</g>
<path d=" M 316 198 h 10"/>
</g>
<path d=" M 172 401 v 35 a 12 12 0 0 0 12 12 m 684 0 h 0 a 12 12 0 0 0 12 -12 v -35"/>
<g class="sequence">
<g class="choice">
<path d=" M 184 448 h 24 m 241 0 h 230 m -112 0 l -5 -5 m 0 10 l 5 -5 m 112 0"/>
<g class="sequence">
<g class="terminal">
<rect height="22" rx="10" ry="10" width="52" x="208" y="437"/>
<text x="234" y="453">
pong</text>
</g>
<g class="choice">
<path d=" M 270 448 h 24 m 103 0 h 52 m -23 0 l -5 -5 m 0 10 l 5 -5 m 23 0"/>
<g class="labeledbox">
<rect height="44" width="103" x="294" y="412"/>
<path d=" M 294 448 h 8 m 0 0 h 95 m -44 0 l -5 -5 m 0 10 l 5 -5 m 44 0"/>
<text class="comment" x="345" y="435">
empty token</text>
<g/>
</g>
<path d=" M 270 448 a 12 12 0 0 1 12 12 v 6 m 155 0 v -6 a 12 12 0 0 1 12 -12"/>
<path d=" M 282 466 v 35 a 12 12 0 0 0 12 12 m 131 0 h 0 a 12 12 0 0 0 12 -12 v -35"/>
<g class="sequence">
<g class="labeledbox">
<rect height="66" width="61" x="294" y="466"/>
<path d=" M 294 513 h 8 m 44 0 h 9"/>
<text class="comment" x="324" y="489">
SPACE</text>
<g class="terminal">
<rect height="22" rx="10" ry="10" width="44" x="302" y="502"/>
<text x="324" y="518">
x20</text>
</g>
</g>
<g class="nonterminal">
<rect height="22" width="60" x="365" y="502"/>
<text x="395" y="518">
token</text>
</g>
<path d=" M 355 513 h 10"/>
</g>
</g>
<path d=" M 260 448 h 10"/>
</g>
<path d=" M 184 448 a 12 12 0 0 1 12 12 v 82 m 0 -38 l -5 -5 m 10 0 l -5 5 m 0 38 m 471 0 v -82 m 0 44 l -5 5 m 10 0 l -5 -5 m 0 -44 a 12 12 0 0 1 12 -12"/>
<path d=" M 196 577 v 41 m 471 0 v -41"/>
<path d=" M 196 542 v 35 a 12 12 0 0 0 12 12 m 325 0 h 122 m -58 0 l -5 -5 m 0 10 l 5 -5 m 58 0 a 12 12 0 0 0 12 -12 v -35"/>
<g class="sequence">
<g class="terminal">
<rect height="22" rx="10" ry="10" width="52" x="208" y="578"/>
<text x="234" y="594">
done</text>
</g>
<g class="labeledbox">
<rect height="66" width="61" x="270" y="542"/>
<path d=" M 270 589 h 8 m 44 0 h 9"/>
<text class="comment" x="300" y="565">
SPACE</text>
<g class="terminal">
<rect height="22" rx="10" ry="10" width="44" x="278" y="578"/>
<text x="300" y="594">
x20</text>
</g>
</g>
<g class="nonterminal">
<rect height="22" width="68" x="341" y="578"/>
<text x="375" y="594">
module</text>
</g>
<g class="terminal">
<rect height="22" rx="10" ry="10" width="28" x="419" y="578"/>
<text x="433" y="594">
:</text>
</g>
<g class="nonterminal">
<rect height="22" width="76" x="457" y="578"/>
<text x="495" y="594">
command</text>
</g>
<path d=" M 260 589 h 10"/>
<path d=" M 331 589 h 10"/>
<path d=" M 409 589 h 10"/>
<path d=" M 447 589 h 10"/>
</g>
<path d=" M 196 618 v 35 a 12 12 0 0 0 12 12 m 447 0 h 0 a 12 12 0 0 0 12 -12 v -35"/>
<g class="sequence">
<g class="choice">
<path d=" M 208 665 h 24 m 68 0 h 66 m -30 0 l -5 -5 m 0 10 l 5 -5 m 30 0"/>
<g class="terminal">
<rect height="22" rx="10" ry="10" width="68" x="232" y="654"/>
<text x="266" y="670">
update</text>
</g>
<path d=" M 208 665 a 12 12 0 0 1 12 12 v 9 m 134 0 v -9 a 12 12 0 0 1 12 -12"/>
<path d=" M 220 686 v 33 m 134 0 v -33"/>
<path d=" M 220 686 v 0 a 12 12 0 0 0 12 12 m 76 0 h 34 a 12 12 0 0 0 12 -12 v 0"/>
<g class="terminal">
<rect height="22" rx="10" ry="10" width="76" x="232" y="687"/>
<text x="270" y="703">
changed</text>
</g>
<path d=" M 220 719 v 35 a 12 12 0 0 0 12 12 m 110 0 h 0 a 12 12 0 0 0 12 -12 v -35"/>
<g class="labeledbox">
<rect height="66" width="110" x="232" y="719"/>
<path d=" M 232 766 h 8 m 84 0 h 18"/>
<text class="comment" x="287" y="742">
see Issue 29</text>
<g class="terminal">
<rect height="22" rx="10" ry="10" width="84" x="240" y="755"/>
<text x="282" y="771">
buffered</text>
</g>
</g>
</g>
<g class="labeledbox">
<rect height="66" width="61" x="376" y="618"/>
<path d=" M 376 665 h 8 m 44 0 h 9"/>
<text class="comment" x="406" y="641">
SPACE</text>
<g class="terminal">
<rect height="22" rx="10" ry="10" width="44" x="384" y="654"/>
<text x="406" y="670">
x20</text>
</g>
</g>
<g class="nonterminal">
<rect height="22" width="68" x="447" y="654"/>
<text x="481" y="670">
module</text>
</g>
<g class="terminal">
<rect height="22" rx="10" ry="10" width="28" x="525" y="654"/>
<text x="539" y="670">
:</text>
</g>
<g class="nonterminal">
<rect height="22" width="92" x="563" y="654"/>
<text x="609" y="670">
parameter</text>
</g>
<path d=" M 366 665 h 10"/>
<path d=" M 437 665 h 10"/>
<path d=" M 515 665 h 10"/>
<path d=" M 553 665 h 10"/>
</g>
</g>
<g class="labeledbox">
<rect height="66" width="61" x="689" y="401"/>
<path d=" M 689 448 h 8 m 44 0 h 9"/>
<text class="comment" x="719" y="424">
SPACE</text>
<g class="terminal">
<rect height="22" rx="10" ry="10" width="44" x="697" y="437"/>
<text x="719" y="453">
x20</text>
</g>
</g>
<g class="nonterminal">
<rect height="22" width="108" x="760" y="437"/>
<text x="814" y="453">
data-report</text>
</g>
<path d=" M 679 448 h 10"/>
<path d=" M 750 448 h 10"/>
</g>
<path d=" M 172 795 v 35 a 12 12 0 0 0 12 12 m 470 0 h 214 m -104 0 l -5 -5 m 0 10 l 5 -5 m 104 0 a 12 12 0 0 0 12 -12 v -35"/>
<g class="sequence">
<g class="terminal">
<rect height="22" rx="10" ry="10" width="60" x="184" y="831"/>
<text x="214" y="847">
error</text>
</g>
<g class="labeledbox">
<rect height="66" width="61" x="254" y="795"/>
<path d=" M 254 842 h 8 m 44 0 h 9"/>
<text class="comment" x="284" y="818">
SPACE</text>
<g class="terminal">
<rect height="22" rx="10" ry="10" width="44" x="262" y="831"/>
<text x="284" y="847">
x20</text>
</g>
</g>
<g class="repeat">
<path d=" M 325 842 h 12 m 108 0 h 12 m -12 0 a 12 12 0 0 1 12 12 v 8 a 12 12 0 0 1 -12 12 m -28 0 h -80 m 43 0 l 5 -5 m 0 10 l -5 -5 m -43 0 a 12 12 0 0 1 -12 -12 v -8 a 12 12 0 0 1 12 -12"/>
<g class="terminal">
<rect height="22" rx="10" ry="10" width="28" x="417" y="863"/>
<text x="431" y="879">
:</text>
</g>
<g class="nonterminal">
<rect height="22" width="108" x="337" y="831"/>
<text x="391" y="847">
error-class</text>
</g>
</g>
<g class="labeledbox">
<rect height="66" width="61" x="467" y="795"/>
<path d=" M 467 842 h 8 m 44 0 h 9"/>
<text class="comment" x="497" y="818">
SPACE</text>
<g class="terminal">
<rect height="22" rx="10" ry="10" width="44" x="475" y="831"/>
<text x="497" y="847">
x20</text>
</g>
</g>
<g class="nonterminal">
<rect height="22" width="116" x="538" y="831"/>
<text x="596" y="847">
error-report</text>
</g>
<path d=" M 244 842 h 10"/>
<path d=" M 315 842 h 10"/>
<path d=" M 457 842 h 10"/>
<path d=" M 528 842 h 10"/>
</g>
</g>
<path d=" M 150 57 h 10"/>
</g>
<path d=" M 902 57 h 5 a 5 5 0 0 1 5 -5 a 5 5 0 0 1 5 5 a 5 5 0 0 1 -5 5 a 5 5 0 0 1 -5 -5"/>
<path d=" M 25 57 h 10"/>
<path d=" M 892 57 h 10"/>
</g>
</svg>
