<svg class="railroad" viewBox="0 0 586 110" width="586pt" xmlns="http://www.w3.org/2000/svg">
<style type="text/css">

    svg.railroad {
        background-color: hsl(30, 20%, 95%);
        background-size: 15px 15px;
        background-image: linear-gradient(to right, rgba(30, 30, 30, .05) 1px, transparent 1px),
                          linear-gradient(to bottom, rgba(30, 30, 30, .05) 1px, transparent 1px);
    }

    svg.railroad path {
        stroke-width: 3px;
        stroke: black;
        fill: transparent;
    }

    svg.railroad .debug {
        stroke-width: 1px;
        stroke: red;
    }

    svg.railroad text {
        font: 14px monospace;
        text-anchor: middle;
    }

    svg.railroad .nonterminal text {
        font-weight: bold;
    }

    svg.railroad text.comment {
        font: italic 12px monospace;
    }

    svg.railroad rect {
        stroke-width: 3px;
        stroke: black;
        fill:hsl(-290, 70%, 90%);
    }

    svg.railroad g.labeledbox &gt; rect {
        stroke-width: 1px;
        stroke: grey;
        stroke-dasharray: 5px;
        fill:rgba(90, 90, 150, .1);
    }</style>
<g class="sequence">
<path d=" M 10 57 a 5 5 0 0 1 5 -5 a 5 5 0 0 1 5 5 a 5 5 0 0 1 -5 5 a 5 5 0 0 1 -5 -5 m 10 0 h 5"/>
<g class="sequence">
<text class="comment" x="96" y="62">
descriptive-text</text>
<g class="labeledbox">
<rect height="66" width="116" x="167" y="10"/>
<path d=" M 167 57 h 8 m 100 0 h 8"/>
<text class="comment" x="222" y="33">
max 72 chars</text>
<g class="nonterminal">
<rect height="22" width="100" x="175" y="46"/>
<text x="225" y="62">
first line</text>
</g>
</g>
<g class="terminal">
<rect height="22" rx="10" ry="10" width="36" x="293" y="46"/>
<text x="311" y="62">
nn</text>
</g>
<g class="repeat">
<path d=" M 339 57 h 12 m 188 0 h 12 m -12 0 a 12 12 0 0 1 12 12 v 8 a 12 12 0 0 1 -12 12 m -28 0 h -160 m 83 0 l 5 -5 m 0 10 l -5 -5 m -83 0 a 12 12 0 0 1 -12 -12 v -8 a 12 12 0 0 1 12 -12"/>
<g class="terminal">
<rect height="22" rx="10" ry="10" width="28" x="511" y="78"/>
<text x="525" y="94">
n</text>
</g>
<g class="nonterminal">
<rect height="22" width="188" x="351" y="46"/>
<text x="445" y="62">
another line of text</text>
</g>
</g>
<path d=" M 157 57 h 10"/>
<path d=" M 283 57 h 10"/>
<path d=" M 329 57 h 10"/>
</g>
<path d=" M 561 57 h 5 a 5 5 0 0 1 5 -5 a 5 5 0 0 1 5 5 a 5 5 0 0 1 -5 5 a 5 5 0 0 1 -5 -5"/>
<path d=" M 25 57 h 10"/>
<path d=" M 551 57 h 10"/>
</g>
</svg>