<svg class="railroad" viewBox="0 0 965 209" width="965" xmlns="http://www.w3.org/2000/svg">
<style type="text/css">

    svg.railroad {
        background-color: hsl(30, 20%, 95%);
        background-size: 15px 15px;
        background-image: linear-gradient(to right, rgba(30, 30, 30, .05) 1px, transparent 1px),
                          linear-gradient(to bottom, rgba(30, 30, 30, .05) 1px, transparent 1px);
    }

    svg.railroad path {
        stroke-width: 3px;
        stroke: black;
        fill: transparent;
    }

    svg.railroad .debug {
        stroke-width: 1px;
        stroke: red;
    }

    svg.railroad text {
        font: 14px monospace;
        text-anchor: middle;
    }

    svg.railroad .nonterminal text {
        font-weight: bold;
    }

    svg.railroad text.comment {
        font: italic 12px monospace;
    }

    svg.railroad rect {
        stroke-width: 3px;
        stroke: black;
        fill:hsl(-290, 70%, 90%);
    }

    svg.railroad g.labeledbox &gt; rect {
        stroke-width: 1px;
        stroke: grey;
        stroke-dasharray: 5px;
        fill:rgba(90, 90, 150, .1);
    }</style>
<g class="verticalgrid">
<g class="sequence">
<g class="sequence">
<g>
<text class="comment" x="95" y="62">
error-report: generate</text>
</g>
<g class="labeledbox">
<rect height="66" width="552" x="191" y="10"/>
<path d=" M 191 57 h 8 m 536 0 h 8"/>
<g>
<text class="comment" x="305" y="33">
a json-array with 3 elements</text>
</g>
<g class="sequence">
<g class="terminal">
<rect height="22" rx="10" ry="10" width="28" x="199" y="46"/>
<text x="213" y="62">
[</text>
</g>
<g class="nonterminal">
<rect height="22" width="140" x="237" y="46"/>
<text x="307" y="62">
copy of request</text>
</g>
<g class="terminal">
<rect height="22" rx="10" ry="10" width="28" x="387" y="46"/>
<text x="401" y="62">
,</text>
</g>
<g class="nonterminal">
<rect height="22" width="124" x="425" y="46"/>
<text x="487" y="62">
error-message</text>
</g>
<g class="terminal">
<rect height="22" rx="10" ry="10" width="28" x="559" y="46"/>
<text x="573" y="62">
,</text>
</g>
<g class="nonterminal">
<rect height="22" width="100" x="597" y="46"/>
<text x="647" y="62">
error-info</text>
</g>
<g class="terminal">
<rect height="22" rx="10" ry="10" width="28" x="707" y="46"/>
<text x="721" y="62">
]</text>
</g>
<path d=" M 227 57 h 10"/>
<path d=" M 377 57 h 10"/>
<path d=" M 415 57 h 10"/>
<path d=" M 549 57 h 10"/>
<path d=" M 587 57 h 10"/>
<path d=" M 697 57 h 10"/>
</g>
</g>
<path d=" M 181 57 h 10"/>
</g>
<path d=" M 753 57 h 5 m -5 5 l 5 -5 l -5 -5 m 5 5"/>
<path d=" M 743 57 h 10"/>
</g>
<g class="sequence">
<g class="sequence">
<g>
<text class="comment" x="88" y="153">
error-report: accept</text>
</g>
<g class="labeledbox">
<rect height="111" width="758" x="177" y="88"/>
<path d=" M 177 148 h 8 m 742 0 h 8"/>
<g>
<text class="comment" x="302" y="111">
a json-array with &gt;= 3 elements</text>
</g>
<g class="sequence">
<g class="terminal">
<rect height="22" rx="10" ry="10" width="28" x="185" y="137"/>
<text x="199" y="153">
[</text>
</g>
<g class="sequence">
<g class="nonterminal">
<rect height="22" width="140" x="223" y="137"/>
<text x="293" y="153">
copy of request</text>
</g>
<g class="terminal">
<rect height="22" rx="10" ry="10" width="28" x="373" y="137"/>
<text x="387" y="153">
,</text>
</g>
<g class="nonterminal">
<rect height="22" width="124" x="411" y="137"/>
<text x="473" y="153">
error-message</text>
</g>
<g class="terminal">
<rect height="22" rx="10" ry="10" width="28" x="545" y="137"/>
<text x="559" y="153">
,</text>
</g>
<g class="nonterminal">
<rect height="22" width="100" x="583" y="137"/>
<text x="633" y="153">
error-info</text>
</g>
<path d=" M 363 148 h 10"/>
<path d=" M 401 148 h 10"/>
<path d=" M 535 148 h 10"/>
<path d=" M 573 148 h 10"/>
</g>
<g class="optional">
<path d=" M 693 148 h 24 m -24 0 a 12 12 0 0 0 12 -12 v 0 a 12 12 0 0 1 12 -12 h 148 m -71 0 l -5 -5 m 0 10 l 5 -5 m 71 0 a 12 12 0 0 1 12 12 v 0 a 12 12 0 0 0 12 12 h -24"/>
<g class="sequence">
<g class="repeat">
<path d=" M 717 148 h 12 m 124 0 h 12 m -12 0 a 12 12 0 0 1 12 12 v 8 a 12 12 0 0 1 -12 12 m -28 0 h -96 m 51 0 l 5 -5 m 0 10 l -5 -5 m -51 0 a 12 12 0 0 1 -12 -12 v -8 a 12 12 0 0 1 12 -12"/>
<g class="terminal">
<rect height="22" rx="10" ry="10" width="28" x="825" y="169"/>
<text x="839" y="185">
,</text>
</g>
<g class="nonterminal">
<rect height="22" width="124" x="729" y="137"/>
<text x="791" y="153">
ignored-value</text>
</g>
</g>
</g>
</g>
<g class="terminal">
<rect height="22" rx="10" ry="10" width="28" x="899" y="137"/>
<text x="913" y="153">
]</text>
</g>
<path d=" M 213 148 h 10"/>
<path d=" M 683 148 h 10"/>
<path d=" M 889 148 h 10"/>
</g>
</g>
<path d=" M 167 148 h 10"/>
</g>
<path d=" M 945 148 h 5 m -5 5 l 5 -5 l -5 -5 m 5 5"/>
<path d=" M 935 148 h 10"/>
</g>
</g>
</svg>