<svg class="railroad" viewBox="0 0 995 209" width="995" xmlns="http://www.w3.org/2000/svg">
<style type="text/css">

    svg.railroad {
        background-color: hsl(30, 20%, 95%);
        background-size: 15px 15px;
        background-image: linear-gradient(to right, rgba(30, 30, 30, .05) 1px, transparent 1px),
                          linear-gradient(to bottom, rgba(30, 30, 30, .05) 1px, transparent 1px);
    }

    svg.railroad path {
        stroke-width: 3px;
        stroke: black;
        fill: transparent;
    }

    svg.railroad .debug {
        stroke-width: 1px;
        stroke: red;
    }

    svg.railroad text {
        font: 14px monospace;
        text-anchor: middle;
    }

    svg.railroad .nonterminal text {
        font-weight: bold;
    }

    svg.railroad text.comment {
        font: italic 12px monospace;
    }

    svg.railroad rect {
        stroke-width: 3px;
        stroke: black;
        fill:hsl(-290, 70%, 90%);
    }

    svg.railroad g.labeledbox &gt; rect {
        stroke-width: 1px;
        stroke: grey;
        stroke-dasharray: 5px;
        fill:rgba(90, 90, 150, .1);
    }</style>
<g class="verticalgrid">
<g class="sequence">
<path d=" M 10 57 a 5 5 0 0 1 5 -5 a 5 5 0 0 1 5 5 a 5 5 0 0 1 -5 5 a 5 5 0 0 1 -5 -5 m 10 0 h 5"/>
<g class="sequence">
<text class="comment" x="120" y="62">
error-report: generate</text>
<g class="labeledbox">
<rect height="66" width="552" x="216" y="10"/>
<path d=" M 216 57 h 8 m 536 0 h 8"/>
<text class="comment" x="330" y="33">
a json-array with 3 elements</text>
<g class="sequence">
<g class="terminal">
<rect height="22" rx="10" ry="10" width="28" x="224" y="46"/>
<text x="238" y="62">
[</text>
</g>
<g class="nonterminal">
<rect height="22" width="140" x="262" y="46"/>
<text x="332" y="62">
copy of request</text>
</g>
<g class="terminal">
<rect height="22" rx="10" ry="10" width="28" x="412" y="46"/>
<text x="426" y="62">
,</text>
</g>
<g class="nonterminal">
<rect height="22" width="124" x="450" y="46"/>
<text x="512" y="62">
error-message</text>
</g>
<g class="terminal">
<rect height="22" rx="10" ry="10" width="28" x="584" y="46"/>
<text x="598" y="62">
,</text>
</g>
<g class="nonterminal">
<rect height="22" width="100" x="622" y="46"/>
<text x="672" y="62">
error-info</text>
</g>
<g class="terminal">
<rect height="22" rx="10" ry="10" width="28" x="732" y="46"/>
<text x="746" y="62">
]</text>
</g>
<path d=" M 252 57 h 10"/>
<path d=" M 402 57 h 10"/>
<path d=" M 440 57 h 10"/>
<path d=" M 574 57 h 10"/>
<path d=" M 612 57 h 10"/>
<path d=" M 722 57 h 10"/>
</g>
</g>
<path d=" M 206 57 h 10"/>
</g>
<path d=" M 778 57 h 5 a 5 5 0 0 1 5 -5 a 5 5 0 0 1 5 5 a 5 5 0 0 1 -5 5 a 5 5 0 0 1 -5 -5"/>
<path d=" M 25 57 h 10"/>
<path d=" M 768 57 h 10"/>
</g>
<g class="sequence">
<path d=" M 10 148 a 5 5 0 0 1 5 -5 a 5 5 0 0 1 5 5 a 5 5 0 0 1 -5 5 a 5 5 0 0 1 -5 -5 m 10 0 h 5"/>
<g class="sequence">
<text class="comment" x="113" y="153">
error-report: accept</text>
<g class="labeledbox">
<rect height="111" width="758" x="202" y="88"/>
<path d=" M 202 148 h 8 m 742 0 h 8"/>
<text class="comment" x="327" y="111">
a json-array with &gt;= 3 elements</text>
<g class="sequence">
<g class="terminal">
<rect height="22" rx="10" ry="10" width="28" x="210" y="137"/>
<text x="224" y="153">
[</text>
</g>
<g class="sequence">
<g class="nonterminal">
<rect height="22" width="140" x="248" y="137"/>
<text x="318" y="153">
copy of request</text>
</g>
<g class="terminal">
<rect height="22" rx="10" ry="10" width="28" x="398" y="137"/>
<text x="412" y="153">
,</text>
</g>
<g class="nonterminal">
<rect height="22" width="124" x="436" y="137"/>
<text x="498" y="153">
error-message</text>
</g>
<g class="terminal">
<rect height="22" rx="10" ry="10" width="28" x="570" y="137"/>
<text x="584" y="153">
,</text>
</g>
<g class="nonterminal">
<rect height="22" width="100" x="608" y="137"/>
<text x="658" y="153">
error-info</text>
</g>
<path d=" M 388 148 h 10"/>
<path d=" M 426 148 h 10"/>
<path d=" M 560 148 h 10"/>
<path d=" M 598 148 h 10"/>
</g>
<g class="optional">
<path d=" M 718 148 h 24 m -24 0 a 12 12 0 0 0 12 -12 v 0 a 12 12 0 0 1 12 -12 h 148 m -71 0 l -5 -5 m 0 10 l 5 -5 m 71 0 a 12 12 0 0 1 12 12 v 0 a 12 12 0 0 0 12 12 h -24"/>
<g class="sequence">
<g class="repeat">
<path d=" M 742 148 h 12 m 124 0 h 12 m -12 0 a 12 12 0 0 1 12 12 v 8 a 12 12 0 0 1 -12 12 m -28 0 h -96 m 51 0 l 5 -5 m 0 10 l -5 -5 m -51 0 a 12 12 0 0 1 -12 -12 v -8 a 12 12 0 0 1 12 -12"/>
<g class="terminal">
<rect height="22" rx="10" ry="10" width="28" x="850" y="169"/>
<text x="864" y="185">
,</text>
</g>
<g class="nonterminal">
<rect height="22" width="124" x="754" y="137"/>
<text x="816" y="153">
ignored-value</text>
</g>
</g>
</g>
</g>
<g class="terminal">
<rect height="22" rx="10" ry="10" width="28" x="924" y="137"/>
<text x="938" y="153">
]</text>
</g>
<path d=" M 238 148 h 10"/>
<path d=" M 708 148 h 10"/>
<path d=" M 914 148 h 10"/>
</g>
</g>
<path d=" M 192 148 h 10"/>
</g>
<path d=" M 970 148 h 5 a 5 5 0 0 1 5 -5 a 5 5 0 0 1 5 5 a 5 5 0 0 1 -5 5 a 5 5 0 0 1 -5 -5"/>
<path d=" M 25 148 h 10"/>
<path d=" M 960 148 h 10"/>
</g>
</g>
</svg>