<svg class="railroad" viewBox="0 0 856 251" width="856" xmlns="http://www.w3.org/2000/svg">
<style type="text/css">

    svg.railroad {
        background-color: hsl(30, 20%, 95%);
        background-size: 15px 15px;
        background-image: linear-gradient(to right, rgba(30, 30, 30, .05) 1px, transparent 1px),
                          linear-gradient(to bottom, rgba(30, 30, 30, .05) 1px, transparent 1px);
    }

    svg.railroad path {
        stroke-width: 3px;
        stroke: black;
        fill: transparent;
    }

    svg.railroad .debug {
        stroke-width: 1px;
        stroke: red;
    }

    svg.railroad text {
        font: 14px monospace;
        text-anchor: middle;
    }

    svg.railroad .nonterminal text {
        font-weight: bold;
    }

    svg.railroad text.comment {
        font: italic 12px monospace;
    }

    svg.railroad rect {
        stroke-width: 3px;
        stroke: black;
        fill:hsl(-290, 70%, 90%);
    }

    svg.railroad g.labeledbox &gt; rect {
        stroke-width: 1px;
        stroke: grey;
        stroke-dasharray: 5px;
        fill:rgba(90, 90, 150, .1);
    }</style>
<g class="sequence">
<g class="sequence">
<g>
<text class="comment" x="50" y="62">
error-info</text>
</g>
<g class="labeledbox">
<rect height="231" width="726" x="100" y="10"/>
<path d=" M 100 57 h 8 m 710 0 h 8"/>
<g>
<text class="comment" x="158" y="33">
a json-object</text>
</g>
<g class="sequence">
<g class="terminal">
<rect height="22" rx="10" ry="10" width="28" x="108" y="46"/>
<text x="122" y="62">
{</text>
</g>
<g class="sequence">
<g class="choice">
<path d=" M 146 57 h 24 m 0 0 h 610 m -302 0 l -5 -5 m 0 10 l 5 -5 m 302 0"/>
<g/>
<path d=" M 146 57 a 12 12 0 0 1 12 12 v 0 m 610 0 v 0 a 12 12 0 0 1 12 -12"/>
<path d=" M 158 69 v 0 a 12 12 0 0 0 12 12 m 586 0 h 0 a 12 12 0 0 0 12 -12 v 0"/>
<g class="repeat">
<path d=" M 170 81 h 12 m 562 0 h 12 m -12 0 a 12 12 0 0 1 12 12 v 117 m 0 -55 l -5 -5 m 10 0 l -5 5 m 0 55 a 12 12 0 0 1 -12 12 m -28 0 h -534 m 270 0 l 5 -5 m 0 10 l -5 -5 m -270 0 a 12 12 0 0 1 -12 -12 v -117 m 0 61 l -5 5 m 10 0 l -5 -5 m 0 -61 a 12 12 0 0 1 12 -12"/>
<g class="terminal">
<rect height="22" rx="10" ry="10" width="28" x="716" y="211"/>
<text x="730" y="227">
,</text>
</g>
<g class="choice">
<path d=" M 182 81 h 24 m 336 0 h 202 m -98 0 l -5 -5 m 0 10 l 5 -5 m 98 0"/>
<g class="sequence">
<g class="terminal">
<rect height="22" rx="10" ry="10" width="92" x="206" y="70"/>
<text x="252" y="86">
exception</text>
</g>
<g class="terminal">
<rect height="22" rx="10" ry="10" width="28" x="308" y="70"/>
<text x="322" y="86">
:</text>
</g>
<g class="nonterminal">
<rect height="22" width="196" x="346" y="70"/>
<text x="444" y="86">
exception-information</text>
</g>
<path d=" M 298 81 h 10"/>
<path d=" M 336 81 h 10"/>
</g>
<path d=" M 182 81 a 12 12 0 0 1 12 12 v 9 m 538 0 v -9 a 12 12 0 0 1 12 -12"/>
<path d=" M 194 102 v 33 m 538 0 v -33"/>
<path d=" M 194 102 v 0 a 12 12 0 0 0 12 12 m 336 0 h 178 m -86 0 l -5 -5 m 0 10 l 5 -5 m 86 0 a 12 12 0 0 0 12 -12 v 0"/>
<g class="sequence">
<g class="terminal">
<rect height="22" rx="10" ry="10" width="92" x="206" y="103"/>
<text x="252" y="119">
traceback</text>
</g>
<g class="terminal">
<rect height="22" rx="10" ry="10" width="28" x="308" y="103"/>
<text x="322" y="119">
:</text>
</g>
<g class="nonterminal">
<rect height="22" width="196" x="346" y="103"/>
<text x="444" y="119">
traceback-information</text>
</g>
<path d=" M 298 114 h 10"/>
<path d=" M 336 114 h 10"/>
</g>
<path d=" M 194 135 v 35 a 12 12 0 0 0 12 12 m 514 0 h 0 a 12 12 0 0 0 12 -12 v -35"/>
<g class="sequence">
<g class="labeledbox">
<rect height="66" width="96" x="206" y="135"/>
<path d=" M 206 182 h 8 m 28 0 h 60 m -27 0 l -5 -5 m 0 10 l 5 -5 m 27 0"/>
<g>
<text class="comment" x="254" y="158">
underscore</text>
</g>
<g class="terminal">
<rect height="22" rx="10" ry="10" width="28" x="214" y="171"/>
<text x="228" y="187">
_</text>
</g>
</g>
<g class="nonterminal">
<rect height="22" width="204" x="312" y="171"/>
<text x="414" y="187">
custom error-info-name</text>
</g>
<g class="terminal">
<rect height="22" rx="10" ry="10" width="28" x="526" y="171"/>
<text x="540" y="187">
:</text>
</g>
<g class="nonterminal">
<rect height="22" width="156" x="564" y="171"/>
<text x="642" y="187">
custom error-info</text>
</g>
<path d=" M 302 182 h 10"/>
<path d=" M 516 182 h 10"/>
<path d=" M 554 182 h 10"/>
</g>
</g>
</g>
</g>
</g>
<g class="terminal">
<rect height="22" rx="10" ry="10" width="28" x="790" y="46"/>
<text x="804" y="62">
}</text>
</g>
<path d=" M 136 57 h 10"/>
<path d=" M 780 57 h 10"/>
</g>
</g>
<path d=" M 90 57 h 10"/>
</g>
<path d=" M 836 57 h 5 m -5 5 l 5 -5 l -5 -5 m 5 5"/>
<path d=" M 826 57 h 10"/>
</g>
</svg>