<svg class="railroad" viewBox="0 0 400 142" width="320pt" xmlns="http://www.w3.org/2000/svg">
<style type="text/css">

    svg.railroad {
        background-color: hsl(30, 20%, 95%);
        background-size: 15px 15px;
        background-image: linear-gradient(to right, rgba(30, 30, 30, .05) 1px, transparent 1px),
                          linear-gradient(to bottom, rgba(30, 30, 30, .05) 1px, transparent 1px);
    }

    svg.railroad path {
        stroke-width: 3px;
        stroke: black;
        fill: transparent;
    }

    svg.railroad .debug {
        stroke-width: 1px;
        stroke: red;
    }

    svg.railroad text {
        font: 14px monospace;
        text-anchor: middle;
    }

    svg.railroad .nonterminal text {
        font-weight: bold;
    }

    svg.railroad text.comment {
        font: italic 12px monospace;
    }

    svg.railroad rect {
        stroke-width: 3px;
        stroke: black;
        fill:hsl(-290, 70%, 90%);
    }

    svg.railroad g.labeledbox > rect {
        stroke-width: 1px;
        stroke: grey;
        stroke-dasharray: 5px;
        fill:rgba(90, 90, 150, .1);
    }</style>
<g class="verticalgrid">
<g class="horizontalgrid">
<g class="nonterminal">
<rect height="22" width="68" x="10" y="10"/>
<text x="44" y="26">
fmtstr</text>
</g>
</g>
<g class="sequence">
<path d=" M 10 50 l 5 5 l -5 5 m 5 -5 h 5"/>
<g class="sequence">
<g class="terminal">
<rect height="22" rx="10" ry="10" width="28" x="30" y="44"/>
<text x="44" y="60">
%</text>
</g>
<g class="terminal">
<rect height="22" rx="10" ry="10" width="28" x="68" y="44"/>
<text x="82" y="60">
.</text>
</g>
<g class="terminal">
<rect height="22" rx="10" ry="10" width="60" x="106" y="44"/>
<text x="136" y="60">
[1-9]</text>
</g>
<g class="choice">
<path d=" M 176 55 h 24 m 0 0 h 84 m -39 0 l -5 -5 m 0 10 l 5 -5 m 39 0"/>
<g/>
<path d=" M 176 55 a 12 12 0 0 1 12 12 v 0 m 84 0 v 0 a 12 12 0 0 1 12 -12"/>
<path d=" M 188 67 v 0 a 12 12 0 0 0 12 12 m 60 0 h 0 a 12 12 0 0 0 12 -12 v 0"/>
<g class="terminal">
<rect height="22" rx="10" ry="10" width="60" x="200" y="68"/>
<text x="230" y="84">
[0-9]</text>
</g>
</g>
<g class="choice">
<path d=" M 294 55 h 24 m 28 0 h 24"/>
<g class="terminal">
<rect height="22" rx="10" ry="10" width="28" x="318" y="44"/>
<text x="332" y="60">
e</text>
</g>
<path d=" M 294 55 a 12 12 0 0 1 12 12 v 9 m 52 0 v -9 a 12 12 0 0 1 12 -12"/>
<path d=" M 306 76 v 33 m 52 0 v -33"/>
<path d=" M 306 76 v 0 a 12 12 0 0 0 12 12 m 28 0 h 0 a 12 12 0 0 0 12 -12 v 0"/>
<g class="terminal">
<rect height="22" rx="10" ry="10" width="28" x="318" y="77"/>
<text x="332" y="93">
f</text>
</g>
<path d=" M 306 109 v 0 a 12 12 0 0 0 12 12 m 28 0 h 0 a 12 12 0 0 0 12 -12 v 0"/>
<g class="terminal">
<rect height="22" rx="10" ry="10" width="28" x="318" y="110"/>
<text x="332" y="126">
g</text>
</g>
</g>
<path d=" M 58 55 h 10"/>
<path d=" M 96 55 h 10"/>
<path d=" M 166 55 h 10"/>
<path d=" M 284 55 h 10"/>
</g>
<path d=" M 380 55 h 5 m -5 5 l 5 -5 l -5 -5 m 5 5"/>
<path d=" M 20 55 h 10"/>
<path d=" M 370 55 h 10"/>
</g>
</g>
</svg>
