<svg class="railroad" viewBox="0 0 667 110" width="667" xmlns="http://www.w3.org/2000/svg">
<style type="text/css">

    svg.railroad {
        background-color: hsl(30, 20%, 95%);
        background-size: 15px 15px;
        background-image: linear-gradient(to right, rgba(30, 30, 30, .05) 1px, transparent 1px),
                          linear-gradient(to bottom, rgba(30, 30, 30, .05) 1px, transparent 1px);
    }

    svg.railroad path {
        stroke-width: 3px;
        stroke: black;
        fill: transparent;
    }

    svg.railroad .debug {
        stroke-width: 1px;
        stroke: red;
    }

    svg.railroad text {
        font: 14px monospace;
        text-anchor: middle;
    }

    svg.railroad .nonterminal text {
        font-weight: bold;
    }

    svg.railroad text.comment {
        font: italic 12px monospace;
    }

    svg.railroad rect {
        stroke-width: 3px;
        stroke: black;
        fill:hsl(-290, 70%, 90%);
    }

    svg.railroad g.labeledbox &gt; rect {
        stroke-width: 1px;
        stroke: grey;
        stroke-dasharray: 5px;
        fill:rgba(90, 90, 150, .1);
    }</style>
<g class="sequence">
<g class="sequence">
<g>
<text class="comment" x="39" y="86">
message</text>
</g>
<g class="labeledbox">
<rect height="66" width="89" x="79" y="34"/>
<path d=" M 79 81 h 8 m 68 0 h 13"/>
<g>
<text class="comment" x="123" y="57">
No Space!</text>
</g>
<g class="nonterminal">
<rect height="22" width="68" x="87" y="70"/>
<text x="121" y="86">
action</text>
</g>
</g>
<g class="optional">
<path d=" M 178 81 h 24 m -24 0 a 12 12 0 0 0 12 -12 v -47 a 12 12 0 0 1 12 -12 h 411 m -202 0 l -5 -5 m 0 10 l 5 -5 m 202 0 a 12 12 0 0 1 12 12 v 47 a 12 12 0 0 0 12 12 h -24"/>
<g class="sequence">
<g class="labeledbox">
<rect height="66" width="68" x="202" y="34"/>
<path d=" M 202 81 h 8 m 52 0 h 8"/>
<g>
<text class="comment" x="232" y="57">
SPACE</text>
</g>
<g class="terminal">
<rect height="22" rx="10" ry="10" width="52" x="210" y="70"/>
<text x="236" y="86">
\x20</text>
</g>
</g>
<g class="labeledbox">
<rect height="66" width="108" x="280" y="34"/>
<path d=" M 280 81 h 8 m 92 0 h 8"/>
<g>
<text class="comment" x="324" y="57">
No Space!</text>
</g>
<g class="nonterminal">
<rect height="22" width="92" x="288" y="70"/>
<text x="334" y="86">
specifier</text>
</g>
</g>
<g class="optional">
<path d=" M 398 81 h 24 m -24 0 a 12 12 0 0 0 12 -12 v -35 a 12 12 0 0 1 12 -12 h 167 m -80 0 l -5 -5 m 0 10 l 5 -5 m 80 0 a 12 12 0 0 1 12 12 v 35 a 12 12 0 0 0 12 12 h -24"/>
<g class="sequence">
<g class="labeledbox">
<rect height="66" width="68" x="422" y="34"/>
<path d=" M 422 81 h 8 m 52 0 h 8"/>
<g>
<text class="comment" x="452" y="57">
SPACE</text>
</g>
<g class="terminal">
<rect height="22" rx="10" ry="10" width="52" x="430" y="70"/>
<text x="456" y="86">
\x20</text>
</g>
</g>
<g class="labeledbox">
<rect height="66" width="89" x="500" y="34"/>
<path d=" M 500 81 h 8 m 52 0 h 29"/>
<g>
<text class="comment" x="544" y="57">
JSON-text</text>
</g>
<g class="nonterminal">
<rect height="22" width="52" x="508" y="70"/>
<text x="534" y="86">
data</text>
</g>
</g>
<path d=" M 490 81 h 10"/>
</g>
</g>
<path d=" M 270 81 h 10"/>
<path d=" M 388 81 h 10"/>
</g>
</g>
<path d=" M 69 81 h 10"/>
<path d=" M 168 81 h 10"/>
</g>
<path d=" M 647 81 h 5 m -5 5 l 5 -5 l -5 -5 m 5 5"/>
<path d=" M 637 81 h 10"/>
</g>
</svg>