<svg class="railroad" viewBox="0 0 540 163" xmlns="http://www.w3.org/2000/svg">
<style type="text/css">

    svg.railroad {
        background-color: hsl(30, 20%, 95%);
        background-size: 15px 15px;
        background-image: linear-gradient(to right, rgba(30, 30, 30, .05) 1px, transparent 1px),
                          linear-gradient(to bottom, rgba(30, 30, 30, .05) 1px, transparent 1px);
    }

    svg.railroad path {
        stroke-width: 3px;
        stroke: black;
        fill: transparent;
    }

    svg.railroad .debug {
        stroke-width: 1px;
        stroke: red;
    }

    svg.railroad text {
        font: 14px monospace;
        text-anchor: middle;
    }

    svg.railroad .nonterminal text {
        font-weight: bold;
    }

    svg.railroad text.comment {
        font: italic 12px monospace;
    }

    svg.railroad rect {
        stroke-width: 3px;
        stroke: black;
        fill:hsl(-290, 70%, 90%);
    }

    svg.railroad g.labeledbox > rect {
        stroke-width: 1px;
        stroke: grey;
        stroke-dasharray: 5px;
        fill:rgba(90, 90, 150, .1);
    }</style>
<g class="sequence">
<path d=" M 10 57 a 5 5 0 0 1 5 -5 a 5 5 0 0 1 5 5 a 5 5 0 0 1 -5 5 a 5 5 0 0 1 -5 -5 m 10 0 h 5"/>
<g class="sequence">
<text class="comment" x="68" y="62">
messages</text>
<g class="repeat">
<path d=" M 111 57 h 12 m 370 0 h 12 m -12 0 a 12 12 0 0 1 12 12 v 72 m 0 -33 l -5 -5 m 10 0 l -5 5 m 0 33 a 12 12 0 0 1 -12 12 m 0 0 h -370 m 188 0 l 5 -5 m 0 10 l -5 -5 m -188 0 a 12 12 0 0 1 -12 -12 v -72 m 0 39 l -5 5 m 10 0 l -5 -5 m 0 -39 a 12 12 0 0 1 12 -12"/>
<g/>
<g class="sequence">
<g class="nonterminal">
<rect height="22" width="76" x="123" y="46"/>
<text x="161" y="62">
message</text>
</g>
<g class="labeledbox">
<rect height="122" width="222" x="209" y="21"/>
<path d=" M 209 57 h 8 m 100 0 h 114 m -54 0 l -5 -5 m 0 10 l 5 -5 m 54 0"/>
<text class="comment" x="320" y="44">
MUST accept,SHOULD NOT send</text>
<g class="choice">
<path d=" M 217 57 h 24 m 0 0 h 76 m -35 0 l -5 -5 m 0 10 l 5 -5 m 35 0"/>
<g/>
<path d=" M 217 57 a 12 12 0 0 1 12 12 v 0 m 76 0 v 0 a 12 12 0 0 1 12 -12"/>
<path d=" M 229 69 v 35 a 12 12 0 0 0 12 12 m 52 0 h 0 a 12 12 0 0 0 12 -12 v -35"/>
<g class="labeledbox">
<rect height="66" width="52" x="241" y="69"/>
<path d=" M 241 116 h 8 m 36 0 h 8"/>
<text class="comment" x="264" y="92">
x0D</text>
<g class="nonterminal">
<rect height="22" width="36" x="249" y="105"/>
<text x="267" y="121">
CR</text>
</g>
</g>
</g>
</g>
<g class="labeledbox">
<rect height="66" width="52" x="441" y="10"/>
<path d=" M 441 57 h 8 m 36 0 h 8"/>
<text class="comment" x="464" y="33">
x0A</text>
<g class="nonterminal">
<rect height="22" width="36" x="449" y="46"/>
<text x="467" y="62">
LF</text>
</g>
</g>
<path d=" M 199 57 h 10"/>
<path d=" M 431 57 h 10"/>
</g>
</g>
<path d=" M 101 57 h 10"/>
</g>
<path d=" M 515 57 h 5 a 5 5 0 0 1 5 -5 a 5 5 0 0 1 5 5 a 5 5 0 0 1 -5 5 a 5 5 0 0 1 -5 -5"/>
<path d=" M 25 57 h 10"/>
<path d=" M 505 57 h 10"/>
</g>
</svg>
