<svg class="railroad" viewBox="0 0 512 163" width="512" xmlns="http://www.w3.org/2000/svg">
<style type="text/css">

    svg.railroad {
        background-color: hsl(30, 20%, 95%);
        background-size: 15px 15px;
        background-image: linear-gradient(to right, rgba(30, 30, 30, .05) 1px, transparent 1px),
                          linear-gradient(to bottom, rgba(30, 30, 30, .05) 1px, transparent 1px);
    }

    svg.railroad path {
        stroke-width: 3px;
        stroke: black;
        fill: transparent;
    }

    svg.railroad .debug {
        stroke-width: 1px;
        stroke: red;
    }

    svg.railroad text {
        font: 14px monospace;
        text-anchor: middle;
    }

    svg.railroad .nonterminal text {
        font-weight: bold;
    }

    svg.railroad text.comment {
        font: italic 12px monospace;
    }

    svg.railroad rect {
        stroke-width: 3px;
        stroke: black;
        fill:hsl(-290, 70%, 90%);
    }

    svg.railroad g.labeledbox &gt; rect {
        stroke-width: 1px;
        stroke: grey;
        stroke-dasharray: 5px;
        fill:rgba(90, 90, 150, .1);
    }</style>
<g class="sequence">
<g class="sequence">
<g>
<text class="comment" x="43" y="62">
messages</text>
</g>
<g class="repeat">
<path d=" M 86 57 h 12 m 372 0 h 12 m -12 0 a 12 12 0 0 1 12 12 v 72 m 0 -33 l -5 -5 m 10 0 l -5 5 m 0 33 a 12 12 0 0 1 -12 12 m 0 0 h -372 m 189 0 l 5 -5 m 0 10 l -5 -5 m -189 0 a 12 12 0 0 1 -12 -12 v -72 m 0 39 l -5 5 m 10 0 l -5 -5 m 0 -39 a 12 12 0 0 1 12 -12"/>
<g/>
<g class="sequence">
<g class="nonterminal">
<rect height="22" width="76" x="98" y="46"/>
<text x="136" y="62">
message</text>
</g>
<g class="labeledbox">
<rect height="122" width="222" x="184" y="21"/>
<path d=" M 184 57 h 8 m 102 0 h 112 m -53 0 l -5 -5 m 0 10 l 5 -5 m 53 0"/>
<g>
<text class="comment" x="295" y="44">
MUST accept,SHOULD NOT send</text>
</g>
<g class="choice">
<path d=" M 192 57 h 24 m 0 0 h 78 m -36 0 l -5 -5 m 0 10 l 5 -5 m 36 0"/>
<g/>
<path d=" M 192 57 a 12 12 0 0 1 12 12 v 0 m 78 0 v 0 a 12 12 0 0 1 12 -12"/>
<path d=" M 204 69 v 35 a 12 12 0 0 0 12 12 m 54 0 h 0 a 12 12 0 0 0 12 -12 v -35"/>
<g class="labeledbox">
<rect height="66" width="54" x="216" y="69"/>
<path d=" M 216 116 h 8 m 36 0 h 10"/>
<g>
<text class="comment" x="243" y="92">
\x0D</text>
</g>
<g class="nonterminal">
<rect height="22" width="36" x="224" y="105"/>
<text x="242" y="121">
CR</text>
</g>
</g>
</g>
</g>
<g class="labeledbox">
<rect height="66" width="54" x="416" y="10"/>
<path d=" M 416 57 h 8 m 36 0 h 10"/>
<g>
<text class="comment" x="443" y="33">
\x0A</text>
</g>
<g class="nonterminal">
<rect height="22" width="36" x="424" y="46"/>
<text x="442" y="62">
LF</text>
</g>
</g>
<path d=" M 174 57 h 10"/>
<path d=" M 406 57 h 10"/>
</g>
</g>
<path d=" M 76 57 h 10"/>
</g>
<path d=" M 492 57 h 5 m -5 5 l 5 -5 l -5 -5 m 5 5"/>
<path d=" M 482 57 h 10"/>
</g>
</svg>