<svg class="railroad" viewBox="0 0 683 204" xmlns="http://www.w3.org/2000/svg">
<style type="text/css">

    svg.railroad {
        background-color: hsl(30, 20%, 95%);
        background-size: 15px 15px;
        background-image: linear-gradient(to right, rgba(30, 30, 30, .05) 1px, transparent 1px),
                          linear-gradient(to bottom, rgba(30, 30, 30, .05) 1px, transparent 1px);
    }

    svg.railroad path {
        stroke-width: 3px;
        stroke: black;
        fill: transparent;
    }

    svg.railroad .debug {
        stroke-width: 1px;
        stroke: red;
    }

    svg.railroad text {
        font: 14px monospace;
        text-anchor: middle;
    }

    svg.railroad .nonterminal text {
        font-weight: bold;
    }

    svg.railroad text.comment {
        font: italic 12px monospace;
    }

    svg.railroad rect {
        stroke-width: 3px;
        stroke: black;
        fill:hsl(-290, 70%, 90%);
    }

    svg.railroad g.labeledbox > rect {
        stroke-width: 1px;
        stroke: grey;
        stroke-dasharray: 5px;
        fill:rgba(90, 90, 150, .1);
    }</style>
<g class="sequence">
<path d=" M 10 57 a 5 5 0 0 1 5 -5 a 5 5 0 0 1 5 5 a 5 5 0 0 1 -5 5 a 5 5 0 0 1 -5 -5 m 10 0 h 5"/>
<g class="sequence">
<text class="comment" x="64" y="62">
message</text>
<g class="labeledbox">
<rect height="66" width="89" x="104" y="10"/>
<path d=" M 104 57 h 8 m 68 0 h 13"/>
<text class="comment" x="148" y="33">
No Space!</text>
<g class="nonterminal">
<rect height="22" width="68" x="112" y="46"/>
<text x="146" y="62">
action</text>
</g>
</g>
<g class="choice">
<path d=" M 203 57 h 24 m 0 0 h 421 m -207 0 l -5 -5 m 0 10 l 5 -5 m 207 0"/>
<g/>
<path d=" M 203 57 a 12 12 0 0 1 12 12 v 0 m 421 0 v 0 a 12 12 0 0 1 12 -12"/>
<path d=" M 215 69 v 35 a 12 12 0 0 0 12 12 m 397 0 h 0 a 12 12 0 0 0 12 -12 v -35"/>
<g class="sequence">
<g class="labeledbox">
<rect height="66" width="61" x="227" y="69"/>
<path d=" M 227 116 h 8 m 44 0 h 9"/>
<text class="comment" x="257" y="92">
SPACE</text>
<g class="terminal">
<rect height="22" rx="10" ry="10" width="44" x="235" y="105"/>
<text x="257" y="121">
x20</text>
</g>
</g>
<g class="labeledbox">
<rect height="66" width="108" x="298" y="69"/>
<path d=" M 298 116 h 8 m 92 0 h 8"/>
<text class="comment" x="342" y="92">
No Space!</text>
<g class="nonterminal">
<rect height="22" width="92" x="306" y="105"/>
<text x="352" y="121">
specifier</text>
</g>
</g>
<g class="choice">
<path d=" M 416 116 h 24 m 0 0 h 184 m -89 0 l -5 -5 m 0 10 l 5 -5 m 89 0"/>
<g/>
<path d=" M 416 116 a 12 12 0 0 1 12 12 v 0 m 184 0 v 0 a 12 12 0 0 1 12 -12"/>
<path d=" M 428 128 v 35 a 12 12 0 0 0 12 12 m 160 0 h 0 a 12 12 0 0 0 12 -12 v -35"/>
<g class="sequence">
<g class="labeledbox">
<rect height="66" width="61" x="440" y="128"/>
<path d=" M 440 175 h 8 m 44 0 h 9"/>
<text class="comment" x="470" y="151">
SPACE</text>
<g class="terminal">
<rect height="22" rx="10" ry="10" width="44" x="448" y="164"/>
<text x="470" y="180">
x20</text>
</g>
</g>
<g class="labeledbox">
<rect height="66" width="89" x="511" y="128"/>
<path d=" M 511 175 h 8 m 52 0 h 29"/>
<text class="comment" x="555" y="151">
JSON-text</text>
<g class="nonterminal">
<rect height="22" width="52" x="519" y="164"/>
<text x="545" y="180">
data</text>
</g>
</g>
<path d=" M 501 175 h 10"/>
</g>
</g>
<path d=" M 288 116 h 10"/>
<path d=" M 406 116 h 10"/>
</g>
</g>
<path d=" M 94 57 h 10"/>
<path d=" M 193 57 h 10"/>
</g>
<path d=" M 658 57 h 5 a 5 5 0 0 1 5 -5 a 5 5 0 0 1 5 5 a 5 5 0 0 1 -5 5 a 5 5 0 0 1 -5 -5"/>
<path d=" M 25 57 h 10"/>
<path d=" M 648 57 h 10"/>
</g>
</svg>
