<svg class="railroad" viewBox="0 0 393 206" width="314pt" xmlns="http://www.w3.org/2000/svg">
<style type="text/css">

    svg.railroad {
        background-color: hsl(30, 20%, 95%);
        background-size: 15px 15px;
        background-image: linear-gradient(to right, rgba(30, 30, 30, .05) 1px, transparent 1px),
                          linear-gradient(to bottom, rgba(30, 30, 30, .05) 1px, transparent 1px);
    }

    svg.railroad path {
        stroke-width: 3px;
        stroke: black;
        fill: transparent;
    }

    svg.railroad .debug {
        stroke-width: 1px;
        stroke: red;
    }

    svg.railroad text {
        font: 14px monospace;
        text-anchor: middle;
    }

    svg.railroad .nonterminal text {
        font-weight: bold;
    }

    svg.railroad text.comment {
        font: italic 12px monospace;
    }

    svg.railroad rect {
        stroke-width: 3px;
        stroke: black;
        fill:hsl(-290, 70%, 90%);
    }

    svg.railroad g.labeledbox > rect {
        stroke-width: 1px;
        stroke: grey;
        stroke-dasharray: 5px;
        fill:rgba(90, 90, 150, .1);
    }</style>
<g class="verticalgrid">
<g class="horizontalgrid">
<g class="nonterminal">
<rect height="22" width="84" x="10" y="10"/>
<text x="52" y="26">
messages</text>
</g>
</g>
<g class="sequence">
<path d=" M 10 95 l 5 5 l -5 5 m 5 -5 h 5"/>
<g class="sequence">
<g class="repeat">
<path d=" M 30 100 h 12 m 309 0 h 12 m -12 0 a 12 12 0 0 1 12 12 v 72 m 0 -33 l -5 -5 m 10 0 l -5 5 m 0 33 a 12 12 0 0 1 -12 12 m 0 0 h -309 m 157 0 l 5 -5 m 0 10 l -5 -5 m -157 0 a 12 12 0 0 1 -12 -12 v -72 m 0 39 l -5 5 m 10 0 l -5 -5 m 0 -39 a 12 12 0 0 1 12 -12"/>
<g/>
<g class="sequence">
<g class="nonterminal">
<rect height="22" width="76" x="42" y="89"/>
<text x="80" y="105">
message</text>
</g>
<g class="labeledbox">
<rect height="142" width="159" x="128" y="44"/>
<path d=" M 128 100 h 8 m 102 0 h 49"/>
<g>
<text class="comment" x="207" y="67">
ignore on reception</text>
<text class="comment" x="207" y="87">
do not send!</text>
</g>
<g class="choice">
<path d=" M 136 100 h 24 m 0 0 h 78 m -36 0 l -5 -5 m 0 10 l 5 -5 m 36 0"/>
<g/>
<path d=" M 136 100 a 12 12 0 0 1 12 12 v 0 m 78 0 v 0 a 12 12 0 0 1 12 -12"/>
<path d=" M 148 112 v 35 a 12 12 0 0 0 12 12 m 54 0 h 0 a 12 12 0 0 0 12 -12 v -35"/>
<g class="labeledbox">
<rect height="66" width="54" x="160" y="112"/>
<path d=" M 160 159 h 8 m 36 0 h 10"/>
<g>
<text class="comment" x="187" y="135">
\x0D</text>
</g>
<g class="nonterminal">
<rect height="22" width="36" x="168" y="148"/>
<text x="186" y="164">
CR</text>
</g>
</g>
</g>
</g>
<g class="labeledbox">
<rect height="66" width="54" x="297" y="53"/>
<path d=" M 297 100 h 8 m 36 0 h 10"/>
<g>
<text class="comment" x="324" y="76">
\x0A</text>
</g>
<g class="nonterminal">
<rect height="22" width="36" x="305" y="89"/>
<text x="323" y="105">
LF</text>
</g>
</g>
<path d=" M 118 100 h 10"/>
<path d=" M 287 100 h 10"/>
</g>
</g>
</g>
<path d=" M 373 100 h 5 m -5 5 l 5 -5 l -5 -5 m 5 5"/>
<path d=" M 20 100 h 10"/>
<path d=" M 363 100 h 10"/>
</g>
</g>
</svg>
