<svg class="railroad" viewBox="0 0 1125 814" xmlns="http://www.w3.org/2000/svg">
<style type="text/css">

    svg.railroad {
        background-color: hsl(30, 20%, 95%);
        background-size: 15px 15px;
        background-image: linear-gradient(to right, rgba(30, 30, 30, .05) 1px, transparent 1px),
                          linear-gradient(to bottom, rgba(30, 30, 30, .05) 1px, transparent 1px);
    }

    svg.railroad path {
        stroke-width: 3px;
        stroke: black;
        fill: transparent;
    }

    svg.railroad .debug {
        stroke-width: 1px;
        stroke: red;
    }

    svg.railroad text {
        font: 14px monospace;
        text-anchor: middle;
    }

    svg.railroad .nonterminal text {
        font-weight: bold;
    }

    svg.railroad text.comment {
        font: italic 12px monospace;
    }

    svg.railroad rect {
        stroke-width: 3px;
        stroke: black;
        fill:hsl(-290, 70%, 90%);
    }

    svg.railroad g.labeledbox > rect {
        stroke-width: 1px;
        stroke: grey;
        stroke-dasharray: 5px;
        fill:rgba(90, 90, 150, .1);
    }</style>
<g class="sequence">
<path d=" M 10 21 a 5 5 0 0 1 5 -5 a 5 5 0 0 1 5 5 a 5 5 0 0 1 -5 5 a 5 5 0 0 1 -5 -5 m 10 0 h 5"/>
<g class="sequence">
<text class="comment" x="92" y="26">
module-property</text>
<g class="choice">
<path d=" M 160 21 h 24 m 624 0 h 282 m -138 0 l -5 -5 m 0 10 l 5 -5 m 138 0"/>
<g class="sequence">
<g class="terminal">
<rect height="22" rx="10" ry="10" width="124" x="184" y="10"/>
<text x="246" y="26">
&quot;accessibles&quot;</text>
</g>
<g class="terminal">
<rect height="22" rx="10" ry="10" width="28" x="318" y="10"/>
<text x="332" y="26">
:</text>
</g>
<g class="terminal">
<rect height="22" rx="10" ry="10" width="28" x="356" y="10"/>
<text x="370" y="26">
[</text>
</g>
<g class="choice">
<path d=" M 394 21 h 24 m 0 0 h 352 m -173 0 l -5 -5 m 0 10 l 5 -5 m 173 0"/>
<g/>
<path d=" M 394 21 a 12 12 0 0 1 12 12 v 0 m 352 0 v 0 a 12 12 0 0 1 12 -12"/>
<path d=" M 406 33 v 0 a 12 12 0 0 0 12 12 m 328 0 h 0 a 12 12 0 0 0 12 -12 v 0"/>
<g class="repeat">
<path d=" M 418 45 h 12 m 304 0 h 12 m -12 0 a 12 12 0 0 1 12 12 v 8 a 12 12 0 0 1 -12 12 m -28 0 h -276 m 141 0 l 5 -5 m 0 10 l -5 -5 m -141 0 a 12 12 0 0 1 -12 -12 v -8 a 12 12 0 0 1 12 -12"/>
<g class="terminal">
<rect height="22" rx="10" ry="10" width="28" x="706" y="66"/>
<text x="720" y="82">
,</text>
</g>
<g class="sequence">
<g class="nonterminal">
<rect height="22" width="52" x="430" y="34"/>
<text x="456" y="50">
name</text>
</g>
<g class="terminal">
<rect height="22" rx="10" ry="10" width="28" x="492" y="34"/>
<text x="506" y="50">
,</text>
</g>
<g class="nonterminal">
<rect height="22" width="204" x="530" y="34"/>
<text x="632" y="50">
accessible-description</text>
</g>
<path d=" M 482 45 h 10"/>
<path d=" M 520 45 h 10"/>
</g>
</g>
</g>
<g class="terminal">
<rect height="22" rx="10" ry="10" width="28" x="780" y="10"/>
<text x="794" y="26">
]</text>
</g>
<path d=" M 308 21 h 10"/>
<path d=" M 346 21 h 10"/>
<path d=" M 384 21 h 10"/>
<path d=" M 770 21 h 10"/>
</g>
<path d=" M 160 21 a 12 12 0 0 1 12 12 v 65 m 0 -29 l -5 -5 m 10 0 l -5 5 m 0 29 m 906 0 v -65 m 0 35 l -5 5 m 10 0 l -5 -5 m 0 -35 a 12 12 0 0 1 12 -12"/>
<path d=" M 172 98 v 33 m 906 0 v -33"/>
<path d=" M 172 131 v 99 m 0 -46 l -5 -5 m 10 0 l -5 5 m 0 46 m 906 0 v -99 m 0 52 l -5 5 m 10 0 l -5 -5 m 0 -52"/>
<path d=" M 172 230 v 89 m 0 -41 l -5 -5 m 10 0 l -5 5 m 0 41 m 906 0 v -89 m 0 47 l -5 5 m 10 0 l -5 -5 m 0 -47"/>
<path d=" M 172 319 v 89 m 0 -41 l -5 -5 m 10 0 l -5 5 m 0 41 m 906 0 v -89 m 0 47 l -5 5 m 10 0 l -5 -5 m 0 -47"/>
<path d=" M 172 408 v 33 m 906 0 v -33"/>
<path d=" M 172 476 v 305 m 0 -149 l -5 -5 m 10 0 l -5 5 m 0 149 m 906 0 v -305 m 0 155 l -5 5 m 10 0 l -5 -5 m 0 -155"/>
<path d=" M 172 98 v 0 a 12 12 0 0 0 12 12 m 320 0 h 562 m -278 0 l -5 -5 m 0 10 l 5 -5 m 278 0 a 12 12 0 0 0 12 -12 v 0"/>
<g class="sequence">
<g class="terminal">
<rect height="22" rx="10" ry="10" width="124" x="184" y="99"/>
<text x="246" y="115">
&quot;description&quot;</text>
</g>
<g class="terminal">
<rect height="22" rx="10" ry="10" width="28" x="318" y="99"/>
<text x="332" y="115">
:</text>
</g>
<g class="nonterminal">
<rect height="22" width="148" x="356" y="99"/>
<text x="430" y="115">
descriptive text</text>
</g>
<path d=" M 308 110 h 10"/>
<path d=" M 346 110 h 10"/>
</g>
<path d=" M 172 131 v 0 a 12 12 0 0 0 12 12 m 312 0 h 570 m -282 0 l -5 -5 m 0 10 l 5 -5 m 282 0 a 12 12 0 0 0 12 -12 v 0"/>
<g class="sequence">
<g class="terminal">
<rect height="22" rx="10" ry="10" width="116" x="184" y="132"/>
<text x="242" y="148">
&quot;visibility&quot;</text>
</g>
<g class="terminal">
<rect height="22" rx="10" ry="10" width="28" x="310" y="132"/>
<text x="324" y="148">
:</text>
</g>
<g class="choice">
<path d=" M 348 143 h 24 m 84 0 h 40"/>
<g class="terminal">
<rect height="22" rx="10" ry="10" width="84" x="372" y="132"/>
<text x="414" y="148">
&quot;expert&quot;</text>
</g>
<path d=" M 348 143 a 12 12 0 0 1 12 12 v 9 m 124 0 v -9 a 12 12 0 0 1 12 -12"/>
<path d=" M 360 164 v 33 m 124 0 v -33"/>
<path d=" M 360 164 v 0 a 12 12 0 0 0 12 12 m 100 0 h 0 a 12 12 0 0 0 12 -12 v 0"/>
<g class="terminal">
<rect height="22" rx="10" ry="10" width="100" x="372" y="165"/>
<text x="422" y="181">
&quot;advanced&quot;</text>
</g>
<path d=" M 360 197 v 0 a 12 12 0 0 0 12 12 m 68 0 h 32 a 12 12 0 0 0 12 -12 v 0"/>
<g class="terminal">
<rect height="22" rx="10" ry="10" width="68" x="372" y="198"/>
<text x="406" y="214">
&quot;user&quot;</text>
</g>
</g>
<path d=" M 300 143 h 10"/>
<path d=" M 338 143 h 10"/>
</g>
<path d=" M 172 230 v 0 a 12 12 0 0 0 12 12 m 444 0 h 438 m -216 0 l -5 -5 m 0 10 l 5 -5 m 216 0 a 12 12 0 0 0 12 -12 v 0"/>
<g class="sequence">
<g class="terminal">
<rect height="22" rx="10" ry="10" width="156" x="184" y="231"/>
<text x="262" y="247">
&quot;interface_class&quot;</text>
</g>
<g class="terminal">
<rect height="22" rx="10" ry="10" width="28" x="350" y="231"/>
<text x="364" y="247">
:</text>
</g>
<g class="terminal">
<rect height="22" rx="10" ry="10" width="28" x="388" y="231"/>
<text x="402" y="247">
[</text>
</g>
<g class="choice">
<path d=" M 426 242 h 24 m 0 0 h 140 m -67 0 l -5 -5 m 0 10 l 5 -5 m 67 0"/>
<g/>
<path d=" M 426 242 a 12 12 0 0 1 12 12 v 0 m 140 0 v 0 a 12 12 0 0 1 12 -12"/>
<path d=" M 438 254 v 0 a 12 12 0 0 0 12 12 m 116 0 h 0 a 12 12 0 0 0 12 -12 v 0"/>
<g class="repeat">
<path d=" M 450 266 h 12 m 92 0 h 12 m -12 0 a 12 12 0 0 1 12 12 v 8 a 12 12 0 0 1 -12 12 m -28 0 h -64 m 35 0 l 5 -5 m 0 10 l -5 -5 m -35 0 a 12 12 0 0 1 -12 -12 v -8 a 12 12 0 0 1 12 -12"/>
<g class="terminal">
<rect height="22" rx="10" ry="10" width="28" x="526" y="287"/>
<text x="540" y="303">
,</text>
</g>
<g class="nonterminal">
<rect height="22" width="92" x="462" y="255"/>
<text x="508" y="271">
interface</text>
</g>
</g>
</g>
<g class="terminal">
<rect height="22" rx="10" ry="10" width="28" x="600" y="231"/>
<text x="614" y="247">
]</text>
</g>
<path d=" M 340 242 h 10"/>
<path d=" M 378 242 h 10"/>
<path d=" M 416 242 h 10"/>
<path d=" M 590 242 h 10"/>
</g>
<path d=" M 172 319 v 0 a 12 12 0 0 0 12 12 m 372 0 h 510 m -252 0 l -5 -5 m 0 10 l 5 -5 m 252 0 a 12 12 0 0 0 12 -12 v 0"/>
<g class="sequence">
<g class="terminal">
<rect height="22" rx="10" ry="10" width="100" x="184" y="320"/>
<text x="234" y="336">
&quot;features&quot;</text>
</g>
<g class="terminal">
<rect height="22" rx="10" ry="10" width="28" x="294" y="320"/>
<text x="308" y="336">
:</text>
</g>
<g class="terminal">
<rect height="22" rx="10" ry="10" width="28" x="332" y="320"/>
<text x="346" y="336">
[</text>
</g>
<g class="choice">
<path d=" M 370 331 h 24 m 0 0 h 124 m -59 0 l -5 -5 m 0 10 l 5 -5 m 59 0"/>
<g/>
<path d=" M 370 331 a 12 12 0 0 1 12 12 v 0 m 124 0 v 0 a 12 12 0 0 1 12 -12"/>
<path d=" M 382 343 v 0 a 12 12 0 0 0 12 12 m 100 0 h 0 a 12 12 0 0 0 12 -12 v 0"/>
<g class="repeat">
<path d=" M 394 355 h 12 m 76 0 h 12 m -12 0 a 12 12 0 0 1 12 12 v 8 a 12 12 0 0 1 -12 12 m -28 0 h -48 a 12 12 0 0 1 -12 -12 v -8 a 12 12 0 0 1 12 -12"/>
<g class="terminal">
<rect height="22" rx="10" ry="10" width="28" x="454" y="376"/>
<text x="468" y="392">
,</text>
</g>
<g class="nonterminal">
<rect height="22" width="76" x="406" y="344"/>
<text x="444" y="360">
feature</text>
</g>
</g>
</g>
<g class="terminal">
<rect height="22" rx="10" ry="10" width="28" x="528" y="320"/>
<text x="542" y="336">
]</text>
</g>
<path d=" M 284 331 h 10"/>
<path d=" M 322 331 h 10"/>
<path d=" M 360 331 h 10"/>
<path d=" M 518 331 h 10"/>
</g>
<path d=" M 172 408 v 0 a 12 12 0 0 0 12 12 m 216 0 h 666 m -330 0 l -5 -5 m 0 10 l 5 -5 m 330 0 a 12 12 0 0 0 12 -12 v 0"/>
<g class="sequence">
<g class="terminal">
<rect height="22" rx="10" ry="10" width="76" x="184" y="409"/>
<text x="222" y="425">
&quot;group&quot;</text>
</g>
<g class="terminal">
<rect height="22" rx="10" ry="10" width="28" x="270" y="409"/>
<text x="284" y="425">
:</text>
</g>
<g class="nonterminal">
<rect height="22" width="92" x="308" y="409"/>
<text x="354" y="425">
groupname</text>
</g>
<path d=" M 260 420 h 10"/>
<path d=" M 298 420 h 10"/>
</g>
<path d=" M 172 441 v 35 a 12 12 0 0 0 12 12 m 882 0 h 0 a 12 12 0 0 0 12 -12 v -35"/>
<g class="sequence">
<g class="terminal">
<rect height="22" rx="10" ry="10" width="92" x="184" y="477"/>
<text x="230" y="493">
&quot;meaning&quot;</text>
</g>
<g class="terminal">
<rect height="22" rx="10" ry="10" width="28" x="286" y="477"/>
<text x="300" y="493">
:</text>
</g>
<g class="terminal">
<rect height="22" rx="10" ry="10" width="28" x="324" y="477"/>
<text x="338" y="493">
[</text>
</g>
<g class="terminal">
<rect height="22" rx="10" ry="10" width="28" x="362" y="477"/>
<text x="376" y="493">
&quot;</text>
</g>
<g class="labeledbox">
<rect height="330" width="188" x="400" y="441"/>
<path d=" M 400 488 h 8 m 172 0 h 8"/>
<text class="comment" x="448" y="464">
extensible</text>
<g class="choice">
<path d=" M 408 488 h 24 m 108 0 h 40"/>
<g class="terminal">
<rect height="22" rx="10" ry="10" width="108" x="432" y="477"/>
<text x="486" y="493">
temperature</text>
</g>
<path d=" M 408 488 a 12 12 0 0 1 12 12 v 9 m 148 0 v -9 a 12 12 0 0 1 12 -12"/>
<path d=" M 420 509 v 33 m 148 0 v -33"/>
<path d=" M 420 542 v 33 m 148 0 v -33"/>
<path d=" M 420 575 v 33 m 148 0 v -33"/>
<path d=" M 420 608 v 33 m 148 0 v -33"/>
<path d=" M 420 641 v 33 m 148 0 v -33"/>
<path d=" M 420 674 v 33 m 148 0 v -33"/>
<path d=" M 420 707 v 33 m 148 0 v -33"/>
<path d=" M 420 509 v 0 a 12 12 0 0 0 12 12 m 124 0 h 0 a 12 12 0 0 0 12 -12 v 0"/>
<g class="terminal">
<rect height="22" rx="10" ry="10" width="124" x="432" y="510"/>
<text x="494" y="526">
magneticfield</text>
</g>
<path d=" M 420 542 v 0 a 12 12 0 0 0 12 12 m 124 0 h 0 a 12 12 0 0 0 12 -12 v 0"/>
<g class="terminal">
<rect height="22" rx="10" ry="10" width="124" x="432" y="543"/>
<text x="494" y="559">
electricfield</text>
</g>
<path d=" M 420 575 v 0 a 12 12 0 0 0 12 12 m 84 0 h 40 a 12 12 0 0 0 12 -12 v 0"/>
<g class="terminal">
<rect height="22" rx="10" ry="10" width="84" x="432" y="576"/>
<text x="474" y="592">
pressure</text>
</g>
<path d=" M 420 608 v 0 a 12 12 0 0 0 12 12 m 100 0 h 24 a 12 12 0 0 0 12 -12 v 0"/>
<g class="terminal">
<rect height="22" rx="10" ry="10" width="100" x="432" y="609"/>
<text x="482" y="625">
rotation_z</text>
</g>
<path d=" M 420 641 v 0 a 12 12 0 0 0 12 12 m 84 0 h 40 a 12 12 0 0 0 12 -12 v 0"/>
<g class="terminal">
<rect height="22" rx="10" ry="10" width="84" x="432" y="642"/>
<text x="474" y="658">
humidity</text>
</g>
<path d=" M 420 674 v 0 a 12 12 0 0 0 12 12 m 92 0 h 32 a 12 12 0 0 0 12 -12 v 0"/>
<g class="terminal">
<rect height="22" rx="10" ry="10" width="92" x="432" y="675"/>
<text x="478" y="691">
viscosity</text>
</g>
<path d=" M 420 707 v 0 a 12 12 0 0 0 12 12 m 84 0 h 40 a 12 12 0 0 0 12 -12 v 0"/>
<g class="terminal">
<rect height="22" rx="10" ry="10" width="84" x="432" y="708"/>
<text x="474" y="724">
flowrate</text>
</g>
<path d=" M 420 740 v 0 a 12 12 0 0 0 12 12 m 124 0 h 0 a 12 12 0 0 0 12 -12 v 0"/>
<g class="terminal">
<rect height="22" rx="10" ry="10" width="124" x="432" y="741"/>
<text x="494" y="757">
concentration</text>
</g>
</g>
</g>
<g class="optional">
<path d=" M 598 488 h 24 m -24 0 a 12 12 0 0 0 12 -12 v 0 a 12 12 0 0 1 12 -12 h 108 m -51 0 l -5 -5 m 0 10 l 5 -5 m 51 0 a 12 12 0 0 1 12 12 v 0 a 12 12 0 0 0 12 12 h -24"/>
<g class="terminal">
<rect height="22" rx="10" ry="10" width="108" x="622" y="477"/>
<text x="676" y="493">
_regulation</text>
</g>
</g>
<g class="terminal">
<rect height="22" rx="10" ry="10" width="28" x="764" y="477"/>
<text x="778" y="493">
&quot;</text>
</g>
<g class="terminal">
<rect height="22" rx="10" ry="10" width="28" x="802" y="477"/>
<text x="816" y="493">
,</text>
</g>
<g class="nonterminal">
<rect height="22" width="188" x="840" y="477"/>
<text x="934" y="493">
integer number 5..45</text>
</g>
<g class="terminal">
<rect height="22" rx="10" ry="10" width="28" x="1038" y="477"/>
<text x="1052" y="493">
]</text>
</g>
<path d=" M 276 488 h 10"/>
<path d=" M 314 488 h 10"/>
<path d=" M 352 488 h 10"/>
<path d=" M 390 488 h 10"/>
<path d=" M 588 488 h 10"/>
<path d=" M 754 488 h 10"/>
<path d=" M 792 488 h 10"/>
<path d=" M 830 488 h 10"/>
<path d=" M 1028 488 h 10"/>
</g>
<path d=" M 172 781 v 0 a 12 12 0 0 0 12 12 m 140 0 h 742 m -368 0 l -5 -5 m 0 10 l 5 -5 m 368 0 a 12 12 0 0 0 12 -12 v 0"/>
<g class="sequence">
<g class="nonterminal">
<rect height="22" width="140" x="184" y="782"/>
<text x="254" y="798">
custom-property</text>
</g>
</g>
</g>
<path d=" M 150 21 h 10"/>
</g>
<path d=" M 1100 21 h 5 a 5 5 0 0 1 5 -5 a 5 5 0 0 1 5 5 a 5 5 0 0 1 -5 5 a 5 5 0 0 1 -5 -5"/>
<path d=" M 25 21 h 10"/>
<path d=" M 1090 21 h 10"/>
</g>
</svg>
