<svg class="railroad" viewBox="0 0 1033 702" xmlns="http://www.w3.org/2000/svg">
<style type="text/css">

    svg.railroad {
        background-color: hsl(30, 20%, 95%);
        background-size: 15px 15px;
        background-image: linear-gradient(to right, rgba(30, 30, 30, .05) 1px, transparent 1px),
                          linear-gradient(to bottom, rgba(30, 30, 30, .05) 1px, transparent 1px);
    }

    svg.railroad path {
        stroke-width: 3px;
        stroke: black;
        fill: transparent;
    }

    svg.railroad .debug {
        stroke-width: 1px;
        stroke: red;
    }

    svg.railroad text {
        font: 14px monospace;
        text-anchor: middle;
    }

    svg.railroad .nonterminal text {
        font-weight: bold;
    }

    svg.railroad text.comment {
        font: italic 12px monospace;
    }

    svg.railroad rect {
        stroke-width: 3px;
        stroke: black;
        fill:hsl(-290, 70%, 90%);
    }

    svg.railroad g.labeledbox > rect {
        stroke-width: 1px;
        stroke: grey;
        stroke-dasharray: 5px;
        fill:rgba(90, 90, 150, .1);
    }</style>
<g class="sequence">
<path d=" M 10 21 a 5 5 0 0 1 5 -5 a 5 5 0 0 1 5 5 a 5 5 0 0 1 -5 5 a 5 5 0 0 1 -5 -5 m 10 0 h 5"/>
<g class="sequence">
<text class="comment" x="92" y="26">
module-property</text>
<g class="choice">
<path d=" M 160 21 h 24 m 608 0 h 206 m -100 0 l -5 -5 m 0 10 l 5 -5 m 100 0"/>
<g class="sequence">
<g class="terminal">
<rect height="22" rx="10" ry="10" width="108" x="184" y="10"/>
<text x="238" y="26">
accessibles</text>
</g>
<g class="terminal">
<rect height="22" rx="10" ry="10" width="28" x="302" y="10"/>
<text x="316" y="26">
:</text>
</g>
<g class="terminal">
<rect height="22" rx="10" ry="10" width="28" x="340" y="10"/>
<text x="354" y="26">
[</text>
</g>
<g class="choice">
<path d=" M 378 21 h 24 m 0 0 h 352 m -173 0 l -5 -5 m 0 10 l 5 -5 m 173 0"/>
<g/>
<path d=" M 378 21 a 12 12 0 0 1 12 12 v 0 m 352 0 v 0 a 12 12 0 0 1 12 -12"/>
<path d=" M 390 33 v 0 a 12 12 0 0 0 12 12 m 328 0 h 0 a 12 12 0 0 0 12 -12 v 0"/>
<g class="repeat">
<path d=" M 402 45 h 12 m 304 0 h 12 m -12 0 a 12 12 0 0 1 12 12 v 8 a 12 12 0 0 1 -12 12 m -28 0 h -276 m 141 0 l 5 -5 m 0 10 l -5 -5 m -141 0 a 12 12 0 0 1 -12 -12 v -8 a 12 12 0 0 1 12 -12"/>
<g class="terminal">
<rect height="22" rx="10" ry="10" width="28" x="690" y="66"/>
<text x="704" y="82">
,</text>
</g>
<g class="sequence">
<g class="nonterminal">
<rect height="22" width="52" x="414" y="34"/>
<text x="440" y="50">
name</text>
</g>
<g class="terminal">
<rect height="22" rx="10" ry="10" width="28" x="476" y="34"/>
<text x="490" y="50">
,</text>
</g>
<g class="nonterminal">
<rect height="22" width="204" x="514" y="34"/>
<text x="616" y="50">
accessible-description</text>
</g>
<path d=" M 466 45 h 10"/>
<path d=" M 504 45 h 10"/>
</g>
</g>
</g>
<g class="terminal">
<rect height="22" rx="10" ry="10" width="28" x="764" y="10"/>
<text x="778" y="26">
]</text>
</g>
<path d=" M 292 21 h 10"/>
<path d=" M 330 21 h 10"/>
<path d=" M 368 21 h 10"/>
<path d=" M 754 21 h 10"/>
</g>
<path d=" M 160 21 a 12 12 0 0 1 12 12 v 65 m 0 -29 l -5 -5 m 10 0 l -5 5 m 0 29 m 814 0 v -65 m 0 35 l -5 5 m 10 0 l -5 -5 m 0 -35 a 12 12 0 0 1 12 -12"/>
<path d=" M 172 98 v 33 m 814 0 v -33"/>
<path d=" M 172 131 v 99 m 0 -46 l -5 -5 m 10 0 l -5 5 m 0 46 m 814 0 v -99 m 0 52 l -5 5 m 10 0 l -5 -5 m 0 -52"/>
<path d=" M 172 230 v 33 m 814 0 v -33"/>
<path d=" M 172 263 v 33 m 814 0 v -33"/>
<path d=" M 172 296 v 33 m 814 0 v -33"/>
<path d=" M 172 364 v 305 m 0 -149 l -5 -5 m 10 0 l -5 5 m 0 149 m 814 0 v -305 m 0 155 l -5 5 m 10 0 l -5 -5 m 0 -155"/>
<path d=" M 172 98 v 0 a 12 12 0 0 0 12 12 m 304 0 h 486 m -240 0 l -5 -5 m 0 10 l 5 -5 m 240 0 a 12 12 0 0 0 12 -12 v 0"/>
<g class="sequence">
<g class="terminal">
<rect height="22" rx="10" ry="10" width="108" x="184" y="99"/>
<text x="238" y="115">
description</text>
</g>
<g class="terminal">
<rect height="22" rx="10" ry="10" width="28" x="302" y="99"/>
<text x="316" y="115">
:</text>
</g>
<g class="nonterminal">
<rect height="22" width="148" x="340" y="99"/>
<text x="414" y="115">
descriptive text</text>
</g>
<path d=" M 292 110 h 10"/>
<path d=" M 330 110 h 10"/>
</g>
<path d=" M 172 131 v 0 a 12 12 0 0 0 12 12 m 280 0 h 510 m -252 0 l -5 -5 m 0 10 l 5 -5 m 252 0 a 12 12 0 0 0 12 -12 v 0"/>
<g class="sequence">
<g class="terminal">
<rect height="22" rx="10" ry="10" width="100" x="184" y="132"/>
<text x="234" y="148">
visibility</text>
</g>
<g class="terminal">
<rect height="22" rx="10" ry="10" width="28" x="294" y="132"/>
<text x="308" y="148">
:</text>
</g>
<g class="choice">
<path d=" M 332 143 h 24 m 68 0 h 40"/>
<g class="terminal">
<rect height="22" rx="10" ry="10" width="68" x="356" y="132"/>
<text x="390" y="148">
expert</text>
</g>
<path d=" M 332 143 a 12 12 0 0 1 12 12 v 9 m 108 0 v -9 a 12 12 0 0 1 12 -12"/>
<path d=" M 344 164 v 33 m 108 0 v -33"/>
<path d=" M 344 164 v 0 a 12 12 0 0 0 12 12 m 84 0 h 0 a 12 12 0 0 0 12 -12 v 0"/>
<g class="terminal">
<rect height="22" rx="10" ry="10" width="84" x="356" y="165"/>
<text x="398" y="181">
advanced</text>
</g>
<path d=" M 344 197 v 0 a 12 12 0 0 0 12 12 m 52 0 h 32 a 12 12 0 0 0 12 -12 v 0"/>
<g class="terminal">
<rect height="22" rx="10" ry="10" width="52" x="356" y="198"/>
<text x="382" y="214">
user</text>
</g>
</g>
<path d=" M 284 143 h 10"/>
<path d=" M 322 143 h 10"/>
</g>
<path d=" M 172 230 v 0 a 12 12 0 0 0 12 12 m 352 0 h 438 m -216 0 l -5 -5 m 0 10 l 5 -5 m 216 0 a 12 12 0 0 0 12 -12 v 0"/>
<g class="sequence">
<g class="terminal">
<rect height="22" rx="10" ry="10" width="140" x="184" y="231"/>
<text x="254" y="247">
interface_class</text>
</g>
<g class="terminal">
<rect height="22" rx="10" ry="10" width="28" x="334" y="231"/>
<text x="348" y="247">
:</text>
</g>
<g class="nonterminal">
<rect height="22" width="164" x="372" y="231"/>
<text x="454" y="247">
list of interfaces</text>
</g>
<path d=" M 324 242 h 10"/>
<path d=" M 362 242 h 10"/>
</g>
<path d=" M 172 263 v 0 a 12 12 0 0 0 12 12 m 280 0 h 510 m -252 0 l -5 -5 m 0 10 l 5 -5 m 252 0 a 12 12 0 0 0 12 -12 v 0"/>
<g class="sequence">
<g class="terminal">
<rect height="22" rx="10" ry="10" width="84" x="184" y="264"/>
<text x="226" y="280">
features</text>
</g>
<g class="terminal">
<rect height="22" rx="10" ry="10" width="28" x="278" y="264"/>
<text x="292" y="280">
:</text>
</g>
<g class="nonterminal">
<rect height="22" width="148" x="316" y="264"/>
<text x="390" y="280">
list of features</text>
</g>
<path d=" M 268 275 h 10"/>
<path d=" M 306 275 h 10"/>
</g>
<path d=" M 172 296 v 0 a 12 12 0 0 0 12 12 m 200 0 h 590 m -292 0 l -5 -5 m 0 10 l 5 -5 m 292 0 a 12 12 0 0 0 12 -12 v 0"/>
<g class="sequence">
<g class="terminal">
<rect height="22" rx="10" ry="10" width="60" x="184" y="297"/>
<text x="214" y="313">
group</text>
</g>
<g class="terminal">
<rect height="22" rx="10" ry="10" width="28" x="254" y="297"/>
<text x="268" y="313">
:</text>
</g>
<g class="nonterminal">
<rect height="22" width="92" x="292" y="297"/>
<text x="338" y="313">
groupname</text>
</g>
<path d=" M 244 308 h 10"/>
<path d=" M 282 308 h 10"/>
</g>
<path d=" M 172 329 v 35 a 12 12 0 0 0 12 12 m 790 0 h 0 a 12 12 0 0 0 12 -12 v -35"/>
<g class="sequence">
<g class="terminal">
<rect height="22" rx="10" ry="10" width="76" x="184" y="365"/>
<text x="222" y="381">
meaning</text>
</g>
<g class="terminal">
<rect height="22" rx="10" ry="10" width="28" x="270" y="365"/>
<text x="284" y="381">
:</text>
</g>
<g class="terminal">
<rect height="22" rx="10" ry="10" width="28" x="308" y="365"/>
<text x="322" y="381">
[</text>
</g>
<g class="labeledbox">
<rect height="330" width="188" x="346" y="329"/>
<path d=" M 346 376 h 8 m 172 0 h 8"/>
<text class="comment" x="394" y="352">
extensible</text>
<g class="choice">
<path d=" M 354 376 h 24 m 108 0 h 40"/>
<g class="terminal">
<rect height="22" rx="10" ry="10" width="108" x="378" y="365"/>
<text x="432" y="381">
temperature</text>
</g>
<path d=" M 354 376 a 12 12 0 0 1 12 12 v 9 m 148 0 v -9 a 12 12 0 0 1 12 -12"/>
<path d=" M 366 397 v 33 m 148 0 v -33"/>
<path d=" M 366 430 v 33 m 148 0 v -33"/>
<path d=" M 366 463 v 33 m 148 0 v -33"/>
<path d=" M 366 496 v 33 m 148 0 v -33"/>
<path d=" M 366 529 v 33 m 148 0 v -33"/>
<path d=" M 366 562 v 33 m 148 0 v -33"/>
<path d=" M 366 595 v 33 m 148 0 v -33"/>
<path d=" M 366 397 v 0 a 12 12 0 0 0 12 12 m 124 0 h 0 a 12 12 0 0 0 12 -12 v 0"/>
<g class="terminal">
<rect height="22" rx="10" ry="10" width="124" x="378" y="398"/>
<text x="440" y="414">
magneticfield</text>
</g>
<path d=" M 366 430 v 0 a 12 12 0 0 0 12 12 m 124 0 h 0 a 12 12 0 0 0 12 -12 v 0"/>
<g class="terminal">
<rect height="22" rx="10" ry="10" width="124" x="378" y="431"/>
<text x="440" y="447">
electricfield</text>
</g>
<path d=" M 366 463 v 0 a 12 12 0 0 0 12 12 m 84 0 h 40 a 12 12 0 0 0 12 -12 v 0"/>
<g class="terminal">
<rect height="22" rx="10" ry="10" width="84" x="378" y="464"/>
<text x="420" y="480">
pressure</text>
</g>
<path d=" M 366 496 v 0 a 12 12 0 0 0 12 12 m 100 0 h 24 a 12 12 0 0 0 12 -12 v 0"/>
<g class="terminal">
<rect height="22" rx="10" ry="10" width="100" x="378" y="497"/>
<text x="428" y="513">
rotation_z</text>
</g>
<path d=" M 366 529 v 0 a 12 12 0 0 0 12 12 m 84 0 h 40 a 12 12 0 0 0 12 -12 v 0"/>
<g class="terminal">
<rect height="22" rx="10" ry="10" width="84" x="378" y="530"/>
<text x="420" y="546">
humidity</text>
</g>
<path d=" M 366 562 v 0 a 12 12 0 0 0 12 12 m 92 0 h 32 a 12 12 0 0 0 12 -12 v 0"/>
<g class="terminal">
<rect height="22" rx="10" ry="10" width="92" x="378" y="563"/>
<text x="424" y="579">
viscosity</text>
</g>
<path d=" M 366 595 v 0 a 12 12 0 0 0 12 12 m 84 0 h 40 a 12 12 0 0 0 12 -12 v 0"/>
<g class="terminal">
<rect height="22" rx="10" ry="10" width="84" x="378" y="596"/>
<text x="420" y="612">
flowrate</text>
</g>
<path d=" M 366 628 v 0 a 12 12 0 0 0 12 12 m 124 0 h 0 a 12 12 0 0 0 12 -12 v 0"/>
<g class="terminal">
<rect height="22" rx="10" ry="10" width="124" x="378" y="629"/>
<text x="440" y="645">
concentration</text>
</g>
</g>
</g>
<g class="optional">
<path d=" M 544 376 h 24 m -24 0 a 12 12 0 0 0 12 -12 v 0 a 12 12 0 0 1 12 -12 h 108 m -51 0 l -5 -5 m 0 10 l 5 -5 m 51 0 a 12 12 0 0 1 12 12 v 0 a 12 12 0 0 0 12 12 h -24"/>
<g class="terminal">
<rect height="22" rx="10" ry="10" width="108" x="568" y="365"/>
<text x="622" y="381">
_regulation</text>
</g>
</g>
<g class="terminal">
<rect height="22" rx="10" ry="10" width="28" x="710" y="365"/>
<text x="724" y="381">
,</text>
</g>
<g class="nonterminal">
<rect height="22" width="188" x="748" y="365"/>
<text x="842" y="381">
integer number 5..45</text>
</g>
<g class="terminal">
<rect height="22" rx="10" ry="10" width="28" x="946" y="365"/>
<text x="960" y="381">
]</text>
</g>
<path d=" M 260 376 h 10"/>
<path d=" M 298 376 h 10"/>
<path d=" M 336 376 h 10"/>
<path d=" M 534 376 h 10"/>
<path d=" M 700 376 h 10"/>
<path d=" M 738 376 h 10"/>
<path d=" M 936 376 h 10"/>
</g>
<path d=" M 172 669 v 0 a 12 12 0 0 0 12 12 m 84 0 h 706 m -350 0 l -5 -5 m 0 10 l 5 -5 m 350 0 a 12 12 0 0 0 12 -12 v 0"/>
<g class="sequence">
<g class="nonterminal">
<rect height="22" width="84" x="184" y="670"/>
<text x="226" y="686">
property</text>
</g>
</g>
</g>
<path d=" M 150 21 h 10"/>
</g>
<path d=" M 1008 21 h 5 a 5 5 0 0 1 5 -5 a 5 5 0 0 1 5 5 a 5 5 0 0 1 -5 5 a 5 5 0 0 1 -5 -5"/>
<path d=" M 25 21 h 10"/>
<path d=" M 998 21 h 10"/>
</g>
</svg>
