<svg class="railroad" viewBox="0 0 990 779" width="990" xmlns="http://www.w3.org/2000/svg">
<style type="text/css">

    svg.railroad {
        background-color: hsl(30, 20%, 95%);
        background-size: 15px 15px;
        background-image: linear-gradient(to right, rgba(30, 30, 30, .05) 1px, transparent 1px),
                          linear-gradient(to bottom, rgba(30, 30, 30, .05) 1px, transparent 1px);
    }

    svg.railroad path {
        stroke-width: 3px;
        stroke: black;
        fill: transparent;
    }

    svg.railroad .debug {
        stroke-width: 1px;
        stroke: red;
    }

    svg.railroad text {
        font: 14px monospace;
        text-anchor: middle;
    }

    svg.railroad .nonterminal text {
        font-weight: bold;
    }

    svg.railroad text.comment {
        font: italic 12px monospace;
    }

    svg.railroad rect {
        stroke-width: 3px;
        stroke: black;
        fill:hsl(-290, 70%, 90%);
    }

    svg.railroad g.labeledbox &gt; rect {
        stroke-width: 1px;
        stroke: grey;
        stroke-dasharray: 5px;
        fill:rgba(90, 90, 150, .1);
    }</style>
<g class="sequence">
<g class="sequence">
<g>
<text class="comment" x="67" y="39">
module-property</text>
</g>
<g class="choice">
<path d=" M 135 34 h 24 m 624 0 h 177 m -85 0 l -5 -5 m 0 10 l 5 -5 m 85 0"/>
<g class="sequence">
<g class="terminal">
<rect height="22" rx="10" ry="10" width="124" x="159" y="23"/>
<text x="221" y="39">
&quot;accessibles&quot;</text>
</g>
<g class="terminal">
<rect height="22" rx="10" ry="10" width="28" x="293" y="23"/>
<text x="307" y="39">
:</text>
</g>
<g class="terminal">
<rect height="22" rx="10" ry="10" width="28" x="331" y="23"/>
<text x="345" y="39">
[</text>
</g>
<g class="optional">
<path d=" M 369 34 h 24 m -24 0 a 12 12 0 0 0 12 -12 v 0 a 12 12 0 0 1 12 -12 h 328 m -161 0 l -5 -5 m 0 10 l 5 -5 m 161 0 a 12 12 0 0 1 12 12 v 0 a 12 12 0 0 0 12 12 h -24"/>
<g class="sequence">
<g class="repeat">
<path d=" M 393 34 h 12 m 304 0 h 12 m -12 0 a 12 12 0 0 1 12 12 v 8 a 12 12 0 0 1 -12 12 m -28 0 h -276 m 141 0 l 5 -5 m 0 10 l -5 -5 m -141 0 a 12 12 0 0 1 -12 -12 v -8 a 12 12 0 0 1 12 -12"/>
<g class="terminal">
<rect height="22" rx="10" ry="10" width="28" x="681" y="55"/>
<text x="695" y="71">
,</text>
</g>
<g class="sequence">
<g class="nonterminal">
<rect height="22" width="52" x="405" y="23"/>
<text x="431" y="39">
name</text>
</g>
<g class="terminal">
<rect height="22" rx="10" ry="10" width="28" x="467" y="23"/>
<text x="481" y="39">
,</text>
</g>
<g class="nonterminal">
<rect height="22" width="204" x="505" y="23"/>
<text x="607" y="39">
accessible-description</text>
</g>
<path d=" M 457 34 h 10"/>
<path d=" M 495 34 h 10"/>
</g>
</g>
</g>
</g>
<g class="terminal">
<rect height="22" rx="10" ry="10" width="28" x="755" y="23"/>
<text x="769" y="39">
]</text>
</g>
<path d=" M 283 34 h 10"/>
<path d=" M 321 34 h 10"/>
<path d=" M 359 34 h 10"/>
<path d=" M 745 34 h 10"/>
</g>
<path d=" M 135 34 a 12 12 0 0 1 12 12 v 41 m 801 0 v -41 a 12 12 0 0 1 12 -12"/>
<path d=" M 147 87 v 33 m 801 0 v -33"/>
<path d=" M 147 120 v 99 m 0 -46 l -5 -5 m 10 0 l -5 5 m 0 46 m 801 0 v -99 m 0 52 l -5 5 m 10 0 l -5 -5 m 0 -52"/>
<path d=" M 147 231 v 65 m 0 -29 l -5 -5 m 10 0 l -5 5 m 0 29 m 801 0 v -65 m 0 35 l -5 5 m 10 0 l -5 -5 m 0 -35"/>
<path d=" M 147 308 v 65 m 0 -29 l -5 -5 m 10 0 l -5 5 m 0 29 m 801 0 v -65 m 0 35 l -5 5 m 10 0 l -5 -5 m 0 -35"/>
<path d=" M 147 373 v 33 m 801 0 v -33"/>
<path d=" M 147 441 v 305 m 0 -149 l -5 -5 m 10 0 l -5 5 m 0 149 m 801 0 v -305 m 0 155 l -5 5 m 10 0 l -5 -5 m 0 -155"/>
<path d=" M 147 87 v 0 a 12 12 0 0 0 12 12 m 320 0 h 457 m -225 0 l -5 -5 m 0 10 l 5 -5 m 225 0 a 12 12 0 0 0 12 -12 v 0"/>
<g class="sequence">
<g class="terminal">
<rect height="22" rx="10" ry="10" width="124" x="159" y="88"/>
<text x="221" y="104">
&quot;description&quot;</text>
</g>
<g class="terminal">
<rect height="22" rx="10" ry="10" width="28" x="293" y="88"/>
<text x="307" y="104">
:</text>
</g>
<g class="nonterminal">
<rect height="22" width="148" x="331" y="88"/>
<text x="405" y="104">
descriptive text</text>
</g>
<path d=" M 283 99 h 10"/>
<path d=" M 321 99 h 10"/>
</g>
<path d=" M 147 120 v 0 a 12 12 0 0 0 12 12 m 312 0 h 465 m -229 0 l -5 -5 m 0 10 l 5 -5 m 229 0 a 12 12 0 0 0 12 -12 v 0"/>
<g class="sequence">
<g class="terminal">
<rect height="22" rx="10" ry="10" width="116" x="159" y="121"/>
<text x="217" y="137">
&quot;visibility&quot;</text>
</g>
<g class="terminal">
<rect height="22" rx="10" ry="10" width="28" x="285" y="121"/>
<text x="299" y="137">
:</text>
</g>
<g class="choice">
<path d=" M 323 132 h 24 m 84 0 h 40"/>
<g class="terminal">
<rect height="22" rx="10" ry="10" width="84" x="347" y="121"/>
<text x="389" y="137">
&quot;expert&quot;</text>
</g>
<path d=" M 323 132 a 12 12 0 0 1 12 12 v 9 m 124 0 v -9 a 12 12 0 0 1 12 -12"/>
<path d=" M 335 153 v 33 m 124 0 v -33"/>
<path d=" M 335 153 v 0 a 12 12 0 0 0 12 12 m 100 0 h 0 a 12 12 0 0 0 12 -12 v 0"/>
<g class="terminal">
<rect height="22" rx="10" ry="10" width="100" x="347" y="154"/>
<text x="397" y="170">
&quot;advanced&quot;</text>
</g>
<path d=" M 335 186 v 0 a 12 12 0 0 0 12 12 m 68 0 h 32 a 12 12 0 0 0 12 -12 v 0"/>
<g class="terminal">
<rect height="22" rx="10" ry="10" width="68" x="347" y="187"/>
<text x="381" y="203">
&quot;user&quot;</text>
</g>
</g>
<path d=" M 275 132 h 10"/>
<path d=" M 313 132 h 10"/>
</g>
<path d=" M 147 219 v 12 a 12 12 0 0 0 12 12 m 444 0 h 333 m -163 0 l -5 -5 m 0 10 l 5 -5 m 163 0 a 12 12 0 0 0 12 -12 v -12"/>
<g class="sequence">
<g class="terminal">
<rect height="22" rx="10" ry="10" width="156" x="159" y="232"/>
<text x="237" y="248">
&quot;interface_class&quot;</text>
</g>
<g class="terminal">
<rect height="22" rx="10" ry="10" width="28" x="325" y="232"/>
<text x="339" y="248">
:</text>
</g>
<g class="terminal">
<rect height="22" rx="10" ry="10" width="28" x="363" y="232"/>
<text x="377" y="248">
[</text>
</g>
<g class="optional">
<path d=" M 401 243 h 24 m -24 0 a 12 12 0 0 0 12 -12 v 0 a 12 12 0 0 1 12 -12 h 116 m -55 0 l -5 -5 m 0 10 l 5 -5 m 55 0 a 12 12 0 0 1 12 12 v 0 a 12 12 0 0 0 12 12 h -24"/>
<g class="sequence">
<g class="repeat">
<path d=" M 425 243 h 12 m 92 0 h 12 m -12 0 a 12 12 0 0 1 12 12 v 8 a 12 12 0 0 1 -12 12 m -28 0 h -64 m 35 0 l 5 -5 m 0 10 l -5 -5 m -35 0 a 12 12 0 0 1 -12 -12 v -8 a 12 12 0 0 1 12 -12"/>
<g class="terminal">
<rect height="22" rx="10" ry="10" width="28" x="501" y="264"/>
<text x="515" y="280">
,</text>
</g>
<g class="nonterminal">
<rect height="22" width="92" x="437" y="232"/>
<text x="483" y="248">
interface</text>
</g>
</g>
</g>
</g>
<g class="terminal">
<rect height="22" rx="10" ry="10" width="28" x="575" y="232"/>
<text x="589" y="248">
]</text>
</g>
<path d=" M 315 243 h 10"/>
<path d=" M 353 243 h 10"/>
<path d=" M 391 243 h 10"/>
<path d=" M 565 243 h 10"/>
</g>
<path d=" M 147 296 v 12 a 12 12 0 0 0 12 12 m 372 0 h 405 m -199 0 l -5 -5 m 0 10 l 5 -5 m 199 0 a 12 12 0 0 0 12 -12 v -12"/>
<g class="sequence">
<g class="terminal">
<rect height="22" rx="10" ry="10" width="100" x="159" y="309"/>
<text x="209" y="325">
&quot;features&quot;</text>
</g>
<g class="terminal">
<rect height="22" rx="10" ry="10" width="28" x="269" y="309"/>
<text x="283" y="325">
:</text>
</g>
<g class="terminal">
<rect height="22" rx="10" ry="10" width="28" x="307" y="309"/>
<text x="321" y="325">
[</text>
</g>
<g class="optional">
<path d=" M 345 320 h 24 m -24 0 a 12 12 0 0 0 12 -12 v 0 a 12 12 0 0 1 12 -12 h 100 m -47 0 l -5 -5 m 0 10 l 5 -5 m 47 0 a 12 12 0 0 1 12 12 v 0 a 12 12 0 0 0 12 12 h -24"/>
<g class="sequence">
<g class="repeat">
<path d=" M 369 320 h 12 m 76 0 h 12 m -12 0 a 12 12 0 0 1 12 12 v 8 a 12 12 0 0 1 -12 12 m -28 0 h -48 a 12 12 0 0 1 -12 -12 v -8 a 12 12 0 0 1 12 -12"/>
<g class="terminal">
<rect height="22" rx="10" ry="10" width="28" x="429" y="341"/>
<text x="443" y="357">
,</text>
</g>
<g class="nonterminal">
<rect height="22" width="76" x="381" y="309"/>
<text x="419" y="325">
feature</text>
</g>
</g>
</g>
</g>
<g class="terminal">
<rect height="22" rx="10" ry="10" width="28" x="503" y="309"/>
<text x="517" y="325">
]</text>
</g>
<path d=" M 259 320 h 10"/>
<path d=" M 297 320 h 10"/>
<path d=" M 335 320 h 10"/>
<path d=" M 493 320 h 10"/>
</g>
<path d=" M 147 373 v 0 a 12 12 0 0 0 12 12 m 216 0 h 561 m -277 0 l -5 -5 m 0 10 l 5 -5 m 277 0 a 12 12 0 0 0 12 -12 v 0"/>
<g class="sequence">
<g class="terminal">
<rect height="22" rx="10" ry="10" width="76" x="159" y="374"/>
<text x="197" y="390">
&quot;group&quot;</text>
</g>
<g class="terminal">
<rect height="22" rx="10" ry="10" width="28" x="245" y="374"/>
<text x="259" y="390">
:</text>
</g>
<g class="nonterminal">
<rect height="22" width="92" x="283" y="374"/>
<text x="329" y="390">
groupname</text>
</g>
<path d=" M 235 385 h 10"/>
<path d=" M 273 385 h 10"/>
</g>
<path d=" M 147 406 v 35 a 12 12 0 0 0 12 12 m 777 0 h 0 a 12 12 0 0 0 12 -12 v -35"/>
<g class="sequence">
<g class="terminal">
<rect height="22" rx="10" ry="10" width="92" x="159" y="442"/>
<text x="205" y="458">
&quot;meaning&quot;</text>
</g>
<g class="terminal">
<rect height="22" rx="10" ry="10" width="44" x="261" y="442"/>
<text x="283" y="458">
:[&quot;</text>
</g>
<g class="labeledbox">
<rect height="330" width="188" x="315" y="406"/>
<path d=" M 315 453 h 8 m 172 0 h 8"/>
<g>
<text class="comment" x="363" y="429">
extensible</text>
</g>
<g class="choice">
<path d=" M 323 453 h 24 m 108 0 h 40"/>
<g class="terminal">
<rect height="22" rx="10" ry="10" width="108" x="347" y="442"/>
<text x="401" y="458">
temperature</text>
</g>
<path d=" M 323 453 a 12 12 0 0 1 12 12 v 9 m 148 0 v -9 a 12 12 0 0 1 12 -12"/>
<path d=" M 335 474 v 33 m 148 0 v -33"/>
<path d=" M 335 507 v 33 m 148 0 v -33"/>
<path d=" M 335 540 v 33 m 148 0 v -33"/>
<path d=" M 335 573 v 33 m 148 0 v -33"/>
<path d=" M 335 606 v 33 m 148 0 v -33"/>
<path d=" M 335 639 v 33 m 148 0 v -33"/>
<path d=" M 335 672 v 33 m 148 0 v -33"/>
<path d=" M 335 474 v 0 a 12 12 0 0 0 12 12 m 124 0 h 0 a 12 12 0 0 0 12 -12 v 0"/>
<g class="terminal">
<rect height="22" rx="10" ry="10" width="124" x="347" y="475"/>
<text x="409" y="491">
magneticfield</text>
</g>
<path d=" M 335 507 v 0 a 12 12 0 0 0 12 12 m 124 0 h 0 a 12 12 0 0 0 12 -12 v 0"/>
<g class="terminal">
<rect height="22" rx="10" ry="10" width="124" x="347" y="508"/>
<text x="409" y="524">
electricfield</text>
</g>
<path d=" M 335 540 v 0 a 12 12 0 0 0 12 12 m 84 0 h 40 a 12 12 0 0 0 12 -12 v 0"/>
<g class="terminal">
<rect height="22" rx="10" ry="10" width="84" x="347" y="541"/>
<text x="389" y="557">
pressure</text>
</g>
<path d=" M 335 573 v 0 a 12 12 0 0 0 12 12 m 100 0 h 24 a 12 12 0 0 0 12 -12 v 0"/>
<g class="terminal">
<rect height="22" rx="10" ry="10" width="100" x="347" y="574"/>
<text x="397" y="590">
rotation_z</text>
</g>
<path d=" M 335 606 v 0 a 12 12 0 0 0 12 12 m 84 0 h 40 a 12 12 0 0 0 12 -12 v 0"/>
<g class="terminal">
<rect height="22" rx="10" ry="10" width="84" x="347" y="607"/>
<text x="389" y="623">
humidity</text>
</g>
<path d=" M 335 639 v 0 a 12 12 0 0 0 12 12 m 92 0 h 32 a 12 12 0 0 0 12 -12 v 0"/>
<g class="terminal">
<rect height="22" rx="10" ry="10" width="92" x="347" y="640"/>
<text x="393" y="656">
viscosity</text>
</g>
<path d=" M 335 672 v 0 a 12 12 0 0 0 12 12 m 84 0 h 40 a 12 12 0 0 0 12 -12 v 0"/>
<g class="terminal">
<rect height="22" rx="10" ry="10" width="84" x="347" y="673"/>
<text x="389" y="689">
flowrate</text>
</g>
<path d=" M 335 705 v 0 a 12 12 0 0 0 12 12 m 124 0 h 0 a 12 12 0 0 0 12 -12 v 0"/>
<g class="terminal">
<rect height="22" rx="10" ry="10" width="124" x="347" y="706"/>
<text x="409" y="722">
concentration</text>
</g>
</g>
</g>
<g class="optional">
<path d=" M 513 453 h 24 m -24 0 a 12 12 0 0 0 12 -12 v 0 a 12 12 0 0 1 12 -12 h 108 m -51 0 l -5 -5 m 0 10 l 5 -5 m 51 0 a 12 12 0 0 1 12 12 v 0 a 12 12 0 0 0 12 12 h -24"/>
<g class="terminal">
<rect height="22" rx="10" ry="10" width="108" x="537" y="442"/>
<text x="591" y="458">
_regulation</text>
</g>
</g>
<g class="terminal">
<rect height="22" rx="10" ry="10" width="36" x="679" y="442"/>
<text x="697" y="458">
&quot;,</text>
</g>
<g class="labeledbox">
<rect height="66" width="173" x="725" y="406"/>
<path d=" M 725 453 h 8 m 100 0 h 65 m -29 0 l -5 -5 m 0 10 l 5 -5 m 29 0"/>
<g>
<text class="comment" x="811" y="429">
integer number 5..45</text>
</g>
<g class="nonterminal">
<rect height="22" width="100" x="733" y="442"/>
<text x="783" y="458">
importance</text>
</g>
</g>
<g class="terminal">
<rect height="22" rx="10" ry="10" width="28" x="908" y="442"/>
<text x="922" y="458">
]</text>
</g>
<path d=" M 251 453 h 10"/>
<path d=" M 305 453 h 10"/>
<path d=" M 503 453 h 10"/>
<path d=" M 669 453 h 10"/>
<path d=" M 715 453 h 10"/>
<path d=" M 898 453 h 10"/>
</g>
<path d=" M 147 746 v 0 a 12 12 0 0 0 12 12 m 140 0 h 637 m -315 0 l -5 -5 m 0 10 l 5 -5 m 315 0 a 12 12 0 0 0 12 -12 v 0"/>
<g class="sequence">
<g class="nonterminal">
<rect height="22" width="140" x="159" y="747"/>
<text x="229" y="763">
custom-property</text>
</g>
</g>
</g>
<path d=" M 125 34 h 10"/>
</g>
<path d=" M 970 34 h 5 m -5 5 l 5 -5 l -5 -5 m 5 5"/>
<path d=" M 960 34 h 10"/>
</g>
</svg>