<svg class="railroad" viewBox="0 0 490 131" width="490" xmlns="http://www.w3.org/2000/svg">
<style type="text/css">

    svg.railroad {
        background-color: hsl(30, 20%, 95%);
        background-size: 15px 15px;
        background-image: linear-gradient(to right, rgba(30, 30, 30, .05) 1px, transparent 1px),
                          linear-gradient(to bottom, rgba(30, 30, 30, .05) 1px, transparent 1px);
    }

    svg.railroad path {
        stroke-width: 3px;
        stroke: black;
        fill: transparent;
    }

    svg.railroad .debug {
        stroke-width: 1px;
        stroke: red;
    }

    svg.railroad text {
        font: 14px monospace;
        text-anchor: middle;
    }

    svg.railroad .nonterminal text {
        font-weight: bold;
    }

    svg.railroad text.comment {
        font: italic 12px monospace;
    }

    svg.railroad rect {
        stroke-width: 3px;
        stroke: black;
        fill:hsl(-290, 70%, 90%);
    }

    svg.railroad g.labeledbox &gt; rect {
        stroke-width: 1px;
        stroke: grey;
        stroke-dasharray: 5px;
        fill:rgba(90, 90, 150, .1);
    }</style>
<g class="sequence">
<g class="sequence">
<g>
<text class="comment" x="78" y="75">
module-description</text>
</g>
<g class="labeledbox">
<rect height="111" width="304" x="156" y="10"/>
<path d=" M 156 70 h 8 m 288 0 h 8"/>
<g>
<text class="comment" x="295" y="33">
a json-object, keys MUST be unique!</text>
</g>
<g class="sequence">
<g class="terminal">
<rect height="22" rx="10" ry="10" width="28" x="164" y="59"/>
<text x="178" y="75">
{</text>
</g>
<g class="optional">
<path d=" M 202 70 h 24 m -24 0 a 12 12 0 0 0 12 -12 v 0 a 12 12 0 0 1 12 -12 h 164 m -79 0 l -5 -5 m 0 10 l 5 -5 m 79 0 a 12 12 0 0 1 12 12 v 0 a 12 12 0 0 0 12 12 h -24"/>
<g class="sequence">
<g class="repeat">
<path d=" M 226 70 h 12 m 140 0 h 12 m -12 0 a 12 12 0 0 1 12 12 v 8 a 12 12 0 0 1 -12 12 m -28 0 h -112 m 59 0 l 5 -5 m 0 10 l -5 -5 m -59 0 a 12 12 0 0 1 -12 -12 v -8 a 12 12 0 0 1 12 -12"/>
<g class="terminal">
<rect height="22" rx="10" ry="10" width="28" x="350" y="91"/>
<text x="364" y="107">
,</text>
</g>
<g class="nonterminal">
<rect height="22" width="140" x="238" y="59"/>
<text x="308" y="75">
module-property</text>
</g>
</g>
</g>
</g>
<g class="terminal">
<rect height="22" rx="10" ry="10" width="28" x="424" y="59"/>
<text x="438" y="75">
}</text>
</g>
<path d=" M 192 70 h 10"/>
<path d=" M 414 70 h 10"/>
</g>
</g>
<path d=" M 146 70 h 10"/>
</g>
<path d=" M 470 70 h 5 m -5 5 l 5 -5 l -5 -5 m 5 5"/>
<path d=" M 460 70 h 10"/>
</g>
</svg>