<svg class="railroad" viewBox="0 0 1110 779" xmlns="http://www.w3.org/2000/svg">
<style type="text/css">

    svg.railroad {
        background-color: hsl(30, 20%, 95%);
        background-size: 15px 15px;
        background-image: linear-gradient(to right, rgba(30, 30, 30, .05) 1px, transparent 1px),
                          linear-gradient(to bottom, rgba(30, 30, 30, .05) 1px, transparent 1px);
    }

    svg.railroad path {
        stroke-width: 3px;
        stroke: black;
        fill: transparent;
    }

    svg.railroad .debug {
        stroke-width: 1px;
        stroke: red;
    }

    svg.railroad text {
        font: 14px monospace;
        text-anchor: middle;
    }

    svg.railroad .nonterminal text {
        font-weight: bold;
    }

    svg.railroad text.comment {
        font: italic 12px monospace;
    }

    svg.railroad rect {
        stroke-width: 3px;
        stroke: black;
        fill:hsl(-290, 70%, 90%);
    }

    svg.railroad g.labeledbox > rect {
        stroke-width: 1px;
        stroke: grey;
        stroke-dasharray: 5px;
        fill:rgba(90, 90, 150, .1);
    }</style>
<g class="sequence">
<path d=" M 10 34 a 5 5 0 0 1 5 -5 a 5 5 0 0 1 5 5 a 5 5 0 0 1 -5 5 a 5 5 0 0 1 -5 -5 m 10 0 h 5"/>
<g class="sequence">
<text class="comment" x="92" y="39">
module-property</text>
<g class="choice">
<path d=" M 160 34 h 24 m 624 0 h 267 m -130 0 l -5 -5 m 0 10 l 5 -5 m 130 0"/>
<g class="sequence">
<g class="terminal">
<rect height="22" rx="10" ry="10" width="124" x="184" y="23"/>
<text x="246" y="39">
&quot;accessibles&quot;</text>
</g>
<g class="terminal">
<rect height="22" rx="10" ry="10" width="28" x="318" y="23"/>
<text x="332" y="39">
:</text>
</g>
<g class="terminal">
<rect height="22" rx="10" ry="10" width="28" x="356" y="23"/>
<text x="370" y="39">
[</text>
</g>
<g class="optional">
<path d=" M 394 34 h 24 m -24 0 a 12 12 0 0 0 12 -12 v 0 a 12 12 0 0 1 12 -12 h 328 m -161 0 l -5 -5 m 0 10 l 5 -5 m 161 0 a 12 12 0 0 1 12 12 v 0 a 12 12 0 0 0 12 12 h -24"/>
<g class="sequence">
<g class="repeat">
<path d=" M 418 34 h 12 m 304 0 h 12 m -12 0 a 12 12 0 0 1 12 12 v 8 a 12 12 0 0 1 -12 12 m -28 0 h -276 m 141 0 l 5 -5 m 0 10 l -5 -5 m -141 0 a 12 12 0 0 1 -12 -12 v -8 a 12 12 0 0 1 12 -12"/>
<g class="terminal">
<rect height="22" rx="10" ry="10" width="28" x="706" y="55"/>
<text x="720" y="71">
,</text>
</g>
<g class="sequence">
<g class="nonterminal">
<rect height="22" width="52" x="430" y="23"/>
<text x="456" y="39">
name</text>
</g>
<g class="terminal">
<rect height="22" rx="10" ry="10" width="28" x="492" y="23"/>
<text x="506" y="39">
,</text>
</g>
<g class="nonterminal">
<rect height="22" width="204" x="530" y="23"/>
<text x="632" y="39">
accessible-description</text>
</g>
<path d=" M 482 34 h 10"/>
<path d=" M 520 34 h 10"/>
</g>
</g>
</g>
</g>
<g class="terminal">
<rect height="22" rx="10" ry="10" width="28" x="780" y="23"/>
<text x="794" y="39">
]</text>
</g>
<path d=" M 308 34 h 10"/>
<path d=" M 346 34 h 10"/>
<path d=" M 384 34 h 10"/>
<path d=" M 770 34 h 10"/>
</g>
<path d=" M 160 34 a 12 12 0 0 1 12 12 v 41 m 891 0 v -41 a 12 12 0 0 1 12 -12"/>
<path d=" M 172 87 v 33 m 891 0 v -33"/>
<path d=" M 172 120 v 99 m 0 -46 l -5 -5 m 10 0 l -5 5 m 0 46 m 891 0 v -99 m 0 52 l -5 5 m 10 0 l -5 -5 m 0 -52"/>
<path d=" M 172 231 v 65 m 0 -29 l -5 -5 m 10 0 l -5 5 m 0 29 m 891 0 v -65 m 0 35 l -5 5 m 10 0 l -5 -5 m 0 -35"/>
<path d=" M 172 308 v 65 m 0 -29 l -5 -5 m 10 0 l -5 5 m 0 29 m 891 0 v -65 m 0 35 l -5 5 m 10 0 l -5 -5 m 0 -35"/>
<path d=" M 172 373 v 33 m 891 0 v -33"/>
<path d=" M 172 441 v 305 m 0 -149 l -5 -5 m 10 0 l -5 5 m 0 149 m 891 0 v -305 m 0 155 l -5 5 m 10 0 l -5 -5 m 0 -155"/>
<path d=" M 172 87 v 0 a 12 12 0 0 0 12 12 m 320 0 h 547 m -270 0 l -5 -5 m 0 10 l 5 -5 m 270 0 a 12 12 0 0 0 12 -12 v 0"/>
<g class="sequence">
<g class="terminal">
<rect height="22" rx="10" ry="10" width="124" x="184" y="88"/>
<text x="246" y="104">
&quot;description&quot;</text>
</g>
<g class="terminal">
<rect height="22" rx="10" ry="10" width="28" x="318" y="88"/>
<text x="332" y="104">
:</text>
</g>
<g class="nonterminal">
<rect height="22" width="148" x="356" y="88"/>
<text x="430" y="104">
descriptive text</text>
</g>
<path d=" M 308 99 h 10"/>
<path d=" M 346 99 h 10"/>
</g>
<path d=" M 172 120 v 0 a 12 12 0 0 0 12 12 m 312 0 h 555 m -274 0 l -5 -5 m 0 10 l 5 -5 m 274 0 a 12 12 0 0 0 12 -12 v 0"/>
<g class="sequence">
<g class="terminal">
<rect height="22" rx="10" ry="10" width="116" x="184" y="121"/>
<text x="242" y="137">
&quot;visibility&quot;</text>
</g>
<g class="terminal">
<rect height="22" rx="10" ry="10" width="28" x="310" y="121"/>
<text x="324" y="137">
:</text>
</g>
<g class="choice">
<path d=" M 348 132 h 24 m 84 0 h 40"/>
<g class="terminal">
<rect height="22" rx="10" ry="10" width="84" x="372" y="121"/>
<text x="414" y="137">
&quot;expert&quot;</text>
</g>
<path d=" M 348 132 a 12 12 0 0 1 12 12 v 9 m 124 0 v -9 a 12 12 0 0 1 12 -12"/>
<path d=" M 360 153 v 33 m 124 0 v -33"/>
<path d=" M 360 153 v 0 a 12 12 0 0 0 12 12 m 100 0 h 0 a 12 12 0 0 0 12 -12 v 0"/>
<g class="terminal">
<rect height="22" rx="10" ry="10" width="100" x="372" y="154"/>
<text x="422" y="170">
&quot;advanced&quot;</text>
</g>
<path d=" M 360 186 v 0 a 12 12 0 0 0 12 12 m 68 0 h 32 a 12 12 0 0 0 12 -12 v 0"/>
<g class="terminal">
<rect height="22" rx="10" ry="10" width="68" x="372" y="187"/>
<text x="406" y="203">
&quot;user&quot;</text>
</g>
</g>
<path d=" M 300 132 h 10"/>
<path d=" M 338 132 h 10"/>
</g>
<path d=" M 172 219 v 12 a 12 12 0 0 0 12 12 m 444 0 h 423 m -208 0 l -5 -5 m 0 10 l 5 -5 m 208 0 a 12 12 0 0 0 12 -12 v -12"/>
<g class="sequence">
<g class="terminal">
<rect height="22" rx="10" ry="10" width="156" x="184" y="232"/>
<text x="262" y="248">
&quot;interface_class&quot;</text>
</g>
<g class="terminal">
<rect height="22" rx="10" ry="10" width="28" x="350" y="232"/>
<text x="364" y="248">
:</text>
</g>
<g class="terminal">
<rect height="22" rx="10" ry="10" width="28" x="388" y="232"/>
<text x="402" y="248">
[</text>
</g>
<g class="optional">
<path d=" M 426 243 h 24 m -24 0 a 12 12 0 0 0 12 -12 v 0 a 12 12 0 0 1 12 -12 h 116 m -55 0 l -5 -5 m 0 10 l 5 -5 m 55 0 a 12 12 0 0 1 12 12 v 0 a 12 12 0 0 0 12 12 h -24"/>
<g class="sequence">
<g class="repeat">
<path d=" M 450 243 h 12 m 92 0 h 12 m -12 0 a 12 12 0 0 1 12 12 v 8 a 12 12 0 0 1 -12 12 m -28 0 h -64 m 35 0 l 5 -5 m 0 10 l -5 -5 m -35 0 a 12 12 0 0 1 -12 -12 v -8 a 12 12 0 0 1 12 -12"/>
<g class="terminal">
<rect height="22" rx="10" ry="10" width="28" x="526" y="264"/>
<text x="540" y="280">
,</text>
</g>
<g class="nonterminal">
<rect height="22" width="92" x="462" y="232"/>
<text x="508" y="248">
interface</text>
</g>
</g>
</g>
</g>
<g class="terminal">
<rect height="22" rx="10" ry="10" width="28" x="600" y="232"/>
<text x="614" y="248">
]</text>
</g>
<path d=" M 340 243 h 10"/>
<path d=" M 378 243 h 10"/>
<path d=" M 416 243 h 10"/>
<path d=" M 590 243 h 10"/>
</g>
<path d=" M 172 296 v 12 a 12 12 0 0 0 12 12 m 372 0 h 495 m -244 0 l -5 -5 m 0 10 l 5 -5 m 244 0 a 12 12 0 0 0 12 -12 v -12"/>
<g class="sequence">
<g class="terminal">
<rect height="22" rx="10" ry="10" width="100" x="184" y="309"/>
<text x="234" y="325">
&quot;features&quot;</text>
</g>
<g class="terminal">
<rect height="22" rx="10" ry="10" width="28" x="294" y="309"/>
<text x="308" y="325">
:</text>
</g>
<g class="terminal">
<rect height="22" rx="10" ry="10" width="28" x="332" y="309"/>
<text x="346" y="325">
[</text>
</g>
<g class="optional">
<path d=" M 370 320 h 24 m -24 0 a 12 12 0 0 0 12 -12 v 0 a 12 12 0 0 1 12 -12 h 100 m -47 0 l -5 -5 m 0 10 l 5 -5 m 47 0 a 12 12 0 0 1 12 12 v 0 a 12 12 0 0 0 12 12 h -24"/>
<g class="sequence">
<g class="repeat">
<path d=" M 394 320 h 12 m 76 0 h 12 m -12 0 a 12 12 0 0 1 12 12 v 8 a 12 12 0 0 1 -12 12 m -28 0 h -48 a 12 12 0 0 1 -12 -12 v -8 a 12 12 0 0 1 12 -12"/>
<g class="terminal">
<rect height="22" rx="10" ry="10" width="28" x="454" y="341"/>
<text x="468" y="357">
,</text>
</g>
<g class="nonterminal">
<rect height="22" width="76" x="406" y="309"/>
<text x="444" y="325">
feature</text>
</g>
</g>
</g>
</g>
<g class="terminal">
<rect height="22" rx="10" ry="10" width="28" x="528" y="309"/>
<text x="542" y="325">
]</text>
</g>
<path d=" M 284 320 h 10"/>
<path d=" M 322 320 h 10"/>
<path d=" M 360 320 h 10"/>
<path d=" M 518 320 h 10"/>
</g>
<path d=" M 172 373 v 0 a 12 12 0 0 0 12 12 m 216 0 h 651 m -322 0 l -5 -5 m 0 10 l 5 -5 m 322 0 a 12 12 0 0 0 12 -12 v 0"/>
<g class="sequence">
<g class="terminal">
<rect height="22" rx="10" ry="10" width="76" x="184" y="374"/>
<text x="222" y="390">
&quot;group&quot;</text>
</g>
<g class="terminal">
<rect height="22" rx="10" ry="10" width="28" x="270" y="374"/>
<text x="284" y="390">
:</text>
</g>
<g class="nonterminal">
<rect height="22" width="92" x="308" y="374"/>
<text x="354" y="390">
groupname</text>
</g>
<path d=" M 260 385 h 10"/>
<path d=" M 298 385 h 10"/>
</g>
<path d=" M 172 406 v 35 a 12 12 0 0 0 12 12 m 867 0 h 0 a 12 12 0 0 0 12 -12 v -35"/>
<g class="sequence">
<g class="terminal">
<rect height="22" rx="10" ry="10" width="92" x="184" y="442"/>
<text x="230" y="458">
&quot;meaning&quot;</text>
</g>
<g class="terminal">
<rect height="22" rx="10" ry="10" width="28" x="286" y="442"/>
<text x="300" y="458">
:</text>
</g>
<g class="terminal">
<rect height="22" rx="10" ry="10" width="28" x="324" y="442"/>
<text x="338" y="458">
[</text>
</g>
<g class="terminal">
<rect height="22" rx="10" ry="10" width="28" x="362" y="442"/>
<text x="376" y="458">
&quot;</text>
</g>
<g class="labeledbox">
<rect height="330" width="188" x="400" y="406"/>
<path d=" M 400 453 h 8 m 172 0 h 8"/>
<text class="comment" x="448" y="429">
extensible</text>
<g class="choice">
<path d=" M 408 453 h 24 m 108 0 h 40"/>
<g class="terminal">
<rect height="22" rx="10" ry="10" width="108" x="432" y="442"/>
<text x="486" y="458">
temperature</text>
</g>
<path d=" M 408 453 a 12 12 0 0 1 12 12 v 9 m 148 0 v -9 a 12 12 0 0 1 12 -12"/>
<path d=" M 420 474 v 33 m 148 0 v -33"/>
<path d=" M 420 507 v 33 m 148 0 v -33"/>
<path d=" M 420 540 v 33 m 148 0 v -33"/>
<path d=" M 420 573 v 33 m 148 0 v -33"/>
<path d=" M 420 606 v 33 m 148 0 v -33"/>
<path d=" M 420 639 v 33 m 148 0 v -33"/>
<path d=" M 420 672 v 33 m 148 0 v -33"/>
<path d=" M 420 474 v 0 a 12 12 0 0 0 12 12 m 124 0 h 0 a 12 12 0 0 0 12 -12 v 0"/>
<g class="terminal">
<rect height="22" rx="10" ry="10" width="124" x="432" y="475"/>
<text x="494" y="491">
magneticfield</text>
</g>
<path d=" M 420 507 v 0 a 12 12 0 0 0 12 12 m 124 0 h 0 a 12 12 0 0 0 12 -12 v 0"/>
<g class="terminal">
<rect height="22" rx="10" ry="10" width="124" x="432" y="508"/>
<text x="494" y="524">
electricfield</text>
</g>
<path d=" M 420 540 v 0 a 12 12 0 0 0 12 12 m 84 0 h 40 a 12 12 0 0 0 12 -12 v 0"/>
<g class="terminal">
<rect height="22" rx="10" ry="10" width="84" x="432" y="541"/>
<text x="474" y="557">
pressure</text>
</g>
<path d=" M 420 573 v 0 a 12 12 0 0 0 12 12 m 100 0 h 24 a 12 12 0 0 0 12 -12 v 0"/>
<g class="terminal">
<rect height="22" rx="10" ry="10" width="100" x="432" y="574"/>
<text x="482" y="590">
rotation_z</text>
</g>
<path d=" M 420 606 v 0 a 12 12 0 0 0 12 12 m 84 0 h 40 a 12 12 0 0 0 12 -12 v 0"/>
<g class="terminal">
<rect height="22" rx="10" ry="10" width="84" x="432" y="607"/>
<text x="474" y="623">
humidity</text>
</g>
<path d=" M 420 639 v 0 a 12 12 0 0 0 12 12 m 92 0 h 32 a 12 12 0 0 0 12 -12 v 0"/>
<g class="terminal">
<rect height="22" rx="10" ry="10" width="92" x="432" y="640"/>
<text x="478" y="656">
viscosity</text>
</g>
<path d=" M 420 672 v 0 a 12 12 0 0 0 12 12 m 84 0 h 40 a 12 12 0 0 0 12 -12 v 0"/>
<g class="terminal">
<rect height="22" rx="10" ry="10" width="84" x="432" y="673"/>
<text x="474" y="689">
flowrate</text>
</g>
<path d=" M 420 705 v 0 a 12 12 0 0 0 12 12 m 124 0 h 0 a 12 12 0 0 0 12 -12 v 0"/>
<g class="terminal">
<rect height="22" rx="10" ry="10" width="124" x="432" y="706"/>
<text x="494" y="722">
concentration</text>
</g>
</g>
</g>
<g class="optional">
<path d=" M 598 453 h 24 m -24 0 a 12 12 0 0 0 12 -12 v 0 a 12 12 0 0 1 12 -12 h 108 m -51 0 l -5 -5 m 0 10 l 5 -5 m 51 0 a 12 12 0 0 1 12 12 v 0 a 12 12 0 0 0 12 12 h -24"/>
<g class="terminal">
<rect height="22" rx="10" ry="10" width="108" x="622" y="442"/>
<text x="676" y="458">
_regulation</text>
</g>
</g>
<g class="terminal">
<rect height="22" rx="10" ry="10" width="28" x="764" y="442"/>
<text x="778" y="458">
&quot;</text>
</g>
<g class="terminal">
<rect height="22" rx="10" ry="10" width="28" x="802" y="442"/>
<text x="816" y="458">
,</text>
</g>
<g class="labeledbox">
<rect height="66" width="173" x="840" y="406"/>
<path d=" M 840 453 h 8 m 100 0 h 65 m -29 0 l -5 -5 m 0 10 l 5 -5 m 29 0"/>
<text class="comment" x="926" y="429">
integer number 5..45</text>
<g class="nonterminal">
<rect height="22" width="100" x="848" y="442"/>
<text x="898" y="458">
importance</text>
</g>
</g>
<g class="terminal">
<rect height="22" rx="10" ry="10" width="28" x="1023" y="442"/>
<text x="1037" y="458">
]</text>
</g>
<path d=" M 276 453 h 10"/>
<path d=" M 314 453 h 10"/>
<path d=" M 352 453 h 10"/>
<path d=" M 390 453 h 10"/>
<path d=" M 588 453 h 10"/>
<path d=" M 754 453 h 10"/>
<path d=" M 792 453 h 10"/>
<path d=" M 830 453 h 10"/>
<path d=" M 1013 453 h 10"/>
</g>
<path d=" M 172 746 v 0 a 12 12 0 0 0 12 12 m 140 0 h 727 m -360 0 l -5 -5 m 0 10 l 5 -5 m 360 0 a 12 12 0 0 0 12 -12 v 0"/>
<g class="sequence">
<g class="nonterminal">
<rect height="22" width="140" x="184" y="747"/>
<text x="254" y="763">
custom-property</text>
</g>
</g>
</g>
<path d=" M 150 34 h 10"/>
</g>
<path d=" M 1085 34 h 5 a 5 5 0 0 1 5 -5 a 5 5 0 0 1 5 5 a 5 5 0 0 1 -5 5 a 5 5 0 0 1 -5 -5"/>
<path d=" M 25 34 h 10"/>
<path d=" M 1075 34 h 10"/>
</g>
</svg>
