<svg class="railroad" viewBox="0 0 1033 803" xmlns="http://www.w3.org/2000/svg">
<style type="text/css">

    svg.railroad {
        background-color: hsl(30, 20%, 95%);
        background-size: 15px 15px;
        background-image: linear-gradient(to right, rgba(30, 30, 30, .05) 1px, transparent 1px),
                          linear-gradient(to bottom, rgba(30, 30, 30, .05) 1px, transparent 1px);
    }

    svg.railroad path {
        stroke-width: 3px;
        stroke: black;
        fill: transparent;
    }

    svg.railroad .debug {
        stroke-width: 1px;
        stroke: red;
    }

    svg.railroad text {
        font: 14px monospace;
        text-anchor: middle;
    }

    svg.railroad .nonterminal text {
        font-weight: bold;
    }

    svg.railroad text.comment {
        font: italic 12px monospace;
    }

    svg.railroad rect {
        stroke-width: 3px;
        stroke: black;
        fill:hsl(-290, 70%, 90%);
    }

    svg.railroad g.labeledbox > rect {
        stroke-width: 1px;
        stroke: grey;
        stroke-dasharray: 5px;
        fill:rgba(90, 90, 150, .1);
    }</style>
<g class="verticalgrid">
<g class="sequence">
<path d=" M 10 57 a 5 5 0 0 1 5 -5 a 5 5 0 0 1 5 5 a 5 5 0 0 1 -5 5 a 5 5 0 0 1 -5 -5 m 10 0 h 5"/>
<g class="sequence">
<text class="comment" x="103" y="62">
module-description</text>
<g class="labeledbox">
<rect height="122" width="304" x="181" y="10"/>
<path d=" M 181 57 h 8 m 288 0 h 8"/>
<text class="comment" x="320" y="33">
a json-object, keys MUST be unique!</text>
<g class="sequence">
<g class="terminal">
<rect height="22" rx="10" ry="10" width="28" x="189" y="46"/>
<text x="203" y="62">
{</text>
</g>
<g class="sequence">
<g class="choice">
<path d=" M 227 57 h 24 m 0 0 h 188 m -91 0 l -5 -5 m 0 10 l 5 -5 m 91 0"/>
<g/>
<path d=" M 227 57 a 12 12 0 0 1 12 12 v 0 m 188 0 v 0 a 12 12 0 0 1 12 -12"/>
<path d=" M 239 69 v 0 a 12 12 0 0 0 12 12 m 164 0 h 0 a 12 12 0 0 0 12 -12 v 0"/>
<g class="repeat">
<path d=" M 251 81 h 12 m 140 0 h 12 m -12 0 a 12 12 0 0 1 12 12 v 8 a 12 12 0 0 1 -12 12 m -28 0 h -112 m 59 0 l 5 -5 m 0 10 l -5 -5 m -59 0 a 12 12 0 0 1 -12 -12 v -8 a 12 12 0 0 1 12 -12"/>
<g class="terminal">
<rect height="22" rx="10" ry="10" width="28" x="375" y="102"/>
<text x="389" y="118">
,</text>
</g>
<g class="sequence">
<g class="nonterminal">
<rect height="22" width="140" x="263" y="70"/>
<text x="333" y="86">
module-property</text>
</g>
</g>
</g>
</g>
</g>
<g class="terminal">
<rect height="22" rx="10" ry="10" width="28" x="449" y="46"/>
<text x="463" y="62">
}</text>
</g>
<path d=" M 217 57 h 10"/>
<path d=" M 439 57 h 10"/>
</g>
</g>
<path d=" M 171 57 h 10"/>
</g>
<path d=" M 495 57 h 5 a 5 5 0 0 1 5 -5 a 5 5 0 0 1 5 5 a 5 5 0 0 1 -5 5 a 5 5 0 0 1 -5 -5"/>
<path d=" M 25 57 h 10"/>
<path d=" M 485 57 h 10"/>
</g>
<g class="sequence">
<path d=" M 10 155 a 5 5 0 0 1 5 -5 a 5 5 0 0 1 5 5 a 5 5 0 0 1 -5 5 a 5 5 0 0 1 -5 -5 m 10 0 h 5"/>
<g class="sequence">
<text class="comment" x="92" y="160">
module-property</text>
<g class="choice">
<path d=" M 160 155 h 24 m 608 0 h 206 m -100 0 l -5 -5 m 0 10 l 5 -5 m 100 0"/>
<g class="sequence">
<g class="terminal">
<rect height="22" rx="10" ry="10" width="108" x="184" y="144"/>
<text x="238" y="160">
accessibles</text>
</g>
<g class="terminal">
<rect height="22" rx="10" ry="10" width="28" x="302" y="144"/>
<text x="316" y="160">
:</text>
</g>
<g class="terminal">
<rect height="22" rx="10" ry="10" width="28" x="340" y="144"/>
<text x="354" y="160">
[</text>
</g>
<g class="choice">
<path d=" M 378 155 h 24 m 0 0 h 352 m -173 0 l -5 -5 m 0 10 l 5 -5 m 173 0"/>
<g/>
<path d=" M 378 155 a 12 12 0 0 1 12 12 v 0 m 352 0 v 0 a 12 12 0 0 1 12 -12"/>
<path d=" M 390 167 v 0 a 12 12 0 0 0 12 12 m 328 0 h 0 a 12 12 0 0 0 12 -12 v 0"/>
<g class="repeat">
<path d=" M 402 179 h 12 m 304 0 h 12 m -12 0 a 12 12 0 0 1 12 12 v 8 a 12 12 0 0 1 -12 12 m -28 0 h -276 m 141 0 l 5 -5 m 0 10 l -5 -5 m -141 0 a 12 12 0 0 1 -12 -12 v -8 a 12 12 0 0 1 12 -12"/>
<g class="terminal">
<rect height="22" rx="10" ry="10" width="28" x="690" y="200"/>
<text x="704" y="216">
,</text>
</g>
<g class="sequence">
<g class="nonterminal">
<rect height="22" width="52" x="414" y="168"/>
<text x="440" y="184">
name</text>
</g>
<g class="terminal">
<rect height="22" rx="10" ry="10" width="28" x="476" y="168"/>
<text x="490" y="184">
,</text>
</g>
<g class="nonterminal">
<rect height="22" width="204" x="514" y="168"/>
<text x="616" y="184">
accessible-description</text>
</g>
<path d=" M 466 179 h 10"/>
<path d=" M 504 179 h 10"/>
</g>
</g>
</g>
<g class="terminal">
<rect height="22" rx="10" ry="10" width="28" x="764" y="144"/>
<text x="778" y="160">
]</text>
</g>
<path d=" M 292 155 h 10"/>
<path d=" M 330 155 h 10"/>
<path d=" M 368 155 h 10"/>
<path d=" M 754 155 h 10"/>
</g>
<path d=" M 160 155 a 12 12 0 0 1 12 12 v 65 m 0 -29 l -5 -5 m 10 0 l -5 5 m 0 29 m 814 0 v -65 m 0 35 l -5 5 m 10 0 l -5 -5 m 0 -35 a 12 12 0 0 1 12 -12"/>
<path d=" M 172 232 v 33 m 814 0 v -33"/>
<path d=" M 172 265 v 99 m 0 -46 l -5 -5 m 10 0 l -5 5 m 0 46 m 814 0 v -99 m 0 52 l -5 5 m 10 0 l -5 -5 m 0 -52"/>
<path d=" M 172 364 v 33 m 814 0 v -33"/>
<path d=" M 172 397 v 33 m 814 0 v -33"/>
<path d=" M 172 430 v 33 m 814 0 v -33"/>
<path d=" M 172 232 v 0 a 12 12 0 0 0 12 12 m 304 0 h 486 m -240 0 l -5 -5 m 0 10 l 5 -5 m 240 0 a 12 12 0 0 0 12 -12 v 0"/>
<g class="sequence">
<g class="terminal">
<rect height="22" rx="10" ry="10" width="108" x="184" y="233"/>
<text x="238" y="249">
description</text>
</g>
<g class="terminal">
<rect height="22" rx="10" ry="10" width="28" x="302" y="233"/>
<text x="316" y="249">
:</text>
</g>
<g class="nonterminal">
<rect height="22" width="148" x="340" y="233"/>
<text x="414" y="249">
descriptive text</text>
</g>
<path d=" M 292 244 h 10"/>
<path d=" M 330 244 h 10"/>
</g>
<path d=" M 172 265 v 0 a 12 12 0 0 0 12 12 m 280 0 h 510 m -252 0 l -5 -5 m 0 10 l 5 -5 m 252 0 a 12 12 0 0 0 12 -12 v 0"/>
<g class="sequence">
<g class="terminal">
<rect height="22" rx="10" ry="10" width="100" x="184" y="266"/>
<text x="234" y="282">
visibility</text>
</g>
<g class="terminal">
<rect height="22" rx="10" ry="10" width="28" x="294" y="266"/>
<text x="308" y="282">
:</text>
</g>
<g class="choice">
<path d=" M 332 277 h 24 m 68 0 h 40"/>
<g class="terminal">
<rect height="22" rx="10" ry="10" width="68" x="356" y="266"/>
<text x="390" y="282">
expert</text>
</g>
<path d=" M 332 277 a 12 12 0 0 1 12 12 v 9 m 108 0 v -9 a 12 12 0 0 1 12 -12"/>
<path d=" M 344 298 v 33 m 108 0 v -33"/>
<path d=" M 344 298 v 0 a 12 12 0 0 0 12 12 m 84 0 h 0 a 12 12 0 0 0 12 -12 v 0"/>
<g class="terminal">
<rect height="22" rx="10" ry="10" width="84" x="356" y="299"/>
<text x="398" y="315">
advanced</text>
</g>
<path d=" M 344 331 v 0 a 12 12 0 0 0 12 12 m 52 0 h 32 a 12 12 0 0 0 12 -12 v 0"/>
<g class="terminal">
<rect height="22" rx="10" ry="10" width="52" x="356" y="332"/>
<text x="382" y="348">
user</text>
</g>
</g>
<path d=" M 284 277 h 10"/>
<path d=" M 322 277 h 10"/>
</g>
<path d=" M 172 364 v 0 a 12 12 0 0 0 12 12 m 352 0 h 438 m -216 0 l -5 -5 m 0 10 l 5 -5 m 216 0 a 12 12 0 0 0 12 -12 v 0"/>
<g class="sequence">
<g class="terminal">
<rect height="22" rx="10" ry="10" width="140" x="184" y="365"/>
<text x="254" y="381">
interface_class</text>
</g>
<g class="terminal">
<rect height="22" rx="10" ry="10" width="28" x="334" y="365"/>
<text x="348" y="381">
:</text>
</g>
<g class="nonterminal">
<rect height="22" width="164" x="372" y="365"/>
<text x="454" y="381">
list of interfaces</text>
</g>
<path d=" M 324 376 h 10"/>
<path d=" M 362 376 h 10"/>
</g>
<path d=" M 172 397 v 0 a 12 12 0 0 0 12 12 m 280 0 h 510 m -252 0 l -5 -5 m 0 10 l 5 -5 m 252 0 a 12 12 0 0 0 12 -12 v 0"/>
<g class="sequence">
<g class="terminal">
<rect height="22" rx="10" ry="10" width="84" x="184" y="398"/>
<text x="226" y="414">
features</text>
</g>
<g class="terminal">
<rect height="22" rx="10" ry="10" width="28" x="278" y="398"/>
<text x="292" y="414">
:</text>
</g>
<g class="nonterminal">
<rect height="22" width="148" x="316" y="398"/>
<text x="390" y="414">
list of features</text>
</g>
<path d=" M 268 409 h 10"/>
<path d=" M 306 409 h 10"/>
</g>
<path d=" M 172 430 v 0 a 12 12 0 0 0 12 12 m 200 0 h 590 m -292 0 l -5 -5 m 0 10 l 5 -5 m 292 0 a 12 12 0 0 0 12 -12 v 0"/>
<g class="sequence">
<g class="terminal">
<rect height="22" rx="10" ry="10" width="60" x="184" y="431"/>
<text x="214" y="447">
group</text>
</g>
<g class="terminal">
<rect height="22" rx="10" ry="10" width="28" x="254" y="431"/>
<text x="268" y="447">
:</text>
</g>
<g class="nonterminal">
<rect height="22" width="92" x="292" y="431"/>
<text x="338" y="447">
groupname</text>
</g>
<path d=" M 244 442 h 10"/>
<path d=" M 282 442 h 10"/>
</g>
<path d=" M 172 463 v 35 a 12 12 0 0 0 12 12 m 790 0 h 0 a 12 12 0 0 0 12 -12 v -35"/>
<g class="sequence">
<g class="terminal">
<rect height="22" rx="10" ry="10" width="76" x="184" y="499"/>
<text x="222" y="515">
meaning</text>
</g>
<g class="terminal">
<rect height="22" rx="10" ry="10" width="28" x="270" y="499"/>
<text x="284" y="515">
:</text>
</g>
<g class="terminal">
<rect height="22" rx="10" ry="10" width="28" x="308" y="499"/>
<text x="322" y="515">
[</text>
</g>
<g class="labeledbox">
<rect height="330" width="188" x="346" y="463"/>
<path d=" M 346 510 h 8 m 172 0 h 8"/>
<text class="comment" x="394" y="486">
extensible</text>
<g class="choice">
<path d=" M 354 510 h 24 m 108 0 h 40"/>
<g class="terminal">
<rect height="22" rx="10" ry="10" width="108" x="378" y="499"/>
<text x="432" y="515">
temperature</text>
</g>
<path d=" M 354 510 a 12 12 0 0 1 12 12 v 9 m 148 0 v -9 a 12 12 0 0 1 12 -12"/>
<path d=" M 366 531 v 33 m 148 0 v -33"/>
<path d=" M 366 564 v 33 m 148 0 v -33"/>
<path d=" M 366 597 v 33 m 148 0 v -33"/>
<path d=" M 366 630 v 33 m 148 0 v -33"/>
<path d=" M 366 663 v 33 m 148 0 v -33"/>
<path d=" M 366 696 v 33 m 148 0 v -33"/>
<path d=" M 366 729 v 33 m 148 0 v -33"/>
<path d=" M 366 531 v 0 a 12 12 0 0 0 12 12 m 124 0 h 0 a 12 12 0 0 0 12 -12 v 0"/>
<g class="terminal">
<rect height="22" rx="10" ry="10" width="124" x="378" y="532"/>
<text x="440" y="548">
magneticfield</text>
</g>
<path d=" M 366 564 v 0 a 12 12 0 0 0 12 12 m 124 0 h 0 a 12 12 0 0 0 12 -12 v 0"/>
<g class="terminal">
<rect height="22" rx="10" ry="10" width="124" x="378" y="565"/>
<text x="440" y="581">
electricfield</text>
</g>
<path d=" M 366 597 v 0 a 12 12 0 0 0 12 12 m 84 0 h 40 a 12 12 0 0 0 12 -12 v 0"/>
<g class="terminal">
<rect height="22" rx="10" ry="10" width="84" x="378" y="598"/>
<text x="420" y="614">
pressure</text>
</g>
<path d=" M 366 630 v 0 a 12 12 0 0 0 12 12 m 100 0 h 24 a 12 12 0 0 0 12 -12 v 0"/>
<g class="terminal">
<rect height="22" rx="10" ry="10" width="100" x="378" y="631"/>
<text x="428" y="647">
rotation_z</text>
</g>
<path d=" M 366 663 v 0 a 12 12 0 0 0 12 12 m 84 0 h 40 a 12 12 0 0 0 12 -12 v 0"/>
<g class="terminal">
<rect height="22" rx="10" ry="10" width="84" x="378" y="664"/>
<text x="420" y="680">
humidity</text>
</g>
<path d=" M 366 696 v 0 a 12 12 0 0 0 12 12 m 92 0 h 32 a 12 12 0 0 0 12 -12 v 0"/>
<g class="terminal">
<rect height="22" rx="10" ry="10" width="92" x="378" y="697"/>
<text x="424" y="713">
viscosity</text>
</g>
<path d=" M 366 729 v 0 a 12 12 0 0 0 12 12 m 84 0 h 40 a 12 12 0 0 0 12 -12 v 0"/>
<g class="terminal">
<rect height="22" rx="10" ry="10" width="84" x="378" y="730"/>
<text x="420" y="746">
flowrate</text>
</g>
<path d=" M 366 762 v 0 a 12 12 0 0 0 12 12 m 124 0 h 0 a 12 12 0 0 0 12 -12 v 0"/>
<g class="terminal">
<rect height="22" rx="10" ry="10" width="124" x="378" y="763"/>
<text x="440" y="779">
concentration</text>
</g>
</g>
</g>
<g class="optional">
<path d=" M 544 510 h 24 m -24 0 a 12 12 0 0 0 12 -12 v 0 a 12 12 0 0 1 12 -12 h 108 m -51 0 l -5 -5 m 0 10 l 5 -5 m 51 0 a 12 12 0 0 1 12 12 v 0 a 12 12 0 0 0 12 12 h -24"/>
<g class="terminal">
<rect height="22" rx="10" ry="10" width="108" x="568" y="499"/>
<text x="622" y="515">
_regulation</text>
</g>
</g>
<g class="terminal">
<rect height="22" rx="10" ry="10" width="28" x="710" y="499"/>
<text x="724" y="515">
,</text>
</g>
<g class="nonterminal">
<rect height="22" width="188" x="748" y="499"/>
<text x="842" y="515">
integer number 5..45</text>
</g>
<g class="terminal">
<rect height="22" rx="10" ry="10" width="28" x="946" y="499"/>
<text x="960" y="515">
]</text>
</g>
<path d=" M 260 510 h 10"/>
<path d=" M 298 510 h 10"/>
<path d=" M 336 510 h 10"/>
<path d=" M 534 510 h 10"/>
<path d=" M 700 510 h 10"/>
<path d=" M 738 510 h 10"/>
<path d=" M 936 510 h 10"/>
</g>
</g>
<path d=" M 150 155 h 10"/>
</g>
<path d=" M 1008 155 h 5 a 5 5 0 0 1 5 -5 a 5 5 0 0 1 5 5 a 5 5 0 0 1 -5 5 a 5 5 0 0 1 -5 -5"/>
<path d=" M 25 155 h 10"/>
<path d=" M 998 155 h 10"/>
</g>
</g>
</svg>
