<svg class="railroad" viewBox="0 0 768 653" width="614pt" xmlns="http://www.w3.org/2000/svg">
<style type="text/css">

    svg.railroad {
        background-color: hsl(30, 20%, 95%);
        background-size: 15px 15px;
        background-image: linear-gradient(to right, rgba(30, 30, 30, .05) 1px, transparent 1px),
                          linear-gradient(to bottom, rgba(30, 30, 30, .05) 1px, transparent 1px);
    }

    svg.railroad path {
        stroke-width: 3px;
        stroke: black;
        fill: transparent;
    }

    svg.railroad .debug {
        stroke-width: 1px;
        stroke: red;
    }

    svg.railroad text {
        font: 14px monospace;
        text-anchor: middle;
    }

    svg.railroad .nonterminal text {
        font-weight: bold;
    }

    svg.railroad text.comment {
        font: italic 12px monospace;
    }

    svg.railroad rect {
        stroke-width: 3px;
        stroke: black;
        fill:hsl(-290, 70%, 90%);
    }

    svg.railroad g.labeledbox > rect {
        stroke-width: 1px;
        stroke: grey;
        stroke-dasharray: 5px;
        fill:rgba(90, 90, 150, .1);
    }</style>
<g class="verticalgrid">
<g class="horizontalgrid">
<g>
<text class="comment" x="53" y="25">
MUST accept</text>
</g>
<g class="nonterminal">
<rect height="22" width="84" x="109" y="10"/>
<text x="151" y="26">
requests</text>
</g>
</g>
<g class="sequence">
<path d=" M 10 50 l 5 5 l -5 5 m 5 -5 h 5"/>
<g class="sequence">
<g class="choice">
<path d=" M 30 55 h 24 m 60 0 h 624 m -309 0 l -5 -5 m 0 10 l 5 -5 m 309 0"/>
<g class="terminal">
<rect height="22" rx="10" ry="10" width="60" x="54" y="44"/>
<text x="84" y="60">
*IDN?</text>
</g>
<path d=" M 30 55 a 12 12 0 0 1 12 12 v 9 m 684 0 v -9 a 12 12 0 0 1 12 -12"/>
<path d=" M 42 135 v 41 m 684 0 v -41"/>
<path d=" M 42 235 v 41 m 684 0 v -41"/>
<path d=" M 42 335 v 66 m 0 -30 l -5 -5 m 10 0 l -5 5 m 0 30 m 684 0 v -66 m 0 36 l -5 5 m 10 0 l -5 -5 m 0 -36"/>
<path d=" M 42 448 v 41 m 684 0 v -41"/>
<path d=" M 42 536 v 41 m 684 0 v -41"/>
<path d=" M 42 76 v 59 m 0 -26 l -5 -5 m 10 0 l -5 5 m 0 26 a 12 12 0 0 0 12 12 m 604 0 h 56 m -25 0 l -5 -5 m 0 10 l 5 -5 m 25 0 a 12 12 0 0 0 12 -12 v -59 m 0 32 l -5 5 m 10 0 l -5 -5 m 0 -32"/>
<g class="sequence">
<g class="terminal">
<rect height="22" rx="10" ry="10" width="84" x="54" y="136"/>
<text x="96" y="152">
describe</text>
</g>
<g class="optional">
<path d=" M 148 147 h 24 m -24 0 a 12 12 0 0 0 12 -12 v -47 a 12 12 0 0 1 12 -12 h 462 m -228 0 l -5 -5 m 0 10 l 5 -5 m 228 0 a 12 12 0 0 1 12 12 v 47 a 12 12 0 0 0 12 12 h -24"/>
<g class="sequence">
<g class="labeledbox">
<rect height="66" width="68" x="172" y="100"/>
<path d=" M 172 147 h 8 m 52 0 h 8"/>
<g>
<text class="comment" x="202" y="123">
SPACE</text>
</g>
<g class="terminal">
<rect height="22" rx="10" ry="10" width="52" x="180" y="136"/>
<text x="206" y="152">
\x20</text>
</g>
</g>
<g class="nonterminal">
<rect height="22" width="124" x="250" y="136"/>
<text x="312" y="152">
ignored-value</text>
</g>
<g class="optional">
<path d=" M 384 147 h 24 m -24 0 a 12 12 0 0 0 12 -12 v -35 a 12 12 0 0 1 12 -12 h 202 m -98 0 l -5 -5 m 0 10 l 5 -5 m 98 0 a 12 12 0 0 1 12 12 v 35 a 12 12 0 0 0 12 12 h -24"/>
<g class="sequence">
<g class="labeledbox">
<rect height="66" width="68" x="408" y="100"/>
<path d=" M 408 147 h 8 m 52 0 h 8"/>
<g>
<text class="comment" x="438" y="123">
SPACE</text>
</g>
<g class="terminal">
<rect height="22" rx="10" ry="10" width="52" x="416" y="136"/>
<text x="442" y="152">
\x20</text>
</g>
</g>
<g class="nonterminal">
<rect height="22" width="124" x="486" y="136"/>
<text x="548" y="152">
ignored-value</text>
</g>
<path d=" M 476 147 h 10"/>
</g>
</g>
<path d=" M 240 147 h 10"/>
<path d=" M 374 147 h 10"/>
</g>
</g>
<path d=" M 138 147 h 10"/>
</g>
<path d=" M 42 176 v 59 m 0 -26 l -5 -5 m 10 0 l -5 5 m 0 26 a 12 12 0 0 0 12 12 m 508 0 h 152 m -73 0 l -5 -5 m 0 10 l 5 -5 m 73 0 a 12 12 0 0 0 12 -12 v -59 m 0 32 l -5 5 m 10 0 l -5 -5 m 0 -32"/>
<g class="sequence">
<g class="terminal">
<rect height="22" rx="10" ry="10" width="52" x="54" y="236"/>
<text x="80" y="252">
ping</text>
</g>
<g class="optional">
<path d=" M 116 247 h 24 m -24 0 a 12 12 0 0 0 12 -12 v -47 a 12 12 0 0 1 12 -12 h 398 m -196 0 l -5 -5 m 0 10 l 5 -5 m 196 0 a 12 12 0 0 1 12 12 v 47 a 12 12 0 0 0 12 12 h -24"/>
<g class="sequence">
<g class="labeledbox">
<rect height="66" width="68" x="140" y="200"/>
<path d=" M 140 247 h 8 m 52 0 h 8"/>
<g>
<text class="comment" x="170" y="223">
SPACE</text>
</g>
<g class="terminal">
<rect height="22" rx="10" ry="10" width="52" x="148" y="236"/>
<text x="174" y="252">
\x20</text>
</g>
</g>
<g class="nonterminal">
<rect height="22" width="60" x="218" y="236"/>
<text x="248" y="252">
token</text>
</g>
<g class="optional">
<path d=" M 288 247 h 24 m -24 0 a 12 12 0 0 0 12 -12 v -35 a 12 12 0 0 1 12 -12 h 202 m -98 0 l -5 -5 m 0 10 l 5 -5 m 98 0 a 12 12 0 0 1 12 12 v 35 a 12 12 0 0 0 12 12 h -24"/>
<g class="sequence">
<g class="labeledbox">
<rect height="66" width="68" x="312" y="200"/>
<path d=" M 312 247 h 8 m 52 0 h 8"/>
<g>
<text class="comment" x="342" y="223">
SPACE</text>
</g>
<g class="terminal">
<rect height="22" rx="10" ry="10" width="52" x="320" y="236"/>
<text x="346" y="252">
\x20</text>
</g>
</g>
<g class="nonterminal">
<rect height="22" width="124" x="390" y="236"/>
<text x="452" y="252">
ignored-value</text>
</g>
<path d=" M 380 247 h 10"/>
</g>
</g>
<path d=" M 208 247 h 10"/>
<path d=" M 278 247 h 10"/>
</g>
</g>
<path d=" M 106 247 h 10"/>
</g>
<path d=" M 42 276 v 59 m 0 -26 l -5 -5 m 10 0 l -5 5 m 0 26 a 12 12 0 0 0 12 12 m 660 0 h 0 a 12 12 0 0 0 12 -12 v -59 m 0 32 l -5 5 m 10 0 l -5 -5 m 0 -32"/>
<g class="sequence">
<g class="choice">
<path d=" M 54 347 h 24 m 84 0 h 40"/>
<g class="terminal">
<rect height="22" rx="10" ry="10" width="84" x="78" y="336"/>
<text x="120" y="352">
activate</text>
</g>
<path d=" M 54 347 a 12 12 0 0 1 12 12 v 9 m 124 0 v -9 a 12 12 0 0 1 12 -12"/>
<path d=" M 66 368 v 0 a 12 12 0 0 0 12 12 m 100 0 h 0 a 12 12 0 0 0 12 -12 v 0"/>
<g class="terminal">
<rect height="22" rx="10" ry="10" width="100" x="78" y="369"/>
<text x="128" y="385">
deactivate</text>
</g>
</g>
<g class="optional">
<path d=" M 212 347 h 24 m -24 0 a 12 12 0 0 0 12 -12 v -47 a 12 12 0 0 1 12 -12 h 454 m -224 0 l -5 -5 m 0 10 l 5 -5 m 224 0 a 12 12 0 0 1 12 12 v 47 a 12 12 0 0 0 12 12 h -24"/>
<g class="sequence">
<g class="labeledbox">
<rect height="66" width="68" x="236" y="300"/>
<path d=" M 236 347 h 8 m 52 0 h 8"/>
<g>
<text class="comment" x="266" y="323">
SPACE</text>
</g>
<g class="terminal">
<rect height="22" rx="10" ry="10" width="52" x="244" y="336"/>
<text x="270" y="352">
\x20</text>
</g>
</g>
<g class="optional">
<path d=" M 314 347 h 24 m -24 0 a 12 12 0 0 0 12 -12 v 0 a 12 12 0 0 1 12 -12 h 68 m -31 0 l -5 -5 m 0 10 l 5 -5 m 31 0 a 12 12 0 0 1 12 12 v 0 a 12 12 0 0 0 12 12 h -24"/>
<g class="nonterminal">
<rect height="22" width="68" x="338" y="336"/>
<text x="372" y="352">
module</text>
</g>
</g>
<g class="optional">
<path d=" M 440 347 h 24 m -24 0 a 12 12 0 0 0 12 -12 v -35 a 12 12 0 0 1 12 -12 h 202 m -98 0 l -5 -5 m 0 10 l 5 -5 m 98 0 a 12 12 0 0 1 12 12 v 35 a 12 12 0 0 0 12 12 h -24"/>
<g class="sequence">
<g class="labeledbox">
<rect height="66" width="68" x="464" y="300"/>
<path d=" M 464 347 h 8 m 52 0 h 8"/>
<g>
<text class="comment" x="494" y="323">
SPACE</text>
</g>
<g class="terminal">
<rect height="22" rx="10" ry="10" width="52" x="472" y="336"/>
<text x="498" y="352">
\x20</text>
</g>
</g>
<g class="nonterminal">
<rect height="22" width="124" x="542" y="336"/>
<text x="604" y="352">
ignored-value</text>
</g>
<path d=" M 532 347 h 10"/>
</g>
</g>
<path d=" M 304 347 h 10"/>
<path d=" M 430 347 h 10"/>
</g>
</g>
<path d=" M 202 347 h 10"/>
</g>
<path d=" M 42 401 v 47 a 12 12 0 0 0 12 12 m 608 0 h 52 m -23 0 l -5 -5 m 0 10 l 5 -5 m 23 0 a 12 12 0 0 0 12 -12 v -47"/>
<g class="sequence">
<g class="terminal">
<rect height="22" rx="10" ry="10" width="52" x="54" y="449"/>
<text x="80" y="465">
read</text>
</g>
<g class="labeledbox">
<rect height="66" width="68" x="116" y="413"/>
<path d=" M 116 460 h 8 m 52 0 h 8"/>
<g>
<text class="comment" x="146" y="436">
SPACE</text>
</g>
<g class="terminal">
<rect height="22" rx="10" ry="10" width="52" x="124" y="449"/>
<text x="150" y="465">
\x20</text>
</g>
</g>
<g class="nonterminal">
<rect height="22" width="68" x="194" y="449"/>
<text x="228" y="465">
module</text>
</g>
<g class="terminal">
<rect height="22" rx="10" ry="10" width="28" x="272" y="449"/>
<text x="286" y="465">
:</text>
</g>
<g class="nonterminal">
<rect height="22" width="92" x="310" y="449"/>
<text x="356" y="465">
parameter</text>
</g>
<g class="optional">
<path d=" M 412 460 h 24 m -24 0 a 12 12 0 0 0 12 -12 v -35 a 12 12 0 0 1 12 -12 h 202 m -98 0 l -5 -5 m 0 10 l 5 -5 m 98 0 a 12 12 0 0 1 12 12 v 35 a 12 12 0 0 0 12 12 h -24"/>
<g class="sequence">
<g class="labeledbox">
<rect height="66" width="68" x="436" y="413"/>
<path d=" M 436 460 h 8 m 52 0 h 8"/>
<g>
<text class="comment" x="466" y="436">
SPACE</text>
</g>
<g class="terminal">
<rect height="22" rx="10" ry="10" width="52" x="444" y="449"/>
<text x="470" y="465">
\x20</text>
</g>
</g>
<g class="nonterminal">
<rect height="22" width="124" x="514" y="449"/>
<text x="576" y="465">
ignored-value</text>
</g>
<path d=" M 504 460 h 10"/>
</g>
</g>
<path d=" M 106 460 h 10"/>
<path d=" M 184 460 h 10"/>
<path d=" M 262 460 h 10"/>
<path d=" M 300 460 h 10"/>
<path d=" M 402 460 h 10"/>
</g>
<path d=" M 42 489 v 47 a 12 12 0 0 0 12 12 m 536 0 h 124 m -59 0 l -5 -5 m 0 10 l 5 -5 m 59 0 a 12 12 0 0 0 12 -12 v -47"/>
<g class="sequence">
<g class="terminal">
<rect height="22" rx="10" ry="10" width="36" x="54" y="537"/>
<text x="72" y="553">
do</text>
</g>
<g class="labeledbox">
<rect height="66" width="68" x="100" y="501"/>
<path d=" M 100 548 h 8 m 52 0 h 8"/>
<g>
<text class="comment" x="130" y="524">
SPACE</text>
</g>
<g class="terminal">
<rect height="22" rx="10" ry="10" width="52" x="108" y="537"/>
<text x="134" y="553">
\x20</text>
</g>
</g>
<g class="nonterminal">
<rect height="22" width="68" x="178" y="537"/>
<text x="212" y="553">
module</text>
</g>
<g class="terminal">
<rect height="22" rx="10" ry="10" width="28" x="256" y="537"/>
<text x="270" y="553">
:</text>
</g>
<g class="nonterminal">
<rect height="22" width="76" x="294" y="537"/>
<text x="332" y="553">
command</text>
</g>
<g class="optional">
<path d=" M 380 548 h 24 m -24 0 a 12 12 0 0 0 12 -12 v -35 a 12 12 0 0 1 12 -12 h 162 m -78 0 l -5 -5 m 0 10 l 5 -5 m 78 0 a 12 12 0 0 1 12 12 v 35 a 12 12 0 0 0 12 12 h -24"/>
<g class="sequence">
<g class="labeledbox">
<rect height="66" width="68" x="404" y="501"/>
<path d=" M 404 548 h 8 m 52 0 h 8"/>
<g>
<text class="comment" x="434" y="524">
SPACE</text>
</g>
<g class="terminal">
<rect height="22" rx="10" ry="10" width="52" x="412" y="537"/>
<text x="438" y="553">
\x20</text>
</g>
</g>
<g class="nonterminal">
<rect height="22" width="84" x="482" y="537"/>
<text x="524" y="553">
argument</text>
</g>
<path d=" M 472 548 h 10"/>
</g>
</g>
<path d=" M 90 548 h 10"/>
<path d=" M 168 548 h 10"/>
<path d=" M 246 548 h 10"/>
<path d=" M 284 548 h 10"/>
<path d=" M 370 548 h 10"/>
</g>
<path d=" M 42 577 v 35 a 12 12 0 0 0 12 12 m 544 0 h 116 m -55 0 l -5 -5 m 0 10 l 5 -5 m 55 0 a 12 12 0 0 0 12 -12 v -35"/>
<g class="sequence">
<g class="terminal">
<rect height="22" rx="10" ry="10" width="68" x="54" y="613"/>
<text x="88" y="629">
change</text>
</g>
<g class="labeledbox">
<rect height="66" width="68" x="132" y="577"/>
<path d=" M 132 624 h 8 m 52 0 h 8"/>
<g>
<text class="comment" x="162" y="600">
SPACE</text>
</g>
<g class="terminal">
<rect height="22" rx="10" ry="10" width="52" x="140" y="613"/>
<text x="166" y="629">
\x20</text>
</g>
</g>
<g class="nonterminal">
<rect height="22" width="68" x="210" y="613"/>
<text x="244" y="629">
module</text>
</g>
<g class="terminal">
<rect height="22" rx="10" ry="10" width="28" x="288" y="613"/>
<text x="302" y="629">
:</text>
</g>
<g class="nonterminal">
<rect height="22" width="92" x="326" y="613"/>
<text x="372" y="629">
parameter</text>
</g>
<g class="labeledbox">
<rect height="66" width="68" x="428" y="577"/>
<path d=" M 428 624 h 8 m 52 0 h 8"/>
<g>
<text class="comment" x="458" y="600">
SPACE</text>
</g>
<g class="terminal">
<rect height="22" rx="10" ry="10" width="52" x="436" y="613"/>
<text x="462" y="629">
\x20</text>
</g>
</g>
<g class="nonterminal">
<rect height="22" width="92" x="506" y="613"/>
<text x="552" y="629">
new value</text>
</g>
<path d=" M 122 624 h 10"/>
<path d=" M 200 624 h 10"/>
<path d=" M 278 624 h 10"/>
<path d=" M 316 624 h 10"/>
<path d=" M 418 624 h 10"/>
<path d=" M 496 624 h 10"/>
</g>
</g>
</g>
<path d=" M 748 55 h 5 m -5 5 l 5 -5 l -5 -5 m 5 5"/>
<path d=" M 20 55 h 10"/>
<path d=" M 738 55 h 10"/>
</g>
</g>
</svg>
