<svg class="railroad" viewBox="0 0 1071 687" xmlns="http://www.w3.org/2000/svg">
<style type="text/css">

    svg.railroad {
        background-color: hsl(30, 20%, 95%);
        background-size: 15px 15px;
        background-image: linear-gradient(to right, rgba(30, 30, 30, .05) 1px, transparent 1px),
                          linear-gradient(to bottom, rgba(30, 30, 30, .05) 1px, transparent 1px);
    }

    svg.railroad path {
        stroke-width: 3px;
        stroke: black;
        fill: transparent;
    }

    svg.railroad .debug {
        stroke-width: 1px;
        stroke: red;
    }

    svg.railroad text {
        font: 14px monospace;
        text-anchor: middle;
    }

    svg.railroad .nonterminal text {
        font-weight: bold;
    }

    svg.railroad text.comment {
        font: italic 12px monospace;
    }

    svg.railroad rect {
        stroke-width: 3px;
        stroke: black;
        fill:hsl(-290, 70%, 90%);
    }

    svg.railroad g.labeledbox > rect {
        stroke-width: 1px;
        stroke: grey;
        stroke-dasharray: 5px;
        fill:rgba(90, 90, 150, .1);
    }</style>
<g class="sequence">
<path d=" M 10 21 a 5 5 0 0 1 5 -5 a 5 5 0 0 1 5 5 a 5 5 0 0 1 -5 5 a 5 5 0 0 1 -5 -5 m 10 0 h 5"/>
<g class="sequence">
<text class="comment" x="113" y="26">
must-accept-requests</text>
<g class="choice">
<path d=" M 202 21 h 24 m 60 0 h 750 m -372 0 l -5 -5 m 0 10 l 5 -5 m 372 0"/>
<g class="terminal">
<rect height="22" rx="10" ry="10" width="60" x="226" y="10"/>
<text x="256" y="26">
*IDN?</text>
</g>
<path d=" M 202 21 a 12 12 0 0 1 12 12 v 9 m 810 0 v -9 a 12 12 0 0 1 12 -12"/>
<path d=" M 214 101 v 41 m 810 0 v -41"/>
<path d=" M 214 201 v 41 m 810 0 v -41"/>
<path d=" M 214 301 v 66 m 0 -30 l -5 -5 m 10 0 l -5 5 m 0 30 m 810 0 v -66 m 0 36 l -5 5 m 10 0 l -5 -5 m 0 -36"/>
<path d=" M 214 414 v 41 m 810 0 v -41"/>
<path d=" M 214 502 v 41 m 810 0 v -41"/>
<path d=" M 214 42 v 59 m 0 -26 l -5 -5 m 10 0 l -5 5 m 0 26 a 12 12 0 0 0 12 12 m 590 0 h 196 m -95 0 l -5 -5 m 0 10 l 5 -5 m 95 0 a 12 12 0 0 0 12 -12 v -59 m 0 32 l -5 5 m 10 0 l -5 -5 m 0 -32"/>
<g class="sequence">
<g class="terminal">
<rect height="22" rx="10" ry="10" width="84" x="226" y="102"/>
<text x="268" y="118">
describe</text>
</g>
<g class="optional">
<path d=" M 320 113 h 24 m -24 0 a 12 12 0 0 0 12 -12 v -47 a 12 12 0 0 1 12 -12 h 448 m -221 0 l -5 -5 m 0 10 l 5 -5 m 221 0 a 12 12 0 0 1 12 12 v 47 a 12 12 0 0 0 12 12 h -24"/>
<g class="sequence">
<g class="labeledbox">
<rect height="66" width="61" x="344" y="66"/>
<path d=" M 344 113 h 8 m 44 0 h 9"/>
<text class="comment" x="374" y="89">
SPACE</text>
<g class="terminal">
<rect height="22" rx="10" ry="10" width="44" x="352" y="102"/>
<text x="374" y="118">
x20</text>
</g>
</g>
<g class="nonterminal">
<rect height="22" width="124" x="415" y="102"/>
<text x="477" y="118">
ignored-value</text>
</g>
<g class="optional">
<path d=" M 549 113 h 24 m -24 0 a 12 12 0 0 0 12 -12 v -35 a 12 12 0 0 1 12 -12 h 195 m -94 0 l -5 -5 m 0 10 l 5 -5 m 94 0 a 12 12 0 0 1 12 12 v 35 a 12 12 0 0 0 12 12 h -24"/>
<g class="sequence">
<g class="labeledbox">
<rect height="66" width="61" x="573" y="66"/>
<path d=" M 573 113 h 8 m 44 0 h 9"/>
<text class="comment" x="603" y="89">
SPACE</text>
<g class="terminal">
<rect height="22" rx="10" ry="10" width="44" x="581" y="102"/>
<text x="603" y="118">
x20</text>
</g>
</g>
<g class="nonterminal">
<rect height="22" width="124" x="644" y="102"/>
<text x="706" y="118">
ignored-value</text>
</g>
<path d=" M 634 113 h 10"/>
</g>
</g>
<path d=" M 405 113 h 10"/>
<path d=" M 539 113 h 10"/>
</g>
</g>
<path d=" M 310 113 h 10"/>
</g>
<path d=" M 214 142 v 59 m 0 -26 l -5 -5 m 10 0 l -5 5 m 0 26 a 12 12 0 0 0 12 12 m 494 0 h 292 m -143 0 l -5 -5 m 0 10 l 5 -5 m 143 0 a 12 12 0 0 0 12 -12 v -59 m 0 32 l -5 5 m 10 0 l -5 -5 m 0 -32"/>
<g class="sequence">
<g class="terminal">
<rect height="22" rx="10" ry="10" width="52" x="226" y="202"/>
<text x="252" y="218">
ping</text>
</g>
<g class="optional">
<path d=" M 288 213 h 24 m -24 0 a 12 12 0 0 0 12 -12 v -47 a 12 12 0 0 1 12 -12 h 384 m -189 0 l -5 -5 m 0 10 l 5 -5 m 189 0 a 12 12 0 0 1 12 12 v 47 a 12 12 0 0 0 12 12 h -24"/>
<g class="sequence">
<g class="labeledbox">
<rect height="66" width="61" x="312" y="166"/>
<path d=" M 312 213 h 8 m 44 0 h 9"/>
<text class="comment" x="342" y="189">
SPACE</text>
<g class="terminal">
<rect height="22" rx="10" ry="10" width="44" x="320" y="202"/>
<text x="342" y="218">
x20</text>
</g>
</g>
<g class="nonterminal">
<rect height="22" width="60" x="383" y="202"/>
<text x="413" y="218">
token</text>
</g>
<g class="optional">
<path d=" M 453 213 h 24 m -24 0 a 12 12 0 0 0 12 -12 v -35 a 12 12 0 0 1 12 -12 h 195 m -94 0 l -5 -5 m 0 10 l 5 -5 m 94 0 a 12 12 0 0 1 12 12 v 35 a 12 12 0 0 0 12 12 h -24"/>
<g class="sequence">
<g class="labeledbox">
<rect height="66" width="61" x="477" y="166"/>
<path d=" M 477 213 h 8 m 44 0 h 9"/>
<text class="comment" x="507" y="189">
SPACE</text>
<g class="terminal">
<rect height="22" rx="10" ry="10" width="44" x="485" y="202"/>
<text x="507" y="218">
x20</text>
</g>
</g>
<g class="nonterminal">
<rect height="22" width="124" x="548" y="202"/>
<text x="610" y="218">
ignored-value</text>
</g>
<path d=" M 538 213 h 10"/>
</g>
</g>
<path d=" M 373 213 h 10"/>
<path d=" M 443 213 h 10"/>
</g>
</g>
<path d=" M 278 213 h 10"/>
</g>
<path d=" M 214 242 v 59 m 0 -26 l -5 -5 m 10 0 l -5 5 m 0 26 a 12 12 0 0 0 12 12 m 786 0 h 0 a 12 12 0 0 0 12 -12 v -59 m 0 32 l -5 5 m 10 0 l -5 -5 m 0 -32"/>
<g class="sequence">
<g class="choice">
<path d=" M 226 313 h 24 m 84 0 h 40"/>
<g class="terminal">
<rect height="22" rx="10" ry="10" width="84" x="250" y="302"/>
<text x="292" y="318">
activate</text>
</g>
<path d=" M 226 313 a 12 12 0 0 1 12 12 v 9 m 124 0 v -9 a 12 12 0 0 1 12 -12"/>
<path d=" M 238 334 v 0 a 12 12 0 0 0 12 12 m 100 0 h 0 a 12 12 0 0 0 12 -12 v 0"/>
<g class="terminal">
<rect height="22" rx="10" ry="10" width="100" x="250" y="335"/>
<text x="300" y="351">
deactivate</text>
</g>
</g>
<g class="optional">
<path d=" M 384 313 h 24 m -24 0 a 12 12 0 0 0 12 -12 v -47 a 12 12 0 0 1 12 -12 h 580 m -287 0 l -5 -5 m 0 10 l 5 -5 m 287 0 a 12 12 0 0 1 12 12 v 47 a 12 12 0 0 0 12 12 h -24"/>
<g class="sequence">
<g class="labeledbox">
<rect height="66" width="61" x="408" y="266"/>
<path d=" M 408 313 h 8 m 44 0 h 9"/>
<text class="comment" x="438" y="289">
SPACE</text>
<g class="terminal">
<rect height="22" rx="10" ry="10" width="44" x="416" y="302"/>
<text x="438" y="318">
x20</text>
</g>
</g>
<g class="nonterminal">
<rect height="22" width="68" x="479" y="302"/>
<text x="513" y="318">
module</text>
</g>
<g class="optional">
<path d=" M 557 313 h 24 m -24 0 a 12 12 0 0 0 12 -12 v 0 a 12 12 0 0 1 12 -12 h 130 m -62 0 l -5 -5 m 0 10 l 5 -5 m 62 0 a 12 12 0 0 1 12 12 v 0 a 12 12 0 0 0 12 12 h -24"/>
<g class="sequence">
<g class="terminal">
<rect height="22" rx="10" ry="10" width="28" x="581" y="302"/>
<text x="595" y="318">
:</text>
</g>
<g class="nonterminal">
<rect height="22" width="92" x="619" y="302"/>
<text x="665" y="318">
parameter</text>
</g>
<path d=" M 609 313 h 10"/>
</g>
</g>
<g class="optional">
<path d=" M 745 313 h 24 m -24 0 a 12 12 0 0 0 12 -12 v -35 a 12 12 0 0 1 12 -12 h 195 m -94 0 l -5 -5 m 0 10 l 5 -5 m 94 0 a 12 12 0 0 1 12 12 v 35 a 12 12 0 0 0 12 12 h -24"/>
<g class="sequence">
<g class="labeledbox">
<rect height="66" width="61" x="769" y="266"/>
<path d=" M 769 313 h 8 m 44 0 h 9"/>
<text class="comment" x="799" y="289">
SPACE</text>
<g class="terminal">
<rect height="22" rx="10" ry="10" width="44" x="777" y="302"/>
<text x="799" y="318">
x20</text>
</g>
</g>
<g class="nonterminal">
<rect height="22" width="124" x="840" y="302"/>
<text x="902" y="318">
ignored-value</text>
</g>
<path d=" M 830 313 h 10"/>
</g>
</g>
<path d=" M 469 313 h 10"/>
<path d=" M 547 313 h 10"/>
<path d=" M 735 313 h 10"/>
</g>
</g>
<path d=" M 374 313 h 10"/>
</g>
<path d=" M 214 367 v 47 a 12 12 0 0 0 12 12 m 522 0 h 264 m -129 0 l -5 -5 m 0 10 l 5 -5 m 129 0 a 12 12 0 0 0 12 -12 v -47"/>
<g class="sequence">
<g class="terminal">
<rect height="22" rx="10" ry="10" width="36" x="226" y="415"/>
<text x="244" y="431">
do</text>
</g>
<g class="labeledbox">
<rect height="66" width="61" x="272" y="379"/>
<path d=" M 272 426 h 8 m 44 0 h 9"/>
<text class="comment" x="302" y="402">
SPACE</text>
<g class="terminal">
<rect height="22" rx="10" ry="10" width="44" x="280" y="415"/>
<text x="302" y="431">
x20</text>
</g>
</g>
<g class="nonterminal">
<rect height="22" width="68" x="343" y="415"/>
<text x="377" y="431">
module</text>
</g>
<g class="terminal">
<rect height="22" rx="10" ry="10" width="28" x="421" y="415"/>
<text x="435" y="431">
:</text>
</g>
<g class="nonterminal">
<rect height="22" width="76" x="459" y="415"/>
<text x="497" y="431">
command</text>
</g>
<g class="optional">
<path d=" M 545 426 h 24 m -24 0 a 12 12 0 0 0 12 -12 v -35 a 12 12 0 0 1 12 -12 h 155 m -74 0 l -5 -5 m 0 10 l 5 -5 m 74 0 a 12 12 0 0 1 12 12 v 35 a 12 12 0 0 0 12 12 h -24"/>
<g class="sequence">
<g class="labeledbox">
<rect height="66" width="61" x="569" y="379"/>
<path d=" M 569 426 h 8 m 44 0 h 9"/>
<text class="comment" x="599" y="402">
SPACE</text>
<g class="terminal">
<rect height="22" rx="10" ry="10" width="44" x="577" y="415"/>
<text x="599" y="431">
x20</text>
</g>
</g>
<g class="nonterminal">
<rect height="22" width="84" x="640" y="415"/>
<text x="682" y="431">
argument</text>
</g>
<path d=" M 630 426 h 10"/>
</g>
</g>
<path d=" M 262 426 h 10"/>
<path d=" M 333 426 h 10"/>
<path d=" M 411 426 h 10"/>
<path d=" M 449 426 h 10"/>
<path d=" M 535 426 h 10"/>
</g>
<path d=" M 214 455 v 47 a 12 12 0 0 0 12 12 m 594 0 h 192 m -93 0 l -5 -5 m 0 10 l 5 -5 m 93 0 a 12 12 0 0 0 12 -12 v -47"/>
<g class="sequence">
<g class="terminal">
<rect height="22" rx="10" ry="10" width="52" x="226" y="503"/>
<text x="252" y="519">
read</text>
</g>
<g class="labeledbox">
<rect height="66" width="61" x="288" y="467"/>
<path d=" M 288 514 h 8 m 44 0 h 9"/>
<text class="comment" x="318" y="490">
SPACE</text>
<g class="terminal">
<rect height="22" rx="10" ry="10" width="44" x="296" y="503"/>
<text x="318" y="519">
x20</text>
</g>
</g>
<g class="nonterminal">
<rect height="22" width="68" x="359" y="503"/>
<text x="393" y="519">
module</text>
</g>
<g class="terminal">
<rect height="22" rx="10" ry="10" width="28" x="437" y="503"/>
<text x="451" y="519">
:</text>
</g>
<g class="nonterminal">
<rect height="22" width="92" x="475" y="503"/>
<text x="521" y="519">
parameter</text>
</g>
<g class="optional">
<path d=" M 577 514 h 24 m -24 0 a 12 12 0 0 0 12 -12 v -35 a 12 12 0 0 1 12 -12 h 195 m -94 0 l -5 -5 m 0 10 l 5 -5 m 94 0 a 12 12 0 0 1 12 12 v 35 a 12 12 0 0 0 12 12 h -24"/>
<g class="sequence">
<g class="labeledbox">
<rect height="66" width="61" x="601" y="467"/>
<path d=" M 601 514 h 8 m 44 0 h 9"/>
<text class="comment" x="631" y="490">
SPACE</text>
<g class="terminal">
<rect height="22" rx="10" ry="10" width="44" x="609" y="503"/>
<text x="631" y="519">
x20</text>
</g>
</g>
<g class="nonterminal">
<rect height="22" width="124" x="672" y="503"/>
<text x="734" y="519">
ignored-value</text>
</g>
<path d=" M 662 514 h 10"/>
</g>
</g>
<path d=" M 278 514 h 10"/>
<path d=" M 349 514 h 10"/>
<path d=" M 427 514 h 10"/>
<path d=" M 465 514 h 10"/>
<path d=" M 567 514 h 10"/>
</g>
<path d=" M 214 543 v 35 a 12 12 0 0 0 12 12 m 746 0 h 40 a 12 12 0 0 0 12 -12 v -35"/>
<g class="sequence">
<g class="choice">
<path d=" M 226 590 h 24 m 68 0 h 192 m -93 0 l -5 -5 m 0 10 l 5 -5 m 93 0"/>
<g class="terminal">
<rect height="22" rx="10" ry="10" width="68" x="250" y="579"/>
<text x="284" y="595">
change</text>
</g>
<path d=" M 226 590 a 12 12 0 0 1 12 12 v 9 m 260 0 v -9 a 12 12 0 0 1 12 -12"/>
<path d=" M 238 611 v 35 a 12 12 0 0 0 12 12 m 236 0 h 0 a 12 12 0 0 0 12 -12 v -35"/>
<g class="labeledbox">
<rect height="66" width="236" x="250" y="611"/>
<path d=" M 250 658 h 8 m 68 0 h 160 m -77 0 l -5 -5 m 0 10 l 5 -5 m 77 0"/>
<text class="comment" x="368" y="634">
not yet defined, see Issue 29</text>
<g class="terminal">
<rect height="22" rx="10" ry="10" width="68" x="258" y="647"/>
<text x="292" y="663">
buffer</text>
</g>
</g>
</g>
<g class="labeledbox">
<rect height="66" width="61" x="520" y="543"/>
<path d=" M 520 590 h 8 m 44 0 h 9"/>
<text class="comment" x="550" y="566">
SPACE</text>
<g class="terminal">
<rect height="22" rx="10" ry="10" width="44" x="528" y="579"/>
<text x="550" y="595">
x20</text>
</g>
</g>
<g class="nonterminal">
<rect height="22" width="68" x="591" y="579"/>
<text x="625" y="595">
module</text>
</g>
<g class="terminal">
<rect height="22" rx="10" ry="10" width="28" x="669" y="579"/>
<text x="683" y="595">
:</text>
</g>
<g class="nonterminal">
<rect height="22" width="92" x="707" y="579"/>
<text x="753" y="595">
parameter</text>
</g>
<g class="labeledbox">
<rect height="66" width="61" x="809" y="543"/>
<path d=" M 809 590 h 8 m 44 0 h 9"/>
<text class="comment" x="839" y="566">
SPACE</text>
<g class="terminal">
<rect height="22" rx="10" ry="10" width="44" x="817" y="579"/>
<text x="839" y="595">
x20</text>
</g>
</g>
<g class="nonterminal">
<rect height="22" width="92" x="880" y="579"/>
<text x="926" y="595">
new value</text>
</g>
<path d=" M 510 590 h 10"/>
<path d=" M 581 590 h 10"/>
<path d=" M 659 590 h 10"/>
<path d=" M 697 590 h 10"/>
<path d=" M 799 590 h 10"/>
<path d=" M 870 590 h 10"/>
</g>
</g>
<path d=" M 192 21 h 10"/>
</g>
<path d=" M 1046 21 h 5 a 5 5 0 0 1 5 -5 a 5 5 0 0 1 5 5 a 5 5 0 0 1 -5 5 a 5 5 0 0 1 -5 -5"/>
<path d=" M 25 21 h 10"/>
<path d=" M 1036 21 h 10"/>
</g>
</svg>
