<svg class="railroad" viewBox="0 0 1168 762" xmlns="http://www.w3.org/2000/svg">
<style type="text/css">

    svg.railroad {
        background-color: hsl(30, 20%, 95%);
        background-size: 15px 15px;
        background-image: linear-gradient(to right, rgba(30, 30, 30, .05) 1px, transparent 1px),
                          linear-gradient(to bottom, rgba(30, 30, 30, .05) 1px, transparent 1px);
    }

    svg.railroad path {
        stroke-width: 3px;
        stroke: black;
        fill: transparent;
    }

    svg.railroad .debug {
        stroke-width: 1px;
        stroke: red;
    }

    svg.railroad text {
        font: 14px monospace;
        text-anchor: middle;
    }

    svg.railroad .nonterminal text {
        font-weight: bold;
    }

    svg.railroad text.comment {
        font: italic 12px monospace;
    }

    svg.railroad rect {
        stroke-width: 3px;
        stroke: black;
        fill:hsl(-290, 70%, 90%);
    }

    svg.railroad g.labeledbox > rect {
        stroke-width: 1px;
        stroke: grey;
        stroke-dasharray: 5px;
        fill:rgba(90, 90, 150, .1);
    }</style>
<g class="sequence">
<path d=" M 10 21 a 5 5 0 0 1 5 -5 a 5 5 0 0 1 5 5 a 5 5 0 0 1 -5 5 a 5 5 0 0 1 -5 -5 m 10 0 h 5"/>
<g class="sequence">
<text class="comment" x="106" y="26">
must-accept-replies</text>
<g class="choice">
<path d=" M 188 21 h 24 m 502 0 h 419 m -206 0 l -5 -5 m 0 10 l 5 -5 m 206 0"/>
<g class="sequence">
<g class="terminal">
<rect height="22" rx="10" ry="10" width="188" x="212" y="10"/>
<text x="306" y="26">
ISSE&amp;SINE2020,SECoP,</text>
</g>
<g class="nonterminal">
<rect height="22" width="124" x="410" y="10"/>
<text x="472" y="26">
secop-version</text>
</g>
<g class="terminal">
<rect height="22" rx="10" ry="10" width="28" x="544" y="10"/>
<text x="558" y="26">
,</text>
</g>
<g class="nonterminal">
<rect height="22" width="132" x="582" y="10"/>
<text x="648" y="26">
secop-revision</text>
</g>
<path d=" M 400 21 h 10"/>
<path d=" M 534 21 h 10"/>
<path d=" M 572 21 h 10"/>
</g>
<path d=" M 188 21 a 12 12 0 0 1 12 12 v 9 m 921 0 v -9 a 12 12 0 0 1 12 -12"/>
<path d=" M 200 77 v 41 m 921 0 v -41"/>
<path d=" M 200 142 v 183 m 0 -88 l -5 -5 m 10 0 l -5 5 m 0 88 m 921 0 v -183 m 0 94 l -5 5 m 10 0 l -5 -5 m 0 -94"/>
<path d=" M 200 360 v 73 m 0 -33 l -5 -5 m 10 0 l -5 5 m 0 33 m 921 0 v -73 m 0 39 l -5 5 m 10 0 l -5 -5 m 0 -39"/>
<path d=" M 200 42 v 35 a 12 12 0 0 0 12 12 m 399 0 h 498 m -246 0 l -5 -5 m 0 10 l 5 -5 m 246 0 a 12 12 0 0 0 12 -12 v -35"/>
<g class="sequence">
<g class="terminal">
<rect height="22" rx="10" ry="10" width="100" x="212" y="78"/>
<text x="262" y="94">
describing</text>
</g>
<g class="labeledbox">
<rect height="66" width="131" x="322" y="42"/>
<path d=" M 322 89 h 8 m 92 0 h 31"/>
<text class="comment" x="387" y="65">
SPACE dot SPACE</text>
<g class="terminal">
<rect height="22" rx="10" ry="10" width="92" x="330" y="78"/>
<text x="376" y="94">
\x20.\x20</text>
</g>
</g>
<g class="nonterminal">
<rect height="22" width="148" x="463" y="78"/>
<text x="537" y="94">
structure-report</text>
</g>
<path d=" M 312 89 h 10"/>
<path d=" M 453 89 h 10"/>
</g>
<path d=" M 200 118 v 24 a 12 12 0 0 0 12 12 m 897 0 h 0 a 12 12 0 0 0 12 -12 v -24"/>
<g class="sequence">
<g class="choice">
<path d=" M 212 154 h 24 m 68 0 h 40"/>
<g class="terminal">
<rect height="22" rx="10" ry="10" width="68" x="236" y="143"/>
<text x="270" y="159">
active</text>
</g>
<path d=" M 212 154 a 12 12 0 0 1 12 12 v 9 m 108 0 v -9 a 12 12 0 0 1 12 -12"/>
<path d=" M 224 175 v 0 a 12 12 0 0 0 12 12 m 84 0 h 0 a 12 12 0 0 0 12 -12 v 0"/>
<g class="terminal">
<rect height="22" rx="10" ry="10" width="84" x="236" y="176"/>
<text x="278" y="192">
inactive</text>
</g>
</g>
<g class="choice">
<path d=" M 354 154 h 24 m 187 0 h 544 m -269 0 l -5 -5 m 0 10 l 5 -5 m 269 0"/>
<g class="labeledbox">
<rect height="44" width="187" x="378" y="118"/>
<path d=" M 378 154 h 8 m 0 0 h 179 m -86 0 l -5 -5 m 0 10 l 5 -5 m 86 0"/>
<text class="comment" x="471" y="141">
global (de-)activation</text>
<g/>
</g>
<path d=" M 354 154 a 12 12 0 0 1 12 12 v 6 m 731 0 v -6 a 12 12 0 0 1 12 -12"/>
<path d=" M 366 172 v 47 a 12 12 0 0 0 12 12 m 707 0 h 0 a 12 12 0 0 0 12 -12 v -47"/>
<g class="sequence">
<g class="labeledbox">
<rect height="66" width="68" x="378" y="184"/>
<path d=" M 378 231 h 8 m 52 0 h 8"/>
<text class="comment" x="408" y="207">
SPACE</text>
<g class="terminal">
<rect height="22" rx="10" ry="10" width="52" x="386" y="220"/>
<text x="412" y="236">
\x20</text>
</g>
</g>
<g class="nonterminal">
<rect height="22" width="68" x="456" y="220"/>
<text x="490" y="236">
module</text>
</g>
<g class="choice">
<path d=" M 534 231 h 24 m 222 0 h 45"/>
<g class="labeledbox">
<rect height="44" width="222" x="558" y="195"/>
<path d=" M 558 231 h 8 m 0 0 h 214 m -104 0 l -5 -5 m 0 10 l 5 -5 m 104 0"/>
<text class="comment" x="669" y="218">
module-wise (de-)activation</text>
<g/>
</g>
<path d=" M 534 231 a 12 12 0 0 1 12 12 v 6 m 267 0 v -6 a 12 12 0 0 1 12 -12"/>
<path d=" M 546 249 v 35 a 12 12 0 0 0 12 12 m 243 0 h 0 a 12 12 0 0 0 12 -12 v -35"/>
<g class="labeledbox">
<rect height="66" width="243" x="558" y="249"/>
<path d=" M 558 296 h 8 m 130 0 h 105 m -49 0 l -5 -5 m 0 10 l 5 -5 m 49 0"/>
<text class="comment" x="679" y="272">
parameter-wise (de-)activation</text>
<g class="sequence">
<g class="terminal">
<rect height="22" rx="10" ry="10" width="28" x="566" y="285"/>
<text x="580" y="301">
:</text>
</g>
<g class="nonterminal">
<rect height="22" width="92" x="604" y="285"/>
<text x="650" y="301">
parameter</text>
</g>
<path d=" M 594 296 h 10"/>
</g>
</g>
</g>
<g class="optional">
<path d=" M 835 231 h 24 m -24 0 a 12 12 0 0 0 12 -12 v -35 a 12 12 0 0 1 12 -12 h 202 m -98 0 l -5 -5 m 0 10 l 5 -5 m 98 0 a 12 12 0 0 1 12 12 v 35 a 12 12 0 0 0 12 12 h -24"/>
<g class="sequence">
<g class="labeledbox">
<rect height="66" width="68" x="859" y="184"/>
<path d=" M 859 231 h 8 m 52 0 h 8"/>
<text class="comment" x="889" y="207">
SPACE</text>
<g class="terminal">
<rect height="22" rx="10" ry="10" width="52" x="867" y="220"/>
<text x="893" y="236">
\x20</text>
</g>
</g>
<g class="nonterminal">
<rect height="22" width="124" x="937" y="220"/>
<text x="999" y="236">
ignored-value</text>
</g>
<path d=" M 927 231 h 10"/>
</g>
</g>
<path d=" M 446 231 h 10"/>
<path d=" M 524 231 h 10"/>
<path d=" M 825 231 h 10"/>
</g>
</g>
<path d=" M 344 154 h 10"/>
</g>
<path d=" M 200 325 v 35 a 12 12 0 0 0 12 12 m 581 0 h 316 m -155 0 l -5 -5 m 0 10 l 5 -5 m 155 0 a 12 12 0 0 0 12 -12 v -35"/>
<g class="sequence">
<g class="terminal">
<rect height="22" rx="10" ry="10" width="60" x="212" y="361"/>
<text x="242" y="377">
error</text>
</g>
<g class="labeledbox">
<rect height="66" width="68" x="282" y="325"/>
<path d=" M 282 372 h 8 m 52 0 h 8"/>
<text class="comment" x="312" y="348">
SPACE</text>
<g class="terminal">
<rect height="22" rx="10" ry="10" width="52" x="290" y="361"/>
<text x="316" y="377">
\x20</text>
</g>
</g>
<g class="labeledbox">
<rect height="98" width="229" x="360" y="325"/>
<path d=" M 360 372 h 8 m 186 0 h 35"/>
<text class="comment" x="474" y="348">
error-subclass to be defined</text>
<g class="repeat">
<path d=" M 368 372 h 12 m 108 0 h 66 m -30 0 l -5 -5 m 0 10 l 5 -5 m 30 0 m -12 0 a 12 12 0 0 1 12 12 v 8 a 12 12 0 0 1 -12 12 m -162 0 h 0 a 12 12 0 0 1 -12 -12 v -8 a 12 12 0 0 1 12 -12"/>
<g class="sequence">
<g class="terminal">
<rect height="22" rx="10" ry="10" width="28" x="380" y="393"/>
<text x="394" y="409">
:</text>
</g>
<g class="nonterminal">
<rect height="22" width="124" x="418" y="393"/>
<text x="480" y="409">
ignored-value</text>
</g>
<path d=" M 408 404 h 10"/>
</g>
<g class="nonterminal">
<rect height="22" width="108" x="380" y="361"/>
<text x="434" y="377">
error-class</text>
</g>
</g>
</g>
<g class="labeledbox">
<rect height="66" width="68" x="599" y="325"/>
<path d=" M 599 372 h 8 m 52 0 h 8"/>
<text class="comment" x="629" y="348">
SPACE</text>
<g class="terminal">
<rect height="22" rx="10" ry="10" width="52" x="607" y="361"/>
<text x="633" y="377">
\x20</text>
</g>
</g>
<g class="nonterminal">
<rect height="22" width="116" x="677" y="361"/>
<text x="735" y="377">
error-report</text>
</g>
<path d=" M 272 372 h 10"/>
<path d=" M 350 372 h 10"/>
<path d=" M 589 372 h 10"/>
<path d=" M 667 372 h 10"/>
</g>
<path d=" M 200 433 v 35 a 12 12 0 0 0 12 12 m 698 0 h 199 m -96 0 l -5 -5 m 0 10 l 5 -5 m 96 0 a 12 12 0 0 0 12 -12 v -35"/>
<g class="sequence">
<g class="choice">
<path d=" M 212 480 h 24 m 248 0 h 230 m -112 0 l -5 -5 m 0 10 l 5 -5 m 112 0"/>
<g class="sequence">
<g class="terminal">
<rect height="22" rx="10" ry="10" width="52" x="236" y="469"/>
<text x="262" y="485">
pong</text>
</g>
<g class="labeledbox">
<rect height="66" width="68" x="298" y="433"/>
<path d=" M 298 480 h 8 m 52 0 h 8"/>
<text class="comment" x="328" y="456">
SPACE</text>
<g class="terminal">
<rect height="22" rx="10" ry="10" width="52" x="306" y="469"/>
<text x="332" y="485">
\x20</text>
</g>
</g>
<g class="optional">
<path d=" M 376 480 h 24 m -24 0 a 12 12 0 0 0 12 -12 v 0 a 12 12 0 0 1 12 -12 h 60 m -27 0 l -5 -5 m 0 10 l 5 -5 m 27 0 a 12 12 0 0 1 12 12 v 0 a 12 12 0 0 0 12 12 h -24"/>
<g class="nonterminal">
<rect height="22" width="60" x="400" y="469"/>
<text x="430" y="485">
token</text>
</g>
</g>
<path d=" M 288 480 h 10"/>
<path d=" M 366 480 h 10"/>
</g>
<path d=" M 212 480 a 12 12 0 0 1 12 12 v 17 m 478 0 v -17 a 12 12 0 0 1 12 -12"/>
<path d=" M 224 544 v 41 m 478 0 v -41"/>
<path d=" M 224 509 v 35 a 12 12 0 0 0 12 12 m 332 0 h 122 m -58 0 l -5 -5 m 0 10 l 5 -5 m 58 0 a 12 12 0 0 0 12 -12 v -35"/>
<g class="sequence">
<g class="terminal">
<rect height="22" rx="10" ry="10" width="52" x="236" y="545"/>
<text x="262" y="561">
done</text>
</g>
<g class="labeledbox">
<rect height="66" width="68" x="298" y="509"/>
<path d=" M 298 556 h 8 m 52 0 h 8"/>
<text class="comment" x="328" y="532">
SPACE</text>
<g class="terminal">
<rect height="22" rx="10" ry="10" width="52" x="306" y="545"/>
<text x="332" y="561">
\x20</text>
</g>
</g>
<g class="nonterminal">
<rect height="22" width="68" x="376" y="545"/>
<text x="410" y="561">
module</text>
</g>
<g class="terminal">
<rect height="22" rx="10" ry="10" width="28" x="454" y="545"/>
<text x="468" y="561">
:</text>
</g>
<g class="nonterminal">
<rect height="22" width="76" x="492" y="545"/>
<text x="530" y="561">
command</text>
</g>
<path d=" M 288 556 h 10"/>
<path d=" M 366 556 h 10"/>
<path d=" M 444 556 h 10"/>
<path d=" M 482 556 h 10"/>
</g>
<path d=" M 224 585 v 35 a 12 12 0 0 0 12 12 m 454 0 h 0 a 12 12 0 0 0 12 -12 v -35"/>
<g class="sequence">
<g class="choice">
<path d=" M 236 632 h 24 m 68 0 h 66 m -30 0 l -5 -5 m 0 10 l 5 -5 m 30 0"/>
<g class="terminal">
<rect height="22" rx="10" ry="10" width="68" x="260" y="621"/>
<text x="294" y="637">
update</text>
</g>
<path d=" M 236 632 a 12 12 0 0 1 12 12 v 9 m 134 0 v -9 a 12 12 0 0 1 12 -12"/>
<path d=" M 248 653 v 33 m 134 0 v -33"/>
<path d=" M 248 653 v 0 a 12 12 0 0 0 12 12 m 76 0 h 34 a 12 12 0 0 0 12 -12 v 0"/>
<g class="terminal">
<rect height="22" rx="10" ry="10" width="76" x="260" y="654"/>
<text x="298" y="670">
changed</text>
</g>
<path d=" M 248 686 v 35 a 12 12 0 0 0 12 12 m 110 0 h 0 a 12 12 0 0 0 12 -12 v -35"/>
<g class="labeledbox">
<rect height="66" width="110" x="260" y="686"/>
<path d=" M 260 733 h 8 m 84 0 h 18"/>
<text class="comment" x="315" y="709">
see Issue 29</text>
<g class="terminal">
<rect height="22" rx="10" ry="10" width="84" x="268" y="722"/>
<text x="310" y="738">
buffered</text>
</g>
</g>
</g>
<g class="labeledbox">
<rect height="66" width="68" x="404" y="585"/>
<path d=" M 404 632 h 8 m 52 0 h 8"/>
<text class="comment" x="434" y="608">
SPACE</text>
<g class="terminal">
<rect height="22" rx="10" ry="10" width="52" x="412" y="621"/>
<text x="438" y="637">
\x20</text>
</g>
</g>
<g class="nonterminal">
<rect height="22" width="68" x="482" y="621"/>
<text x="516" y="637">
module</text>
</g>
<g class="terminal">
<rect height="22" rx="10" ry="10" width="28" x="560" y="621"/>
<text x="574" y="637">
:</text>
</g>
<g class="nonterminal">
<rect height="22" width="92" x="598" y="621"/>
<text x="644" y="637">
parameter</text>
</g>
<path d=" M 394 632 h 10"/>
<path d=" M 472 632 h 10"/>
<path d=" M 550 632 h 10"/>
<path d=" M 588 632 h 10"/>
</g>
</g>
<g class="labeledbox">
<rect height="66" width="68" x="724" y="433"/>
<path d=" M 724 480 h 8 m 52 0 h 8"/>
<text class="comment" x="754" y="456">
SPACE</text>
<g class="terminal">
<rect height="22" rx="10" ry="10" width="52" x="732" y="469"/>
<text x="758" y="485">
\x20</text>
</g>
</g>
<g class="nonterminal">
<rect height="22" width="108" x="802" y="469"/>
<text x="856" y="485">
data-report</text>
</g>
<path d=" M 714 480 h 10"/>
<path d=" M 792 480 h 10"/>
</g>
</g>
<path d=" M 178 21 h 10"/>
</g>
<path d=" M 1143 21 h 5 a 5 5 0 0 1 5 -5 a 5 5 0 0 1 5 5 a 5 5 0 0 1 -5 5 a 5 5 0 0 1 -5 -5"/>
<path d=" M 25 21 h 10"/>
<path d=" M 1133 21 h 10"/>
</g>
</svg>
