<svg class="railroad" viewBox="0 0 1138 762" width="1138" xmlns="http://www.w3.org/2000/svg">
<style type="text/css">

    svg.railroad {
        background-color: hsl(30, 20%, 95%);
        background-size: 15px 15px;
        background-image: linear-gradient(to right, rgba(30, 30, 30, .05) 1px, transparent 1px),
                          linear-gradient(to bottom, rgba(30, 30, 30, .05) 1px, transparent 1px);
    }

    svg.railroad path {
        stroke-width: 3px;
        stroke: black;
        fill: transparent;
    }

    svg.railroad .debug {
        stroke-width: 1px;
        stroke: red;
    }

    svg.railroad text {
        font: 14px monospace;
        text-anchor: middle;
    }

    svg.railroad .nonterminal text {
        font-weight: bold;
    }

    svg.railroad text.comment {
        font: italic 12px monospace;
    }

    svg.railroad rect {
        stroke-width: 3px;
        stroke: black;
        fill:hsl(-290, 70%, 90%);
    }

    svg.railroad g.labeledbox &gt; rect {
        stroke-width: 1px;
        stroke: grey;
        stroke-dasharray: 5px;
        fill:rgba(90, 90, 150, .1);
    }</style>
<g class="sequence">
<g class="sequence">
<g>
<text class="comment" x="81" y="26">
must-accept-replies</text>
</g>
<g class="choice">
<path d=" M 163 21 h 24 m 502 0 h 419 m -206 0 l -5 -5 m 0 10 l 5 -5 m 206 0"/>
<g class="sequence">
<g class="terminal">
<rect height="22" rx="10" ry="10" width="188" x="187" y="10"/>
<text x="281" y="26">
ISSE&amp;SINE2020,SECoP,</text>
</g>
<g class="nonterminal">
<rect height="22" width="124" x="385" y="10"/>
<text x="447" y="26">
secop-version</text>
</g>
<g class="terminal">
<rect height="22" rx="10" ry="10" width="28" x="519" y="10"/>
<text x="533" y="26">
,</text>
</g>
<g class="nonterminal">
<rect height="22" width="132" x="557" y="10"/>
<text x="623" y="26">
secop-revision</text>
</g>
<path d=" M 375 21 h 10"/>
<path d=" M 509 21 h 10"/>
<path d=" M 547 21 h 10"/>
</g>
<path d=" M 163 21 a 12 12 0 0 1 12 12 v 9 m 921 0 v -9 a 12 12 0 0 1 12 -12"/>
<path d=" M 175 77 v 41 m 921 0 v -41"/>
<path d=" M 175 142 v 183 m 0 -88 l -5 -5 m 10 0 l -5 5 m 0 88 m 921 0 v -183 m 0 94 l -5 5 m 10 0 l -5 -5 m 0 -94"/>
<path d=" M 175 360 v 73 m 0 -33 l -5 -5 m 10 0 l -5 5 m 0 33 m 921 0 v -73 m 0 39 l -5 5 m 10 0 l -5 -5 m 0 -39"/>
<path d=" M 175 42 v 35 a 12 12 0 0 0 12 12 m 399 0 h 498 m -246 0 l -5 -5 m 0 10 l 5 -5 m 246 0 a 12 12 0 0 0 12 -12 v -35"/>
<g class="sequence">
<g class="terminal">
<rect height="22" rx="10" ry="10" width="100" x="187" y="78"/>
<text x="237" y="94">
describing</text>
</g>
<g class="labeledbox">
<rect height="66" width="131" x="297" y="42"/>
<path d=" M 297 89 h 8 m 92 0 h 31"/>
<g>
<text class="comment" x="362" y="65">
SPACE dot SPACE</text>
</g>
<g class="terminal">
<rect height="22" rx="10" ry="10" width="92" x="305" y="78"/>
<text x="351" y="94">
\x20.\x20</text>
</g>
</g>
<g class="nonterminal">
<rect height="22" width="148" x="438" y="78"/>
<text x="512" y="94">
structure-report</text>
</g>
<path d=" M 287 89 h 10"/>
<path d=" M 428 89 h 10"/>
</g>
<path d=" M 175 118 v 24 a 12 12 0 0 0 12 12 m 897 0 h 0 a 12 12 0 0 0 12 -12 v -24"/>
<g class="sequence">
<g class="choice">
<path d=" M 187 154 h 24 m 68 0 h 40"/>
<g class="terminal">
<rect height="22" rx="10" ry="10" width="68" x="211" y="143"/>
<text x="245" y="159">
active</text>
</g>
<path d=" M 187 154 a 12 12 0 0 1 12 12 v 9 m 108 0 v -9 a 12 12 0 0 1 12 -12"/>
<path d=" M 199 175 v 0 a 12 12 0 0 0 12 12 m 84 0 h 0 a 12 12 0 0 0 12 -12 v 0"/>
<g class="terminal">
<rect height="22" rx="10" ry="10" width="84" x="211" y="176"/>
<text x="253" y="192">
inactive</text>
</g>
</g>
<g class="choice">
<path d=" M 329 154 h 24 m 187 0 h 544 m -269 0 l -5 -5 m 0 10 l 5 -5 m 269 0"/>
<g class="labeledbox">
<rect height="44" width="187" x="353" y="118"/>
<path d=" M 353 154 h 8 m 0 0 h 179 m -86 0 l -5 -5 m 0 10 l 5 -5 m 86 0"/>
<g>
<text class="comment" x="446" y="141">
global (de-)activation</text>
</g>
<g/>
</g>
<path d=" M 329 154 a 12 12 0 0 1 12 12 v 6 m 731 0 v -6 a 12 12 0 0 1 12 -12"/>
<path d=" M 341 172 v 47 a 12 12 0 0 0 12 12 m 707 0 h 0 a 12 12 0 0 0 12 -12 v -47"/>
<g class="sequence">
<g class="labeledbox">
<rect height="66" width="68" x="353" y="184"/>
<path d=" M 353 231 h 8 m 52 0 h 8"/>
<g>
<text class="comment" x="383" y="207">
SPACE</text>
</g>
<g class="terminal">
<rect height="22" rx="10" ry="10" width="52" x="361" y="220"/>
<text x="387" y="236">
\x20</text>
</g>
</g>
<g class="nonterminal">
<rect height="22" width="68" x="431" y="220"/>
<text x="465" y="236">
module</text>
</g>
<g class="choice">
<path d=" M 509 231 h 24 m 222 0 h 45"/>
<g class="labeledbox">
<rect height="44" width="222" x="533" y="195"/>
<path d=" M 533 231 h 8 m 0 0 h 214 m -104 0 l -5 -5 m 0 10 l 5 -5 m 104 0"/>
<g>
<text class="comment" x="644" y="218">
module-wise (de-)activation</text>
</g>
<g/>
</g>
<path d=" M 509 231 a 12 12 0 0 1 12 12 v 6 m 267 0 v -6 a 12 12 0 0 1 12 -12"/>
<path d=" M 521 249 v 35 a 12 12 0 0 0 12 12 m 243 0 h 0 a 12 12 0 0 0 12 -12 v -35"/>
<g class="labeledbox">
<rect height="66" width="243" x="533" y="249"/>
<path d=" M 533 296 h 8 m 130 0 h 105 m -49 0 l -5 -5 m 0 10 l 5 -5 m 49 0"/>
<g>
<text class="comment" x="654" y="272">
parameter-wise (de-)activation</text>
</g>
<g class="sequence">
<g class="terminal">
<rect height="22" rx="10" ry="10" width="28" x="541" y="285"/>
<text x="555" y="301">
:</text>
</g>
<g class="nonterminal">
<rect height="22" width="92" x="579" y="285"/>
<text x="625" y="301">
parameter</text>
</g>
<path d=" M 569 296 h 10"/>
</g>
</g>
</g>
<g class="optional">
<path d=" M 810 231 h 24 m -24 0 a 12 12 0 0 0 12 -12 v -35 a 12 12 0 0 1 12 -12 h 202 m -98 0 l -5 -5 m 0 10 l 5 -5 m 98 0 a 12 12 0 0 1 12 12 v 35 a 12 12 0 0 0 12 12 h -24"/>
<g class="sequence">
<g class="labeledbox">
<rect height="66" width="68" x="834" y="184"/>
<path d=" M 834 231 h 8 m 52 0 h 8"/>
<g>
<text class="comment" x="864" y="207">
SPACE</text>
</g>
<g class="terminal">
<rect height="22" rx="10" ry="10" width="52" x="842" y="220"/>
<text x="868" y="236">
\x20</text>
</g>
</g>
<g class="nonterminal">
<rect height="22" width="124" x="912" y="220"/>
<text x="974" y="236">
ignored-value</text>
</g>
<path d=" M 902 231 h 10"/>
</g>
</g>
<path d=" M 421 231 h 10"/>
<path d=" M 499 231 h 10"/>
<path d=" M 800 231 h 10"/>
</g>
</g>
<path d=" M 319 154 h 10"/>
</g>
<path d=" M 175 325 v 35 a 12 12 0 0 0 12 12 m 581 0 h 316 m -155 0 l -5 -5 m 0 10 l 5 -5 m 155 0 a 12 12 0 0 0 12 -12 v -35"/>
<g class="sequence">
<g class="terminal">
<rect height="22" rx="10" ry="10" width="60" x="187" y="361"/>
<text x="217" y="377">
error</text>
</g>
<g class="labeledbox">
<rect height="66" width="68" x="257" y="325"/>
<path d=" M 257 372 h 8 m 52 0 h 8"/>
<g>
<text class="comment" x="287" y="348">
SPACE</text>
</g>
<g class="terminal">
<rect height="22" rx="10" ry="10" width="52" x="265" y="361"/>
<text x="291" y="377">
\x20</text>
</g>
</g>
<g class="labeledbox">
<rect height="98" width="229" x="335" y="325"/>
<path d=" M 335 372 h 8 m 186 0 h 35"/>
<g>
<text class="comment" x="449" y="348">
error-subclass to be defined</text>
</g>
<g class="repeat">
<path d=" M 343 372 h 12 m 108 0 h 66 m -30 0 l -5 -5 m 0 10 l 5 -5 m 30 0 m -12 0 a 12 12 0 0 1 12 12 v 8 a 12 12 0 0 1 -12 12 m -162 0 h 0 a 12 12 0 0 1 -12 -12 v -8 a 12 12 0 0 1 12 -12"/>
<g class="sequence">
<g class="terminal">
<rect height="22" rx="10" ry="10" width="28" x="355" y="393"/>
<text x="369" y="409">
:</text>
</g>
<g class="nonterminal">
<rect height="22" width="124" x="393" y="393"/>
<text x="455" y="409">
ignored-value</text>
</g>
<path d=" M 383 404 h 10"/>
</g>
<g class="nonterminal">
<rect height="22" width="108" x="355" y="361"/>
<text x="409" y="377">
error-class</text>
</g>
</g>
</g>
<g class="labeledbox">
<rect height="66" width="68" x="574" y="325"/>
<path d=" M 574 372 h 8 m 52 0 h 8"/>
<g>
<text class="comment" x="604" y="348">
SPACE</text>
</g>
<g class="terminal">
<rect height="22" rx="10" ry="10" width="52" x="582" y="361"/>
<text x="608" y="377">
\x20</text>
</g>
</g>
<g class="nonterminal">
<rect height="22" width="116" x="652" y="361"/>
<text x="710" y="377">
error-report</text>
</g>
<path d=" M 247 372 h 10"/>
<path d=" M 325 372 h 10"/>
<path d=" M 564 372 h 10"/>
<path d=" M 642 372 h 10"/>
</g>
<path d=" M 175 433 v 35 a 12 12 0 0 0 12 12 m 698 0 h 199 m -96 0 l -5 -5 m 0 10 l 5 -5 m 96 0 a 12 12 0 0 0 12 -12 v -35"/>
<g class="sequence">
<g class="choice">
<path d=" M 187 480 h 24 m 248 0 h 230 m -112 0 l -5 -5 m 0 10 l 5 -5 m 112 0"/>
<g class="sequence">
<g class="terminal">
<rect height="22" rx="10" ry="10" width="52" x="211" y="469"/>
<text x="237" y="485">
pong</text>
</g>
<g class="labeledbox">
<rect height="66" width="68" x="273" y="433"/>
<path d=" M 273 480 h 8 m 52 0 h 8"/>
<g>
<text class="comment" x="303" y="456">
SPACE</text>
</g>
<g class="terminal">
<rect height="22" rx="10" ry="10" width="52" x="281" y="469"/>
<text x="307" y="485">
\x20</text>
</g>
</g>
<g class="optional">
<path d=" M 351 480 h 24 m -24 0 a 12 12 0 0 0 12 -12 v 0 a 12 12 0 0 1 12 -12 h 60 m -27 0 l -5 -5 m 0 10 l 5 -5 m 27 0 a 12 12 0 0 1 12 12 v 0 a 12 12 0 0 0 12 12 h -24"/>
<g class="nonterminal">
<rect height="22" width="60" x="375" y="469"/>
<text x="405" y="485">
token</text>
</g>
</g>
<path d=" M 263 480 h 10"/>
<path d=" M 341 480 h 10"/>
</g>
<path d=" M 187 480 a 12 12 0 0 1 12 12 v 17 m 478 0 v -17 a 12 12 0 0 1 12 -12"/>
<path d=" M 199 544 v 41 m 478 0 v -41"/>
<path d=" M 199 509 v 35 a 12 12 0 0 0 12 12 m 332 0 h 122 m -58 0 l -5 -5 m 0 10 l 5 -5 m 58 0 a 12 12 0 0 0 12 -12 v -35"/>
<g class="sequence">
<g class="terminal">
<rect height="22" rx="10" ry="10" width="52" x="211" y="545"/>
<text x="237" y="561">
done</text>
</g>
<g class="labeledbox">
<rect height="66" width="68" x="273" y="509"/>
<path d=" M 273 556 h 8 m 52 0 h 8"/>
<g>
<text class="comment" x="303" y="532">
SPACE</text>
</g>
<g class="terminal">
<rect height="22" rx="10" ry="10" width="52" x="281" y="545"/>
<text x="307" y="561">
\x20</text>
</g>
</g>
<g class="nonterminal">
<rect height="22" width="68" x="351" y="545"/>
<text x="385" y="561">
module</text>
</g>
<g class="terminal">
<rect height="22" rx="10" ry="10" width="28" x="429" y="545"/>
<text x="443" y="561">
:</text>
</g>
<g class="nonterminal">
<rect height="22" width="76" x="467" y="545"/>
<text x="505" y="561">
command</text>
</g>
<path d=" M 263 556 h 10"/>
<path d=" M 341 556 h 10"/>
<path d=" M 419 556 h 10"/>
<path d=" M 457 556 h 10"/>
</g>
<path d=" M 199 585 v 35 a 12 12 0 0 0 12 12 m 454 0 h 0 a 12 12 0 0 0 12 -12 v -35"/>
<g class="sequence">
<g class="choice">
<path d=" M 211 632 h 24 m 68 0 h 66 m -30 0 l -5 -5 m 0 10 l 5 -5 m 30 0"/>
<g class="terminal">
<rect height="22" rx="10" ry="10" width="68" x="235" y="621"/>
<text x="269" y="637">
update</text>
</g>
<path d=" M 211 632 a 12 12 0 0 1 12 12 v 9 m 134 0 v -9 a 12 12 0 0 1 12 -12"/>
<path d=" M 223 653 v 33 m 134 0 v -33"/>
<path d=" M 223 653 v 0 a 12 12 0 0 0 12 12 m 76 0 h 34 a 12 12 0 0 0 12 -12 v 0"/>
<g class="terminal">
<rect height="22" rx="10" ry="10" width="76" x="235" y="654"/>
<text x="273" y="670">
changed</text>
</g>
<path d=" M 223 686 v 35 a 12 12 0 0 0 12 12 m 110 0 h 0 a 12 12 0 0 0 12 -12 v -35"/>
<g class="labeledbox">
<rect height="66" width="110" x="235" y="686"/>
<path d=" M 235 733 h 8 m 84 0 h 18"/>
<g>
<text class="comment" x="290" y="709">
see Issue 29</text>
</g>
<g class="terminal">
<rect height="22" rx="10" ry="10" width="84" x="243" y="722"/>
<text x="285" y="738">
buffered</text>
</g>
</g>
</g>
<g class="labeledbox">
<rect height="66" width="68" x="379" y="585"/>
<path d=" M 379 632 h 8 m 52 0 h 8"/>
<g>
<text class="comment" x="409" y="608">
SPACE</text>
</g>
<g class="terminal">
<rect height="22" rx="10" ry="10" width="52" x="387" y="621"/>
<text x="413" y="637">
\x20</text>
</g>
</g>
<g class="nonterminal">
<rect height="22" width="68" x="457" y="621"/>
<text x="491" y="637">
module</text>
</g>
<g class="terminal">
<rect height="22" rx="10" ry="10" width="28" x="535" y="621"/>
<text x="549" y="637">
:</text>
</g>
<g class="nonterminal">
<rect height="22" width="92" x="573" y="621"/>
<text x="619" y="637">
parameter</text>
</g>
<path d=" M 369 632 h 10"/>
<path d=" M 447 632 h 10"/>
<path d=" M 525 632 h 10"/>
<path d=" M 563 632 h 10"/>
</g>
</g>
<g class="labeledbox">
<rect height="66" width="68" x="699" y="433"/>
<path d=" M 699 480 h 8 m 52 0 h 8"/>
<g>
<text class="comment" x="729" y="456">
SPACE</text>
</g>
<g class="terminal">
<rect height="22" rx="10" ry="10" width="52" x="707" y="469"/>
<text x="733" y="485">
\x20</text>
</g>
</g>
<g class="nonterminal">
<rect height="22" width="108" x="777" y="469"/>
<text x="831" y="485">
data-report</text>
</g>
<path d=" M 689 480 h 10"/>
<path d=" M 767 480 h 10"/>
</g>
</g>
<path d=" M 153 21 h 10"/>
</g>
<path d=" M 1118 21 h 5 m -5 5 l 5 -5 l -5 -5 m 5 5"/>
<path d=" M 1108 21 h 10"/>
</g>
</svg>