<svg class="railroad" viewBox="0 0 996 682" width="796pt" xmlns="http://www.w3.org/2000/svg">
<style type="text/css">

    svg.railroad {
        background-color: hsl(30, 20%, 95%);
        background-size: 15px 15px;
        background-image: linear-gradient(to right, rgba(30, 30, 30, .05) 1px, transparent 1px),
                          linear-gradient(to bottom, rgba(30, 30, 30, .05) 1px, transparent 1px);
    }

    svg.railroad path {
        stroke-width: 3px;
        stroke: black;
        fill: transparent;
    }

    svg.railroad .debug {
        stroke-width: 1px;
        stroke: red;
    }

    svg.railroad text {
        font: 14px monospace;
        text-anchor: middle;
    }

    svg.railroad .nonterminal text {
        font-weight: bold;
    }

    svg.railroad text.comment {
        font: italic 12px monospace;
    }

    svg.railroad rect {
        stroke-width: 3px;
        stroke: black;
        fill:hsl(-290, 70%, 90%);
    }

    svg.railroad g.labeledbox > rect {
        stroke-width: 1px;
        stroke: grey;
        stroke-dasharray: 5px;
        fill:rgba(90, 90, 150, .1);
    }</style>
<g class="verticalgrid">
<g class="horizontalgrid">
<g>
<text class="comment" x="53" y="25">
MUST accept</text>
</g>
<g class="nonterminal">
<rect height="22" width="76" x="109" y="10"/>
<text x="147" y="26">
replies</text>
</g>
</g>
<g class="sequence">
<path d=" M 10 50 l 5 5 l -5 5 m 5 -5 h 5"/>
<g class="sequence">
<g class="choice">
<path d=" M 30 55 h 24 m 502 0 h 410 m -202 0 l -5 -5 m 0 10 l 5 -5 m 202 0"/>
<g class="sequence">
<g class="terminal">
<rect height="22" rx="10" ry="10" width="188" x="54" y="44"/>
<text x="148" y="60">
ISSE&amp;SINE2020,SECoP,</text>
</g>
<g class="nonterminal">
<rect height="22" width="124" x="252" y="44"/>
<text x="314" y="60">
secop-version</text>
</g>
<g class="terminal">
<rect height="22" rx="10" ry="10" width="28" x="386" y="44"/>
<text x="400" y="60">
,</text>
</g>
<g class="nonterminal">
<rect height="22" width="132" x="424" y="44"/>
<text x="490" y="60">
secop-revision</text>
</g>
<path d=" M 242 55 h 10"/>
<path d=" M 376 55 h 10"/>
<path d=" M 414 55 h 10"/>
</g>
<path d=" M 30 55 a 12 12 0 0 1 12 12 v 9 m 912 0 v -9 a 12 12 0 0 1 12 -12"/>
<path d=" M 42 111 v 41 m 912 0 v -41"/>
<path d=" M 42 211 v 66 m 0 -30 l -5 -5 m 10 0 l -5 5 m 0 30 m 912 0 v -66 m 0 36 l -5 5 m 10 0 l -5 -5 m 0 -36"/>
<path d=" M 42 312 v 41 m 912 0 v -41"/>
<path d=" M 42 76 v 35 a 12 12 0 0 0 12 12 m 399 0 h 489 m -241 0 l -5 -5 m 0 10 l 5 -5 m 241 0 a 12 12 0 0 0 12 -12 v -35"/>
<g class="sequence">
<g class="terminal">
<rect height="22" rx="10" ry="10" width="100" x="54" y="112"/>
<text x="104" y="128">
describing</text>
</g>
<g class="labeledbox">
<rect height="66" width="131" x="164" y="76"/>
<path d=" M 164 123 h 8 m 92 0 h 31"/>
<g>
<text class="comment" x="229" y="99">
SPACE dot SPACE</text>
</g>
<g class="terminal">
<rect height="22" rx="10" ry="10" width="92" x="172" y="112"/>
<text x="218" y="128">
\x20.\x20</text>
</g>
</g>
<g class="nonterminal">
<rect height="22" width="148" x="305" y="112"/>
<text x="379" y="128">
structure-report</text>
</g>
<path d=" M 154 123 h 10"/>
<path d=" M 295 123 h 10"/>
</g>
<path d=" M 42 152 v 59 m 0 -26 l -5 -5 m 10 0 l -5 5 m 0 26 a 12 12 0 0 0 12 12 m 888 0 h 0 a 12 12 0 0 0 12 -12 v -59 m 0 32 l -5 5 m 10 0 l -5 -5 m 0 -32"/>
<g class="sequence">
<g class="choice">
<path d=" M 54 223 h 24 m 68 0 h 40"/>
<g class="terminal">
<rect height="22" rx="10" ry="10" width="68" x="78" y="212"/>
<text x="112" y="228">
active</text>
</g>
<path d=" M 54 223 a 12 12 0 0 1 12 12 v 9 m 108 0 v -9 a 12 12 0 0 1 12 -12"/>
<path d=" M 66 244 v 0 a 12 12 0 0 0 12 12 m 84 0 h 0 a 12 12 0 0 0 12 -12 v 0"/>
<g class="terminal">
<rect height="22" rx="10" ry="10" width="84" x="78" y="245"/>
<text x="120" y="261">
inactive</text>
</g>
</g>
<g class="optional">
<path d=" M 196 223 h 24 m -24 0 a 12 12 0 0 0 12 -12 v -47 a 12 12 0 0 1 12 -12 h 698 m -346 0 l -5 -5 m 0 10 l 5 -5 m 346 0 a 12 12 0 0 1 12 12 v 47 a 12 12 0 0 0 12 12 h -24"/>
<g class="sequence">
<g class="labeledbox">
<rect height="66" width="68" x="220" y="176"/>
<path d=" M 220 223 h 8 m 52 0 h 8"/>
<g>
<text class="comment" x="250" y="199">
SPACE</text>
</g>
<g class="terminal">
<rect height="22" rx="10" ry="10" width="52" x="228" y="212"/>
<text x="254" y="228">
\x20</text>
</g>
</g>
<g class="optional">
<path d=" M 298 223 h 24 m -24 0 a 12 12 0 0 0 12 -12 v -12 a 12 12 0 0 1 12 -12 h 312 m -153 0 l -5 -5 m 0 10 l 5 -5 m 153 0 a 12 12 0 0 1 12 12 v 12 a 12 12 0 0 0 12 12 h -24"/>
<g class="sequence">
<g class="nonterminal">
<rect height="22" width="68" x="322" y="212"/>
<text x="356" y="228">
module</text>
</g>
<g class="optional">
<path d=" M 400 223 h 24 m -24 0 a 12 12 0 0 0 12 -12 v 0 a 12 12 0 0 1 12 -12 h 186 m -90 0 l -5 -5 m 0 10 l 5 -5 m 90 0 a 12 12 0 0 1 12 12 v 0 a 12 12 0 0 0 12 12 h -24"/>
<g class="sequence">
<g class="terminal">
<rect height="22" rx="10" ry="10" width="28" x="424" y="212"/>
<text x="438" y="228">
:</text>
</g>
<g class="repeat">
<path d=" M 462 223 h 12 m 124 0 h 12 m -12 0 a 12 12 0 0 1 12 12 v 8 a 12 12 0 0 1 -12 12 m -28 0 h -96 m 51 0 l 5 -5 m 0 10 l -5 -5 m -51 0 a 12 12 0 0 1 -12 -12 v -8 a 12 12 0 0 1 12 -12"/>
<g class="terminal">
<rect height="22" rx="10" ry="10" width="28" x="570" y="244"/>
<text x="584" y="260">
:</text>
</g>
<g class="nonterminal">
<rect height="22" width="124" x="474" y="212"/>
<text x="536" y="228">
ignored-value</text>
</g>
</g>
<path d=" M 452 223 h 10"/>
</g>
</g>
<path d=" M 390 223 h 10"/>
</g>
</g>
<g class="optional">
<path d=" M 668 223 h 24 m -24 0 a 12 12 0 0 0 12 -12 v -35 a 12 12 0 0 1 12 -12 h 202 m -98 0 l -5 -5 m 0 10 l 5 -5 m 98 0 a 12 12 0 0 1 12 12 v 35 a 12 12 0 0 0 12 12 h -24"/>
<g class="sequence">
<g class="labeledbox">
<rect height="66" width="68" x="692" y="176"/>
<path d=" M 692 223 h 8 m 52 0 h 8"/>
<g>
<text class="comment" x="722" y="199">
SPACE</text>
</g>
<g class="terminal">
<rect height="22" rx="10" ry="10" width="52" x="700" y="212"/>
<text x="726" y="228">
\x20</text>
</g>
</g>
<g class="nonterminal">
<rect height="22" width="124" x="770" y="212"/>
<text x="832" y="228">
ignored-value</text>
</g>
<path d=" M 760 223 h 10"/>
</g>
</g>
<path d=" M 288 223 h 10"/>
<path d=" M 658 223 h 10"/>
</g>
</g>
<path d=" M 186 223 h 10"/>
</g>
<path d=" M 42 277 v 35 a 12 12 0 0 0 12 12 m 578 0 h 310 m -152 0 l -5 -5 m 0 10 l 5 -5 m 152 0 a 12 12 0 0 0 12 -12 v -35"/>
<g class="sequence">
<g class="terminal">
<rect height="22" rx="10" ry="10" width="68" x="54" y="313"/>
<text x="88" y="329">
error_</text>
</g>
<g class="nonterminal">
<rect height="22" width="68" x="132" y="313"/>
<text x="166" y="329">
action</text>
</g>
<g class="labeledbox">
<rect height="66" width="68" x="210" y="277"/>
<path d=" M 210 324 h 8 m 52 0 h 8"/>
<g>
<text class="comment" x="240" y="300">
SPACE</text>
</g>
<g class="terminal">
<rect height="22" rx="10" ry="10" width="52" x="218" y="313"/>
<text x="244" y="329">
\x20</text>
</g>
</g>
<g class="optional">
<path d=" M 288 324 h 24 m -24 0 a 12 12 0 0 0 12 -12 v 0 a 12 12 0 0 1 12 -12 h 92 m -43 0 l -5 -5 m 0 10 l 5 -5 m 43 0 a 12 12 0 0 1 12 12 v 0 a 12 12 0 0 0 12 12 h -24"/>
<g class="nonterminal">
<rect height="22" width="92" x="312" y="313"/>
<text x="358" y="329">
specifier</text>
</g>
</g>
<g class="labeledbox">
<rect height="66" width="68" x="438" y="277"/>
<path d=" M 438 324 h 8 m 52 0 h 8"/>
<g>
<text class="comment" x="468" y="300">
SPACE</text>
</g>
<g class="terminal">
<rect height="22" rx="10" ry="10" width="52" x="446" y="313"/>
<text x="472" y="329">
\x20</text>
</g>
</g>
<g class="nonterminal">
<rect height="22" width="116" x="516" y="313"/>
<text x="574" y="329">
error-report</text>
</g>
<path d=" M 122 324 h 10"/>
<path d=" M 200 324 h 10"/>
<path d=" M 278 324 h 10"/>
<path d=" M 428 324 h 10"/>
<path d=" M 506 324 h 10"/>
</g>
<path d=" M 42 353 v 35 a 12 12 0 0 0 12 12 m 698 0 h 190 m -92 0 l -5 -5 m 0 10 l 5 -5 m 92 0 a 12 12 0 0 0 12 -12 v -35"/>
<g class="sequence">
<g class="choice">
<path d=" M 54 400 h 24 m 248 0 h 230 m -112 0 l -5 -5 m 0 10 l 5 -5 m 112 0"/>
<g class="sequence">
<g class="terminal">
<rect height="22" rx="10" ry="10" width="52" x="78" y="389"/>
<text x="104" y="405">
pong</text>
</g>
<g class="labeledbox">
<rect height="66" width="68" x="140" y="353"/>
<path d=" M 140 400 h 8 m 52 0 h 8"/>
<g>
<text class="comment" x="170" y="376">
SPACE</text>
</g>
<g class="terminal">
<rect height="22" rx="10" ry="10" width="52" x="148" y="389"/>
<text x="174" y="405">
\x20</text>
</g>
</g>
<g class="optional">
<path d=" M 218 400 h 24 m -24 0 a 12 12 0 0 0 12 -12 v 0 a 12 12 0 0 1 12 -12 h 60 m -27 0 l -5 -5 m 0 10 l 5 -5 m 27 0 a 12 12 0 0 1 12 12 v 0 a 12 12 0 0 0 12 12 h -24"/>
<g class="nonterminal">
<rect height="22" width="60" x="242" y="389"/>
<text x="272" y="405">
token</text>
</g>
</g>
<path d=" M 130 400 h 10"/>
<path d=" M 208 400 h 10"/>
</g>
<path d=" M 54 400 a 12 12 0 0 1 12 12 v 17 m 478 0 v -17 a 12 12 0 0 1 12 -12"/>
<path d=" M 66 464 v 41 m 478 0 v -41"/>
<path d=" M 66 429 v 35 a 12 12 0 0 0 12 12 m 332 0 h 122 m -58 0 l -5 -5 m 0 10 l 5 -5 m 58 0 a 12 12 0 0 0 12 -12 v -35"/>
<g class="sequence">
<g class="terminal">
<rect height="22" rx="10" ry="10" width="52" x="78" y="465"/>
<text x="104" y="481">
done</text>
</g>
<g class="labeledbox">
<rect height="66" width="68" x="140" y="429"/>
<path d=" M 140 476 h 8 m 52 0 h 8"/>
<g>
<text class="comment" x="170" y="452">
SPACE</text>
</g>
<g class="terminal">
<rect height="22" rx="10" ry="10" width="52" x="148" y="465"/>
<text x="174" y="481">
\x20</text>
</g>
</g>
<g class="nonterminal">
<rect height="22" width="68" x="218" y="465"/>
<text x="252" y="481">
module</text>
</g>
<g class="terminal">
<rect height="22" rx="10" ry="10" width="28" x="296" y="465"/>
<text x="310" y="481">
:</text>
</g>
<g class="nonterminal">
<rect height="22" width="76" x="334" y="465"/>
<text x="372" y="481">
command</text>
</g>
<path d=" M 130 476 h 10"/>
<path d=" M 208 476 h 10"/>
<path d=" M 286 476 h 10"/>
<path d=" M 324 476 h 10"/>
</g>
<path d=" M 66 505 v 35 a 12 12 0 0 0 12 12 m 454 0 h 0 a 12 12 0 0 0 12 -12 v -35"/>
<g class="sequence">
<g class="choice">
<path d=" M 78 552 h 24 m 68 0 h 66 m -30 0 l -5 -5 m 0 10 l 5 -5 m 30 0"/>
<g class="terminal">
<rect height="22" rx="10" ry="10" width="68" x="102" y="541"/>
<text x="136" y="557">
update</text>
</g>
<path d=" M 78 552 a 12 12 0 0 1 12 12 v 9 m 134 0 v -9 a 12 12 0 0 1 12 -12"/>
<path d=" M 90 573 v 33 m 134 0 v -33"/>
<path d=" M 90 573 v 0 a 12 12 0 0 0 12 12 m 76 0 h 34 a 12 12 0 0 0 12 -12 v 0"/>
<g class="terminal">
<rect height="22" rx="10" ry="10" width="76" x="102" y="574"/>
<text x="140" y="590">
changed</text>
</g>
<path d=" M 90 606 v 35 a 12 12 0 0 0 12 12 m 110 0 h 0 a 12 12 0 0 0 12 -12 v -35"/>
<g class="labeledbox">
<rect height="66" width="110" x="102" y="606"/>
<path d=" M 102 653 h 8 m 84 0 h 18"/>
<g>
<text class="comment" x="157" y="629">
see Issue 29</text>
</g>
<g class="terminal">
<rect height="22" rx="10" ry="10" width="84" x="110" y="642"/>
<text x="152" y="658">
buffered</text>
</g>
</g>
</g>
<g class="labeledbox">
<rect height="66" width="68" x="246" y="505"/>
<path d=" M 246 552 h 8 m 52 0 h 8"/>
<g>
<text class="comment" x="276" y="528">
SPACE</text>
</g>
<g class="terminal">
<rect height="22" rx="10" ry="10" width="52" x="254" y="541"/>
<text x="280" y="557">
\x20</text>
</g>
</g>
<g class="nonterminal">
<rect height="22" width="68" x="324" y="541"/>
<text x="358" y="557">
module</text>
</g>
<g class="terminal">
<rect height="22" rx="10" ry="10" width="28" x="402" y="541"/>
<text x="416" y="557">
:</text>
</g>
<g class="nonterminal">
<rect height="22" width="92" x="440" y="541"/>
<text x="486" y="557">
parameter</text>
</g>
<path d=" M 236 552 h 10"/>
<path d=" M 314 552 h 10"/>
<path d=" M 392 552 h 10"/>
<path d=" M 430 552 h 10"/>
</g>
</g>
<g class="labeledbox">
<rect height="66" width="68" x="566" y="353"/>
<path d=" M 566 400 h 8 m 52 0 h 8"/>
<g>
<text class="comment" x="596" y="376">
SPACE</text>
</g>
<g class="terminal">
<rect height="22" rx="10" ry="10" width="52" x="574" y="389"/>
<text x="600" y="405">
\x20</text>
</g>
</g>
<g class="nonterminal">
<rect height="22" width="108" x="644" y="389"/>
<text x="698" y="405">
data-report</text>
</g>
<path d=" M 556 400 h 10"/>
<path d=" M 634 400 h 10"/>
</g>
</g>
</g>
<path d=" M 976 55 h 5 m -5 5 l 5 -5 l -5 -5 m 5 5"/>
<path d=" M 20 55 h 10"/>
<path d=" M 966 55 h 10"/>
</g>
</g>
</svg>
