<svg class="railroad" viewBox="0 0 330 72" width="330" xmlns="http://www.w3.org/2000/svg">
<style type="text/css">

    svg.railroad {
        background-color: hsl(30, 20%, 95%);
        background-size: 15px 15px;
        background-image: linear-gradient(to right, rgba(30, 30, 30, .05) 1px, transparent 1px),
                          linear-gradient(to bottom, rgba(30, 30, 30, .05) 1px, transparent 1px);
    }

    svg.railroad path {
        stroke-width: 3px;
        stroke: black;
        fill: transparent;
    }

    svg.railroad .debug {
        stroke-width: 1px;
        stroke: red;
    }

    svg.railroad text {
        font: 14px monospace;
        text-anchor: middle;
    }

    svg.railroad .nonterminal text {
        font-weight: bold;
    }

    svg.railroad text.comment {
        font: italic 12px monospace;
    }

    svg.railroad rect {
        stroke-width: 3px;
        stroke: black;
        fill:hsl(-290, 70%, 90%);
    }

    svg.railroad g.labeledbox &gt; rect {
        stroke-width: 1px;
        stroke: grey;
        stroke-dasharray: 5px;
        fill:rgba(90, 90, 150, .1);
    }</style>
<g class="sequence">
<g class="sequence">
<g>
<text class="comment" x="29" y="26">
name</text>
</g>
<g class="nonterminal">
<rect height="22" width="92" x="58" y="10"/>
<text x="104" y="26">
[a-zA-Z_]</text>
</g>
<g class="repeat">
<path d=" M 160 21 h 12 m 116 0 h 12 m -12 0 a 12 12 0 0 1 12 12 v 7 a 12 12 0 0 1 -12 12 m -94 0 h -22 a 12 12 0 0 1 -12 -12 v -7 a 12 12 0 0 1 12 -12"/>
<g>
<text class="comment" x="241" y="57">
max 62 times</text>
</g>
<g class="nonterminal">
<rect height="22" width="116" x="172" y="10"/>
<text x="230" y="26">
[a-zA-Z0-9_]</text>
</g>
</g>
<path d=" M 48 21 h 10"/>
<path d=" M 150 21 h 10"/>
</g>
<path d=" M 310 21 h 5 m -5 5 l 5 -5 l -5 -5 m 5 5"/>
<path d=" M 300 21 h 10"/>
</g>
</svg>