<svg class="railroad" viewBox="0 0 306 276" width="244pt" xmlns="http://www.w3.org/2000/svg">
<style type="text/css">

    svg.railroad {
        background-color: hsl(30, 20%, 95%);
        background-size: 15px 15px;
        background-image: linear-gradient(to right, rgba(30, 30, 30, .05) 1px, transparent 1px),
                          linear-gradient(to bottom, rgba(30, 30, 30, .05) 1px, transparent 1px);
    }

    svg.railroad path {
        stroke-width: 3px;
        stroke: black;
        fill: transparent;
    }

    svg.railroad .debug {
        stroke-width: 1px;
        stroke: red;
    }

    svg.railroad text {
        font: 14px monospace;
        text-anchor: middle;
    }

    svg.railroad .nonterminal text {
        font-weight: bold;
    }

    svg.railroad text.comment {
        font: italic 12px monospace;
    }

    svg.railroad rect {
        stroke-width: 3px;
        stroke: black;
        fill:hsl(-290, 70%, 90%);
    }

    svg.railroad g.labeledbox > rect {
        stroke-width: 1px;
        stroke: grey;
        stroke-dasharray: 5px;
        fill:rgba(90, 90, 150, .1);
    }</style>
<g class="verticalgrid">
<g class="horizontalgrid">
<g class="nonterminal">
<rect height="22" width="52" x="10" y="10"/>
<text x="36" y="26">
name</text>
</g>
</g>
<g class="sequence">
<path d=" M 10 50 l 5 5 l -5 5 m 5 -5 h 5"/>
<g class="sequence">
<g class="terminal">
<rect height="22" rx="10" ry="10" width="84" x="30" y="44"/>
<text x="72" y="60">
[a-zA-Z]</text>
</g>
<g class="repeat">
<path d=" M 124 55 h 12 m 116 0 h 12 m -12 0 a 12 12 0 0 1 12 12 v 7 a 12 12 0 0 1 -12 12 m -94 0 h -22 a 12 12 0 0 1 -12 -12 v -7 a 12 12 0 0 1 12 -12"/>
<g>
<text class="comment" x="205" y="91">
max 62 times</text>
</g>
<g class="terminal">
<rect height="22" rx="10" ry="10" width="116" x="136" y="44"/>
<text x="194" y="60">
[a-zA-Z0-9_]</text>
</g>
</g>
<path d=" M 114 55 h 10"/>
</g>
<path d=" M 274 55 h 5 m -5 5 l 5 -5 l -5 -5 m 5 5"/>
<path d=" M 20 55 h 10"/>
<path d=" M 264 55 h 10"/>
</g>
<g/>
<g/>
<g/>
<g class="horizontalgrid">
<g class="nonterminal">
<rect height="22" width="108" x="10" y="144"/>
<text x="64" y="160">
custom-name</text>
</g>
</g>
<g class="sequence">
<path d=" M 10 220 l 5 5 l -5 5 m 5 -5 h 5"/>
<g class="sequence">
<g class="labeledbox">
<rect height="66" width="96" x="30" y="178"/>
<path d=" M 30 225 h 8 m 28 0 h 60 m -27 0 l -5 -5 m 0 10 l 5 -5 m 27 0"/>
<g>
<text class="comment" x="78" y="201">
underscore</text>
</g>
<g class="terminal">
<rect height="22" rx="10" ry="10" width="28" x="38" y="214"/>
<text x="52" y="230">
_</text>
</g>
</g>
<g class="repeat">
<path d=" M 136 225 h 12 m 116 0 h 12 m -12 0 a 12 12 0 0 1 12 12 v 7 a 12 12 0 0 1 -12 12 m -94 0 h -22 a 12 12 0 0 1 -12 -12 v -7 a 12 12 0 0 1 12 -12"/>
<g>
<text class="comment" x="217" y="261">
max 62 times</text>
</g>
<g class="terminal">
<rect height="22" rx="10" ry="10" width="116" x="148" y="214"/>
<text x="206" y="230">
[a-zA-Z0-9_]</text>
</g>
</g>
<path d=" M 126 225 h 10"/>
</g>
<path d=" M 286 225 h 5 m -5 5 l 5 -5 l -5 -5 m 5 5"/>
<path d=" M 20 225 h 10"/>
<path d=" M 276 225 h 10"/>
</g>
</g>
</svg>
