<svg class="railroad" viewBox="0 0 757 372" width="605pt" xmlns="http://www.w3.org/2000/svg">
<style type="text/css">

    svg.railroad {
        background-color: hsl(30, 20%, 95%);
        background-size: 15px 15px;
        background-image: linear-gradient(to right, rgba(30, 30, 30, .05) 1px, transparent 1px),
                          linear-gradient(to bottom, rgba(30, 30, 30, .05) 1px, transparent 1px);
    }

    svg.railroad path {
        stroke-width: 3px;
        stroke: black;
        fill: transparent;
    }

    svg.railroad .debug {
        stroke-width: 1px;
        stroke: red;
    }

    svg.railroad text {
        font: 14px monospace;
        text-anchor: middle;
    }

    svg.railroad .nonterminal text {
        font-weight: bold;
    }

    svg.railroad text.comment {
        font: italic 12px monospace;
    }

    svg.railroad rect {
        stroke-width: 3px;
        stroke: black;
        fill:hsl(-290, 70%, 90%);
    }

    svg.railroad g.labeledbox > rect {
        stroke-width: 1px;
        stroke: grey;
        stroke-dasharray: 5px;
        fill:rgba(90, 90, 150, .1);
    }</style>
<g class="verticalgrid">
<g class="horizontalgrid">
<g class="nonterminal">
<rect height="22" width="156" x="10" y="10"/>
<text x="88" y="26">
SEC-node-property</text>
</g>
</g>
<g class="sequence">
<path d=" M 10 98 l 5 5 l -5 5 m 5 -5 h 5"/>
<g class="sequence">
<g class="choice">
<path d=" M 30 103 h 24 m 649 0 h 24"/>
<g class="sequence">
<g class="sequence">
<g class="terminal">
<rect height="22" rx="10" ry="10" width="100" x="54" y="92"/>
<text x="104" y="108">
&quot;modules&quot;:</text>
</g>
<g class="terminal">
<rect height="22" rx="10" ry="10" width="28" x="164" y="92"/>
<text x="178" y="108">
[</text>
</g>
<g class="optional">
<path d=" M 202 103 h 24 m -24 0 a 12 12 0 0 0 12 -12 v -35 a 12 12 0 0 1 12 -12 h 415 m -204 0 l -5 -5 m 0 10 l 5 -5 m 204 0 a 12 12 0 0 1 12 12 v 35 a 12 12 0 0 0 12 12 h -24"/>
<g class="sequence">
<g class="repeat">
<path d=" M 226 103 h 12 m 391 0 h 12 m -12 0 a 12 12 0 0 1 12 12 v 16 a 12 12 0 0 1 -12 12 m -28 0 h -363 m 184 0 l 5 -5 m 0 10 l -5 -5 m -184 0 a 12 12 0 0 1 -12 -12 v -16 a 12 12 0 0 1 12 -12"/>
<g class="terminal">
<rect height="22" rx="10" ry="10" width="28" x="601" y="132"/>
<text x="615" y="148">
,</text>
</g>
<g class="sequence">
<g class="terminal">
<rect height="22" rx="10" ry="10" width="28" x="238" y="92"/>
<text x="252" y="108">
[</text>
</g>
<g class="labeledbox">
<rect height="66" width="103" x="276" y="56"/>
<path d=" M 276 103 h 8 m 52 0 h 43"/>
<g>
<text class="comment" x="327" y="79">
module name</text>
</g>
<g class="nonterminal">
<rect height="22" width="52" x="284" y="92"/>
<text x="310" y="108">
name</text>
</g>
</g>
<g class="terminal">
<rect height="22" rx="10" ry="10" width="28" x="389" y="92"/>
<text x="403" y="108">
,</text>
</g>
<g class="nonterminal">
<rect height="22" width="164" x="427" y="92"/>
<text x="509" y="108">
module-description</text>
</g>
<g class="terminal">
<rect height="22" rx="10" ry="10" width="28" x="601" y="92"/>
<text x="615" y="108">
]</text>
</g>
<path d=" M 266 103 h 10"/>
<path d=" M 379 103 h 10"/>
<path d=" M 417 103 h 10"/>
<path d=" M 591 103 h 10"/>
</g>
</g>
</g>
</g>
<path d=" M 154 103 h 10"/>
<path d=" M 192 103 h 10"/>
</g>
<g class="terminal">
<rect height="22" rx="10" ry="10" width="28" x="675" y="92"/>
<text x="689" y="108">
]</text>
</g>
<path d=" M 665 103 h 10"/>
</g>
<path d=" M 30 103 a 12 12 0 0 1 12 12 v 49 m 673 0 v -49 a 12 12 0 0 1 12 -12"/>
<path d=" M 42 164 v 33 m 673 0 v -33"/>
<path d=" M 42 197 v 33 m 673 0 v -33"/>
<path d=" M 42 230 v 33 m 673 0 v -33"/>
<path d=" M 42 298 v 41 m 673 0 v -41"/>
<path d=" M 42 164 v 0 a 12 12 0 0 0 12 12 m 290 0 h 359 m -176 0 l -5 -5 m 0 10 l 5 -5 m 176 0 a 12 12 0 0 0 12 -12 v 0"/>
<g class="sequence">
<g class="terminal">
<rect height="22" rx="10" ry="10" width="132" x="54" y="165"/>
<text x="120" y="181">
&quot;description&quot;:</text>
</g>
<g class="nonterminal">
<rect height="22" width="148" x="196" y="165"/>
<text x="270" y="181">
descriptive text</text>
</g>
<path d=" M 186 176 h 10"/>
</g>
<path d=" M 42 197 v 0 a 12 12 0 0 0 12 12 m 266 0 h 383 m -188 0 l -5 -5 m 0 10 l 5 -5 m 188 0 a 12 12 0 0 0 12 -12 v 0"/>
<g class="sequence">
<g class="terminal">
<rect height="22" rx="10" ry="10" width="140" x="54" y="198"/>
<text x="124" y="214">
&quot;equipment_id&quot;:</text>
</g>
<g class="nonterminal">
<rect height="22" width="116" x="204" y="198"/>
<text x="262" y="214">
equipment_id</text>
</g>
<path d=" M 194 209 h 10"/>
</g>
<path d=" M 42 230 v 0 a 12 12 0 0 0 12 12 m 266 0 h 383 m -188 0 l -5 -5 m 0 10 l 5 -5 m 188 0 a 12 12 0 0 0 12 -12 v 0"/>
<g class="sequence">
<g class="terminal">
<rect height="22" rx="10" ry="10" width="108" x="54" y="231"/>
<text x="108" y="247">
&quot;firmware&quot;:</text>
</g>
<g class="nonterminal">
<rect height="22" width="148" x="172" y="231"/>
<text x="246" y="247">
firmware version</text>
</g>
<path d=" M 162 242 h 10"/>
</g>
<path d=" M 42 263 v 35 a 12 12 0 0 0 12 12 m 297 0 h 352 m -173 0 l -5 -5 m 0 10 l 5 -5 m 173 0 a 12 12 0 0 0 12 -12 v -35"/>
<g class="sequence">
<g class="terminal">
<rect height="22" rx="10" ry="10" width="100" x="54" y="299"/>
<text x="104" y="315">
&quot;timeout&quot;:</text>
</g>
<g class="labeledbox">
<rect height="66" width="187" x="164" y="263"/>
<path d=" M 164 310 h 8 m 164 0 h 15"/>
<g>
<text class="comment" x="257" y="286">
a positive json-number</text>
</g>
<g class="nonterminal">
<rect height="22" width="164" x="172" y="299"/>
<text x="254" y="315">
timeout in seconds</text>
</g>
</g>
<path d=" M 154 310 h 10"/>
</g>
<path d=" M 42 339 v 0 a 12 12 0 0 0 12 12 m 140 0 h 509 m -251 0 l -5 -5 m 0 10 l 5 -5 m 251 0 a 12 12 0 0 0 12 -12 v 0"/>
<g class="sequence">
<g class="nonterminal">
<rect height="22" width="140" x="54" y="340"/>
<text x="124" y="356">
custom-property</text>
</g>
</g>
</g>
</g>
<path d=" M 737 103 h 5 m -5 5 l 5 -5 l -5 -5 m 5 5"/>
<path d=" M 20 103 h 10"/>
<path d=" M 727 103 h 10"/>
</g>
</g>
</svg>
