<svg class="railroad" viewBox="0 0 793 306" xmlns="http://www.w3.org/2000/svg">
<style type="text/css">

    svg.railroad {
        background-color: hsl(30, 20%, 95%);
        background-size: 15px 15px;
        background-image: linear-gradient(to right, rgba(30, 30, 30, .05) 1px, transparent 1px),
                          linear-gradient(to bottom, rgba(30, 30, 30, .05) 1px, transparent 1px);
    }

    svg.railroad path {
        stroke-width: 3px;
        stroke: black;
        fill: transparent;
    }

    svg.railroad .debug {
        stroke-width: 1px;
        stroke: red;
    }

    svg.railroad text {
        font: 14px monospace;
        text-anchor: middle;
    }

    svg.railroad .nonterminal text {
        font-weight: bold;
    }

    svg.railroad text.comment {
        font: italic 12px monospace;
    }

    svg.railroad rect {
        stroke-width: 3px;
        stroke: black;
        fill:hsl(-290, 70%, 90%);
    }

    svg.railroad g.labeledbox > rect {
        stroke-width: 1px;
        stroke: grey;
        stroke-dasharray: 5px;
        fill:rgba(90, 90, 150, .1);
    }</style>
<g class="sequence">
<path d=" M 10 21 a 5 5 0 0 1 5 -5 a 5 5 0 0 1 5 5 a 5 5 0 0 1 -5 5 a 5 5 0 0 1 -5 -5 m 10 0 h 5"/>
<g class="sequence">
<text class="comment" x="99" y="26">
SEC-node-property</text>
<g class="choice">
<path d=" M 174 21 h 24 m 536 0 h 24"/>
<g class="sequence">
<g class="sequence">
<g class="terminal">
<rect height="22" rx="10" ry="10" width="76" x="198" y="10"/>
<text x="236" y="26">
modules</text>
</g>
<g class="terminal">
<rect height="22" rx="10" ry="10" width="28" x="284" y="10"/>
<text x="298" y="26">
:</text>
</g>
<g class="terminal">
<rect height="22" rx="10" ry="10" width="28" x="322" y="10"/>
<text x="336" y="26">
[</text>
</g>
<g class="choice">
<path d=" M 360 21 h 24 m 0 0 h 312 m -153 0 l -5 -5 m 0 10 l 5 -5 m 153 0"/>
<g/>
<path d=" M 360 21 a 12 12 0 0 1 12 12 v 0 m 312 0 v 0 a 12 12 0 0 1 12 -12"/>
<path d=" M 372 33 v 0 a 12 12 0 0 0 12 12 m 288 0 h 0 a 12 12 0 0 0 12 -12 v 0"/>
<g class="repeat">
<path d=" M 384 45 h 12 m 264 0 h 12 m -12 0 a 12 12 0 0 1 12 12 v 8 a 12 12 0 0 1 -12 12 m -28 0 h -236 m 121 0 l 5 -5 m 0 10 l -5 -5 m -121 0 a 12 12 0 0 1 -12 -12 v -8 a 12 12 0 0 1 12 -12"/>
<g class="terminal">
<rect height="22" rx="10" ry="10" width="28" x="632" y="66"/>
<text x="646" y="82">
,</text>
</g>
<g class="sequence">
<g class="nonterminal">
<rect height="22" width="52" x="396" y="34"/>
<text x="422" y="50">
name</text>
</g>
<g class="terminal">
<rect height="22" rx="10" ry="10" width="28" x="458" y="34"/>
<text x="472" y="50">
,</text>
</g>
<g class="nonterminal">
<rect height="22" width="164" x="496" y="34"/>
<text x="578" y="50">
module-description</text>
</g>
<path d=" M 448 45 h 10"/>
<path d=" M 486 45 h 10"/>
</g>
</g>
</g>
<path d=" M 274 21 h 10"/>
<path d=" M 312 21 h 10"/>
<path d=" M 350 21 h 10"/>
</g>
<g class="terminal">
<rect height="22" rx="10" ry="10" width="28" x="706" y="10"/>
<text x="720" y="26">
]</text>
</g>
<path d=" M 696 21 h 10"/>
</g>
<path d=" M 174 21 a 12 12 0 0 1 12 12 v 65 m 0 -29 l -5 -5 m 10 0 l -5 5 m 0 29 m 560 0 v -65 m 0 35 l -5 5 m 10 0 l -5 -5 m 0 -35 a 12 12 0 0 1 12 -12"/>
<path d=" M 186 98 v 33 m 560 0 v -33"/>
<path d=" M 186 131 v 33 m 560 0 v -33"/>
<path d=" M 186 164 v 33 m 560 0 v -33"/>
<path d=" M 186 232 v 41 m 560 0 v -41"/>
<path d=" M 186 98 v 0 a 12 12 0 0 0 12 12 m 304 0 h 232 m -113 0 l -5 -5 m 0 10 l 5 -5 m 113 0 a 12 12 0 0 0 12 -12 v 0"/>
<g class="sequence">
<g class="terminal">
<rect height="22" rx="10" ry="10" width="108" x="198" y="99"/>
<text x="252" y="115">
description</text>
</g>
<g class="terminal">
<rect height="22" rx="10" ry="10" width="28" x="316" y="99"/>
<text x="330" y="115">
:</text>
</g>
<g class="nonterminal">
<rect height="22" width="148" x="354" y="99"/>
<text x="428" y="115">
descriptive text</text>
</g>
<path d=" M 306 110 h 10"/>
<path d=" M 344 110 h 10"/>
</g>
<path d=" M 186 131 v 0 a 12 12 0 0 0 12 12 m 280 0 h 256 m -125 0 l -5 -5 m 0 10 l 5 -5 m 125 0 a 12 12 0 0 0 12 -12 v 0"/>
<g class="sequence">
<g class="terminal">
<rect height="22" rx="10" ry="10" width="116" x="198" y="132"/>
<text x="256" y="148">
equipment_id</text>
</g>
<g class="terminal">
<rect height="22" rx="10" ry="10" width="28" x="324" y="132"/>
<text x="338" y="148">
:</text>
</g>
<g class="nonterminal">
<rect height="22" width="116" x="362" y="132"/>
<text x="420" y="148">
equipment_id</text>
</g>
<path d=" M 314 143 h 10"/>
<path d=" M 352 143 h 10"/>
</g>
<path d=" M 186 164 v 0 a 12 12 0 0 0 12 12 m 280 0 h 256 m -125 0 l -5 -5 m 0 10 l 5 -5 m 125 0 a 12 12 0 0 0 12 -12 v 0"/>
<g class="sequence">
<g class="terminal">
<rect height="22" rx="10" ry="10" width="84" x="198" y="165"/>
<text x="240" y="181">
firmware</text>
</g>
<g class="terminal">
<rect height="22" rx="10" ry="10" width="28" x="292" y="165"/>
<text x="306" y="181">
:</text>
</g>
<g class="nonterminal">
<rect height="22" width="148" x="330" y="165"/>
<text x="404" y="181">
firmware version</text>
</g>
<path d=" M 282 176 h 10"/>
<path d=" M 320 176 h 10"/>
</g>
<path d=" M 186 197 v 35 a 12 12 0 0 0 12 12 m 311 0 h 225 m -109 0 l -5 -5 m 0 10 l 5 -5 m 109 0 a 12 12 0 0 0 12 -12 v -35"/>
<g class="sequence">
<g class="terminal">
<rect height="22" rx="10" ry="10" width="76" x="198" y="233"/>
<text x="236" y="249">
timeout</text>
</g>
<g class="terminal">
<rect height="22" rx="10" ry="10" width="28" x="284" y="233"/>
<text x="298" y="249">
:</text>
</g>
<g class="labeledbox">
<rect height="66" width="187" x="322" y="197"/>
<path d=" M 322 244 h 8 m 164 0 h 15"/>
<text class="comment" x="415" y="220">
a positive json-number</text>
<g class="nonterminal">
<rect height="22" width="164" x="330" y="233"/>
<text x="412" y="249">
timeout in seconds</text>
</g>
</g>
<path d=" M 274 244 h 10"/>
<path d=" M 312 244 h 10"/>
</g>
<path d=" M 186 273 v 0 a 12 12 0 0 0 12 12 m 100 0 h 436 m -215 0 l -5 -5 m 0 10 l 5 -5 m 215 0 a 12 12 0 0 0 12 -12 v 0"/>
<g class="sequence">
<g class="nonterminal">
<rect height="22" width="100" x="198" y="274"/>
<text x="248" y="290">
properties</text>
</g>
</g>
</g>
<path d=" M 164 21 h 10"/>
</g>
<path d=" M 768 21 h 5 a 5 5 0 0 1 5 -5 a 5 5 0 0 1 5 5 a 5 5 0 0 1 -5 5 a 5 5 0 0 1 -5 -5"/>
<path d=" M 25 21 h 10"/>
<path d=" M 758 21 h 10"/>
</g>
</svg>
