<svg class="railroad" viewBox="0 0 860 338" width="860" xmlns="http://www.w3.org/2000/svg">
<style type="text/css">

    svg.railroad {
        background-color: hsl(30, 20%, 95%);
        background-size: 15px 15px;
        background-image: linear-gradient(to right, rgba(30, 30, 30, .05) 1px, transparent 1px),
                          linear-gradient(to bottom, rgba(30, 30, 30, .05) 1px, transparent 1px);
    }

    svg.railroad path {
        stroke-width: 3px;
        stroke: black;
        fill: transparent;
    }

    svg.railroad .debug {
        stroke-width: 1px;
        stroke: red;
    }

    svg.railroad text {
        font: 14px monospace;
        text-anchor: middle;
    }

    svg.railroad .nonterminal text {
        font-weight: bold;
    }

    svg.railroad text.comment {
        font: italic 12px monospace;
    }

    svg.railroad rect {
        stroke-width: 3px;
        stroke: black;
        fill:hsl(-290, 70%, 90%);
    }

    svg.railroad g.labeledbox &gt; rect {
        stroke-width: 1px;
        stroke: grey;
        stroke-dasharray: 5px;
        fill:rgba(90, 90, 150, .1);
    }</style>
<g class="sequence">
<path d=" M 10 69 a 5 5 0 0 1 5 -5 a 5 5 0 0 1 5 5 a 5 5 0 0 1 -5 5 a 5 5 0 0 1 -5 -5 m 10 0 h 5"/>
<g class="sequence">
<text class="comment" x="99" y="74">
SEC-node-property</text>
<g class="choice">
<path d=" M 174 69 h 24 m 603 0 h 24"/>
<g class="sequence">
<g class="sequence">
<g class="terminal">
<rect height="22" rx="10" ry="10" width="92" x="198" y="58"/>
<text x="244" y="74">
&quot;modules&quot;</text>
</g>
<g class="terminal">
<rect height="22" rx="10" ry="10" width="28" x="300" y="58"/>
<text x="314" y="74">
:</text>
</g>
<g class="terminal">
<rect height="22" rx="10" ry="10" width="28" x="338" y="58"/>
<text x="352" y="74">
[</text>
</g>
<g class="optional">
<path d=" M 376 69 h 24 m -24 0 a 12 12 0 0 0 12 -12 v -35 a 12 12 0 0 1 12 -12 h 339 m -166 0 l -5 -5 m 0 10 l 5 -5 m 166 0 a 12 12 0 0 1 12 12 v 35 a 12 12 0 0 0 12 12 h -24"/>
<g class="sequence">
<g class="repeat">
<path d=" M 400 69 h 12 m 315 0 h 12 m -12 0 a 12 12 0 0 1 12 12 v 16 a 12 12 0 0 1 -12 12 m -28 0 h -287 m 146 0 l 5 -5 m 0 10 l -5 -5 m -146 0 a 12 12 0 0 1 -12 -12 v -16 a 12 12 0 0 1 12 -12"/>
<g class="terminal">
<rect height="22" rx="10" ry="10" width="28" x="699" y="98"/>
<text x="713" y="114">
,</text>
</g>
<g class="sequence">
<g class="labeledbox">
<rect height="66" width="103" x="412" y="22"/>
<path d=" M 412 69 h 8 m 52 0 h 43"/>
<text class="comment" x="463" y="45">
module name</text>
<g class="nonterminal">
<rect height="22" width="52" x="420" y="58"/>
<text x="446" y="74">
name</text>
</g>
</g>
<g class="terminal">
<rect height="22" rx="10" ry="10" width="28" x="525" y="58"/>
<text x="539" y="74">
,</text>
</g>
<g class="nonterminal">
<rect height="22" width="164" x="563" y="58"/>
<text x="645" y="74">
module-description</text>
</g>
<path d=" M 515 69 h 10"/>
<path d=" M 553 69 h 10"/>
</g>
</g>
</g>
</g>
<path d=" M 290 69 h 10"/>
<path d=" M 328 69 h 10"/>
<path d=" M 366 69 h 10"/>
</g>
<g class="terminal">
<rect height="22" rx="10" ry="10" width="28" x="773" y="58"/>
<text x="787" y="74">
]</text>
</g>
<path d=" M 763 69 h 10"/>
</g>
<path d=" M 174 69 a 12 12 0 0 1 12 12 v 49 m 627 0 v -49 a 12 12 0 0 1 12 -12"/>
<path d=" M 186 130 v 33 m 627 0 v -33"/>
<path d=" M 186 163 v 33 m 627 0 v -33"/>
<path d=" M 186 196 v 33 m 627 0 v -33"/>
<path d=" M 186 264 v 41 m 627 0 v -41"/>
<path d=" M 186 130 v 0 a 12 12 0 0 0 12 12 m 320 0 h 283 m -138 0 l -5 -5 m 0 10 l 5 -5 m 138 0 a 12 12 0 0 0 12 -12 v 0"/>
<g class="sequence">
<g class="terminal">
<rect height="22" rx="10" ry="10" width="124" x="198" y="131"/>
<text x="260" y="147">
&quot;description&quot;</text>
</g>
<g class="terminal">
<rect height="22" rx="10" ry="10" width="28" x="332" y="131"/>
<text x="346" y="147">
:</text>
</g>
<g class="nonterminal">
<rect height="22" width="148" x="370" y="131"/>
<text x="444" y="147">
descriptive text</text>
</g>
<path d=" M 322 142 h 10"/>
<path d=" M 360 142 h 10"/>
</g>
<path d=" M 186 163 v 0 a 12 12 0 0 0 12 12 m 296 0 h 307 m -150 0 l -5 -5 m 0 10 l 5 -5 m 150 0 a 12 12 0 0 0 12 -12 v 0"/>
<g class="sequence">
<g class="terminal">
<rect height="22" rx="10" ry="10" width="132" x="198" y="164"/>
<text x="264" y="180">
&quot;equipment_id&quot;</text>
</g>
<g class="terminal">
<rect height="22" rx="10" ry="10" width="28" x="340" y="164"/>
<text x="354" y="180">
:</text>
</g>
<g class="nonterminal">
<rect height="22" width="116" x="378" y="164"/>
<text x="436" y="180">
equipment_id</text>
</g>
<path d=" M 330 175 h 10"/>
<path d=" M 368 175 h 10"/>
</g>
<path d=" M 186 196 v 0 a 12 12 0 0 0 12 12 m 296 0 h 307 m -150 0 l -5 -5 m 0 10 l 5 -5 m 150 0 a 12 12 0 0 0 12 -12 v 0"/>
<g class="sequence">
<g class="terminal">
<rect height="22" rx="10" ry="10" width="100" x="198" y="197"/>
<text x="248" y="213">
&quot;firmware&quot;</text>
</g>
<g class="terminal">
<rect height="22" rx="10" ry="10" width="28" x="308" y="197"/>
<text x="322" y="213">
:</text>
</g>
<g class="nonterminal">
<rect height="22" width="148" x="346" y="197"/>
<text x="420" y="213">
firmware version</text>
</g>
<path d=" M 298 208 h 10"/>
<path d=" M 336 208 h 10"/>
</g>
<path d=" M 186 229 v 35 a 12 12 0 0 0 12 12 m 327 0 h 276 m -135 0 l -5 -5 m 0 10 l 5 -5 m 135 0 a 12 12 0 0 0 12 -12 v -35"/>
<g class="sequence">
<g class="terminal">
<rect height="22" rx="10" ry="10" width="92" x="198" y="265"/>
<text x="244" y="281">
&quot;timeout&quot;</text>
</g>
<g class="terminal">
<rect height="22" rx="10" ry="10" width="28" x="300" y="265"/>
<text x="314" y="281">
:</text>
</g>
<g class="labeledbox">
<rect height="66" width="187" x="338" y="229"/>
<path d=" M 338 276 h 8 m 164 0 h 15"/>
<text class="comment" x="431" y="252">
a positive json-number</text>
<g class="nonterminal">
<rect height="22" width="164" x="346" y="265"/>
<text x="428" y="281">
timeout in seconds</text>
</g>
</g>
<path d=" M 290 276 h 10"/>
<path d=" M 328 276 h 10"/>
</g>
<path d=" M 186 305 v 0 a 12 12 0 0 0 12 12 m 140 0 h 463 m -228 0 l -5 -5 m 0 10 l 5 -5 m 228 0 a 12 12 0 0 0 12 -12 v 0"/>
<g class="sequence">
<g class="nonterminal">
<rect height="22" width="140" x="198" y="306"/>
<text x="268" y="322">
custom-property</text>
</g>
</g>
</g>
<path d=" M 164 69 h 10"/>
</g>
<path d=" M 835 69 h 5 a 5 5 0 0 1 5 -5 a 5 5 0 0 1 5 5 a 5 5 0 0 1 -5 5 a 5 5 0 0 1 -5 -5"/>
<path d=" M 25 69 h 10"/>
<path d=" M 825 69 h 10"/>
</g>
</svg>