<svg class="railroad" viewBox="0 0 527 131" width="527" xmlns="http://www.w3.org/2000/svg">
<style type="text/css">

    svg.railroad {
        background-color: hsl(30, 20%, 95%);
        background-size: 15px 15px;
        background-image: linear-gradient(to right, rgba(30, 30, 30, .05) 1px, transparent 1px),
                          linear-gradient(to bottom, rgba(30, 30, 30, .05) 1px, transparent 1px);
    }

    svg.railroad path {
        stroke-width: 3px;
        stroke: black;
        fill: transparent;
    }

    svg.railroad .debug {
        stroke-width: 1px;
        stroke: red;
    }

    svg.railroad text {
        font: 14px monospace;
        text-anchor: middle;
    }

    svg.railroad .nonterminal text {
        font-weight: bold;
    }

    svg.railroad text.comment {
        font: italic 12px monospace;
    }

    svg.railroad rect {
        stroke-width: 3px;
        stroke: black;
        fill:hsl(-290, 70%, 90%);
    }

    svg.railroad g.labeledbox &gt; rect {
        stroke-width: 1px;
        stroke: grey;
        stroke-dasharray: 5px;
        fill:rgba(90, 90, 150, .1);
    }</style>
<g class="sequence">
<g class="sequence">
<g>
<text class="comment" x="88" y="75">
SEC-node-description</text>
</g>
<g class="labeledbox">
<rect height="111" width="320" x="177" y="10"/>
<path d=" M 177 70 h 8 m 304 0 h 8"/>
<g>
<text class="comment" x="316" y="33">
a json-object, keys MUST be unique!</text>
</g>
<g class="sequence">
<g class="terminal">
<rect height="22" rx="10" ry="10" width="28" x="185" y="59"/>
<text x="199" y="75">
{</text>
</g>
<g class="optional">
<path d=" M 223 70 h 24 m -24 0 a 12 12 0 0 0 12 -12 v 0 a 12 12 0 0 1 12 -12 h 180 m -87 0 l -5 -5 m 0 10 l 5 -5 m 87 0 a 12 12 0 0 1 12 12 v 0 a 12 12 0 0 0 12 12 h -24"/>
<g class="sequence">
<g class="repeat">
<path d=" M 247 70 h 12 m 156 0 h 12 m -12 0 a 12 12 0 0 1 12 12 v 8 a 12 12 0 0 1 -12 12 m -28 0 h -128 m 67 0 l 5 -5 m 0 10 l -5 -5 m -67 0 a 12 12 0 0 1 -12 -12 v -8 a 12 12 0 0 1 12 -12"/>
<g class="terminal">
<rect height="22" rx="10" ry="10" width="28" x="387" y="91"/>
<text x="401" y="107">
,</text>
</g>
<g class="nonterminal">
<rect height="22" width="156" x="259" y="59"/>
<text x="337" y="75">
SEC-node-property</text>
</g>
</g>
</g>
</g>
<g class="terminal">
<rect height="22" rx="10" ry="10" width="28" x="461" y="59"/>
<text x="475" y="75">
}</text>
</g>
<path d=" M 213 70 h 10"/>
<path d=" M 451 70 h 10"/>
</g>
</g>
<path d=" M 167 70 h 10"/>
</g>
<path d=" M 507 70 h 5 m -5 5 l 5 -5 l -5 -5 m 5 5"/>
<path d=" M 497 70 h 10"/>
</g>
</svg>