<svg class="railroad" viewBox="0 0 800 338" width="800" xmlns="http://www.w3.org/2000/svg">
<style type="text/css">

    svg.railroad {
        background-color: hsl(30, 20%, 95%);
        background-size: 15px 15px;
        background-image: linear-gradient(to right, rgba(30, 30, 30, .05) 1px, transparent 1px),
                          linear-gradient(to bottom, rgba(30, 30, 30, .05) 1px, transparent 1px);
    }

    svg.railroad path {
        stroke-width: 3px;
        stroke: black;
        fill: transparent;
    }

    svg.railroad .debug {
        stroke-width: 1px;
        stroke: red;
    }

    svg.railroad text {
        font: 14px monospace;
        text-anchor: middle;
    }

    svg.railroad .nonterminal text {
        font-weight: bold;
    }

    svg.railroad text.comment {
        font: italic 12px monospace;
    }

    svg.railroad rect {
        stroke-width: 3px;
        stroke: black;
        fill:hsl(-290, 70%, 90%);
    }

    svg.railroad g.labeledbox &gt; rect {
        stroke-width: 1px;
        stroke: grey;
        stroke-dasharray: 5px;
        fill:rgba(90, 90, 150, .1);
    }</style>
<g class="sequence">
<g class="sequence">
<g>
<text class="comment" x="74" y="74">
SEC-node-property</text>
</g>
<g class="choice">
<path d=" M 149 69 h 24 m 573 0 h 24"/>
<g class="sequence">
<g class="sequence">
<g class="terminal">
<rect height="22" rx="10" ry="10" width="100" x="173" y="58"/>
<text x="223" y="74">
&quot;modules&quot;:</text>
</g>
<g class="terminal">
<rect height="22" rx="10" ry="10" width="28" x="283" y="58"/>
<text x="297" y="74">
[</text>
</g>
<g class="optional">
<path d=" M 321 69 h 24 m -24 0 a 12 12 0 0 0 12 -12 v -35 a 12 12 0 0 1 12 -12 h 339 m -166 0 l -5 -5 m 0 10 l 5 -5 m 166 0 a 12 12 0 0 1 12 12 v 35 a 12 12 0 0 0 12 12 h -24"/>
<g class="sequence">
<g class="repeat">
<path d=" M 345 69 h 12 m 315 0 h 12 m -12 0 a 12 12 0 0 1 12 12 v 16 a 12 12 0 0 1 -12 12 m -28 0 h -287 m 146 0 l 5 -5 m 0 10 l -5 -5 m -146 0 a 12 12 0 0 1 -12 -12 v -16 a 12 12 0 0 1 12 -12"/>
<g class="terminal">
<rect height="22" rx="10" ry="10" width="28" x="644" y="98"/>
<text x="658" y="114">
,</text>
</g>
<g class="sequence">
<g class="labeledbox">
<rect height="66" width="103" x="357" y="22"/>
<path d=" M 357 69 h 8 m 52 0 h 43"/>
<g>
<text class="comment" x="408" y="45">
module name</text>
</g>
<g class="nonterminal">
<rect height="22" width="52" x="365" y="58"/>
<text x="391" y="74">
name</text>
</g>
</g>
<g class="terminal">
<rect height="22" rx="10" ry="10" width="28" x="470" y="58"/>
<text x="484" y="74">
,</text>
</g>
<g class="nonterminal">
<rect height="22" width="164" x="508" y="58"/>
<text x="590" y="74">
module-description</text>
</g>
<path d=" M 460 69 h 10"/>
<path d=" M 498 69 h 10"/>
</g>
</g>
</g>
</g>
<path d=" M 273 69 h 10"/>
<path d=" M 311 69 h 10"/>
</g>
<g class="terminal">
<rect height="22" rx="10" ry="10" width="28" x="718" y="58"/>
<text x="732" y="74">
]</text>
</g>
<path d=" M 708 69 h 10"/>
</g>
<path d=" M 149 69 a 12 12 0 0 1 12 12 v 49 m 597 0 v -49 a 12 12 0 0 1 12 -12"/>
<path d=" M 161 130 v 33 m 597 0 v -33"/>
<path d=" M 161 163 v 33 m 597 0 v -33"/>
<path d=" M 161 196 v 33 m 597 0 v -33"/>
<path d=" M 161 264 v 41 m 597 0 v -41"/>
<path d=" M 161 130 v 0 a 12 12 0 0 0 12 12 m 290 0 h 283 m -138 0 l -5 -5 m 0 10 l 5 -5 m 138 0 a 12 12 0 0 0 12 -12 v 0"/>
<g class="sequence">
<g class="terminal">
<rect height="22" rx="10" ry="10" width="132" x="173" y="131"/>
<text x="239" y="147">
&quot;description&quot;:</text>
</g>
<g class="nonterminal">
<rect height="22" width="148" x="315" y="131"/>
<text x="389" y="147">
descriptive text</text>
</g>
<path d=" M 305 142 h 10"/>
</g>
<path d=" M 161 163 v 0 a 12 12 0 0 0 12 12 m 266 0 h 307 m -150 0 l -5 -5 m 0 10 l 5 -5 m 150 0 a 12 12 0 0 0 12 -12 v 0"/>
<g class="sequence">
<g class="terminal">
<rect height="22" rx="10" ry="10" width="140" x="173" y="164"/>
<text x="243" y="180">
&quot;equipment_id&quot;:</text>
</g>
<g class="nonterminal">
<rect height="22" width="116" x="323" y="164"/>
<text x="381" y="180">
equipment_id</text>
</g>
<path d=" M 313 175 h 10"/>
</g>
<path d=" M 161 196 v 0 a 12 12 0 0 0 12 12 m 266 0 h 307 m -150 0 l -5 -5 m 0 10 l 5 -5 m 150 0 a 12 12 0 0 0 12 -12 v 0"/>
<g class="sequence">
<g class="terminal">
<rect height="22" rx="10" ry="10" width="108" x="173" y="197"/>
<text x="227" y="213">
&quot;firmware&quot;:</text>
</g>
<g class="nonterminal">
<rect height="22" width="148" x="291" y="197"/>
<text x="365" y="213">
firmware version</text>
</g>
<path d=" M 281 208 h 10"/>
</g>
<path d=" M 161 229 v 35 a 12 12 0 0 0 12 12 m 297 0 h 276 m -135 0 l -5 -5 m 0 10 l 5 -5 m 135 0 a 12 12 0 0 0 12 -12 v -35"/>
<g class="sequence">
<g class="terminal">
<rect height="22" rx="10" ry="10" width="100" x="173" y="265"/>
<text x="223" y="281">
&quot;timeout&quot;:</text>
</g>
<g class="labeledbox">
<rect height="66" width="187" x="283" y="229"/>
<path d=" M 283 276 h 8 m 164 0 h 15"/>
<g>
<text class="comment" x="376" y="252">
a positive json-number</text>
</g>
<g class="nonterminal">
<rect height="22" width="164" x="291" y="265"/>
<text x="373" y="281">
timeout in seconds</text>
</g>
</g>
<path d=" M 273 276 h 10"/>
</g>
<path d=" M 161 305 v 0 a 12 12 0 0 0 12 12 m 140 0 h 433 m -213 0 l -5 -5 m 0 10 l 5 -5 m 213 0 a 12 12 0 0 0 12 -12 v 0"/>
<g class="sequence">
<g class="nonterminal">
<rect height="22" width="140" x="173" y="306"/>
<text x="243" y="322">
custom-property</text>
</g>
</g>
</g>
<path d=" M 139 69 h 10"/>
</g>
<path d=" M 780 69 h 5 m -5 5 l 5 -5 l -5 -5 m 5 5"/>
<path d=" M 770 69 h 10"/>
</g>
</svg>