<svg class="railroad" viewBox="0 0 380 165" width="304pt" xmlns="http://www.w3.org/2000/svg">
<style type="text/css">

    svg.railroad {
        background-color: hsl(30, 20%, 95%);
        background-size: 15px 15px;
        background-image: linear-gradient(to right, rgba(30, 30, 30, .05) 1px, transparent 1px),
                          linear-gradient(to bottom, rgba(30, 30, 30, .05) 1px, transparent 1px);
    }

    svg.railroad path {
        stroke-width: 3px;
        stroke: black;
        fill: transparent;
    }

    svg.railroad .debug {
        stroke-width: 1px;
        stroke: red;
    }

    svg.railroad text {
        font: 14px monospace;
        text-anchor: middle;
    }

    svg.railroad .nonterminal text {
        font-weight: bold;
    }

    svg.railroad text.comment {
        font: italic 12px monospace;
    }

    svg.railroad rect {
        stroke-width: 3px;
        stroke: black;
        fill:hsl(-290, 70%, 90%);
    }

    svg.railroad g.labeledbox > rect {
        stroke-width: 1px;
        stroke: grey;
        stroke-dasharray: 5px;
        fill:rgba(90, 90, 150, .1);
    }</style>
<g class="verticalgrid">
<g class="horizontalgrid">
<g class="nonterminal">
<rect height="22" width="188" x="10" y="10"/>
<text x="104" y="26">
SEC-node-description</text>
</g>
</g>
<g class="sequence">
<path d=" M 10 99 l 5 5 l -5 5 m 5 -5 h 5"/>
<g class="sequence">
<g class="labeledbox">
<rect height="111" width="320" x="30" y="44"/>
<path d=" M 30 104 h 8 m 304 0 h 8"/>
<g>
<text class="comment" x="169" y="67">
a json-object, keys MUST be unique!</text>
</g>
<g class="sequence">
<g class="terminal">
<rect height="22" rx="10" ry="10" width="28" x="38" y="93"/>
<text x="52" y="109">
{</text>
</g>
<g class="optional">
<path d=" M 76 104 h 24 m -24 0 a 12 12 0 0 0 12 -12 v 0 a 12 12 0 0 1 12 -12 h 180 m -87 0 l -5 -5 m 0 10 l 5 -5 m 87 0 a 12 12 0 0 1 12 12 v 0 a 12 12 0 0 0 12 12 h -24"/>
<g class="sequence">
<g class="repeat">
<path d=" M 100 104 h 12 m 156 0 h 12 m -12 0 a 12 12 0 0 1 12 12 v 8 a 12 12 0 0 1 -12 12 m -28 0 h -128 m 67 0 l 5 -5 m 0 10 l -5 -5 m -67 0 a 12 12 0 0 1 -12 -12 v -8 a 12 12 0 0 1 12 -12"/>
<g class="terminal">
<rect height="22" rx="10" ry="10" width="28" x="240" y="125"/>
<text x="254" y="141">
,</text>
</g>
<g class="nonterminal">
<rect height="22" width="156" x="112" y="93"/>
<text x="190" y="109">
SEC-node-property</text>
</g>
</g>
</g>
</g>
<g class="terminal">
<rect height="22" rx="10" ry="10" width="28" x="314" y="93"/>
<text x="328" y="109">
}</text>
</g>
<path d=" M 66 104 h 10"/>
<path d=" M 304 104 h 10"/>
</g>
</g>
</g>
<path d=" M 360 104 h 5 m -5 5 l 5 -5 l -5 -5 m 5 5"/>
<path d=" M 20 104 h 10"/>
<path d=" M 350 104 h 10"/>
</g>
</g>
</svg>
