<svg class="railroad" viewBox="0 0 557 142" xmlns="http://www.w3.org/2000/svg">
<style type="text/css">

    svg.railroad {
        background-color: hsl(30, 20%, 95%);
        background-size: 15px 15px;
        background-image: linear-gradient(to right, rgba(30, 30, 30, .05) 1px, transparent 1px),
                          linear-gradient(to bottom, rgba(30, 30, 30, .05) 1px, transparent 1px);
    }

    svg.railroad path {
        stroke-width: 3px;
        stroke: black;
        fill: transparent;
    }

    svg.railroad .debug {
        stroke-width: 1px;
        stroke: red;
    }

    svg.railroad text {
        font: 14px monospace;
        text-anchor: middle;
    }

    svg.railroad .nonterminal text {
        font-weight: bold;
    }

    svg.railroad text.comment {
        font: italic 12px monospace;
    }

    svg.railroad rect {
        stroke-width: 3px;
        stroke: black;
        fill:hsl(-290, 70%, 90%);
    }

    svg.railroad g.labeledbox > rect {
        stroke-width: 1px;
        stroke: grey;
        stroke-dasharray: 5px;
        fill:rgba(90, 90, 150, .1);
    }</style>
<g class="sequence">
<path d=" M 10 57 a 5 5 0 0 1 5 -5 a 5 5 0 0 1 5 5 a 5 5 0 0 1 -5 5 a 5 5 0 0 1 -5 -5 m 10 0 h 5"/>
<g class="sequence">
<text class="comment" x="113" y="62">
SEC-node-description</text>
<g class="labeledbox">
<rect height="122" width="320" x="202" y="10"/>
<path d=" M 202 57 h 8 m 304 0 h 8"/>
<text class="comment" x="341" y="33">
a json-object, keys MUST be unique!</text>
<g class="sequence">
<g class="terminal">
<rect height="22" rx="10" ry="10" width="28" x="210" y="46"/>
<text x="224" y="62">
{</text>
</g>
<g class="sequence">
<g class="choice">
<path d=" M 248 57 h 24 m 0 0 h 204 m -99 0 l -5 -5 m 0 10 l 5 -5 m 99 0"/>
<g/>
<path d=" M 248 57 a 12 12 0 0 1 12 12 v 0 m 204 0 v 0 a 12 12 0 0 1 12 -12"/>
<path d=" M 260 69 v 0 a 12 12 0 0 0 12 12 m 180 0 h 0 a 12 12 0 0 0 12 -12 v 0"/>
<g class="repeat">
<path d=" M 272 81 h 12 m 156 0 h 12 m -12 0 a 12 12 0 0 1 12 12 v 8 a 12 12 0 0 1 -12 12 m -28 0 h -128 m 67 0 l 5 -5 m 0 10 l -5 -5 m -67 0 a 12 12 0 0 1 -12 -12 v -8 a 12 12 0 0 1 12 -12"/>
<g class="terminal">
<rect height="22" rx="10" ry="10" width="28" x="412" y="102"/>
<text x="426" y="118">
,</text>
</g>
<g class="sequence">
<g class="nonterminal">
<rect height="22" width="156" x="284" y="70"/>
<text x="362" y="86">
SEC-node-property</text>
</g>
</g>
</g>
</g>
</g>
<g class="terminal">
<rect height="22" rx="10" ry="10" width="28" x="486" y="46"/>
<text x="500" y="62">
}</text>
</g>
<path d=" M 238 57 h 10"/>
<path d=" M 476 57 h 10"/>
</g>
</g>
<path d=" M 192 57 h 10"/>
</g>
<path d=" M 532 57 h 5 a 5 5 0 0 1 5 -5 a 5 5 0 0 1 5 5 a 5 5 0 0 1 -5 5 a 5 5 0 0 1 -5 -5"/>
<path d=" M 25 57 h 10"/>
<path d=" M 522 57 h 10"/>
</g>
</svg>
