<?xml version="1.0" encoding="UTF-8" standalone="no"?>
<!-- Created with Inkscape (http://www.inkscape.org/) -->

<svg
   xmlns:dc="http://purl.org/dc/elements/1.1/"
   xmlns:cc="http://creativecommons.org/ns#"
   xmlns:rdf="http://www.w3.org/1999/02/22-rdf-syntax-ns#"
   xmlns:svg="http://www.w3.org/2000/svg"
   xmlns="http://www.w3.org/2000/svg"
   xmlns:sodipodi="http://sodipodi.sourceforge.net/DTD/sodipodi-0.dtd"
   xmlns:inkscape="http://www.inkscape.org/namespaces/inkscape"
   version="1.1"
   id="svg2"
   xml:space="preserve"
   width="621.33331"
   height="172"
   viewBox="0 0 621.33331 172"
   sodipodi:docname="SECoP12.svg"
   inkscape:version="0.92.2 5c3e80d, 2017-08-06"><metadata
     id="metadata8"><rdf:RDF><cc:Work
         rdf:about=""><dc:format>image/svg+xml</dc:format><dc:type
           rdf:resource="http://purl.org/dc/dcmitype/StillImage" /><dc:title></dc:title></cc:Work></rdf:RDF></metadata><defs
     id="defs6" /><sodipodi:namedview
     pagecolor="#ffffff"
     bordercolor="#666666"
     borderopacity="1"
     objecttolerance="10"
     gridtolerance="10"
     guidetolerance="10"
     inkscape:pageopacity="0"
     inkscape:pageshadow="2"
     inkscape:window-width="784"
     inkscape:window-height="480"
     id="namedview4"
     showgrid="false"
     inkscape:zoom="0.47639487"
     inkscape:cx="310.66666"
     inkscape:cy="86"
     inkscape:window-x="431"
     inkscape:window-y="201"
     inkscape:window-maximized="0"
     inkscape:current-layer="g10" /><g
     id="g10"
     inkscape:groupmode="layer"
     inkscape:label="SECoP12"
     transform="matrix(1.3333333,0,0,-1.3333333,0,172)"><path
       d="M 376.869,31.958 V 0.707 h -20.452 v 90.729 h 32.028 c 22.871,0 34.296,-9.632 34.296,-28.918 0,-9.114 -3.283,-16.479 -9.848,-22.116 -6.566,-5.615 -15.313,-8.444 -26.284,-8.444 h -9.74"
       style="fill:#231f20;fill-opacity:1;fill-rule:evenodd;stroke:none"
       id="path12"
       inkscape:connector-curvature="0" /><path
       d="m 307.091,0.709 c -10.799,0 -19.286,3.024 -25.463,9.07 -6.177,6.048 -9.265,14.276 -9.265,24.643 0,10.712 3.196,19.113 9.61,25.16 6.415,6.047 15.097,9.071 26.003,9.071 10.755,0 19.2,-3.024 25.312,-9.071 6.112,-6.047 9.178,-14.06 9.178,-24.016 0,-10.755 -3.152,-19.264 -9.459,-25.506 -6.306,-6.241 -14.945,-9.351 -25.916,-9.351"
       style="fill:#231f20;fill-opacity:1;fill-rule:evenodd;stroke:none"
       id="path14"
       inkscape:connector-curvature="0" /><path
       d="M 376.869,75.757 V 47.465 h 8.034 c 10.885,0 16.327,4.773 16.327,14.297 0,9.33 -5.442,13.995 -16.327,13.995 h -8.034"
       style="fill:#ffffff;fill-opacity:1;fill-rule:evenodd;stroke:none"
       id="path16"
       inkscape:connector-curvature="0" /><path
       d="m 307.609,53.341 c -4.73,0 -8.401,-1.62 -11.014,-4.86 -2.613,-3.261 -3.931,-7.861 -3.931,-13.8 0,-12.44 5.032,-18.66 15.075,-18.66 9.567,0 14.361,6.393 14.361,19.157 0,12.116 -4.837,18.163 -14.491,18.163"
       style="fill:#ffffff;fill-opacity:1;fill-rule:evenodd;stroke:none"
       id="path18"
       inkscape:connector-curvature="0" /><path
       d="M 261.39,5.398 C 255.007,2.31 246.643,0.767 236.338,0.767 c -13.433,0 -24.009,3.942 -31.706,11.848 -7.718,7.906 -11.556,18.44 -11.556,31.602 0,14.017 4.318,25.385 12.975,34.104 8.657,8.719 19.899,13.079 33.708,13.079 8.552,0 15.77,-1.084 21.631,-3.254 V 69.143 c -5.861,3.505 -12.536,5.257 -20.046,5.257 -8.218,0 -14.872,-2.587 -19.92,-7.76 -5.048,-5.173 -7.572,-12.181 -7.572,-21.026 0,-8.469 2.378,-15.227 7.155,-20.254 4.756,-5.027 11.18,-7.551 19.253,-7.551 7.697,0 14.747,1.877 21.13,5.632 V 5.398"
       style="fill:#231f20;fill-opacity:1;fill-rule:evenodd;stroke:none"
       id="path20"
       inkscape:connector-curvature="0" /><path
       d="m 181.805,0.707 h -54.424 v 90.729 h 52.33 V 74.806 H 147.833 V 54.613 h 29.674 V 38.048 H 147.833 V 17.294 h 33.972 V 0.707"
       style="fill:#231f20;fill-opacity:1;fill-rule:evenodd;stroke:none"
       id="path22"
       inkscape:connector-curvature="0" /><path
       d="m 0.53,1.131 c 22.634,0 45.187,0.004 67.821,0.004 18.455,0 26.294,2.98 34.304,10.747 5.351,5.189 11.533,14.13 11.473,27.438 -0.148,32.466 -29.653,28.814 -29.136,47.378 0.117,4.199 2.726,8.219 6.413,10.267 3.502,1.945 7.025,2.902 12.789,2.916 23.571,0.058 -0.078,0 24.449,0.038 l 320.709,-10e-4 16.175,27.836 -349.96,10e-4 C 99.861,127.374 83.124,128.611 70.467,116.931 60.333,107.58 56.847,96.83 56.807,87.109 56.764,76.8 59.959,69.806 63.659,64.474 72.448,51.81 86.773,49.315 86.652,39.772 86.522,29.527 76.69,28.313 60.478,28.393 45.803,28.465 31.082,28.344 16.403,28.397 Z"
       style="fill:#231f20;fill-opacity:1;fill-rule:evenodd;stroke:#231f20;stroke-width:0.5;stroke-linecap:butt;stroke-linejoin:miter;stroke-miterlimit:22.9260006;stroke-dasharray:none;stroke-opacity:1"
       id="path24"
       inkscape:connector-curvature="0" /></g></svg>