<?xml version="1.0" encoding="UTF-8" standalone="no"?>
<!-- Created with Inkscape (http://www.inkscape.org/) -->

<svg
   version="1.1"
   id="svg2"
   width="621.33331"
   height="172"
   viewBox="0 0 621.33331 172"
   sodipodi:docname="SECoP-logo.svg"
   inkscape:version="1.2.2 (b0a8486541, 2022-12-01)"
   xmlns:inkscape="http://www.inkscape.org/namespaces/inkscape"
   xmlns:sodipodi="http://sodipodi.sourceforge.net/DTD/sodipodi-0.dtd"
   xmlns="http://www.w3.org/2000/svg"
   xmlns:svg="http://www.w3.org/2000/svg">
  <defs
     id="defs6" />
  <sodipodi:namedview
     id="namedview4"
     pagecolor="#505050"
     bordercolor="#eeeeee"
     borderopacity="1"
     inkscape:showpageshadow="0"
     inkscape:pageopacity="0"
     inkscape:pagecheckerboard="0"
     inkscape:deskcolor="#505050"
     showgrid="false"
     inkscape:zoom="1.372093"
     inkscape:cx="310.47458"
     inkscape:cy="86"
     inkscape:window-width="1920"
     inkscape:window-height="1171"
     inkscape:window-x="1920"
     inkscape:window-y="0"
     inkscape:window-maximized="1"
     inkscape:current-layer="g10" />
  <g
     id="g8"
     inkscape:groupmode="layer"
     inkscape:label="ink_ext_XXXXXX"
     transform="matrix(1.3333333,0,0,-1.3333333,0,172)">
    <g
       id="g10"
       transform="scale(0.1)">
      <path
         id="path12"
         style="fill:#231f20;fill-opacity:1;fill-rule:evenodd;stroke:none"
         d="M 3564.17 914.37014 L 3564.17 7.0751955 L 3768.6915 7.0751955 L 3768.6915 319.58497 L 3866.089 319.58497 C 3975.7989 319.58497 4063.266 347.86662 4128.9259 404.01856 C 4194.5758 460.39051 4227.4073 534.04377 4227.4073 625.18068 C 4227.4073 818.04349 4113.1532 914.37014 3884.4435 914.37014 L 3564.17 914.37014 z M 3768.6915 757.57326 L 3849.0235 757.57326 C 3957.8734 757.57326 4012.295 710.91899 4012.295 617.62209 C 4012.295 522.37618 3957.8734 474.63868 3849.0235 474.63868 L 3768.6915 474.63868 L 3768.6915 757.57326 z " />
      <path
         id="path14"
         style="fill:#231f20;fill-opacity:1;fill-rule:evenodd;stroke:none"
         d="M 3079.7608 686.52834 C 2970.7009 686.52834 2883.8863 656.29415 2819.7364 595.82521 C 2755.5965 535.35327 2723.628 451.34053 2723.628 344.22364 C 2723.628 240.55575 2754.5094 158.26991 2816.2794 97.792971 C 2878.0493 37.324232 2962.9333 7.0898439 3070.9132 7.0898439 C 3180.6231 7.0898439 3267.0134 38.191034 3330.0733 100.60547 C 3393.1433 163.02341 3424.6583 248.11318 3424.6583 355.66407 C 3424.6583 455.22297 3394.0058 535.35327 3332.8858 595.82521 C 3271.7659 656.29415 3187.3207 686.52834 3079.7608 686.52834 z M 3076.0841 533.40822 C 3172.624 533.40822 3221.0011 472.94311 3221.0011 351.78224 C 3221.0011 224.14236 3173.0577 160.20996 3077.3878 160.20996 C 2976.9579 160.20996 2926.6407 222.39889 2926.6407 346.80177 C 2926.6407 406.19171 2939.8271 452.20538 2965.9571 484.81935 C 2992.0871 517.21332 3028.7841 533.40822 3076.0841 533.40822 z " />
      <path
         d="M 2613.9,53.9805 C 2550.07,23.1055 2466.43,7.66797 2363.38,7.66797 c -134.33,0 -240.09,39.42583 -317.06,118.48403 -77.18,79.055 -115.55,184.395 -115.55,316.016 0,140.172 43.18,253.855 129.74,341.047 86.57,87.191 198.99,130.785 337.08,130.785 85.52,0 157.7,-10.844 216.31,-32.535 V 691.434 c -58.61,35.046 -125.36,52.562 -200.45,52.562 -82.19,0 -148.73,-25.863 -199.21,-77.594 -50.48,-51.73 -75.72,-121.816 -75.72,-210.261 0,-84.688 23.78,-152.27 71.55,-202.539 47.56,-50.274 111.8,-75.512 192.53,-75.512 76.97,0 147.47,18.773 211.3,56.316 V 53.9805"
         style="fill:#231f20;fill-opacity:1;fill-rule:evenodd;stroke:none"
         id="path20" />
      <path
         d="M 1818.05,7.07031 H 1273.81 V 914.363 h 523.3 v -166.3 h -318.78 v -201.93 h 296.74 V 380.48 H 1478.33 V 172.938 h 339.72 V 7.07031"
         style="fill:#231f20;fill-opacity:1;fill-rule:evenodd;stroke:none"
         id="path22" />
      <path
         d="m 5.29688,11.3164 c 226.34812,0 451.86712,0.0391 678.21112,0.0391 184.555,0 262.945,29.7929 343.042,107.4685 53.5,51.887 115.33,141.297 114.73,274.379 -1.48,324.66 -296.534,288.137 -291.358,473.774 1.164,41.996 27.258,82.187 64.125,102.675 35.019,19.45 70.254,29.016 127.893,29.164 235.71,0.579 -0.78,0 244.49,0.379 l 3207.09,-0.011 161.75,278.356 -3499.6,0.01 C 998.613,1273.74 831.242,1286.11 704.672,1169.31 603.332,1075.8 568.473,968.301 568.066,871.086 567.637,767.996 599.586,698.063 636.594,644.746 724.48,518.102 867.73,493.148 866.523,397.719 865.223,295.273 766.898,283.129 604.781,283.93 458.027,284.652 310.82,283.441 164.027,283.965 L 5.29688,11.3164"
         style="fill:#231f20;fill-opacity:1;fill-rule:evenodd;stroke:none"
         id="path24" />
      <path
         d="m 5.29688,11.3164 c 226.34812,0 451.86712,0.0391 678.21112,0.0391 184.555,0 262.945,29.7929 343.042,107.4685 53.5,51.887 115.33,141.297 114.73,274.379 -1.48,324.66 -296.534,288.137 -291.358,473.774 1.164,41.996 27.258,82.187 64.125,102.675 35.019,19.45 70.254,29.016 127.893,29.164 235.71,0.579 -0.78,0 244.49,0.379 l 3207.09,-0.011 161.75,278.356 -3499.6,0.01 C 998.613,1273.74 831.242,1286.11 704.672,1169.31 603.332,1075.8 568.473,968.301 568.066,871.086 567.637,767.996 599.586,698.063 636.594,644.746 724.48,518.102 867.73,493.148 866.523,397.719 865.223,295.273 766.898,283.129 604.781,283.93 458.027,284.652 310.82,283.441 164.027,283.965 Z"
         style="fill:none;stroke:#231f20;stroke-width:4.9975;stroke-linecap:butt;stroke-linejoin:miter;stroke-miterlimit:22.9256;stroke-dasharray:none;stroke-opacity:1"
         id="path26" />
    </g>
  </g>
</svg>
