<svg class="railroad" viewBox="0 0 751 402" width="751" xmlns="http://www.w3.org/2000/svg">
<style type="text/css">

    svg.railroad {
        background-color: hsl(30, 20%, 95%);
        background-size: 15px 15px;
        background-image: linear-gradient(to right, rgba(30, 30, 30, .05) 1px, transparent 1px),
                          linear-gradient(to bottom, rgba(30, 30, 30, .05) 1px, transparent 1px);
    }

    svg.railroad path {
        stroke-width: 3px;
        stroke: black;
        fill: transparent;
    }

    svg.railroad .debug {
        stroke-width: 1px;
        stroke: red;
    }

    svg.railroad text {
        font: 14px monospace;
        text-anchor: middle;
    }

    svg.railroad .nonterminal text {
        font-weight: bold;
    }

    svg.railroad text.comment {
        font: italic 12px monospace;
    }

    svg.railroad rect {
        stroke-width: 3px;
        stroke: black;
        fill:hsl(-290, 70%, 90%);
    }

    svg.railroad g.labeledbox &gt; rect {
        stroke-width: 1px;
        stroke: grey;
        stroke-dasharray: 5px;
        fill:rgba(90, 90, 150, .1);
    }</style>
<g class="sequence">
<path d=" M 10 20 a 5 5 0 0 1 5 -5 a 5 5 0 0 1 5 5 a 5 5 0 0 1 -5 5 a 5 5 0 0 1 -5 -5 m 10 0 h 5"/>
<g class="sequence">
<text class="comment" x="71" y="25">
specifier</text>
<g class="choice">
<path d=" M 118 20 h 24 m 0 0 h 574 m -284 0 l -5 -5 m 0 10 l 5 -5 m 284 0"/>
<g/>
<path d=" M 118 20 a 12 12 0 0 1 12 12 v 0 m 574 0 v 0 a 12 12 0 0 1 12 -12"/>
<path d=" M 130 102 v 41 m 574 0 v -41"/>
<path d=" M 130 205 v 73 m 0 -33 l -5 -5 m 10 0 l -5 5 m 0 33 m 574 0 v -73 m 0 39 l -5 5 m 10 0 l -5 -5 m 0 -39"/>
<path d=" M 130 32 v 70 m 0 -32 l -5 -5 m 10 0 l -5 5 m 0 32 a 12 12 0 0 0 12 12 m 205 0 h 345 m -169 0 l -5 -5 m 0 10 l 5 -5 m 169 0 a 12 12 0 0 0 12 -12 v -70 m 0 38 l -5 5 m 10 0 l -5 -5 m 0 -38"/>
<g class="labeledbox">
<rect height="101" width="205" x="142" y="32"/>
<path d=" M 142 114 h 8 m 60 0 h 137 m -65 0 l -5 -5 m 0 10 l 5 -5 m 65 0"/>
<g class="sequence">
<text class="comment" x="165" y="56">
for</text>
<g class="choice">
<path d=" M 191 51 h 24 m 52 0 h 24"/>
<g class="nonterminal">
<rect height="22" width="52" x="215" y="40"/>
<text x="241" y="56">
ping</text>
</g>
<path d=" M 191 51 a 12 12 0 0 1 12 12 v 9 m 76 0 v -9 a 12 12 0 0 1 12 -12"/>
<path d=" M 203 72 v 0 a 12 12 0 0 0 12 12 m 52 0 h 0 a 12 12 0 0 0 12 -12 v 0"/>
<g class="nonterminal">
<rect height="22" width="52" x="215" y="73"/>
<text x="241" y="89">
pong</text>
</g>
</g>
<text class="comment" x="320" y="56">
only</text>
<path d=" M 181 51 h 10"/>
<path d=" M 291 51 h 10"/>
</g>
<g class="nonterminal">
<rect height="22" width="60" x="150" y="103"/>
<text x="180" y="119">
token</text>
</g>
</g>
<path d=" M 130 143 v 62 m 0 -28 l -5 -5 m 10 0 l -5 5 m 0 28 a 12 12 0 0 0 12 12 m 312 0 h 238 m -116 0 l -5 -5 m 0 10 l 5 -5 m 116 0 a 12 12 0 0 0 12 -12 v -62 m 0 34 l -5 5 m 10 0 l -5 -5 m 0 -34"/>
<g class="labeledbox">
<rect height="125" width="312" x="142" y="143"/>
<path d=" M 142 217 h 8 m 296 0 h 8"/>
<g class="sequence">
<text class="comment" x="165" y="167">
for</text>
<g class="nonterminal">
<rect height="22" width="60" x="191" y="151"/>
<text x="221" y="167">
error</text>
</g>
<text class="comment" x="280" y="167">
only</text>
<path d=" M 181 162 h 10"/>
<path d=" M 251 162 h 10"/>
</g>
<g class="sequence">
<g class="nonterminal">
<rect height="22" width="100" x="150" y="206"/>
<text x="200" y="222">
errorclass</text>
</g>
<g class="labeledbox">
<rect height="79" width="186" x="260" y="181"/>
<path d=" M 260 217 h 8 m 170 0 h 8"/>
<text class="comment" x="329" y="204">
likely extension</text>
<g class="choice">
<path d=" M 268 217 h 24 m 0 0 h 146 m -70 0 l -5 -5 m 0 10 l 5 -5 m 70 0"/>
<g/>
<path d=" M 268 217 a 12 12 0 0 1 12 12 v 0 m 146 0 v 0 a 12 12 0 0 1 12 -12"/>
<path d=" M 280 229 v 0 a 12 12 0 0 0 12 12 m 122 0 h 0 a 12 12 0 0 0 12 -12 v 0"/>
<g class="sequence">
<g class="terminal">
<rect height="22" rx="10" ry="10" width="28" x="292" y="230"/>
<text x="306" y="246">
:</text>
</g>
<g class="nonterminal">
<rect height="22" width="84" x="330" y="230"/>
<text x="372" y="246">
subclass</text>
</g>
<path d=" M 320 241 h 10"/>
</g>
</g>
</g>
<path d=" M 250 217 h 10"/>
</g>
</g>
<path d=" M 130 278 v 0 a 12 12 0 0 0 12 12 m 550 0 h 0 a 12 12 0 0 0 12 -12 v 0"/>
<g class="sequence">
<g class="nonterminal">
<rect height="22" width="68" x="142" y="279"/>
<text x="176" y="295">
module</text>
</g>
<g class="choice">
<path d=" M 220 290 h 24 m 0 0 h 448 m -221 0 l -5 -5 m 0 10 l 5 -5 m 221 0"/>
<g/>
<path d=" M 220 290 a 12 12 0 0 1 12 12 v 0 m 448 0 v 0 a 12 12 0 0 1 12 -12"/>
<path d=" M 232 302 v 0 a 12 12 0 0 0 12 12 m 424 0 h 0 a 12 12 0 0 0 12 -12 v 0"/>
<g class="sequence">
<g class="terminal">
<rect height="22" rx="10" ry="10" width="28" x="244" y="303"/>
<text x="258" y="319">
:</text>
</g>
<g class="nonterminal">
<rect height="22" width="92" x="282" y="303"/>
<text x="328" y="319">
parameter</text>
</g>
<g class="choice">
<path d=" M 384 314 h 24 m 0 0 h 260 m -127 0 l -5 -5 m 0 10 l 5 -5 m 127 0"/>
<g/>
<path d=" M 384 314 a 12 12 0 0 1 12 12 v 0 m 260 0 v 0 a 12 12 0 0 1 12 -12"/>
<path d=" M 396 326 v 35 a 12 12 0 0 0 12 12 m 236 0 h 0 a 12 12 0 0 0 12 -12 v -35"/>
<g class="labeledbox">
<rect height="66" width="236" x="408" y="326"/>
<path d=" M 408 373 h 8 m 122 0 h 106 m -50 0 l -5 -5 m 0 10 l 5 -5 m 50 0"/>
<text class="comment" x="526" y="349">
reserved for future extension</text>
<g class="sequence">
<g class="terminal">
<rect height="22" rx="10" ry="10" width="28" x="416" y="362"/>
<text x="430" y="378">
:</text>
</g>
<g class="nonterminal">
<rect height="22" width="84" x="454" y="362"/>
<text x="496" y="378">
property</text>
</g>
<path d=" M 444 373 h 10"/>
</g>
</g>
</g>
<path d=" M 272 314 h 10"/>
<path d=" M 374 314 h 10"/>
</g>
</g>
<path d=" M 210 290 h 10"/>
</g>
</g>
<path d=" M 108 20 h 10"/>
</g>
<path d=" M 726 20 h 5 a 5 5 0 0 1 5 -5 a 5 5 0 0 1 5 5 a 5 5 0 0 1 -5 5 a 5 5 0 0 1 -5 -5"/>
<path d=" M 25 20 h 10"/>
<path d=" M 716 20 h 10"/>
</g>
</svg>