<svg class="railroad" viewBox="0 0 721 390" width="721" xmlns="http://www.w3.org/2000/svg">
<style type="text/css">

    svg.railroad {
        background-color: hsl(30, 20%, 95%);
        background-size: 15px 15px;
        background-image: linear-gradient(to right, rgba(30, 30, 30, .05) 1px, transparent 1px),
                          linear-gradient(to bottom, rgba(30, 30, 30, .05) 1px, transparent 1px);
    }

    svg.railroad path {
        stroke-width: 3px;
        stroke: black;
        fill: transparent;
    }

    svg.railroad .debug {
        stroke-width: 1px;
        stroke: red;
    }

    svg.railroad text {
        font: 14px monospace;
        text-anchor: middle;
    }

    svg.railroad .nonterminal text {
        font-weight: bold;
    }

    svg.railroad text.comment {
        font: italic 12px monospace;
    }

    svg.railroad rect {
        stroke-width: 3px;
        stroke: black;
        fill:hsl(-290, 70%, 90%);
    }

    svg.railroad g.labeledbox &gt; rect {
        stroke-width: 1px;
        stroke: grey;
        stroke-dasharray: 5px;
        fill:rgba(90, 90, 150, .1);
    }</style>
<g class="sequence">
<g class="sequence">
<g>
<text class="comment" x="46" y="25">
specifier</text>
</g>
<g class="choice">
<path d=" M 93 20 h 24 m 0 0 h 574 m -284 0 l -5 -5 m 0 10 l 5 -5 m 284 0"/>
<g/>
<path d=" M 93 20 a 12 12 0 0 1 12 12 v 0 m 574 0 v 0 a 12 12 0 0 1 12 -12"/>
<path d=" M 105 102 v 41 m 574 0 v -41"/>
<path d=" M 105 205 v 73 m 0 -33 l -5 -5 m 10 0 l -5 5 m 0 33 m 574 0 v -73 m 0 39 l -5 5 m 10 0 l -5 -5 m 0 -39"/>
<path d=" M 105 32 v 70 m 0 -32 l -5 -5 m 10 0 l -5 5 m 0 32 a 12 12 0 0 0 12 12 m 205 0 h 345 m -169 0 l -5 -5 m 0 10 l 5 -5 m 169 0 a 12 12 0 0 0 12 -12 v -70 m 0 38 l -5 5 m 10 0 l -5 -5 m 0 -38"/>
<g class="labeledbox">
<rect height="101" width="205" x="117" y="32"/>
<path d=" M 117 114 h 8 m 60 0 h 137 m -65 0 l -5 -5 m 0 10 l 5 -5 m 65 0"/>
<g class="sequence">
<g>
<text class="comment" x="140" y="56">
for</text>
</g>
<g class="choice">
<path d=" M 166 51 h 24 m 52 0 h 24"/>
<g class="nonterminal">
<rect height="22" width="52" x="190" y="40"/>
<text x="216" y="56">
ping</text>
</g>
<path d=" M 166 51 a 12 12 0 0 1 12 12 v 9 m 76 0 v -9 a 12 12 0 0 1 12 -12"/>
<path d=" M 178 72 v 0 a 12 12 0 0 0 12 12 m 52 0 h 0 a 12 12 0 0 0 12 -12 v 0"/>
<g class="nonterminal">
<rect height="22" width="52" x="190" y="73"/>
<text x="216" y="89">
pong</text>
</g>
</g>
<g>
<text class="comment" x="295" y="56">
only</text>
</g>
<path d=" M 156 51 h 10"/>
<path d=" M 266 51 h 10"/>
</g>
<g class="nonterminal">
<rect height="22" width="60" x="125" y="103"/>
<text x="155" y="119">
token</text>
</g>
</g>
<path d=" M 105 143 v 62 m 0 -28 l -5 -5 m 10 0 l -5 5 m 0 28 a 12 12 0 0 0 12 12 m 312 0 h 238 m -116 0 l -5 -5 m 0 10 l 5 -5 m 116 0 a 12 12 0 0 0 12 -12 v -62 m 0 34 l -5 5 m 10 0 l -5 -5 m 0 -34"/>
<g class="labeledbox">
<rect height="125" width="312" x="117" y="143"/>
<path d=" M 117 217 h 8 m 296 0 h 8"/>
<g class="sequence">
<g>
<text class="comment" x="140" y="167">
for</text>
</g>
<g class="nonterminal">
<rect height="22" width="60" x="166" y="151"/>
<text x="196" y="167">
error</text>
</g>
<g>
<text class="comment" x="255" y="167">
only</text>
</g>
<path d=" M 156 162 h 10"/>
<path d=" M 226 162 h 10"/>
</g>
<g class="sequence">
<g class="nonterminal">
<rect height="22" width="100" x="125" y="206"/>
<text x="175" y="222">
errorclass</text>
</g>
<g class="labeledbox">
<rect height="79" width="186" x="235" y="181"/>
<path d=" M 235 217 h 8 m 170 0 h 8"/>
<g>
<text class="comment" x="304" y="204">
likely extension</text>
</g>
<g class="choice">
<path d=" M 243 217 h 24 m 0 0 h 146 m -70 0 l -5 -5 m 0 10 l 5 -5 m 70 0"/>
<g/>
<path d=" M 243 217 a 12 12 0 0 1 12 12 v 0 m 146 0 v 0 a 12 12 0 0 1 12 -12"/>
<path d=" M 255 229 v 0 a 12 12 0 0 0 12 12 m 122 0 h 0 a 12 12 0 0 0 12 -12 v 0"/>
<g class="sequence">
<g class="terminal">
<rect height="22" rx="10" ry="10" width="28" x="267" y="230"/>
<text x="281" y="246">
:</text>
</g>
<g class="nonterminal">
<rect height="22" width="84" x="305" y="230"/>
<text x="347" y="246">
subclass</text>
</g>
<path d=" M 295 241 h 10"/>
</g>
</g>
</g>
<path d=" M 225 217 h 10"/>
</g>
</g>
<path d=" M 105 278 v 12 a 12 12 0 0 0 12 12 m 550 0 h 0 a 12 12 0 0 0 12 -12 v -12"/>
<g class="sequence">
<g class="nonterminal">
<rect height="22" width="68" x="117" y="291"/>
<text x="151" y="307">
module</text>
</g>
<g class="optional">
<path d=" M 195 302 h 24 m -24 0 a 12 12 0 0 0 12 -12 v 0 a 12 12 0 0 1 12 -12 h 424 m -209 0 l -5 -5 m 0 10 l 5 -5 m 209 0 a 12 12 0 0 1 12 12 v 0 a 12 12 0 0 0 12 12 h -24"/>
<g class="sequence">
<g class="terminal">
<rect height="22" rx="10" ry="10" width="28" x="219" y="291"/>
<text x="233" y="307">
:</text>
</g>
<g class="nonterminal">
<rect height="22" width="92" x="257" y="291"/>
<text x="303" y="307">
parameter</text>
</g>
<g class="choice">
<path d=" M 359 302 h 24 m 0 0 h 260 m -127 0 l -5 -5 m 0 10 l 5 -5 m 127 0"/>
<g/>
<path d=" M 359 302 a 12 12 0 0 1 12 12 v 0 m 260 0 v 0 a 12 12 0 0 1 12 -12"/>
<path d=" M 371 314 v 35 a 12 12 0 0 0 12 12 m 236 0 h 0 a 12 12 0 0 0 12 -12 v -35"/>
<g class="labeledbox">
<rect height="66" width="236" x="383" y="314"/>
<path d=" M 383 361 h 8 m 122 0 h 106 m -50 0 l -5 -5 m 0 10 l 5 -5 m 50 0"/>
<g>
<text class="comment" x="501" y="337">
reserved for future extension</text>
</g>
<g class="sequence">
<g class="terminal">
<rect height="22" rx="10" ry="10" width="28" x="391" y="350"/>
<text x="405" y="366">
:</text>
</g>
<g class="nonterminal">
<rect height="22" width="84" x="429" y="350"/>
<text x="471" y="366">
property</text>
</g>
<path d=" M 419 361 h 10"/>
</g>
</g>
</g>
<path d=" M 247 302 h 10"/>
<path d=" M 349 302 h 10"/>
</g>
</g>
<path d=" M 185 302 h 10"/>
</g>
</g>
<path d=" M 83 20 h 10"/>
</g>
<path d=" M 701 20 h 5 m -5 5 l 5 -5 l -5 -5 m 5 5"/>
<path d=" M 691 20 h 10"/>
</g>
</svg>