<?xml version="1.0" encoding="UTF-8" standalone="no"?>
<!DOCTYPE svg PUBLIC "-//W3C//DTD SVG 1.1//EN"
 "http://www.w3.org/Graphics/SVG/1.1/DTD/svg11.dtd">
<!-- Generated by graphviz version 2.36.0 (20140111.2315)
 -->
<!-- Title: simple Pages: 1 -->
<svg width="278pt" height="224pt"
 viewBox="0.00 0.00 277.95 224.00" xmlns="http://www.w3.org/2000/svg" xmlns:xlink="http://www.w3.org/1999/xlink">
<g id="graph0" class="graph" transform="scale(1 1) rotate(0) translate(4 220)">
<title>simple</title>
<polygon fill="white" stroke="none" points="-4,4 -4,-220 273.945,-220 273.945,4 -4,4"/>
<!-- _box -->
<g id="node1" class="node"><title>_box</title>
<polygon fill="#e5e5e5" stroke="black" stroke-dasharray="1,5" points="144,-216 0,-216 0,-0 144,-0 144,-216"/>
<text text-anchor="middle" x="72" y="-149.3" font-family="Times,serif" font-size="14.00"> </text>
<text text-anchor="middle" x="72" y="-134.3" font-family="Times,serif" font-size="14.00"> </text>
<text text-anchor="middle" x="72" y="-119.3" font-family="Times,serif" font-size="14.00"> </text>
<text text-anchor="middle" x="72" y="-104.3" font-family="Times,serif" font-size="14.00"> </text>
<text text-anchor="middle" x="72" y="-89.3" font-family="Times,serif" font-size="14.00"> </text>
<text text-anchor="middle" x="72" y="-74.3" font-family="Times,serif" font-size="14.00">Busy &#160;&#160;&#160;&#160;&#160;&#160;&#160;&#160;&#160;&#160;&#160;&#160;&#160;&#160;&#160;&#160;&#160;&#160;&#160;&#160;&#160;&#160;&#160;&#160;&#160;</text>
<text text-anchor="middle" x="72" y="-59.3" font-family="Times,serif" font-size="14.00">states &#160;&#160;&#160;&#160;&#160;&#160;&#160;&#160;&#160;&#160;&#160;&#160;&#160;&#160;&#160;&#160;&#160;&#160;&#160;&#160;&#160;&#160;&#160;&#160;&#160;</text>
</g>
<!-- Busy -->
<g id="node2" class="node"><title>Busy</title>
<ellipse fill="white" stroke="black" cx="72" cy="-108" rx="53.8905" ry="18"/>
<text text-anchor="middle" x="72" y="-104.3" font-family="Times,serif" font-size="14.00">WORKING</text>
</g>
<!-- Stopping -->
<g id="node4" class="node"><title>Stopping</title>
<ellipse fill="white" stroke="black" cx="72" cy="-180" rx="52.7911" ry="18"/>
<text text-anchor="middle" x="72" y="-176.3" font-family="Times,serif" font-size="14.00">STOPPING</text>
</g>
<!-- Busy&#45;&gt;Stopping -->
<g id="edge3" class="edge"><title>Busy&#45;&gt;Stopping</title>
<path fill="none" stroke="black" d="M72,-126.169C72,-133.869 72,-143.026 72,-151.583"/>
<polygon fill="black" stroke="black" points="68.5001,-151.587 72,-161.587 75.5001,-151.587 68.5001,-151.587"/>
<text text-anchor="middle" x="60.5" y="-142.676" font-family="Times,serif" font-size="14.00">stop</text>
</g>
<!-- Ready -->
<g id="node5" class="node"><title>Ready</title>
<ellipse fill="none" stroke="black" cx="216" cy="-108" rx="27" ry="18"/>
<text text-anchor="middle" x="216" y="-104.3" font-family="Times,serif" font-size="14.00">Idle</text>
</g>
<!-- Busy&#45;&gt;Ready -->
<g id="edge5" class="edge"><title>Busy&#45;&gt;Ready</title>
<path fill="none" stroke="blue" d="M126.03,-108C143.575,-108 162.64,-108 178.686,-108"/>
<polygon fill="blue" stroke="blue" points="178.748,-111.5 188.748,-108 178.748,-104.5 178.748,-111.5"/>
<text text-anchor="middle" x="167.858" y="-111.8" font-family="Times,serif" font-size="14.00" fill="blue">finish</text>
</g>
<!-- Error -->
<g id="node6" class="node"><title>Error</title>
<ellipse fill="none" stroke="red" cx="216" cy="-36" rx="29.4969" ry="18"/>
<text text-anchor="middle" x="216" y="-32.3" font-family="Times,serif" font-size="14.00" fill="red">Error</text>
</g>
<!-- Busy&#45;&gt;Error -->
<g id="edge6" class="edge"><title>Busy&#45;&gt;Error</title>
<path fill="none" stroke="blue" d="M102.187,-92.9064C126.068,-80.9661 159.34,-64.3301 183.742,-52.1288"/>
<polygon fill="blue" stroke="blue" points="185.57,-55.1283 192.949,-47.5256 182.439,-48.8673 185.57,-55.1283"/>
</g>
<!-- Preparing -->
<g id="node3" class="node"><title>Preparing</title>
<ellipse fill="white" stroke="black" cx="72" cy="-36" rx="59.5901" ry="18"/>
<text text-anchor="middle" x="72" y="-32.3" font-family="Times,serif" font-size="14.00">PREPARING</text>
</g>
<!-- Preparing&#45;&gt;Busy -->
<g id="edge2" class="edge"><title>Preparing&#45;&gt;Busy</title>
<path fill="none" stroke="blue" d="M72,-54.1686C72,-61.869 72,-71.0257 72,-79.5834"/>
<polygon fill="blue" stroke="blue" points="68.5001,-79.5867 72,-89.5867 75.5001,-79.5868 68.5001,-79.5867"/>
</g>
<!-- Stopping&#45;&gt;Ready -->
<g id="edge4" class="edge"><title>Stopping&#45;&gt;Ready</title>
<path fill="none" stroke="blue" d="M101.837,-165.082C126.127,-152.936 160.303,-135.848 184.923,-123.539"/>
<polygon fill="blue" stroke="blue" points="186.797,-126.515 194.176,-118.912 183.666,-120.254 186.797,-126.515"/>
</g>
<!-- Ready&#45;&gt;Preparing -->
<g id="edge1" class="edge"><title>Ready&#45;&gt;Preparing</title>
<path fill="none" stroke="black" d="M194.13,-97.0647C172.382,-86.1909 138.521,-69.2604 111.964,-55.9819"/>
<polygon fill="black" stroke="black" points="113.416,-52.7951 102.907,-51.4534 110.286,-59.0561 113.416,-52.7951"/>
<text text-anchor="middle" x="164.326" y="-89.9348" font-family="Times,serif" font-size="14.00">start</text>
</g>
<!-- Ready&#45;&gt;Error -->
<g id="edge10" class="edge"><title>Ready&#45;&gt;Error</title>
<path fill="none" stroke="blue" d="M221.916,-90.2022C222.705,-82.3271 222.935,-72.875 222.603,-64.0852"/>
<polygon fill="blue" stroke="blue" points="226.078,-63.5876 221.92,-53.8425 219.093,-64.0532 226.078,-63.5876"/>
</g>
<!-- Disabled -->
<g id="node7" class="node"><title>Disabled</title>
<ellipse fill="#e5e5e5" stroke="black" cx="216" cy="-180" rx="53.8905" ry="18"/>
<text text-anchor="middle" x="216" y="-176.3" font-family="Times,serif" font-size="14.00">DISABLED</text>
</g>
<!-- Ready&#45;&gt;Disabled -->
<g id="edge8" class="edge"><title>Ready&#45;&gt;Disabled</title>
<path fill="none" stroke="black" d="M210.084,-125.798C209.3,-133.614 209.069,-142.983 209.39,-151.716"/>
<polygon fill="black" stroke="black" points="205.911,-152.156 210.055,-161.907 212.896,-151.7 205.911,-152.156"/>
<text text-anchor="middle" x="188.237" y="-142.557" font-family="Times,serif" font-size="14.00">disable </text>
</g>
<!-- Error&#45;&gt;Ready -->
<g id="edge7" class="edge"><title>Error&#45;&gt;Ready</title>
<path fill="none" stroke="black" d="M210.084,-53.7978C209.28,-61.8193 209.057,-71.4769 209.416,-80.4043"/>
<polygon fill="black" stroke="black" points="205.926,-80.6711 210.105,-90.407 212.91,-80.1901 205.926,-80.6711"/>
<text text-anchor="middle" x="194.75" y="-70.901" font-family="Times,serif" font-size="14.00">reset </text>
</g>
<!-- Disabled&#45;&gt;Ready -->
<g id="edge9" class="edge"><title>Disabled&#45;&gt;Ready</title>
<path fill="none" stroke="black" d="M221.952,-161.831C222.714,-154.012 222.93,-144.692 222.6,-136.022"/>
<polygon fill="black" stroke="black" points="226.084,-135.659 221.927,-125.913 219.1,-136.124 226.084,-135.659"/>
<text text-anchor="middle" x="242.276" y="-137.727" font-family="Times,serif" font-size="14.00"> enable</text>
</g>
</g>
</svg>
