<?xml version="1.0" encoding="UTF-8" standalone="no"?>
<!DOCTYPE svg PUBLIC "-//W3C//DTD SVG 1.1//EN"
 "http://www.w3.org/Graphics/SVG/1.1/DTD/svg11.dtd">
<!-- Generated by graphviz version 2.36.0 (20140111.2315)
 -->
<!-- Title: supersimple Pages: 1 -->
<svg width="214pt" height="124pt"
 viewBox="0.00 0.00 213.74 124.14" xmlns="http://www.w3.org/2000/svg" xmlns:xlink="http://www.w3.org/1999/xlink">
<g id="graph0" class="graph" transform="scale(1 1) rotate(0) translate(4 120.137)">
<title>supersimple</title>
<polygon fill="white" stroke="none" points="-4,4 -4,-120.137 209.745,-120.137 209.745,4 -4,4"/>
<!-- Ready -->
<g id="node1" class="node"><title>Ready</title>
<ellipse fill="none" stroke="black" cx="172.597" cy="-90" rx="33.2948" ry="18"/>
<text text-anchor="middle" x="172.597" y="-86.3" font-family="Times,serif" font-size="14.00">Ready</text>
</g>
<!-- Busy -->
<g id="node2" class="node"><title>Busy</title>
<ellipse fill="none" stroke="black" cx="28.5975" cy="-90" rx="28.6953" ry="18"/>
<text text-anchor="middle" x="28.5975" y="-86.3" font-family="Times,serif" font-size="14.00">Busy</text>
</g>
<!-- Ready&#45;&gt;Busy -->
<g id="edge1" class="edge"><title>Ready&#45;&gt;Busy</title>
<path fill="none" stroke="black" d="M145.85,-79.2243C122.259,-75.9052 87.7694,-75.6189 62.299,-78.3656"/>
<polygon fill="black" stroke="black" points="61.7963,-74.9014 52.337,-79.6735 62.7076,-81.8419 61.7963,-74.9014"/>
<text text-anchor="middle" x="92.0743" y="-67.5949" font-family="Times,serif" font-size="14.00">start</text>
</g>
<!-- Busy&#45;&gt;Ready -->
<g id="edge2" class="edge"><title>Busy&#45;&gt;Ready</title>
<path fill="none" stroke="black" d="M52.3761,-100.333C75.0841,-103.925 109.636,-104.462 135.88,-101.942"/>
<polygon fill="black" stroke="black" points="136.319,-105.414 145.844,-100.776 135.506,-98.4616 136.319,-105.414"/>
<text text-anchor="middle" x="82.6278" y="-104.937" font-family="Times,serif" font-size="14.00">stop</text>
</g>
<!-- Busy&#45;&gt;Ready -->
<g id="edge3" class="edge"><title>Busy&#45;&gt;Ready</title>
<path fill="none" stroke="blue" d="M57.3919,-90C77.8904,-90 105.803,-90 129.019,-90"/>
<polygon fill="blue" stroke="blue" points="129.312,-93.5001 139.312,-90 129.312,-86.5001 129.312,-93.5001"/>
<text text-anchor="middle" x="108.706" y="-93.8" font-family="Times,serif" font-size="14.00">finish</text>
</g>
<!-- Error -->
<g id="node3" class="node"><title>Error</title>
<ellipse fill="none" stroke="black" cx="100.597" cy="-18" rx="29.4969" ry="18"/>
<text text-anchor="middle" x="100.597" y="-14.3" font-family="Times,serif" font-size="14.00">Error</text>
</g>
<!-- Busy&#45;&gt;Error -->
<g id="edge4" class="edge"><title>Busy&#45;&gt;Error</title>
<path fill="none" stroke="blue" d="M43.8668,-74.7307C53.6603,-64.9372 66.5588,-52.0387 77.5819,-41.0156"/>
<polygon fill="blue" stroke="blue" points="80.2562,-43.2911 84.8524,-33.7451 75.3064,-38.3413 80.2562,-43.2911"/>
</g>
<!-- Error&#45;&gt;Ready -->
<g id="edge5" class="edge"><title>Error&#45;&gt;Ready</title>
<path fill="none" stroke="black" d="M116.22,-33.6229C125.898,-43.3009 138.506,-55.9085 149.344,-66.7464"/>
<polygon fill="black" stroke="black" points="146.961,-69.3128 156.506,-73.909 151.91,-64.363 146.961,-69.3128"/>
<text text-anchor="middle" x="119.782" y="-53.9847" font-family="Times,serif" font-size="14.00">reset</text>
</g>
</g>
</svg>
