<?xml version="1.0" encoding="UTF-8" standalone="no"?>
<!DOCTYPE svg PUBLIC "-//W3C//DTD SVG 1.1//EN"
 "http://www.w3.org/Graphics/SVG/1.1/DTD/svg11.dtd">
<!-- Generated by graphviz version 2.36.0 (20140111.2315)
 -->
<!-- Title: supersimple Pages: 1 -->
<svg width="208pt" height="124pt"
 viewBox="0.00 0.00 207.60 123.91" xmlns="http://www.w3.org/2000/svg" xmlns:xlink="http://www.w3.org/1999/xlink">
<g id="graph0" class="graph" transform="scale(1 1) rotate(0) translate(4 119.911)">
<title>supersimple</title>
<polygon fill="white" stroke="none" points="-4,4 -4,-119.911 203.597,-119.911 203.597,4 -4,4"/>
<!-- Ready -->
<g id="node1" class="node"><title>Ready</title>
<ellipse fill="none" stroke="black" cx="172.597" cy="-90" rx="27" ry="18"/>
<text text-anchor="middle" x="172.597" y="-86.3" font-family="Times,serif" font-size="14.00">Idle</text>
</g>
<!-- Busy -->
<g id="node2" class="node"><title>Busy</title>
<ellipse fill="none" stroke="black" cx="28.5975" cy="-90" rx="28.6953" ry="18"/>
<text text-anchor="middle" x="28.5975" y="-86.3" font-family="Times,serif" font-size="14.00">Busy</text>
</g>
<!-- Ready&#45;&gt;Busy -->
<g id="edge1" class="edge"><title>Ready&#45;&gt;Busy</title>
<path fill="none" stroke="black" d="M150.097,-79.875C126.634,-75.9644 89.577,-75.4522 62.5525,-78.3384"/>
<polygon fill="black" stroke="black" points="61.8387,-74.9018 52.3761,-79.6674 62.7452,-81.8428 61.8387,-74.9018"/>
<text text-anchor="middle" x="94.325" y="-67.9067" font-family="Times,serif" font-size="14.00">start</text>
</g>
<!-- Error -->
<g id="node3" class="node"><title>Error</title>
<ellipse fill="none" stroke="black" cx="100.597" cy="-18" rx="29.4969" ry="18"/>
<text text-anchor="middle" x="100.597" y="-14.3" font-family="Times,serif" font-size="14.00">Error</text>
</g>
<!-- Ready&#45;&gt;Error -->
<g id="edge6" class="edge"><title>Ready&#45;&gt;Error</title>
<path fill="none" stroke="blue" d="M163.185,-73.0011C154.5,-62.3699 141.373,-48.746 129.342,-37.6692"/>
<polygon fill="blue" stroke="blue" points="131.446,-34.8561 121.652,-30.815 126.788,-40.0816 131.446,-34.8561"/>
</g>
<!-- Busy&#45;&gt;Ready -->
<g id="edge2" class="edge"><title>Busy&#45;&gt;Ready</title>
<path fill="none" stroke="black" d="M52.3761,-100.333C76.3535,-104.126 113.535,-104.512 140.199,-101.49"/>
<polygon fill="black" stroke="black" points="140.78,-104.943 150.206,-100.107 139.821,-98.0094 140.78,-104.943"/>
<text text-anchor="middle" x="84.7877" y="-104.711" font-family="Times,serif" font-size="14.00">stop</text>
</g>
<!-- Busy&#45;&gt;Ready -->
<g id="edge3" class="edge"><title>Busy&#45;&gt;Ready</title>
<path fill="none" stroke="blue" d="M57.3919,-90C79.6986,-90 110.785,-90 135.045,-90"/>
<polygon fill="blue" stroke="blue" points="135.316,-93.5001 145.316,-90 135.316,-86.5001 135.316,-93.5001"/>
<text text-anchor="middle" x="111.719" y="-93.8" font-family="Times,serif" font-size="14.00">finish</text>
</g>
<!-- Busy&#45;&gt;Error -->
<g id="edge4" class="edge"><title>Busy&#45;&gt;Error</title>
<path fill="none" stroke="blue" d="M43.8668,-74.7307C53.6603,-64.9372 66.5588,-52.0387 77.5819,-41.0156"/>
<polygon fill="blue" stroke="blue" points="80.2562,-43.2911 84.8524,-33.7451 75.3064,-38.3413 80.2562,-43.2911"/>
</g>
<!-- Error&#45;&gt;Ready -->
<g id="edge5" class="edge"><title>Error&#45;&gt;Ready</title>
<path fill="none" stroke="black" d="M110.314,-35.3691C119.173,-46.1581 132.485,-59.9248 144.57,-70.9895"/>
<polygon fill="black" stroke="black" points="142.468,-73.8031 152.276,-77.8119 147.109,-68.5623 142.468,-73.8031"/>
<text text-anchor="middle" x="114.442" y="-41.9793" font-family="Times,serif" font-size="14.00">reset</text>
</g>
</g>
</svg>
