<?xml version="1.0" encoding="UTF-8" standalone="no"?>
<!DOCTYPE svg PUBLIC "-//W3C//DTD SVG 1.1//EN"
 "http://www.w3.org/Graphics/SVG/1.1/DTD/svg11.dtd">
<!-- Generated by graphviz version 2.36.0 (20140111.2315)
 -->
<!-- Title: supersimple Pages: 1 -->
<svg width="919pt" height="260pt"
 viewBox="0.00 0.00 919.00 260.00" xmlns="http://www.w3.org/2000/svg" xmlns:xlink="http://www.w3.org/1999/xlink">
<g id="graph0" class="graph" transform="scale(1 1) rotate(0) translate(4 256)">
<title>supersimple</title>
<polygon fill="white" stroke="none" points="-4,4 -4,-256 915,-256 915,4 -4,4"/>
<!-- State -->
<g id="node1" class="node"><title>State</title>
<polygon fill="none" stroke="black" points="561.032,-234 544.516,-252 511.484,-252 494.968,-234 511.484,-216 544.516,-216 561.032,-234"/>
<text text-anchor="middle" x="528" y="-230.3" font-family="Times,serif" font-size="14.00">State</text>
</g>
<!-- Idle -->
<g id="node2" class="node"><title>Idle</title>
<polygon fill="none" stroke="black" points="269,-180 215,-180 215,-144 269,-144 269,-180"/>
<text text-anchor="middle" x="242" y="-158.3" font-family="Times,serif" font-size="14.00">Idle</text>
</g>
<!-- State&#45;&gt;Idle -->
<g id="edge2" class="edge"><title>State&#45;&gt;Idle</title>
<path fill="none" stroke="black" d="M501.606,-226.54C450.469,-214.024 337.775,-186.441 279.12,-172.085"/>
<polygon fill="black" stroke="black" points="279.709,-168.626 269.164,-169.649 278.045,-175.426 279.709,-168.626"/>
</g>
<!-- Warn -->
<g id="node3" class="node"><title>Warn</title>
<polygon fill="none" stroke="black" points="133,-108 79,-108 79,-72 133,-72 133,-108"/>
<text text-anchor="middle" x="106" y="-86.3" font-family="Times,serif" font-size="14.00">Warn</text>
</g>
<!-- State&#45;&gt;Warn -->
<g id="edge3" class="edge"><title>State&#45;&gt;Warn</title>
<path fill="none" stroke="black" d="M495.154,-233.497C434.838,-233.167 303.663,-226.6 206,-180 174.335,-164.891 145.241,-136.653 126.698,-116.024"/>
<polygon fill="black" stroke="black" points="129.114,-113.471 119.89,-108.259 123.851,-118.086 129.114,-113.471"/>
</g>
<!-- Busy -->
<g id="node4" class="node"><title>Busy</title>
<polygon fill="none" stroke="black" points="519,-180 465,-180 465,-144 519,-144 519,-180"/>
<text text-anchor="middle" x="492" y="-158.3" font-family="Times,serif" font-size="14.00">Busy</text>
</g>
<!-- State&#45;&gt;Busy -->
<g id="edge4" class="edge"><title>State&#45;&gt;Busy</title>
<path fill="none" stroke="black" d="M519.101,-215.697C515.003,-207.728 510.051,-198.1 505.507,-189.264"/>
<polygon fill="black" stroke="black" points="508.483,-187.396 500.797,-180.104 502.258,-190.598 508.483,-187.396"/>
</g>
<!-- Error -->
<g id="node5" class="node"><title>Error</title>
<polygon fill="none" stroke="black" points="591,-180 537,-180 537,-144 591,-144 591,-180"/>
<text text-anchor="middle" x="564" y="-158.3" font-family="Times,serif" font-size="14.00">Error</text>
</g>
<!-- State&#45;&gt;Error -->
<g id="edge5" class="edge"><title>State&#45;&gt;Error</title>
<path fill="none" stroke="black" d="M536.899,-215.697C540.997,-207.728 545.949,-198.1 550.493,-189.264"/>
<polygon fill="black" stroke="black" points="553.742,-190.598 555.203,-180.104 547.517,-187.396 553.742,-190.598"/>
</g>
<!-- DISABLED -->
<g id="node6" class="node"><title>DISABLED</title>
<ellipse fill="none" stroke="black" cx="663" cy="-162" rx="53.4184" ry="18"/>
<text text-anchor="middle" x="663" y="-158.3" font-family="Times,serif" font-size="14.00">DISABLED</text>
</g>
<!-- State&#45;&gt;DISABLED -->
<g id="edge6" class="edge"><title>State&#45;&gt;DISABLED</title>
<path fill="none" stroke="black" d="M549.991,-221.597C570.528,-210.948 601.587,-194.844 625.95,-182.211"/>
<polygon fill="black" stroke="black" points="627.658,-185.268 634.924,-177.558 624.435,-179.054 627.658,-185.268"/>
</g>
<!-- UNKNOWN -->
<g id="node11" class="node"><title>UNKNOWN</title>
<ellipse fill="none" stroke="black" cx="793" cy="-162" rx="57.2688" ry="18"/>
<text text-anchor="middle" x="793" y="-158.3" font-family="Times,serif" font-size="14.00">UNKNOWN</text>
</g>
<!-- State&#45;&gt;UNKNOWN -->
<g id="edge7" class="edge"><title>State&#45;&gt;UNKNOWN</title>
<path fill="none" stroke="black" d="M553.892,-226.161C597.015,-214.769 684.367,-191.696 740.704,-176.814"/>
<polygon fill="black" stroke="black" points="741.726,-180.164 750.5,-174.226 739.938,-173.396 741.726,-180.164"/>
</g>
<!-- Idle&#45;&gt;Warn -->
<g id="edge1" class="edge"><title>Idle&#45;&gt;Warn</title>
<path fill="none" stroke="black" d="M214.805,-147.003C193.958,-136.272 164.99,-121.362 142.185,-109.625"/>
<polygon fill="black" stroke="black" points="143.641,-106.438 133.148,-104.973 140.437,-112.662 143.641,-106.438"/>
</g>
<!-- IDLE -->
<g id="node7" class="node"><title>IDLE</title>
<ellipse fill="none" stroke="black" cx="182" cy="-90" rx="30.3206" ry="18"/>
<text text-anchor="middle" x="182" y="-86.3" font-family="Times,serif" font-size="14.00">IDLE</text>
</g>
<!-- Idle&#45;&gt;IDLE -->
<g id="edge8" class="edge"><title>Idle&#45;&gt;IDLE</title>
<path fill="none" stroke="black" d="M227.169,-143.697C219.577,-134.84 210.228,-123.932 202.008,-114.343"/>
<polygon fill="black" stroke="black" points="204.598,-111.986 195.432,-106.671 199.283,-116.542 204.598,-111.986"/>
</g>
<!-- CUSTOM_IDLE -->
<g id="node12" class="node"><title>CUSTOM_IDLE</title>
<ellipse fill="none" stroke="black" cx="303" cy="-90" rx="72.2155" ry="18"/>
<text text-anchor="middle" x="303" y="-86.3" font-family="Times,serif" font-size="14.00">CUSTOM_IDLE</text>
</g>
<!-- Idle&#45;&gt;CUSTOM_IDLE -->
<g id="edge9" class="edge"><title>Idle&#45;&gt;CUSTOM_IDLE</title>
<path fill="none" stroke="black" d="M257.079,-143.697C264.392,-135.305 273.31,-125.07 281.335,-115.861"/>
<polygon fill="black" stroke="black" points="284.164,-117.943 288.095,-108.104 278.886,-113.344 284.164,-117.943"/>
</g>
<!-- WARN -->
<g id="node8" class="node"><title>WARN</title>
<ellipse fill="none" stroke="black" cx="38" cy="-18" rx="38.0212" ry="18"/>
<text text-anchor="middle" x="38" y="-14.3" font-family="Times,serif" font-size="14.00">WARN</text>
</g>
<!-- Warn&#45;&gt;WARN -->
<g id="edge10" class="edge"><title>Warn&#45;&gt;WARN</title>
<path fill="none" stroke="black" d="M89.191,-71.6966C80.5016,-62.7517 69.7793,-51.714 60.3966,-42.0553"/>
<polygon fill="black" stroke="black" points="62.7019,-39.4053 53.2235,-34.6712 57.6809,-44.2828 62.7019,-39.4053"/>
</g>
<!-- CUSTOM_WARN -->
<g id="node13" class="node"><title>CUSTOM_WARN</title>
<ellipse fill="none" stroke="black" cx="174" cy="-18" rx="78.9404" ry="18"/>
<text text-anchor="middle" x="174" y="-14.3" font-family="Times,serif" font-size="14.00">CUSTOM_WARN</text>
</g>
<!-- Warn&#45;&gt;CUSTOM_WARN -->
<g id="edge11" class="edge"><title>Warn&#45;&gt;CUSTOM_WARN</title>
<path fill="none" stroke="black" d="M122.809,-71.6966C131.25,-63.0072 141.61,-52.343 150.796,-42.8865"/>
<polygon fill="black" stroke="black" points="153.395,-45.2339 157.853,-35.6223 148.374,-40.3564 153.395,-45.2339"/>
</g>
<!-- BUSY -->
<g id="node9" class="node"><title>BUSY</title>
<ellipse fill="none" stroke="black" cx="428" cy="-90" rx="34.1708" ry="18"/>
<text text-anchor="middle" x="428" y="-86.3" font-family="Times,serif" font-size="14.00">BUSY</text>
</g>
<!-- Busy&#45;&gt;BUSY -->
<g id="edge12" class="edge"><title>Busy&#45;&gt;BUSY</title>
<path fill="none" stroke="black" d="M476.18,-143.697C468.002,-134.752 457.91,-123.714 449.079,-114.055"/>
<polygon fill="black" stroke="black" points="451.659,-111.69 442.328,-106.671 446.493,-116.413 451.659,-111.69"/>
</g>
<!-- CUSTOM_BUSY -->
<g id="node14" class="node"><title>CUSTOM_BUSY</title>
<ellipse fill="none" stroke="black" cx="556" cy="-90" rx="75.0904" ry="18"/>
<text text-anchor="middle" x="556" y="-86.3" font-family="Times,serif" font-size="14.00">CUSTOM_BUSY</text>
</g>
<!-- Busy&#45;&gt;CUSTOM_BUSY -->
<g id="edge13" class="edge"><title>Busy&#45;&gt;CUSTOM_BUSY</title>
<path fill="none" stroke="black" d="M507.82,-143.697C515.57,-135.22 525.039,-124.864 533.524,-115.583"/>
<polygon fill="black" stroke="black" points="536.197,-117.846 540.362,-108.104 531.031,-113.123 536.197,-117.846"/>
</g>
<!-- ERROR -->
<g id="node10" class="node"><title>ERROR</title>
<ellipse fill="none" stroke="black" cx="690" cy="-90" rx="39.9464" ry="18"/>
<text text-anchor="middle" x="690" y="-86.3" font-family="Times,serif" font-size="14.00">ERROR</text>
</g>
<!-- Error&#45;&gt;ERROR -->
<g id="edge14" class="edge"><title>Error&#45;&gt;ERROR</title>
<path fill="none" stroke="black" d="M591.03,-145.983C610.218,-135.323 636.102,-120.944 656.586,-109.563"/>
<polygon fill="black" stroke="black" points="658.532,-112.486 665.574,-104.57 655.133,-106.367 658.532,-112.486"/>
</g>
<!-- CUSTOM_ERROR -->
<g id="node15" class="node"><title>CUSTOM_ERROR</title>
<ellipse fill="none" stroke="black" cx="830" cy="-90" rx="81.3646" ry="18"/>
<text text-anchor="middle" x="830" y="-86.3" font-family="Times,serif" font-size="14.00">CUSTOM_ERROR</text>
</g>
<!-- Error&#45;&gt;CUSTOM_ERROR -->
<g id="edge15" class="edge"><title>Error&#45;&gt;CUSTOM_ERROR</title>
<path fill="none" stroke="black" d="M591.264,-147.384C594.178,-146.153 597.127,-144.996 600,-144 629.583,-133.74 705.811,-116.842 762.451,-104.888"/>
<polygon fill="black" stroke="black" points="763.361,-108.273 772.427,-102.791 761.921,-101.423 763.361,-108.273"/>
</g>
</g>
</svg>
