<?xml version="1.0" encoding="UTF-8" standalone="no"?>
<svg
   xmlns:dc="http://purl.org/dc/elements/1.1/"
   xmlns:cc="http://creativecommons.org/ns#"
   xmlns:rdf="http://www.w3.org/1999/02/22-rdf-syntax-ns#"
   xmlns:svg="http://www.w3.org/2000/svg"
   xmlns="http://www.w3.org/2000/svg"
   viewBox="0 0 906.66669 416"
   height="416"
   width="906.66669"
   xml:space="preserve"
   id="svg2"
   version="1.1"><metadata
     id="metadata8"><rdf:RDF><cc:Work
         rdf:about=""><dc:format>image/svg+xml</dc:format><dc:type
           rdf:resource="http://purl.org/dc/dcmitype/StillImage" /></cc:Work></rdf:RDF></metadata><defs
     id="defs6"><clipPath
       id="clipPath20"
       clipPathUnits="userSpaceOnUse"><path
         id="path18"
         d="M 0,312 H 679.92 V 0 H 0 Z" /></clipPath><clipPath
       id="clipPath26"
       clipPathUnits="userSpaceOnUse"><path
         id="path24"
         d="M 0,0 H 680 V 312 H 0 Z" /></clipPath><clipPath
       id="clipPath36"
       clipPathUnits="userSpaceOnUse"><path
         id="path34"
         d="M 0,0 H 680 V 312 H 0 Z" /></clipPath></defs><g
     transform="matrix(1.3333333,0,0,-1.3333333,0,416)"
     id="g10"><g
       id="g12" /><g
       id="g14"><g
         clip-path="url(#clipPath20)"
         id="g16"><g
           clip-path="url(#clipPath26)"
           id="g22"><path
             id="path28"
             style="fill:#ffffff;fill-opacity:1;fill-rule:nonzero;stroke:none"
             d="M 0,312 H 679.92 V 0 H 0 Z" /></g></g></g><g
       id="g30"><g
         clip-path="url(#clipPath36)"
         id="g32"><path
           id="path38"
           style="fill:#ffffff;fill-opacity:1;fill-rule:nonzero;stroke:none"
           d="M 0,312 H 680.375 V 0.25 H 0 Z" /><g
           transform="matrix(7.874016e-5,0,0,-7.874016e-5,5.655827,227.7063)"
           id="g40"><path
             id="path42"
             style="fill:none;stroke:#0000ff;stroke-width:19050;stroke-linecap:butt;stroke-linejoin:miter;stroke-miterlimit:8;stroke-dasharray:none;stroke-opacity:1"
             d="M 0,0 H 1296000 V 345600 H 0 Z" /></g><g
           transform="matrix(0.24,0,0,0.24,18.80441,-104.4)"
           id="g44"><text
             id="text48"
             style="font-variant:normal;font-weight:normal;font-size:66.66665649px;font-family:ArialNarrow;-inkscape-font-specification:ArialNarrow;writing-mode:lr-tb;fill:#000000;fill-opacity:1;fill-rule:nonzero;stroke:none"
             transform="matrix(1,0,0,-1,0,1300)"><tspan
               id="tspan46"
               y="0"
               x="0 39.586662 54.706661 91.159988 127.61332 164.06665 194.25331 230.70665 270.2933 285.4133">DISABLED 0</tspan></text>
</g><g
           transform="matrix(7.874016e-5,0,0,-7.874016e-5,187.9078,227.5457)"
           id="g50"><path
             id="path52"
             style="fill:none;stroke:#008000;stroke-width:19050;stroke-linecap:butt;stroke-linejoin:miter;stroke-miterlimit:8;stroke-dasharray:none;stroke-opacity:1"
             d="M 0,0 H 1679064 V 345600 H 0 Z" /></g><g
           transform="matrix(0.24,0,0,0.24,210.9177,-104.4)"
           id="g54"><text
             id="text58"
             style="font-variant:normal;font-weight:normal;font-size:66.66665649px;font-family:ArialNarrow;-inkscape-font-specification:ArialNarrow;writing-mode:lr-tb;fill:#000000;fill-opacity:1;fill-rule:nonzero;stroke:none"
             transform="matrix(1,0,0,-1,0,1300)"><tspan
               id="tspan56"
               y="0"
               x="0 36.459995 65.786659 102.24666 141.83998 181.43332 217.89331 253.41997 268.54663 298.73996 328.93329">STANDBY 130</tspan></text>
</g><g
           transform="matrix(7.874016e-5,0,0,-7.874016e-5,375.0152,227.5457)"
           id="g60"><path
             id="path62"
             style="fill:none;stroke:#ff6600;stroke-width:19050;stroke-linecap:butt;stroke-linejoin:miter;stroke-miterlimit:8;stroke-dasharray:none;stroke-opacity:1"
             d="M 0,0 H 1701944 V 345600 H 0 Z" /></g><g
           transform="matrix(0.24,0,0,0.24,393.6884,-104.4)"
           id="g64"><text
             id="text68"
             style="font-variant:normal;font-weight:normal;font-size:66.66665649px;font-family:ArialNarrow;-inkscape-font-specification:ArialNarrow;writing-mode:lr-tb;fill:#000000;fill-opacity:1;fill-rule:nonzero;stroke:none"
             transform="matrix(1,0,0,-1,0,1300)"><tspan
               id="tspan66"
               y="0"
               x="0 36.459995 76.053329 112.51332 144.97331 181.43332 221.02664 257.48663 297.07996 312.20663 342.39996 372.59329">PREPARED 150</tspan></text>
</g><g
           transform="matrix(7.874016e-5,0,0,-7.874016e-5,65.34149,307.5211)"
           id="g70"><path
             id="path72"
             style="fill:none;stroke:#000000;stroke-width:12700;stroke-linecap:butt;stroke-linejoin:miter;stroke-miterlimit:8;stroke-dasharray:none;stroke-opacity:1"
             d="M 0,0 H 1800200 V 345600 H 0 Z" /></g><g
           transform="matrix(0.24,0,0,0.24,83.84051,-24.48)"
           id="g74"><text
             id="text78"
             style="font-variant:normal;font-weight:normal;font-size:66.66665649px;font-family:ArialNarrow;-inkscape-font-specification:ArialNarrow;writing-mode:lr-tb;fill:#000000;fill-opacity:1;fill-rule:nonzero;stroke:none"
             transform="matrix(1,0,0,-1,0,1300)"><tspan
               id="tspan76"
               y="0"
               x="0 15.106666 54.679993 69.786659 103.09332 118.19999 154.63998 184.81331 199.91998 233.22664 248.33331 287.90665 330.61331 345.71997 375.89331 406.06662">INITIALIZING 320</tspan></text>
</g><g
           transform="matrix(7.874016e-5,0,0,-7.874016e-5,65.82716,145.3338)"
           id="g80"><path
             id="path82"
             style="fill:none;stroke:#000000;stroke-width:12700;stroke-linecap:butt;stroke-linejoin:miter;stroke-miterlimit:8;stroke-dasharray:none;stroke-opacity:1"
             d="M 0,0 H 1800200 V 345600 H 0 Z" /></g><g
           transform="matrix(0.24,0,0,0.24,89.01366,-186.72)"
           id="g84"><text
             id="text88"
             style="font-variant:normal;font-weight:normal;font-size:66.66665649px;font-family:ArialNarrow;-inkscape-font-specification:ArialNarrow;writing-mode:lr-tb;fill:#000000;fill-opacity:1;fill-rule:nonzero;stroke:none"
             transform="matrix(1,0,0,-1,0,1300)"><tspan
               id="tspan86"
               y="0"
               x="0 39.586662 54.706661 91.159988 127.61332 164.06665 194.25331 209.37331 248.95998 291.67996 306.79996 336.98663 367.17331">DISABLING 310</tspan></text>
</g><g
           transform="matrix(7.874016e-5,0,0,-7.874016e-5,539.4429,227.7065)"
           id="g90"><path
             id="path92"
             style="fill:none;stroke:#000000;stroke-width:12700;stroke-linecap:butt;stroke-linejoin:miter;stroke-miterlimit:8;stroke-dasharray:none;stroke-opacity:1"
             d="M 0,0 H 1645920 V 345600 H 0 Z" /></g><g
           transform="matrix(0.24,0,0,0.24,560.9304,-104.4)"
           id="g94"><text
             id="text98"
             style="font-variant:normal;font-weight:normal;font-size:66.66665649px;font-family:ArialNarrow;-inkscape-font-specification:ArialNarrow;writing-mode:lr-tb;fill:#000000;fill-opacity:1;fill-rule:nonzero;stroke:none"
             transform="matrix(1,0,0,-1,0,1300)"><tspan
               id="tspan96"
               y="0"
               x="0 39.586662 76.039993 121.35999 157.81332 172.93332 212.51997 255.23997 270.35999 300.54663 330.73331">RAMPING 370</tspan></text>
</g><g
           transform="matrix(7.874016e-5,0,0,-7.874016e-5,482.5664,145.3338)"
           id="g100"><path
             id="path102"
             style="fill:none;stroke:#000000;stroke-width:12700;stroke-linecap:butt;stroke-linejoin:miter;stroke-miterlimit:8;stroke-dasharray:none;stroke-opacity:1"
             d="M 0,0 H 1758028 V 345600 H 0 Z" /></g><g
           transform="matrix(0.24,0,0,0.24,499.5101,-186.72)"
           id="g104"><text
             id="text108"
             style="font-variant:normal;font-weight:normal;font-size:66.66665649px;font-family:ArialNarrow;-inkscape-font-specification:ArialNarrow;writing-mode:lr-tb;fill:#000000;fill-opacity:1;fill-rule:nonzero;stroke:none"
             transform="matrix(1,0,0,-1,0,1300)"><tspan
               id="tspan106"
               y="0"
               x="0 36.459995 65.786659 102.24666 138.70665 153.83331 184.02664 199.15332 232.47998 247.60664 287.19998 329.92664 345.05328 375.24664 405.43997">STABILIZING 380</tspan></text>
</g><g
           transform="matrix(7.874016e-5,0,0,-7.874016e-5,482.0807,307.5211)"
           id="g110"><path
             id="path112"
             style="fill:none;stroke:#000000;stroke-width:12700;stroke-linecap:butt;stroke-linejoin:miter;stroke-miterlimit:8;stroke-dasharray:none;stroke-opacity:1"
             d="M 0,0 H 1758028 V 345600 H 0 Z" /></g><g
           transform="matrix(0.24,0,0,0.24,506.0119,-24.48)"
           id="g114"><text
             id="text118"
             style="font-variant:normal;font-weight:normal;font-size:66.66665649px;font-family:ArialNarrow;-inkscape-font-specification:ArialNarrow;writing-mode:lr-tb;fill:#000000;fill-opacity:1;fill-rule:nonzero;stroke:none"
             transform="matrix(1,0,0,-1,0,1300)"><tspan
               id="tspan116"
               y="0"
               x="0 36.459995 65.786659 102.24666 140.90665 174.23332 189.35999 228.95331 271.67996 286.80664 316.99997 347.1933">STARTING 360</tspan></text>
</g><g
           transform="matrix(7.874016e-5,0,0,-7.874016e-5,260.9538,307.5211)"
           id="g120"><path
             id="path122"
             style="fill:none;stroke:#000000;stroke-width:12700;stroke-linecap:butt;stroke-linejoin:miter;stroke-miterlimit:8;stroke-dasharray:none;stroke-opacity:1"
             d="M 0,0 H 1872208 V 345600 H 0 Z" /></g><g
           transform="matrix(0.24,0,0,0.24,283.7677,-24.48)"
           id="g124"><text
             id="text128"
             style="font-variant:normal;font-weight:normal;font-size:66.66665649px;font-family:ArialNarrow;-inkscape-font-specification:ArialNarrow;writing-mode:lr-tb;fill:#000000;fill-opacity:1;fill-rule:nonzero;stroke:none"
             transform="matrix(1,0,0,-1,0,1300)"><tspan
               id="tspan126"
               y="0"
               x="0 36.459995 76.053329 112.51332 144.97331 181.43332 221.02664 236.15331 275.74664 318.4733 333.59998 363.7933 393.98663">PREPARING 340</tspan></text>
</g><g
           transform="matrix(7.874016e-5,0,0,-7.874016e-5,261.4394,145.3338)"
           id="g130"><path
             id="path132"
             style="fill:none;stroke:#000000;stroke-width:12700;stroke-linecap:butt;stroke-linejoin:miter;stroke-miterlimit:8;stroke-dasharray:none;stroke-opacity:1"
             d="M 0,0 H 1872208 V 345600 H 0 Z" /></g><g
           transform="matrix(0.24,0,0,0.24,286.3984,-186.72)"
           id="g134"><text
             id="text138"
             style="font-variant:normal;font-weight:normal;font-size:66.66665649px;font-family:ArialNarrow;-inkscape-font-specification:ArialNarrow;writing-mode:lr-tb;fill:#000000;fill-opacity:1;fill-rule:nonzero;stroke:none"
             transform="matrix(1,0,0,-1,0,1300)"><tspan
               id="tspan136"
               y="0"
               x="0 33.333328 48.466663 88.066658 124.53332 154.73332 169.86665 203.19998 218.33331 257.93332 300.66663 315.79996 345.99997 376.19995">FINALIZING 390</tspan></text>
</g><path
           id="path140"
           style="fill:#008000;fill-opacity:1;fill-rule:nonzero;stroke:none"
           d="m 57.39724,227.01 49.64516,51.1812 -1.4355,1.3925 -49.64525,-51.1811 z m 48.23286,44.8939 2.0762,8.4079 -8.34082,-2.3313 c -0.5319,-0.1487 -0.84256,-0.7004 -0.69389,-1.2323 0.14867,-0.5319 0.70038,-0.8426 1.23228,-0.6939 l 6.68983,1.8699 -1.2401,1.2028 -1.6652,-6.7436 c -0.1324,-0.5362 0.1949,-1.0782 0.7311,-1.2106 0.5362,-0.1324 1.0782,0.1949 1.2106,0.7311 z" /><path
           id="path142"
           style="fill:#ff6600;fill-opacity:1;fill-rule:nonzero;stroke:none"
           d="m 262.3374,227.1711 49.6452,51.1811 -1.4356,1.3925 -49.6452,-51.1811 z m 48.2328,44.8938 2.0762,8.4079 -8.3408,-2.3313 c -0.5319,-0.1487 -0.8425,-0.7004 -0.6939,-1.2323 0.1487,-0.5319 0.7004,-0.8425 1.2323,-0.6939 l 6.6898,1.8699 -1.24,1.2028 -1.6653,-6.7436 c -0.1324,-0.5362 0.195,-1.0782 0.7311,-1.2106 0.5362,-0.1324 1.0782,0.1949 1.2106,0.7311 z" /><path
           id="path144"
           style="fill:#660066;fill-opacity:1;fill-rule:nonzero;stroke:none"
           d="m 470.104,227.0105 49.6452,51.1812 -1.4356,1.3925 -49.6452,-51.1812 z m 48.2328,44.8939 2.0762,8.4079 -8.3408,-2.3313 c -0.5319,-0.1487 -0.8425,-0.7004 -0.6939,-1.2323 0.1487,-0.5319 0.7004,-0.8426 1.2323,-0.6939 l 6.6898,1.8699 -1.24,1.2028 -1.6652,-6.7437 c -0.1325,-0.5362 0.1949,-1.0781 0.7311,-1.2106 0.5361,-0.1324 1.0781,0.195 1.2105,0.7312 z" /><path
           id="path146"
           style="fill:#660066;fill-opacity:1;fill-rule:nonzero;stroke:none"
           d="m 408.3717,294.9148 71.729,-1e-4 v -2 l -71.729,1e-4 z m 66.2329,3.3637 7.4807,-4.3638 -7.4808,-4.3637 c -0.477,-0.2783 -1.0893,-0.1172 -1.3676,0.3599 -0.2783,0.477 -0.1171,1.0893 0.3599,1.3676 l 6,3.5 v -1.7275 l -6,3.5 c -0.477,0.2782 -0.6382,0.8906 -0.3599,1.3676 0.2783,0.4771 0.8906,0.6382 1.3677,0.3599 z" /><path
           id="path148"
           style="fill:#008000;fill-opacity:1;fill-rule:nonzero;stroke:none"
           d="m 311.9198,145.4937 -49.6564,52.027 1.4468,1.3808 49.6564,-52.0269 z m -48.2952,45.7287 -2.0082,8.4245 8.3217,-2.3987 c 0.5307,-0.1529 0.8369,-0.7071 0.6839,-1.2378 -0.1529,-0.5307 -0.7071,-0.8369 -1.2378,-0.6839 l -6.6745,1.9238 1.2497,1.1928 1.6107,-6.7569 c 0.1281,-0.5372 -0.2036,-1.0766 -0.7408,-1.2046 -0.5373,-0.1281 -1.0766,0.2036 -1.2047,0.7408 z" /><path
           id="path150"
           style="fill:#008000;fill-opacity:1;fill-rule:nonzero;stroke:none"
           d="m 404.6935,200.4879 -50.9022,-52.3343 1.4337,-1.3945 50.9022,52.3343 z m -49.4814,-46.049 -2.0876,-8.4051 8.344,2.32 c 0.5321,0.1479 0.8435,0.6992 0.6955,1.2313 -0.1479,0.5321 -0.6992,0.8435 -1.2313,0.6956 l -6.6924,-1.8608 1.2384,-1.2045 1.6745,6.7414 c 0.1331,0.536 -0.1935,1.0784 -0.7295,1.2115 -0.536,0.1332 -1.0784,-0.1934 -1.2116,-0.7294 z" /><path
           id="path152"
           style="fill:#ff6600;fill-opacity:1;fill-rule:nonzero;stroke:none"
           d="m 207.0895,299.4216 h 51.8844 v -2 h -51.8844 z m 46.3882,3.3638 7.4807,-4.3638 -7.4808,-4.3638 c -0.477,-0.2783 -1.0893,-0.1171 -1.3676,0.3599 -0.2783,0.4771 -0.1171,1.0894 0.3599,1.3677 l 6,3.5 v -1.7276 l -6,3.5 c -0.477,0.2783 -0.6382,0.8906 -0.3599,1.3677 0.2783,0.477 0.8906,0.6381 1.3677,0.3599 z" /><path
           id="path154"
           style="fill:#0000ff;fill-opacity:1;fill-rule:nonzero;stroke:none"
           d="m 261.4394,132.7275 -51.8843,-1e-4 v -2 l 51.8843,1e-4 z m -46.3881,3.3637 -7.4807,-4.3638 7.4807,-4.3638 c 0.4771,-0.2782 1.0894,-0.1171 1.3677,0.3599 0.2783,0.4771 0.1171,1.0894 -0.3599,1.3677 l -6,3.5 v -1.7276 l 6,3.5 c 0.477,0.2783 0.6381,0.8906 0.3599,1.3677 -0.2783,0.477 -0.8906,0.6382 -1.3677,0.3599 z" /><path
           id="path156"
           style="fill:#008000;fill-opacity:1;fill-rule:nonzero;stroke:none"
           d="m 482.5664,134.9939 h -71.7291 v -2 h 71.7291 z m -66.2329,3.3637 -7.4807,-4.3637 7.4807,-4.3638 c 0.4771,-0.2783 1.0894,-0.1172 1.3677,0.3599 0.2783,0.477 0.1171,1.0894 -0.3599,1.3676 l -6,3.5 v -1.7275 l 6,3.5 c 0.477,0.2783 0.6381,0.8906 0.3599,1.3676 -0.2783,0.4771 -0.8906,0.6382 -1.3677,0.3599 z" /><path
           id="path158"
           style="fill:#000000;fill-opacity:1;fill-rule:nonzero;stroke:none"
           d="m 106.6301,145.4937 -49.65649,52.027 1.44679,1.3808 49.6565,-52.0269 z m -48.29523,45.7287 -2.00823,8.4245 8.32171,-2.3987 c 0.53068,-0.1529 0.83688,-0.7071 0.68391,-1.2378 -0.15296,-0.5307 -0.70716,-0.8369 -1.23784,-0.6839 l -6.67449,1.9238 1.24971,1.1928 1.61072,-6.7569 c 0.12806,-0.5372 -0.20363,-1.0766 -0.74086,-1.2046 -0.53724,-0.1281 -1.07656,0.2036 -1.20463,0.7408 z" /><path
           id="path160"
           style="fill:#0000ff;fill-opacity:1;fill-rule:nonzero;stroke:none"
           d="m 233.3245,199.9539 -44.8654,-51.2729 1.5051,-1.317 44.8654,51.2728 z m -43.7776,-44.9216 -1.6422,-8.5034 8.2103,2.7561 c 0.5235,0.1758 0.8055,0.7427 0.6297,1.2663 -0.1757,0.5235 -0.7426,0.8055 -1.2662,0.6297 l -6.5851,-2.2105 1.3001,-1.1377 1.3171,6.8202 c 0.1048,0.5423 -0.2499,1.0668 -0.7922,1.1715 -0.5423,0.1047 -1.0667,-0.25 -1.1715,-0.7922 z" /><path
           id="path162"
           style="fill:#ff6600;fill-opacity:1;fill-rule:nonzero;stroke:none"
           d="m 75.22717,227.0105 49.64523,51.1812 -1.4356,1.3925 -49.64522,-51.1812 z m 48.23283,44.8939 2.0762,8.4079 -8.3408,-2.3313 c -0.5319,-0.1487 -0.8426,-0.7004 -0.6939,-1.2323 0.1487,-0.5319 0.7004,-0.8426 1.2323,-0.6939 l 6.6898,1.8699 -1.24,1.2028 -1.6653,-6.7437 c -0.1324,-0.5362 0.1949,-1.0781 0.7311,-1.2106 0.5362,-0.1324 1.0782,0.195 1.2106,0.7312 z" /><path
           id="path164"
           style="fill:#0000ff;fill-opacity:1;fill-rule:nonzero;stroke:none"
           d="m 420.5026,199.9112 -49.6565,-51.1809 1.4354,-1.3926 49.6565,51.1808 z m -48.2438,-44.8941 -2.0772,-8.4077 8.3411,2.3304 c 0.5319,0.1486 0.8427,0.7003 0.6941,1.2322 -0.1487,0.5319 -0.7003,0.8427 -1.2322,0.694 l -6.6901,-1.869 1.2399,-1.203 1.6661,6.7435 c 0.1324,0.5361 -0.1948,1.0781 -0.731,1.2106 -0.5362,0.1325 -1.0782,-0.1948 -1.2107,-0.731 z" /><path
           id="path166"
           style="fill:#660066;fill-opacity:1;fill-rule:nonzero;stroke:none"
           d="m 274.3374,226.8494 49.6452,51.1812 -1.4356,1.3925 -49.6452,-51.1812 z m 48.2328,44.8938 2.0762,8.408 -8.3408,-2.3313 c -0.5319,-0.1487 -0.8425,-0.7004 -0.6939,-1.2323 0.1487,-0.5319 0.7004,-0.8426 1.2323,-0.6939 l 6.6898,1.8699 -1.24,1.2028 -1.6653,-6.7437 c -0.1324,-0.5362 0.195,-1.0782 0.7311,-1.2105 0.5362,-0.1324 1.0782,0.1949 1.2106,0.731 z" /><path
           id="path168"
           style="fill:#0000ff;fill-opacity:1;fill-rule:nonzero;stroke:none"
           d="m 483.3346,123.6541 -71.7291,-1e-4 v -2 l 71.7291,1e-4 z m -66.2329,3.3637 -7.4808,-4.3638 7.4808,-4.3638 c 0.4771,-0.2782 1.0894,-0.1171 1.3677,0.36 0.2782,0.477 0.1171,1.0893 -0.3599,1.3676 l -6,3.5 v -1.7276 l 6,3.5 c 0.477,0.2783 0.6381,0.8906 0.3599,1.3677 -0.2783,0.477 -0.8906,0.6382 -1.3677,0.3599 z" /><path
           id="path170"
           style="fill:#660066;fill-opacity:1;fill-rule:nonzero;stroke:none"
           d="m 10.95685,91.5551 51.88439,-10e-5 v -2 l -51.88439,10e-5 z m 46.38813,3.3637 7.48076,-4.3638 -7.48078,-4.3637 c -0.47705,-0.2783 -1.08937,-0.1172 -1.36764,0.3599 -0.27828,0.477 -0.11714,1.0894 0.35991,1.3676 l 6,3.5 v -1.7275 l -6,3.5 c -0.47705,0.2783 -0.63818,0.8906 -0.3599,1.3676 0.27828,0.4771 0.8906,0.6382 1.36765,0.3599 z" /><g
           transform="matrix(0.24,0,0,0.24,79.61826,-226.56)"
           id="g172"><text
             id="text176"
             style="font-variant:normal;font-weight:normal;font-size:66.66665649px;font-family:ArialNarrow;-inkscape-font-specification:ArialNarrow;writing-mode:lr-tb;fill:#000000;fill-opacity:1;fill-rule:nonzero;stroke:none"
             transform="matrix(1,0,0,-1,0,1300)"><tspan
               id="tspan174"
               y="0"
               x="0 15.106666 45.279995 63.519993 93.693321 123.86665 138.97331 154.07999 181.71999 211.89331 242.06664 272.23996 302.4133 332.58664">target changed</tspan></text>
</g><path
           id="path178"
           style="fill:#ff6600;fill-opacity:1;fill-rule:nonzero;stroke:none"
           d="m 10.95685,25.0662 51.88439,-10e-5 v -2 l -51.88439,10e-5 z m 46.38813,3.3637 7.48076,-4.3638 -7.48078,-4.3637 c -0.47705,-0.2783 -1.08937,-0.1172 -1.36764,0.3599 -0.27828,0.477 -0.11714,1.0894 0.35991,1.3676 l 6,3.5 v -1.7275 l -6,3.5 c -0.47705,0.2783 -0.63818,0.8906 -0.3599,1.3676 0.27828,0.4771 0.8906,0.6382 1.36765,0.3599 z" /><g
           transform="matrix(0.24,0,0,0.24,79.61826,-293.04)"
           id="g180"><text
             id="text184"
             style="font-variant:normal;font-weight:normal;font-size:66.66665649px;font-family:ArialNarrow;-inkscape-font-specification:ArialNarrow;writing-mode:lr-tb;fill:#000000;fill-opacity:1;fill-rule:nonzero;stroke:none"
             transform="matrix(1,0,0,-1,0,1300)"><tspan
               id="tspan182"
               y="0"
               x="0 45.313328 75.493324 105.67332 135.85332 150.96664 182.74664 197.85999 228.03998 258.21997 273.33331 291.57996 328.02664 367.60663 404.05328 436.49997 472.94662 512.52661 548.97327 588.55328">mode = 50 (PREPARED)</tspan></text>
</g><path
           id="path186"
           style="fill:#008000;fill-opacity:1;fill-rule:nonzero;stroke:none"
           d="m 10.95685,47.7459 51.88439,-10e-5 v -2 l -51.88439,10e-5 z m 46.38813,3.3637 7.48076,-4.3638 -7.48078,-4.3637 c -0.47705,-0.2783 -1.08937,-0.1172 -1.36764,0.3599 -0.27828,0.477 -0.11714,1.0894 0.35991,1.3676 l 6,3.5 v -1.7275 l -6,3.5 c -0.47705,0.2783 -0.63818,0.8906 -0.3599,1.3676 0.27828,0.4771 0.8906,0.6382 1.36765,0.3599 z" /><g
           transform="matrix(0.24,0,0,0.24,79.61826,-270.24)"
           id="g188"><text
             id="text192"
             style="font-variant:normal;font-weight:normal;font-size:66.66665649px;font-family:ArialNarrow;-inkscape-font-specification:ArialNarrow;writing-mode:lr-tb;fill:#000000;fill-opacity:1;fill-rule:nonzero;stroke:none"
             transform="matrix(1,0,0,-1,0,1300)"><tspan
               id="tspan190"
               y="0"
               x="0 45.313328 75.493324 105.67332 135.85332 150.96664 182.74664 197.85999 228.03998 258.21997 273.33331 291.57996 328.02664 357.33997 393.78662 433.36664 472.94662 509.39328 545.83997">mode = 30 (STANDBY)</tspan></text>
</g><path
           id="path194"
           style="fill:#0000ff;fill-opacity:1;fill-rule:nonzero;stroke:none"
           d="m 10.95685,70.4256 51.88439,-1e-4 v -2 l -51.88439,1e-4 z m 46.38813,3.3637 7.48076,-4.3638 -7.48078,-4.3637 c -0.47705,-0.2783 -1.08937,-0.1172 -1.36764,0.3599 -0.27828,0.477 -0.11714,1.0893 0.35991,1.3676 l 6,3.5 v -1.7276 l -6,3.5001 c -0.47705,0.2782 -0.63818,0.8906 -0.3599,1.3676 0.27828,0.4771 0.8906,0.6382 1.36765,0.3599 z" /><g
           transform="matrix(0.24,0,0,0.24,79.61826,-247.68)"
           id="g196"><text
             id="text200"
             style="font-variant:normal;font-weight:normal;font-size:66.66665649px;font-family:ArialNarrow;-inkscape-font-specification:ArialNarrow;writing-mode:lr-tb;fill:#000000;fill-opacity:1;fill-rule:nonzero;stroke:none"
             transform="matrix(1,0,0,-1,0,1300)"><tspan
               id="tspan198"
               y="0"
               x="0 45.313328 75.493324 105.67332 135.85332 150.96664 182.74664 197.85999 228.03998 243.15331 261.39996 300.97998 316.09329 352.53998 388.98663 425.43329 455.61328 492.05994 531.63995">mode = 0 (DISABLED)</tspan></text>
</g><path
           id="path202"
           style="fill:#008000;fill-opacity:1;fill-rule:nonzero;stroke:none"
           d="m 181.1834,281.1658 49.6452,-51.1812 -1.4356,-1.3925 -49.6452,51.1812 z m 48.2328,-44.8938 2.0762,-8.408 -8.3408,2.3313 c -0.5319,0.1487 -0.8425,0.7004 -0.6939,1.2323 0.1487,0.5319 0.7004,0.8426 1.2323,0.6939 l 6.6898,-1.8699 -1.24,-1.2028 -1.6653,6.7437 c -0.1324,0.5362 0.195,1.0782 0.7311,1.2105 0.5362,0.1324 1.0782,-0.1949 1.2106,-0.731 z" /><path
           id="path204"
           style="fill:#ff6600;fill-opacity:1;fill-rule:nonzero;stroke:none"
           d="m 375.6955,280.8441 49.6452,-51.1811 -1.4356,-1.3925 -49.6452,51.1811 z m 48.2328,-44.8938 2.0762,-8.408 -8.3408,2.3314 c -0.5319,0.1487 -0.8425,0.7004 -0.6939,1.2323 0.1487,0.5319 0.7004,0.8425 1.2323,0.6939 l 6.6898,-1.8699 -1.24,-1.2028 -1.6653,6.7436 c -0.1324,0.5362 0.195,1.0782 0.7311,1.2106 0.5362,0.1324 1.0782,-0.1949 1.2106,-0.7311 z" /><path
           id="path206"
           style="fill:#000000;fill-opacity:1;fill-rule:nonzero;stroke:none"
           d="m 552.0122,280.5433 49.6452,-51.1811 -1.4356,-1.3925 -49.6452,51.1811 z m 48.2328,-44.8938 2.0763,-8.4079 -8.3409,2.3313 c -0.5319,0.1487 -0.8425,0.7004 -0.6939,1.2323 0.1487,0.5319 0.7004,0.8425 1.2323,0.6939 l 6.6898,-1.8699 -1.24,-1.2028 -1.6652,6.7436 c -0.1324,0.5362 0.1949,1.0782 0.7311,1.2106 0.5361,0.1324 1.0781,-0.1949 1.2105,-0.7311 z" /><path
           id="path208"
           style="fill:#000000;fill-opacity:1;fill-rule:nonzero;stroke:none"
           d="m 601.6002,199.9112 -49.6452,-51.1811 1.4356,-1.3925 49.6452,51.1811 z m -48.2328,-44.8938 -2.0762,-8.408 8.3408,2.3314 c 0.5319,0.1487 0.8425,0.7004 0.6939,1.2323 -0.1487,0.5319 -0.7004,0.8425 -1.2323,0.6939 l -6.6898,-1.8699 1.24,-1.2028 1.6653,6.7436 c 0.1324,0.5362 -0.195,1.0782 -0.7311,1.2106 -0.5362,0.1324 -1.0782,-0.1949 -1.2106,-0.7311 z" /><path
           id="path210"
           style="fill:#ff6600;fill-opacity:1;fill-rule:nonzero;stroke:none"
           d="m 519.692,145.9165 -49.6452,51.1811 1.4355,1.3926 49.6452,-51.1812 z m -48.2329,44.8938 -2.0762,8.408 8.3408,-2.3314 c 0.5319,-0.1486 0.8426,-0.7003 0.6939,-1.2322 -0.1487,-0.5319 -0.7004,-0.8426 -1.2323,-0.6939 l -6.6898,1.8698 1.2401,1.2029 1.6652,-6.7437 c 0.1324,-0.5362 -0.1949,-1.0782 -0.7311,-1.2106 -0.5362,-0.1324 -1.0782,0.195 -1.2106,0.7311 z" /></g></g></g></svg>