<?xml version="1.0" encoding="UTF-8" standalone="no"?>
<!DOCTYPE svg PUBLIC "-//W3C//DTD SVG 1.1//EN"
 "http://www.w3.org/Graphics/SVG/1.1/DTD/svg11.dtd">
<!-- Generated by graphviz version 2.36.0 (20140111.2315)
 -->
<!-- Title: simple Pages: 1 -->
<svg width="275pt" height="224pt"
 viewBox="0.00 0.00 275.18 224.00" xmlns="http://www.w3.org/2000/svg" xmlns:xlink="http://www.w3.org/1999/xlink">
<g id="graph0" class="graph" transform="scale(1 1) rotate(0) translate(4 220)">
<title>simple</title>
<polygon fill="white" stroke="none" points="-4,4 -4,-220 271.176,-220 271.176,4 -4,4"/>
<!-- _box -->
<g id="node1" class="node"><title>_box</title>
<polygon fill="#e5e5e5" stroke="black" stroke-dasharray="1,5" points="133,-216 0,-216 0,-0 133,-0 133,-216"/>
<text text-anchor="middle" x="66.5" y="-149.3" font-family="Times,serif" font-size="14.00"> </text>
<text text-anchor="middle" x="66.5" y="-134.3" font-family="Times,serif" font-size="14.00"> </text>
<text text-anchor="middle" x="66.5" y="-119.3" font-family="Times,serif" font-size="14.00"> </text>
<text text-anchor="middle" x="66.5" y="-104.3" font-family="Times,serif" font-size="14.00"> </text>
<text text-anchor="middle" x="66.5" y="-89.3" font-family="Times,serif" font-size="14.00"> </text>
<text text-anchor="middle" x="66.5" y="-74.3" font-family="Times,serif" font-size="14.00">Busy &#160;&#160;&#160;&#160;&#160;&#160;&#160;&#160;&#160;&#160;&#160;&#160;&#160;&#160;&#160;&#160;&#160;&#160;&#160;&#160;&#160;&#160;</text>
<text text-anchor="middle" x="66.5" y="-59.3" font-family="Times,serif" font-size="14.00">states &#160;&#160;&#160;&#160;&#160;&#160;&#160;&#160;&#160;&#160;&#160;&#160;&#160;&#160;&#160;&#160;&#160;&#160;&#160;&#160;&#160;&#160;</text>
</g>
<!-- Busy -->
<g id="node2" class="node"><title>Busy</title>
<ellipse fill="white" stroke="black" cx="80.9" cy="-108" rx="42.4939" ry="18"/>
<text text-anchor="middle" x="80.9" y="-104.3" font-family="Times,serif" font-size="14.00">Working</text>
</g>
<!-- Stopping -->
<g id="node4" class="node"><title>Stopping</title>
<ellipse fill="white" stroke="black" cx="80.9" cy="-180" rx="42.4939" ry="18"/>
<text text-anchor="middle" x="80.9" y="-176.3" font-family="Times,serif" font-size="14.00">Stopping</text>
</g>
<!-- Busy&#45;&gt;Stopping -->
<g id="edge3" class="edge"><title>Busy&#45;&gt;Stopping</title>
<path fill="none" stroke="black" d="M80.9,-126.169C80.9,-133.869 80.9,-143.026 80.9,-151.583"/>
<polygon fill="black" stroke="black" points="77.4001,-151.587 80.9,-161.587 84.4001,-151.587 77.4001,-151.587"/>
<text text-anchor="middle" x="69.4" y="-142.676" font-family="Times,serif" font-size="14.00">stop</text>
</g>
<!-- Ready -->
<g id="node5" class="node"><title>Ready</title>
<ellipse fill="none" stroke="black" cx="224.9" cy="-108" rx="33.2948" ry="18"/>
<text text-anchor="middle" x="224.9" y="-104.3" font-family="Times,serif" font-size="14.00">Ready</text>
</g>
<!-- Busy&#45;&gt;Ready -->
<g id="edge5" class="edge"><title>Busy&#45;&gt;Ready</title>
<path fill="none" stroke="blue" d="M123.326,-108C141.581,-108 162.905,-108 181.29,-108"/>
<polygon fill="blue" stroke="blue" points="181.445,-111.5 191.445,-108 181.445,-104.5 181.445,-111.5"/>
<text text-anchor="middle" x="167.808" y="-111.8" font-family="Times,serif" font-size="14.00" fill="blue">finish</text>
</g>
<!-- Error -->
<g id="node6" class="node"><title>Error</title>
<ellipse fill="none" stroke="red" cx="224.9" cy="-36" rx="29.4969" ry="18"/>
<text text-anchor="middle" x="224.9" y="-32.3" font-family="Times,serif" font-size="14.00" fill="red">Error</text>
</g>
<!-- Busy&#45;&gt;Error -->
<g id="edge6" class="edge"><title>Busy&#45;&gt;Error</title>
<path fill="none" stroke="blue" d="M108.324,-94.2879C132.347,-82.2764 167.285,-64.8075 192.644,-52.128"/>
<polygon fill="blue" stroke="blue" points="194.472,-55.1271 201.851,-47.5244 191.342,-48.8661 194.472,-55.1271"/>
</g>
<!-- Preparing -->
<g id="node3" class="node"><title>Preparing</title>
<ellipse fill="white" stroke="black" cx="80.9" cy="-36" rx="44.6926" ry="18"/>
<text text-anchor="middle" x="80.9" y="-32.3" font-family="Times,serif" font-size="14.00">Preparing</text>
</g>
<!-- Preparing&#45;&gt;Busy -->
<g id="edge2" class="edge"><title>Preparing&#45;&gt;Busy</title>
<path fill="none" stroke="blue" d="M80.9,-54.1686C80.9,-61.869 80.9,-71.0257 80.9,-79.5834"/>
<polygon fill="blue" stroke="blue" points="77.4001,-79.5867 80.9,-89.5867 84.4001,-79.5868 77.4001,-79.5867"/>
</g>
<!-- Stopping&#45;&gt;Ready -->
<g id="edge4" class="edge"><title>Stopping&#45;&gt;Ready</title>
<path fill="none" stroke="blue" d="M108.324,-166.288C131.913,-154.494 166.026,-137.437 191.26,-124.82"/>
<polygon fill="blue" stroke="blue" points="193.077,-127.825 200.456,-120.222 189.946,-121.564 193.077,-127.825"/>
</g>
<!-- Ready&#45;&gt;Preparing -->
<g id="edge1" class="edge"><title>Ready&#45;&gt;Preparing</title>
<path fill="none" stroke="black" d="M200.472,-95.7862C177.961,-84.5304 144.219,-67.6594 118.312,-54.7062"/>
<polygon fill="black" stroke="black" points="119.667,-51.4706 109.158,-50.1289 116.537,-57.7316 119.667,-51.4706"/>
<text text-anchor="middle" x="170.669" y="-88.6562" font-family="Times,serif" font-size="14.00">start</text>
</g>
<!-- Disabled -->
<g id="node7" class="node"><title>Disabled</title>
<ellipse fill="#e5e5e5" stroke="black" cx="224.9" cy="-180" rx="42.4939" ry="18"/>
<text text-anchor="middle" x="224.9" y="-176.3" font-family="Times,serif" font-size="14.00">Disabled</text>
</g>
<!-- Ready&#45;&gt;Disabled -->
<g id="edge8" class="edge"><title>Ready&#45;&gt;Disabled</title>
<path fill="none" stroke="black" d="M218.984,-125.798C218.195,-133.673 217.965,-143.125 218.297,-151.915"/>
<polygon fill="black" stroke="black" points="214.822,-152.412 218.98,-162.157 221.807,-151.947 214.822,-152.412"/>
<text text-anchor="middle" x="199.141" y="-142.656" font-family="Times,serif" font-size="14.00">disable</text>
</g>
<!-- Error&#45;&gt;Ready -->
<g id="edge7" class="edge"><title>Error&#45;&gt;Ready</title>
<path fill="none" stroke="black" d="M224.9,-54.1686C224.9,-61.869 224.9,-71.0257 224.9,-79.5834"/>
<polygon fill="black" stroke="black" points="221.4,-79.5868 224.9,-89.5867 228.4,-79.5867 221.4,-79.5868"/>
<text text-anchor="middle" x="211.9" y="-70.676" font-family="Times,serif" font-size="14.00">reset</text>
</g>
<!-- Disabled&#45;&gt;Ready -->
<g id="edge9" class="edge"><title>Disabled&#45;&gt;Ready</title>
<path fill="none" stroke="black" d="M230.852,-161.831C231.614,-154.012 231.83,-144.692 231.5,-136.022"/>
<polygon fill="black" stroke="black" points="234.984,-135.659 230.827,-125.913 228,-136.124 234.984,-135.659"/>
<text text-anchor="middle" x="249.176" y="-137.727" font-family="Times,serif" font-size="14.00">enable</text>
</g>
</g>
</svg>
