<?xml version="1.0" encoding="UTF-8" standalone="no"?>
<!DOCTYPE svg PUBLIC "-//W3C//DTD SVG 1.1//EN"
 "http://www.w3.org/Graphics/SVG/1.1/DTD/svg11.dtd">
<!-- Generated by graphviz version 2.36.0 (20140111.2315)
 -->
<!-- Title: simple Pages: 1 -->
<svg width="287pt" height="224pt"
 viewBox="0.00 0.00 286.85 224.00" xmlns="http://www.w3.org/2000/svg" xmlns:xlink="http://www.w3.org/1999/xlink">
<g id="graph0" class="graph" transform="scale(1 1) rotate(0) translate(4 220)">
<title>simple</title>
<polygon fill="white" stroke="none" points="-4,4 -4,-220 282.845,-220 282.845,4 -4,4"/>
<!-- _box -->
<g id="node1" class="node"><title>_box</title>
<polygon fill="#e5e5e5" stroke="black" stroke-dasharray="1,5" points="133,-216 0,-216 0,-0 133,-0 133,-216"/>
<text text-anchor="middle" x="66.5" y="-149.3" font-family="Times,serif" font-size="14.00"> </text>
<text text-anchor="middle" x="66.5" y="-134.3" font-family="Times,serif" font-size="14.00"> </text>
<text text-anchor="middle" x="66.5" y="-119.3" font-family="Times,serif" font-size="14.00"> </text>
<text text-anchor="middle" x="66.5" y="-104.3" font-family="Times,serif" font-size="14.00"> </text>
<text text-anchor="middle" x="66.5" y="-89.3" font-family="Times,serif" font-size="14.00"> </text>
<text text-anchor="middle" x="66.5" y="-74.3" font-family="Times,serif" font-size="14.00">Busy &#160;&#160;&#160;&#160;&#160;&#160;&#160;&#160;&#160;&#160;&#160;&#160;&#160;&#160;&#160;&#160;&#160;&#160;&#160;&#160;&#160;&#160;</text>
<text text-anchor="middle" x="66.5" y="-59.3" font-family="Times,serif" font-size="14.00">states &#160;&#160;&#160;&#160;&#160;&#160;&#160;&#160;&#160;&#160;&#160;&#160;&#160;&#160;&#160;&#160;&#160;&#160;&#160;&#160;&#160;&#160;</text>
</g>
<!-- Busy -->
<g id="node2" class="node"><title>Busy</title>
<ellipse fill="white" stroke="black" cx="80.9" cy="-108" rx="53.8905" ry="18"/>
<text text-anchor="middle" x="80.9" y="-104.3" font-family="Times,serif" font-size="14.00">WORKING</text>
</g>
<!-- Stopping -->
<g id="node4" class="node"><title>Stopping</title>
<ellipse fill="white" stroke="black" cx="80.9" cy="-180" rx="52.7911" ry="18"/>
<text text-anchor="middle" x="80.9" y="-176.3" font-family="Times,serif" font-size="14.00">STOPPING</text>
</g>
<!-- Busy&#45;&gt;Stopping -->
<g id="edge3" class="edge"><title>Busy&#45;&gt;Stopping</title>
<path fill="none" stroke="black" d="M80.9,-126.169C80.9,-133.869 80.9,-143.026 80.9,-151.583"/>
<polygon fill="black" stroke="black" points="77.4001,-151.587 80.9,-161.587 84.4001,-151.587 77.4001,-151.587"/>
<text text-anchor="middle" x="69.4" y="-142.676" font-family="Times,serif" font-size="14.00">stop</text>
</g>
<!-- Ready -->
<g id="node5" class="node"><title>Ready</title>
<ellipse fill="none" stroke="black" cx="224.9" cy="-108" rx="27" ry="18"/>
<text text-anchor="middle" x="224.9" y="-104.3" font-family="Times,serif" font-size="14.00">Idle</text>
</g>
<!-- Busy&#45;&gt;Ready -->
<g id="edge5" class="edge"><title>Busy&#45;&gt;Ready</title>
<path fill="none" stroke="blue" d="M134.93,-108C152.475,-108 171.54,-108 187.586,-108"/>
<polygon fill="blue" stroke="blue" points="187.648,-111.5 197.648,-108 187.648,-104.5 187.648,-111.5"/>
<text text-anchor="middle" x="176.758" y="-111.8" font-family="Times,serif" font-size="14.00" fill="blue">finish</text>
</g>
<!-- Error -->
<g id="node6" class="node"><title>Error</title>
<ellipse fill="none" stroke="red" cx="224.9" cy="-36" rx="29.4969" ry="18"/>
<text text-anchor="middle" x="224.9" y="-32.3" font-family="Times,serif" font-size="14.00" fill="red">Error</text>
</g>
<!-- Busy&#45;&gt;Error -->
<g id="edge6" class="edge"><title>Busy&#45;&gt;Error</title>
<path fill="none" stroke="blue" d="M111.087,-92.9064C134.968,-80.9661 168.24,-64.3301 192.642,-52.1288"/>
<polygon fill="blue" stroke="blue" points="194.47,-55.1283 201.849,-47.5256 191.339,-48.8673 194.47,-55.1283"/>
</g>
<!-- Preparing -->
<g id="node3" class="node"><title>Preparing</title>
<ellipse fill="white" stroke="black" cx="80.9" cy="-36" rx="59.5901" ry="18"/>
<text text-anchor="middle" x="80.9" y="-32.3" font-family="Times,serif" font-size="14.00">PREPARING</text>
</g>
<!-- Preparing&#45;&gt;Busy -->
<g id="edge2" class="edge"><title>Preparing&#45;&gt;Busy</title>
<path fill="none" stroke="blue" d="M80.9,-54.1686C80.9,-61.869 80.9,-71.0257 80.9,-79.5834"/>
<polygon fill="blue" stroke="blue" points="77.4001,-79.5867 80.9,-89.5867 84.4001,-79.5868 77.4001,-79.5867"/>
</g>
<!-- Stopping&#45;&gt;Ready -->
<g id="edge4" class="edge"><title>Stopping&#45;&gt;Ready</title>
<path fill="none" stroke="blue" d="M110.737,-165.082C135.027,-152.936 169.203,-135.848 193.823,-123.539"/>
<polygon fill="blue" stroke="blue" points="195.697,-126.515 203.076,-118.912 192.566,-120.254 195.697,-126.515"/>
</g>
<!-- Ready&#45;&gt;Preparing -->
<g id="edge1" class="edge"><title>Ready&#45;&gt;Preparing</title>
<path fill="none" stroke="black" d="M203.03,-97.0647C181.282,-86.1909 147.421,-69.2604 120.864,-55.9819"/>
<polygon fill="black" stroke="black" points="122.316,-52.7951 111.807,-51.4534 119.186,-59.0561 122.316,-52.7951"/>
<text text-anchor="middle" x="173.226" y="-89.9348" font-family="Times,serif" font-size="14.00">start</text>
</g>
<!-- Ready&#45;&gt;Error -->
<g id="edge10" class="edge"><title>Ready&#45;&gt;Error</title>
<path fill="none" stroke="blue" d="M230.816,-90.2022C231.605,-82.3271 231.835,-72.875 231.503,-64.0852"/>
<polygon fill="blue" stroke="blue" points="234.978,-63.5876 230.82,-53.8425 227.993,-64.0532 234.978,-63.5876"/>
</g>
<!-- Disabled -->
<g id="node7" class="node"><title>Disabled</title>
<ellipse fill="#e5e5e5" stroke="black" cx="224.9" cy="-180" rx="53.8905" ry="18"/>
<text text-anchor="middle" x="224.9" y="-176.3" font-family="Times,serif" font-size="14.00">DISABLED</text>
</g>
<!-- Ready&#45;&gt;Disabled -->
<g id="edge8" class="edge"><title>Ready&#45;&gt;Disabled</title>
<path fill="none" stroke="black" d="M218.984,-125.798C218.2,-133.614 217.969,-142.983 218.29,-151.716"/>
<polygon fill="black" stroke="black" points="214.811,-152.156 218.955,-161.907 221.796,-151.7 214.811,-152.156"/>
<text text-anchor="middle" x="199.137" y="-142.557" font-family="Times,serif" font-size="14.00">disable</text>
</g>
<!-- Error&#45;&gt;Ready -->
<g id="edge7" class="edge"><title>Error&#45;&gt;Ready</title>
<path fill="none" stroke="black" d="M218.984,-53.7978C218.18,-61.8193 217.957,-71.4769 218.316,-80.4043"/>
<polygon fill="black" stroke="black" points="214.826,-80.6711 219.005,-90.407 221.81,-80.1901 214.826,-80.6711"/>
<text text-anchor="middle" x="205.65" y="-70.901" font-family="Times,serif" font-size="14.00">reset</text>
</g>
<!-- Disabled&#45;&gt;Ready -->
<g id="edge9" class="edge"><title>Disabled&#45;&gt;Ready</title>
<path fill="none" stroke="black" d="M230.852,-161.831C231.614,-154.012 231.83,-144.692 231.5,-136.022"/>
<polygon fill="black" stroke="black" points="234.984,-135.659 230.827,-125.913 228,-136.124 234.984,-135.659"/>
<text text-anchor="middle" x="249.176" y="-137.727" font-family="Times,serif" font-size="14.00">enable</text>
</g>
</g>
</svg>
