<svg class="railroad" viewBox="0 0 522 162" width="522" xmlns="http://www.w3.org/2000/svg">
<style type="text/css">

    svg.railroad {
        background-color: hsl(30, 20%, 95%);
        background-size: 15px 15px;
        background-image: linear-gradient(to right, rgba(30, 30, 30, .05) 1px, transparent 1px),
                          linear-gradient(to bottom, rgba(30, 30, 30, .05) 1px, transparent 1px);
    }

    svg.railroad path {
        stroke-width: 3px;
        stroke: black;
        fill: transparent;
    }

    svg.railroad .debug {
        stroke-width: 1px;
        stroke: red;
    }

    svg.railroad text {
        font: 14px monospace;
        text-anchor: middle;
    }

    svg.railroad .nonterminal text {
        font-weight: bold;
    }

    svg.railroad text.comment {
        font: italic 12px monospace;
    }

    svg.railroad rect {
        stroke-width: 3px;
        stroke: black;
        fill:hsl(-290, 70%, 90%);
    }

    svg.railroad g.labeledbox &gt; rect {
        stroke-width: 1px;
        stroke: grey;
        stroke-dasharray: 5px;
        fill:rgba(90, 90, 150, .1);
    }</style>
<g class="sequence">
<path d=" M 10 93 a 5 5 0 0 1 5 -5 a 5 5 0 0 1 5 5 a 5 5 0 0 1 -5 5 a 5 5 0 0 1 -5 -5 m 10 0 h 5"/>
<g class="sequence">
<text class="comment" x="96" y="98">
structure-report</text>
<g class="labeledbox">
<rect height="142" width="320" x="167" y="10"/>
<path d=" M 167 93 h 8 m 304 0 h 8"/>
<text class="comment" x="232" y="33">
proposed change</text>
<g class="sequence">
<g class="terminal">
<rect height="22" rx="10" ry="10" width="28" x="175" y="82"/>
<text x="189" y="98">
[</text>
</g>
<g class="repeat">
<path d=" M 213 93 h 12 m 204 0 h 12 m -12 0 a 12 12 0 0 1 12 12 v 16 a 12 12 0 0 1 -12 12 m -28 0 h -176 m 91 0 l 5 -5 m 0 10 l -5 -5 m -91 0 a 12 12 0 0 1 -12 -12 v -16 a 12 12 0 0 1 12 -12"/>
<g class="terminal">
<rect height="22" rx="10" ry="10" width="28" x="401" y="122"/>
<text x="415" y="138">
,</text>
</g>
<g class="sequence">
<g class="labeledbox">
<rect height="66" width="204" x="225" y="46"/>
<path d=" M 225 93 h 8 m 188 0 h 8"/>
<text class="comment" x="301" y="69">
current definition</text>
<g class="nonterminal">
<rect height="22" width="188" x="233" y="82"/>
<text x="327" y="98">
SEC-node-description</text>
</g>
</g>
</g>
</g>
<g class="terminal">
<rect height="22" rx="10" ry="10" width="28" x="451" y="82"/>
<text x="465" y="98">
]</text>
</g>
<path d=" M 203 93 h 10"/>
<path d=" M 441 93 h 10"/>
</g>
</g>
<path d=" M 157 93 h 10"/>
</g>
<path d=" M 497 93 h 5 a 5 5 0 0 1 5 -5 a 5 5 0 0 1 5 5 a 5 5 0 0 1 -5 5 a 5 5 0 0 1 -5 -5"/>
<path d=" M 25 93 h 10"/>
<path d=" M 487 93 h 10"/>
</g>
</svg>