<svg class="railroad" viewBox="0 0 345 194" width="345" xmlns="http://www.w3.org/2000/svg">
<style type="text/css">

    svg.railroad {
        background-color: hsl(30, 20%, 95%);
        background-size: 15px 15px;
        background-image: linear-gradient(to right, rgba(30, 30, 30, .05) 1px, transparent 1px),
                          linear-gradient(to bottom, rgba(30, 30, 30, .05) 1px, transparent 1px);
    }

    svg.railroad path {
        stroke-width: 3px;
        stroke: black;
        fill: transparent;
    }

    svg.railroad .debug {
        stroke-width: 1px;
        stroke: red;
    }

    svg.railroad text {
        font: 14px monospace;
        text-anchor: middle;
    }

    svg.railroad .nonterminal text {
        font-weight: bold;
    }

    svg.railroad text.comment {
        font: italic 12px monospace;
    }

    svg.railroad rect {
        stroke-width: 3px;
        stroke: black;
        fill:hsl(-290, 70%, 90%);
    }

    svg.railroad g.labeledbox &gt; rect {
        stroke-width: 1px;
        stroke: grey;
        stroke-dasharray: 5px;
        fill:rgba(90, 90, 150, .1);
    }</style>
<g class="verticalgrid">
<g class="sequence">
<g class="sequence">
<g>
<text class="comment" x="32" y="62">
token</text>
</g>
<g class="labeledbox">
<rect height="96" width="250" x="65" y="10"/>
<path d=" M 65 57 h 8 m 118 0 h 124 m -59 0 l -5 -5 m 0 10 l 5 -5 m 59 0"/>
<g>
<text class="comment" x="190" y="33">
SHOULD restrict to chars+digits</text>
</g>
<g class="repeat">
<path d=" M 73 57 h 12 m 92 0 h 14 m -12 0 a 12 12 0 0 1 12 12 v 7 a 12 12 0 0 1 -12 12 m -94 0 h 0 a 12 12 0 0 1 -12 -12 v -7 a 12 12 0 0 1 12 -12"/>
<g>
<text class="comment" x="132" y="93">
max 63 times</text>
</g>
<g class="nonterminal">
<rect height="22" width="92" x="85" y="46"/>
<text x="131" y="62">
printable</text>
</g>
</g>
</g>
<path d=" M 55 57 h 10"/>
</g>
<path d=" M 325 57 h 5 m -5 5 l 5 -5 l -5 -5 m 5 5"/>
<path d=" M 315 57 h 10"/>
</g>
<g class="sequence">
<g class="sequence">
<g>
<text class="comment" x="46" y="170">
printable</text>
</g>
<g class="labeledbox">
<rect height="66" width="222" x="93" y="118"/>
<path d=" M 93 165 h 8 m 92 0 h 122 m -58 0 l -5 -5 m 0 10 l 5 -5 m 58 0"/>
<g>
<text class="comment" x="204" y="141">
any char with value 33..127</text>
</g>
<g class="terminal">
<rect height="22" rx="10" ry="10" width="92" x="101" y="154"/>
<text x="147" y="170">
[x21-x7f]</text>
</g>
</g>
<path d=" M 83 165 h 10"/>
</g>
<path d=" M 325 165 h 5 m -5 5 l 5 -5 l -5 -5 m 5 5"/>
<path d=" M 315 165 h 10"/>
</g>
</g>
</svg>