<svg class="railroad" viewBox="0 0 310 150" width="248pt" xmlns="http://www.w3.org/2000/svg">
<style type="text/css">

    svg.railroad {
        background-color: hsl(30, 20%, 95%);
        background-size: 15px 15px;
        background-image: linear-gradient(to right, rgba(30, 30, 30, .05) 1px, transparent 1px),
                          linear-gradient(to bottom, rgba(30, 30, 30, .05) 1px, transparent 1px);
    }

    svg.railroad path {
        stroke-width: 3px;
        stroke: black;
        fill: transparent;
    }

    svg.railroad .debug {
        stroke-width: 1px;
        stroke: red;
    }

    svg.railroad text {
        font: 14px monospace;
        text-anchor: middle;
    }

    svg.railroad .nonterminal text {
        font-weight: bold;
    }

    svg.railroad text.comment {
        font: italic 12px monospace;
    }

    svg.railroad rect {
        stroke-width: 3px;
        stroke: black;
        fill:hsl(-290, 70%, 90%);
    }

    svg.railroad g.labeledbox > rect {
        stroke-width: 1px;
        stroke: grey;
        stroke-dasharray: 5px;
        fill:rgba(90, 90, 150, .1);
    }</style>
<g class="verticalgrid">
<g class="horizontalgrid">
<g class="nonterminal">
<rect height="22" width="60" x="10" y="10"/>
<text x="40" y="26">
token</text>
</g>
</g>
<g class="sequence">
<path d=" M 10 86 l 5 5 l -5 5 m 5 -5 h 5"/>
<g class="sequence">
<g class="labeledbox">
<rect height="96" width="250" x="30" y="44"/>
<path d=" M 30 91 h 8 m 118 0 h 124 m -59 0 l -5 -5 m 0 10 l 5 -5 m 59 0"/>
<g>
<text class="comment" x="155" y="67">
SHOULD restrict to chars+digits</text>
</g>
<g class="repeat">
<path d=" M 38 91 h 12 m 52 0 h 54 m -24 0 l -5 -5 m 0 10 l 5 -5 m 24 0 m -12 0 a 12 12 0 0 1 12 12 v 7 a 12 12 0 0 1 -12 12 m -94 0 h 0 a 12 12 0 0 1 -12 -12 v -7 a 12 12 0 0 1 12 -12"/>
<g>
<text class="comment" x="97" y="127">
max 63 times</text>
</g>
<g class="nonterminal">
<rect height="22" width="52" x="50" y="80"/>
<text x="76" y="96">
char</text>
</g>
</g>
</g>
</g>
<path d=" M 290 91 h 5 m -5 5 l 5 -5 l -5 -5 m 5 5"/>
<path d=" M 20 91 h 10"/>
<path d=" M 280 91 h 10"/>
</g>
</g>
</svg>
